<svg width="100" height="100" viewBox="0 0 100 100" fill="none" xmlns="http://www.w3.org/2000/svg">
<path d="M74.1094 37.8306L56.6094 32.3619C56.3961 32.2962 56.1664 32.2962 55.9532 32.3619L38.4532 37.8306C37.9965 37.9755 37.6875 38.3966 37.6875 38.8752V44.3439C37.6875 44.6338 37.8023 44.9127 38.0074 45.1178C38.2125 45.3229 38.4914 45.4377 38.7813 45.4377H40.9688V48.7189C40.9688 49.0088 41.0836 49.2877 41.2887 49.4928C41.4938 49.6979 41.7727 49.8127 42.0625 49.8127V58.5627C41.4582 58.5627 40.9688 59.0522 40.9688 59.6565V62.9377H38.7813C38.177 62.9377 37.6875 63.4272 37.6875 64.0314V68.4064C37.6875 68.6963 37.8024 68.9752 38.0075 69.1803C38.2125 69.3854 38.4915 69.5002 38.7813 69.5002H73.7813C74.0712 69.5002 74.3501 69.3854 74.5552 69.1803C74.7603 68.9752 74.8751 68.6963 74.8751 68.4064V64.0314C74.8751 63.7416 74.7602 63.4627 74.5552 63.2576C74.3501 63.0525 74.0712 62.9377 73.7813 62.9377H71.5938V59.6564C71.5938 59.3666 71.479 59.0877 71.2739 58.8826C71.0688 58.6775 70.7899 58.5627 70.5 58.5627V49.8127C70.7899 49.8127 71.0688 49.6978 71.2739 49.4927C71.479 49.2877 71.5938 49.0088 71.5938 48.7189V45.4376H73.7813C74.0712 45.4376 74.3501 45.3228 74.5552 45.1177C74.7603 44.9126 74.8751 44.6337 74.8751 44.3439V38.8751C74.8751 38.3966 74.5661 37.9755 74.1094 37.8306L74.1094 37.8306ZM47.5311 45.4375V47.625H43.1561V45.4375H47.5311ZM63.9377 49.8125V58.5625C63.3334 58.5625 62.844 59.052 62.844 59.6563V62.9375H49.719V59.6563C49.719 59.3664 49.6041 59.0875 49.399 58.8824C49.194 58.6773 48.9151 58.5625 48.6252 58.5625V49.8125C48.915 49.8125 49.1939 49.6977 49.399 49.4926C49.6041 49.2875 49.719 49.0086 49.719 48.7187V45.4375H62.844V48.7187C62.844 49.0086 62.9588 49.2875 63.1639 49.4926C63.369 49.6977 63.6479 49.8125 63.9377 49.8125L63.9377 49.8125ZM44.2502 49.8125H46.4377V58.5625H44.2502V49.8125ZM43.1565 60.75H47.5315V62.9375H43.1565V60.75ZM72.6881 67.3125H39.8756V65.125H72.6881V67.3125ZM65.0315 62.9375V60.75H69.4065V62.9375H65.0315ZM68.3127 58.5625H66.1252V49.8125H68.3127V58.5625ZM69.4065 47.625H65.0315V45.4375H69.4065V47.625ZM72.6877 43.25H39.8752V39.6789L56.2818 34.552L72.6884 39.6789L72.6877 43.25Z" fill="black"/>
<path d="M53 38.875C53 40.2012 53.7984 41.3989 55.0262 41.9074C56.2512 42.4133 57.6621 42.1344 58.6027 41.1965C59.5406 40.2558 59.8195 38.8449 59.3137 37.6199C58.8051 36.3922 57.6074 35.5938 56.2813 35.5938C54.4684 35.5938 53 37.0622 53 38.875ZM57.375 38.875C57.375 39.318 57.1098 39.7172 56.6996 39.8867C56.2922 40.0535 55.8219 39.9606 55.5074 39.6488C55.1957 39.3344 55.1028 38.8641 55.2696 38.4567C55.4391 38.0465 55.8383 37.7813 56.2813 37.7813C56.5711 37.7813 56.85 37.8961 57.0551 38.1012C57.2602 38.3063 57.375 38.5852 57.375 38.8751L57.375 38.875Z" fill="black"/>
<path d="M55.1875 50.9059H57.375C57.6648 50.9059 57.9437 51.0208 58.1488 51.2258C58.3539 51.4309 58.4688 51.7098 58.4688 51.9997H60.6563C60.6563 50.1868 59.1879 48.7184 57.375 48.7184V47.6247H55.1875V48.7184C53.3746 48.7184 51.9062 50.1868 51.9062 51.9997C51.9062 53.8125 53.3746 55.2809 55.1875 55.2809H57.375C57.9793 55.2809 58.4688 55.7704 58.4688 56.3747C58.4688 56.979 57.9793 57.4684 57.375 57.4684H55.1875C54.5832 57.4684 54.0938 56.979 54.0938 56.3747H51.9062C51.9062 58.1875 53.3746 59.6559 55.1875 59.6559V60.7497H57.375V59.6559C59.1879 59.6559 60.6563 58.1875 60.6563 56.3747C60.6563 54.5618 59.1879 53.0934 57.375 53.0934H55.1875C54.5832 53.0934 54.0938 52.604 54.0938 51.9997C54.0938 51.3954 54.5832 50.9059 55.1875 50.9059L55.1875 50.9059Z" fill="#001AFF"/>
<path d="M81.1176 26.0699L72.3676 17.3199C72.1625 17.1148 71.8836 17 71.5938 17H34.4063C32.5934 17 31.125 18.4684 31.125 20.2812V79.3437C31.125 81.1566 32.5934 82.625 34.4063 82.625H78.1563C79.9691 82.625 81.4375 81.1566 81.4375 79.3437V26.8437C81.4375 26.5539 81.3227 26.275 81.1176 26.0699L81.1176 26.0699ZM72.6875 20.7352L77.7024 25.75H73.7813C73.177 25.75 72.6875 25.2606 72.6875 24.6563V20.7352ZM78.1563 80.4375H34.4063C33.802 80.4375 33.3125 79.948 33.3125 79.3437V20.2812C33.3125 19.6769 33.802 19.1875 34.4063 19.1875H70.4997V24.6562C70.4997 26.4691 71.968 27.9375 73.7809 27.9375H79.2497V79.344C79.2497 79.6339 79.1348 79.9128 78.9297 80.1179C78.7247 80.323 78.4457 80.4378 78.1559 80.4378L78.1563 80.4375Z" fill="black"/>
<path d="M37.6875 23.5625H39.875V25.75H37.6875V23.5625Z" fill="#001AFF"/>
<path d="M42.0625 23.5625H48.625V25.75H42.0625V23.5625Z" fill="#001AFF"/>
<path d="M37.6875 27.9375H48.625V30.125H37.6875V27.9375Z" fill="#001AFF"/>
<path d="M23.4688 27.9375C20.45 27.9403 18.0027 30.3875 18 33.4063V60.7497C18 60.9657 18.0629 61.1762 18.1832 61.3567L20.1875 64.3591V67.3122C20.1875 69.1251 21.6559 70.5935 23.4688 70.5935C25.2816 70.5935 26.75 69.1251 26.75 67.3122V64.3591L28.7543 61.354C28.8719 61.1735 28.9375 60.9657 28.9375 60.7497V33.4063C28.9348 30.3875 26.4875 27.9403 23.4688 27.9375L23.4688 27.9375ZM23.4688 30.125C25.2816 30.125 26.75 31.5934 26.75 33.4063V34.5H20.1875V33.4063C20.1875 31.5934 21.6559 30.125 23.4688 30.125ZM21.8664 62.9375L20.4063 60.75H26.5313L25.0711 62.9375H21.8664ZM24.5625 58.5625V42.1559H22.375V58.5625H20.1875V39.9691H26.75V58.5625H24.5625ZM20.1875 37.7809V36.6872H26.75V37.7809H20.1875ZM23.4688 68.4059C22.8645 68.4059 22.375 67.9165 22.375 67.3122V65.1247H24.5625V67.3122C24.5625 67.602 24.4477 67.8809 24.2426 68.086C24.0375 68.2911 23.7586 68.4059 23.4687 68.4059L23.4688 68.4059Z" fill="black"/>
<path fill-rule="evenodd" clip-rule="evenodd" d="M20.1875 64.3591V67.3122C20.1875 69.1251 21.6559 70.5935 23.4687 70.5935C25.2816 70.5935 26.75 69.1251 26.75 67.3122V64.3591H20.1875ZM22.375 67.3122C22.375 67.9165 22.8644 68.4059 23.4687 68.4059C23.7586 68.4059 24.0375 68.2911 24.2426 68.086C24.4476 67.8809 24.5625 67.602 24.5625 67.3122V65.1247H22.375V67.3122Z" fill="#001AFF"/>
</svg>
