<svg fill="none" height="100" viewBox="0 0 100 100" width="100" xmlns="http://www.w3.org/2000/svg" xmlns:xlink="http://www.w3.org/1999/xlink"><clipPath id="a"><path d="m15 15h70v70h-70z"/></clipPath><g clip-path="url(#a)"><path d="m27.7288 36.2055c-1.3125 1.6215-3.3195 2.6579-5.5699 2.6579-3.9539 0-7.1589-3.2047-7.1589-7.1589 0-.1368.0164-.2707.0492-.3993-.0847-.3336-.0629-.7.0875-1.0418l5.5235-12.4306c.7656-1.7226 2.4773-2.8328 4.3613-2.8328h49.9569c1.884 0 3.5957 1.1101 4.3614 2.8328l5.5234 12.4306c.1504.3418.1722.7082.0875 1.0418.0328.1286.0492.2625.0492.3993 0 3.9538-3.2047 7.1589-7.1589 7.1589-2.2504 0-4.2574-1.0364-5.5699-2.6579-1.3125 1.6215-3.3168 2.6579-5.5672 2.6579-2.2476 0-4.2546-1.0364-5.5671-2.6579-1.3125 1.6215-3.3196 2.6579-5.5699 2.6579-2.2477 0-4.2547-1.0364-5.5672-2.6579-1.3125 1.6215-3.3195 2.6579-5.5672 2.6579-2.2503 0-4.2574-1.0364-5.5699-2.6579-1.3125 1.6215-3.3195 2.6579-5.5672 2.6579-2.2503 0-4.2546-1.0364-5.5671-2.6579zm-1.1266-5.6246c.2872-.2899.6864-.4676 1.1266-.4676.8778 0 1.5887.7137 1.5887 1.5914 0 2.1957 1.7828 3.9785 3.9785 3.9785s3.9758-1.7828 3.9758-3.9785c0-.4402.1805-.8367.4676-1.1239.2871-.2898.6863-.4675 1.1238-.4675.8805 0 1.5914.7136 1.5914 1.5913 0 2.1957 1.7801 3.9786 3.9785 3.9786 2.1957 0 3.9758-1.7829 3.9758-3.9786 0-.8777.7137-1.5913 1.5914-1.5913.4402 0 .8367.1777 1.1238.4675.2899.2872.4676.6836.4676 1.1239 0 2.1957 1.7801 3.9785 3.9758 3.9785 2.1984 0 3.9785-1.7828 3.9785-3.9785 0-.4402.1778-.8367.4649-1.1239.2898-.2898.6863-.4675 1.1265-.4675.8778 0 1.5914.7136 1.5914 1.5913 0 2.1957 1.7801 3.9786 3.9758 3.9786s3.9785-1.7829 3.9785-3.9786c0-.8777.711-1.5913 1.5887-1.5913.4402 0 .8394.1777 1.1266.4675.2871.2872.4648.6836.4648 1.1239 0 2.1957 1.7801 3.9785 3.9785 3.9785 2.1957 0 3.9758-1.7828 3.9758-3.9785 0-.1258.0164-.2461.0438-.3637l-5.4305-12.2143c-.2543-.5742-.8231-.9461-1.4519-.9461h-49.9569c-.6289 0-1.1977.3719-1.452.9461l-5.4304 12.2143c.0273.1176.0437.2379.0437.3637 0 2.1957 1.7801 3.9785 3.9758 3.9785 2.1984 0 3.9785-1.7828 3.9785-3.9785 0-.4402.1778-.8367.4649-1.1239zm11.0439 31.3138-2.2531-.4266c-.1231-.0246-.2406-.0629-.3528-.1203-.6617-.3309-.9324-1.1375-.5988-1.8019l.3555-.7109c.268-.5387.8203-.8805 1.4218-.8805h2.7399c.2488 0 .4894.0574.7027.1641l1.1266-3.9403c.9762-3.4152 4.0961-5.7695 7.6482-5.7695h19.0365c3.5519 0 6.6718 2.3543 7.6482 5.7695l1.0965 3.8391c.1422-.041.2926-.0629.4457-.0629h2.9914c.5933 0 1.1347.3281 1.4109.8532l.3855.7383c.3418.6507.0903 1.4546-.5578 1.7937-.1176.0629-.2433.1067-.3719.1313l-2.2558.4265 1.9359 2.1684c1.0418 1.1649 1.616 2.6742 1.616 4.2383v11.9245c0 2.6359-2.1356 4.7715-4.7715 4.7715h-4.7742c-2.0782 0-3.8445-1.3289-4.5008-3.1828h-19.6329c-.6562 1.8538-2.4226 3.1828-4.5008 3.1828h-4.7742c-2.6359 0-4.7715-2.1356-4.7715-4.7715v-11.9245c0-1.5641.5742-3.0734 1.6161-4.2383zm40.9801 6.1386c-.0601-.6836-.3363-1.3316-.7984-1.8484l-2.9203-3.273-3.5301.8831c-1.3891.3473-2.8137.5223-4.2438.5223h-18.3561c-1.4328 0-2.8574-.175-4.2464-.5223l-3.5301-.8831-2.9204 3.273c-.4593.5141-.7383 1.1649-.7957 1.8484l7.9436 2.6497c-.0164 1.2059-3.2402 2.4445-7.9569 1.8511v7.6944c0 .8778.7137 1.5887 1.5914 1.5887h4.7742c.8778 0 1.5914-.7109 1.5914-1.5887 0-.1722.0274-.3418.0793-.5031l1.2305-3.6859c.432-1.2989 1.6488-2.1766 3.0187-2.1766h16.7972c1.3699 0 2.584.8777 3.0188 2.1766l1.2277 3.6859c.0547.1613.082.3309.082.5031 0 .8778.711 1.5887 1.5887 1.5887h4.7742c.8777 0 1.5914-.7109 1.5914-1.5887v-7.6944c-4.7168.5934-7.938-.6453-7.9541-1.8511zm-29.5995 10.6036h17.8584l-.5304-1.5913h-16.7972zm23.0342-23.5837c-.5851-2.0508-2.4581-3.4617-4.5882-3.4617h-19.0365c-2.1301 0-4.0032 1.4109-4.5883 3.4617l-1.411 4.9383 2.8684.7164c1.1348.2844 2.2997.4293 3.4727.4293h18.3561c1.1703 0 2.3351-.1449 3.4726-.4293l2.8657-.7164zm4.9848-13.0074c0-.8777.7109-1.5913 1.5914-1.5913.8777 0 1.5914.7136 1.5914 1.5913v4.7715c0 .8805-.7137 1.5914-1.5914 1.5914-.8805 0-1.5914-.7109-1.5914-1.5914zm-47.7288 38.1829c.8805 0 1.5914.711 1.5914 1.5887 0 .8804-.7109 1.5914-1.5914 1.5914h-4.7715c-2.6359 0-4.7742-2.1356-4.7742-4.7715v-36.5911c0-.8777.7137-1.5914 1.5914-1.5914.8805 0 1.5914.7137 1.5914 1.5914v36.5911c0 .8777.7136 1.5914 1.5914 1.5914z" fill="#000"/></g></svg>