<svg class="img-fluid" fill="none" height="2305" viewBox="0 0 4096 2305" width="4096" xmlns="http://www.w3.org/2000/svg"><path d="m2528.05 1843.97 343.72-.95-207.65-486.14 94-205.13 165.64 230.86 140.04 460.41h340.76l-164.44-588.21c-6.08-20.28-15.86-39.24-28.86-55.93l-357.73-458.916-.43.212c-1.27-3.615-2.76-7.23-4.24-10.633l-367.48 151.091-143.23 428.716c-8.89 26.61-7.89 55.54 2.82 81.47z" fill="#fff"/><g fill="#b4baeb"><path d="m3112.69 1072.43c-8.21 6.43-17.61 11.17-27.65 13.97-10.04 2.79-20.53 3.57-30.88 2.3-10.34-1.28-20.33-4.58-29.4-9.72-9.07-5.15-17.05-12.03-23.46-20.26-6.42-8.23-11.15-17.65-13.94-27.71-2.78-10.07-3.56-20.59-2.29-30.95 1.27-10.37 4.56-20.384 9.69-29.475 5.14-9.091 12-17.08 20.22-23.51"/><path d="m3245.45 1277.66c-1.27-.06-2.54-.1-3.84-.1-12.4 0-24.61 2.91-35.68 8.49s-20.68 13.69-28.06 23.66c-7.39 9.97-12.34 21.54-14.46 33.78s-1.35 24.8 2.25 36.68c3.59 11.89 9.92 22.76 18.46 31.76s19.07 15.86 30.74 20.05c11.66 4.18 24.14 5.57 36.44 4.05s24.07-5.9 34.38-12.8c-3.62-7.92-32.54-118.63-40.23-145.57z"/><path d="m3016.91 1599.74c-9.58-.01-19.08 1.73-28.03 5.12 10.75 27.18 46.62 148.01 47.72 151.47 18.73-4.79 35.08-16.28 45.96-32.3 10.89-16.02 15.56-35.47 13.14-54.7s-11.76-36.92-26.27-49.73c-14.5-12.81-33.18-19.88-52.52-19.86z"/><path d="m2456.93 1041.84c-7.87-5.46-16.67-9.45-25.96-11.76-6.58 28.49-45.65 148.31-46.72 151.79 18.14 6.74 38.1 6.61 56.15-.37 18.04-6.97 32.92-20.31 41.85-37.5 8.92-17.2 11.27-37.07 6.61-55.88s-16.02-35.27-31.93-46.28z"/><path d="m2902.54 1171.23c-19.75 0-38.8 7.39-53.41 20.72s-23.73 31.64-25.59 51.35c1.97.16 3.81 1.01 5.2 2.42 1.38 1.4 2.22 3.25 2.35 5.22 2.33 16.23 16.3 29.66 26.24 41.97 9.88 12.24 20.43 23.9 30.47 36 10.86 2.06 22.02 1.83 32.78-.68 10.76-2.52 20.88-7.25 29.71-13.91s16.17-15.09 21.56-24.76c5.39-9.66 8.71-20.35 9.74-31.38 1.03-11.02-.25-22.14-3.75-32.64-3.51-10.5-9.16-20.15-16.6-28.34-7.44-8.18-16.51-14.72-26.62-19.19-10.1-4.48-21.03-6.78-32.08-6.78z"/><path d="m2749.56 1089.15c43.83 0 79.36-35.61 79.36-79.54 0-43.922-35.53-79.531-79.36-79.531s-79.36 35.609-79.36 79.531c0 43.93 35.53 79.54 79.36 79.54z"/><path d="m2448.26 1497.45c43.83 0 79.36-35.61 79.36-79.54 0-43.92-35.53-79.53-79.36-79.53s-79.35 35.61-79.35 79.53c0 43.93 35.52 79.54 79.35 79.54z"/><path d="m2915.25 822.262c-.06-.134-.09-.27-.14-.404-4.75-4.785-54.04-75.225-67.67-90.418-.09-.106-.15-.212-.24-.327-6.1 2.065-65.55 27.007-74.5 32.018-2.93 17.704.2 35.881 8.88 51.575 8.69 15.695 22.41 27.983 38.95 34.869 16.53 6.886 34.91 7.963 52.13 3.056 17.22-4.906 32.28-15.507 42.74-30.08-.05-.11-.1-.198-.15-.289z"/><path d="m2782.92 1637.23c-6.34 14.13-16.67 26.09-29.7 34.41-13.04 8.33-28.21 12.65-43.67 12.45-15.45-.2-30.51-4.92-43.32-13.59-12.81-8.66-22.82-20.88-28.8-35.17-5.97-14.29-7.65-30.01-4.83-45.24s10.01-29.3 20.71-40.49c10.69-11.18 24.41-19 39.47-22.48 15.06-3.47 30.8-2.47 45.3 2.9"/><path d="m3334.32 1605.17c-3.03-.36-6.07-.54-9.12-.54-12.85-.01-25.5 3.11-36.88 9.09-11.37 5.98-21.13 14.64-28.43 25.23-7.31 10.59-11.93 22.8-13.49 35.58s.01 25.74 4.55 37.78c4.55 12.04 11.95 22.8 21.55 31.34 9.61 8.55 21.15 14.63 33.61 17.72 12.47 3.09 25.51 3.1 37.98.03s24.02-9.12 33.64-17.65c-11.19-18.9-40.54-126.01-43.41-138.58z"/></g><path d="m2506.64 206.445c38.91.011 46.83 51.888 18.75 73.314-.84.64-1.78 1.119-2.79 1.414-1.95 13.492-6.58 26.454-13.62 38.123 7.59 2.054 9.97 11.328 14.07 20.447 4.44 9.865-3.58 23.99 10.53 23.76 12.79-.213 237.47-22.629 252.52-22.361 9.9.174 27.31-2.49 37.14-1.299-39.6-23.145-84.59-35.428-130.43-35.614-11.18-52.811-46.8-102.467-100.81-140.328-52.66-36.911-111.84-58.294-176.63-58.294-33.95 0 60.35 42.872 91.27 100.838z" fill="#0618bb"/><path d="m2313.57 617.105c9.8-27.832 27.38-52.647 40.59-78.911 15.26-30.344 28.37-61.443 46.09-90.521 4.17-7.073 8.8-13.867 13.84-20.341 3.35-4.177 7.51-8.081 10.05-12.834 5.24-9.782-5.36-19.156-5.4-29.651-.24-5.626 1.3-11.184 4.41-15.879-7.14.506-14.29.592-21.43.258-11.44-.517-64.42-15.099-82.25-62.434-3.29 2.675-7.17 4.52-11.32 5.382-1.28.232-2.6.242-3.88.03l1.41 304.446c.01 1.687.68 3.303 1.87 4.493 1.2 1.191 2.81 1.859 4.49 1.859h1.56c-.7-1.901-.71-3.988-.03-5.897z" fill="#0618bb"/><path d="m3747.23 2199.64c-.02-16.01-5.53-31.54-15.62-43.97-10.08-12.42-24.12-21-39.76-24.29l-166.35-34.45c-11.95-2.49-23.05-8.08-32.17-16.22-9.12-8.13-15.95-18.53-19.81-30.14l-68.75-207.34h-340.76v356.41l132.61 2.13v-131.21l132.64 131.21z" fill="#fff"/><path d="m3329.26 2208.15c-1.67 0-3.28-.66-4.47-1.84l-121.8-120.49v115.95c0 .85-.17 1.69-.5 2.47s-.81 1.48-1.41 2.08c-1.24 1.17-2.87 1.82-4.57 1.83l-132.61-2.13c-1.67-.02-3.26-.71-4.44-1.9-1.17-1.2-1.82-2.8-1.82-4.48v-356.41c0-1.69.67-3.32 1.86-4.51 1.19-1.2 2.81-1.87 4.5-1.87h340.76c1.34 0 2.64.42 3.73 1.21 1.08.78 1.89 1.89 2.31 3.16l68.75 207.34c3.53 10.54 9.75 19.97 18.03 27.36 8.29 7.39 18.36 12.48 29.22 14.77l166.33 34.45c17.05 3.64 32.34 13.01 43.34 26.56 11 13.56 17.04 30.47 17.13 47.94 0 1.69-.67 3.31-1.86 4.5-1.18 1.2-2.79 1.87-4.48 1.88l-417.96 2.13zm-132.64-143.97c1.68 0 3.28.66 4.47 1.84l130.77 129.36 408.68-2.09c-1.41-13.37-7.01-25.96-15.99-35.96-8.97-10-20.88-16.9-34-19.71l-166.33-34.45c-13.04-2.74-25.13-8.86-35.08-17.73s-17.42-20.2-21.66-32.86l-67.3-202.97h-329.8v343.76l119.88 1.91v-124.72c0-1.69.67-3.31 1.86-4.51 1.2-1.2 2.82-1.87 4.5-1.87z" fill="#000"/><path d="m2994.62 1448.11c-1.48 0-2.91-.52-4.05-1.47l-70.66-58.69c-1.3-1.08-2.12-2.63-2.28-4.32-.15-1.68.36-3.36 1.44-4.66s2.63-2.13 4.31-2.28c1.68-.16 3.36.36 4.66 1.44l70.65 58.69c1.01.84 1.74 1.97 2.08 3.24.34 1.26.29 2.6-.15 3.84-.45 1.23-1.26 2.3-2.33 3.05-1.08.76-2.35 1.16-3.66 1.16z" fill="#000"/><path d="m3416.66 1889.8c-1.26 0-2.49-.37-3.54-1.07s-1.86-1.7-2.34-2.87c-.49-1.16-.61-2.44-.37-3.68.25-1.24.85-2.38 1.74-3.27l206.46-206.91c4.18-4.2 9.2-7.46 14.73-9.57 5.54-2.1 11.45-3 17.36-2.64s11.67 1.97 16.91 4.73 9.83 6.6 13.47 11.27c3.65 4.68 6.26 10.07 7.67 15.83 1.4 5.76 1.57 11.76.5 17.59-1.08 5.83-3.38 11.37-6.76 16.24-3.37 4.87-7.74 8.97-12.81 12.02l-249.74 151.42c-.99.6-2.12.91-3.28.91zm231.49-217.29c-3.81-.01-7.59.74-11.12 2.2-3.52 1.46-6.72 3.6-9.42 6.3l-169.34 169.72 204.83-124.19c5.44-3.27 9.67-8.25 12.02-14.16 2.36-5.91 2.71-12.43 1.02-18.56-1.7-6.14-5.36-11.54-10.41-15.39-5.06-3.85-11.24-5.94-17.59-5.93z" fill="#000"/><path d="m3416.65 1889.8c-1.44 0-2.85-.49-3.98-1.4-1.12-.91-1.91-2.17-2.23-3.59-.31-1.41-.14-2.89.5-4.19.64-1.31 1.7-2.35 3-2.97l263.96-124.62c7.88-3.7 16.72-4.85 25.28-3.27 8.56 1.57 16.42 5.78 22.48 12.05 6.06 6.26 10.02 14.27 11.32 22.9s-.12 17.44-4.07 25.22c-2.82 5.67-6.91 10.6-11.93 14.44-5.03 3.83-10.87 6.46-17.07 7.68l-286 57.63c-.41.08-.84.12-1.26.12zm278.94-127.94c-4.25 0-8.45.93-12.31 2.73l-216.52 102.23 234.67-47.28c4.31-.85 8.36-2.68 11.85-5.34s6.32-6.09 8.28-10.02c2.27-4.45 3.36-9.4 3.16-14.38-.2-4.99-1.67-9.84-4.28-14.09s-6.26-7.76-10.61-10.18c-4.35-2.43-9.25-3.69-14.23-3.67z" fill="#000"/><path d="m2185.61 2200.32s23.12-61.46 55.38-68.26l166.35-34.45c11.95-2.49 23.04-8.09 32.17-16.22 9.12-8.14 15.95-18.53 19.81-30.14l68.75-207.34h340.76v356.41l-129.67-1.53v-128.23l-43.49 129.08z" fill="#fff"/><path d="m2868.83 2206.7h-.07l-129.67-1.53c-1.68-.02-3.28-.7-4.45-1.89-1.18-1.2-1.84-2.81-1.84-4.49v-89.4l-31.1 92.29c-.43 1.26-1.24 2.36-2.32 3.14s-2.37 1.2-3.71 1.2l-510.05.67c-1.03 0-2.05-.25-2.96-.72-.91-.48-1.69-1.18-2.28-2.03-.58-.84-.96-1.82-1.08-2.85-.13-1.02 0-2.06.36-3.02.99-2.65 24.76-64.82 60.02-72.26l166.38-34.45c10.85-2.29 20.92-7.38 29.2-14.77 8.29-7.39 14.5-16.82 18.03-27.36l68.75-207.34c.42-1.27 1.23-2.38 2.31-3.16 1.09-.79 2.39-1.21 3.73-1.21h340.76c1.69 0 3.31.67 4.5 1.87s1.87 2.82 1.87 4.51v356.41c0 1.7-.68 3.32-1.87 4.52-1.19 1.19-2.81 1.86-4.5 1.86zm-336.17-356.41-67.3 202.97c-4.24 12.65-11.7 23.98-21.65 32.85-9.95 8.88-22.04 14.99-35.08 17.74l-166.36 34.45c-20.13 4.25-38.39 36.27-47.1 55.62l495.93-.65 42.04-124.76c.48-1.43 1.45-2.64 2.75-3.42 1.29-.78 2.82-1.07 4.31-.83 1.49.25 2.84 1.01 3.82 2.17.97 1.15 1.51 2.61 1.51 4.13v121.92l116.94 1.38v-343.57z" fill="#000"/><path d="m3115.8 1076.28 112.38-627.846c3.14-17.908 2.06-36.302-3.13-53.721-5.2-17.42-14.37-33.386-26.8-46.631-12.43-13.244-27.77-23.403-44.8-29.668-17.02-6.266-35.28-8.467-53.3-6.427l-563.61 54.015-99.65 42.591c-3.89 1.66-4.31-.06-9.2 8.238l-160.62 246.895-120.95-21.266-212.18 142.481 325.45 125.816c1.47.553 2.9 1.191 4.31 1.867 14.39 6.875 30.06 10.619 45.99 10.986s31.76-2.652 46.44-8.857c14.68-6.206 27.89-15.457 38.75-27.146 10.85-11.689 19.12-25.55 24.25-40.671l51.64-130.048c5.19 19.501 7.7 15.099 4.07 34.108-12.69 42.116-11.41 87.219 3.65 128.543l371.22-147.444c-16.78-40.651-46.26-74.752-84.02-97.184-15.51-11.552-36.33-44.988-36.33-44.988l241.96-27.954-47.07 268.721z" fill="#fff"/><path d="m3115.79 1082.66c-.96 0-1.92-.22-2.79-.65-.86-.42-1.63-1.04-2.22-1.8l-191.55-245.593c-.54-.704-.94-1.515-1.16-2.382-.21-.867-.24-1.769-.09-2.649l45.6-260.293-223.22 25.787c6.99 10.31 19.21 27.188 28.88 34.525 38.82 23.105 69.12 58.207 86.35 100.038.33.783.5 1.622.49 2.469 0 .848-.17 1.686-.5 2.467s-.81 1.488-1.41 2.081-1.32 1.058-2.11 1.371l-371.23 147.439c-.79.315-1.63.467-2.49.447-.85-.019-1.69-.21-2.46-.56-.78-.35-1.48-.854-2.06-1.48s-1.03-1.362-1.32-2.165c-15.52-42.5-16.88-88.902-3.85-132.238 1.43-7.511 1.81-10.525 1.33-13.362l-44.88 113.03c-5.43 15.954-14.18 30.574-25.65 42.9-11.47 12.327-25.42 22.081-40.92 28.62-15.51 6.54-32.22 9.718-49.03 9.325-16.82-.393-33.36-4.347-48.54-11.604-1.46-.695-2.67-1.221-3.82-1.654l-325.48-125.838c-1.09-.42-2.04-1.132-2.75-2.056-.72-.925-1.16-2.028-1.29-3.188-.13-1.161.06-2.335.55-3.394.49-1.06 1.26-1.964 2.23-2.614l212.18-142.48c1.36-.92 3.03-1.273 4.65-.985l116.8 20.539 158.25-243.246c4.06-6.886 6.18-8.906 10.7-10.257.48-.132.95-.294 1.41-.485l99.65-42.591c.61-.257 1.25-.419 1.9-.48l563.6-54.015c19-2.133 38.24.201 56.18 6.817 17.95 6.616 34.11 17.332 47.2 31.298s22.76 30.798 28.23 49.16c5.47 18.363 6.6 37.75 3.3 56.626l-112.39 627.86c-.22 1.22-.78 2.34-1.62 3.24s-1.92 1.54-3.11 1.83c-.5.13-1.02.19-1.54.19zm-184.78-253.663 181.03 232.113 109.87-613.803c2.96-16.929 1.95-34.318-2.97-50.784-4.91-16.467-13.59-31.559-25.34-44.079s-26.25-22.122-42.34-28.045c-16.1-5.922-33.36-8.003-50.4-6.075l-562.73 53.936-98.75 42.204c-.9.379-1.82.704-2.76.974-.15.045-.3.085-.44.13-1.15 1.398-2.15 2.908-3 4.508-.05.081-.1.162-.15.24l-160.62 246.895c-.69 1.045-1.66 1.866-2.81 2.361-1.14.496-2.41.644-3.64.427l-118.42-20.823-199.87 134.221 314.01 121.408c1.42.538 3 1.218 4.77 2.065 13.57 6.486 28.36 10.017 43.39 10.362s29.97-2.504 43.82-8.36 26.31-14.586 36.56-25.616c10.24-11.029 18.04-24.108 22.88-38.376.04-.1.07-.212.11-.304l51.64-130.048c.5-1.246 1.37-2.305 2.5-3.024 1.13-.72 2.46-1.065 3.79-.986 1.34.079 2.61.578 3.65 1.426s1.78 2.002 2.13 3.298c1.4 5.291 2.59 8.696 3.54 11.431 2.97 8.533 3.32 11.434.64 25.518-.04.216-.09.429-.16.638-11.69 38.643-11.19 79.958 1.41 118.31l358.9-142.553c-16.58-36.828-44.1-67.629-78.8-88.197-.19-.112-.38-.235-.55-.368-16.29-12.121-37.05-45.321-37.93-46.729-.57-.913-.9-1.956-.96-3.03-.06-1.075.16-2.147.62-3.117.47-.97 1.17-1.805 2.05-2.43.87-.624 1.89-1.016 2.96-1.14l241.96-27.949c.98-.114 1.98.003 2.91.344.93.34 1.77.894 2.45 1.617s1.19 1.595 1.47 2.546c.28.952.34 1.957.17 2.936z" fill="#000"/><path d="m2514.01 1895.76c-.47 0-.93-.06-1.39-.16l-284.8-64.01c-5.78-1.28-11.22-3.78-15.95-7.33-4.74-3.54-8.68-8.06-11.55-13.24-2.86-5.19-4.6-10.92-5.09-16.83s.28-11.85 2.25-17.44 5.11-10.69 9.2-14.98c4.09-4.28 9.04-7.65 14.52-9.87s11.37-3.25 17.29-3.02c5.91.23 11.7 1.72 16.99 4.36l261.37 130.43c1.28.64 2.31 1.7 2.92 3s.76 2.77.43 4.17c-.32 1.4-1.11 2.64-2.24 3.54-1.12.89-2.51 1.38-3.95 1.38zm-277.1-134.15c-7.17-.02-14.09 2.62-19.43 7.4-5.34 4.79-8.73 11.38-9.52 18.52-.78 7.14 1.09 14.31 5.27 20.15 4.17 5.83 10.35 9.91 17.35 11.46l233.6 52.5-214.37-106.97c-4-2.01-8.42-3.05-12.9-3.05z" fill="#000"/><path d="m2220 1932.52c-5.89-.04-11.7-1.31-17.06-3.75s-10.15-5.98-14.05-10.4-6.83-9.61-8.6-15.24-2.33-11.57-1.65-17.43c1.32-11 6.93-21.03 15.6-27.91s19.7-10.05 30.69-8.82l289.82 34.08c1.55.18 2.97.93 4.01 2.09 1.03 1.16 1.61 2.66 1.62 4.22 0 1.56-.56 3.07-1.59 4.24-1.02 1.17-2.44 1.92-3.98 2.12l-289.47 36.45c-1.77.23-3.55.35-5.34.35zm.23-71.06c-5.78-.02-11.43 1.69-16.23 4.9-4.81 3.22-8.54 7.8-10.74 13.16-2.19 5.36-2.74 11.25-1.58 16.92 1.17 5.67 3.99 10.87 8.12 14.92 3.1 3.1 6.87 5.45 11.02 6.87 4.15 1.41 8.57 1.85 12.92 1.29l237.5-29.93-237.75-27.95c-1.08-.12-2.17-.18-3.26-.18z" fill="#000"/><path d="m2059.97 577.068c-12.94 63.797-29.28 119.514-54.1 125.043-22.07 4.891-25.04-28.284-16.98-111.645-22.49 78.895-35.43 99.31-58.35 102.926-22.91 3.615-26.04-42.106-8.22-102.926-17.84 47.635-21.7 56.566-36.55 61.245-17.82 5.529-20.16-28.284-13.79-61.033l.21-2.552c4.46-35.513 26.1-43.594 43.71-43.382 10.65.219 21.22-1.886 30.98-6.167 10.48-4.851 22.28-6.049 33.52-3.402 12.26 3.083 25.09 3.083 37.35 0 17.4-4.679 37.34-5.529 50.92 9.569 17.4 19.139 11.68 50.93 11.68 50.93l40.07 2.828-35.54 20.46 96.91-55.81c14.29-8.23 29.87 8.53 20.67 22.233l-38.29 57.033c-19.48 14.248-66.61 60.941-107.53 88.289-8.66 36.196-46.67 62.414-91.02 60.469-49.4-2.163-87.94-38.453-86.08-81.04.73-16.587 12.94-51.318 21.25-69.7" fill="#fff"/><path d="m1970.28 797.662c-1.64 0-3.28-.036-4.94-.109-52.83-2.315-94.17-41.657-92.16-87.695.55-12.56 6.95-33.84 13.6-51.804-2.58.773-5.31.87-7.93.282-2.63-.588-5.06-1.842-7.06-3.642-11.7-10.524-10.85-40.353-6.12-64.89l.18-2.207c0-.089.02-.179.03-.266 5.6-44.673 36.92-49.06 50.1-48.966 9.69.226 19.32-1.675 28.21-5.57 11.78-5.462 25.05-6.81 37.68-3.828 11.25 2.856 23.03 2.866 34.29.03 25.05-6.737 44.33-2.881 57.24 11.484 14.19 15.615 14.79 38.016 14.02 49.302l31.51 2.227 59.69-34.377c4.29-2.472 9.3-3.416 14.19-2.675 4.9.74 9.4 3.12 12.78 6.752 3.38 3.633 5.43 8.303 5.82 13.252s-.91 9.884-3.67 14.002l-38.29 57.031c-.42.616-.93 1.155-1.53 1.592-6.92 5.057-17.86 14.714-30.52 25.894-22.13 19.536-49.53 43.728-75.2 61.181-10.24 37.2-48.03 63-91.92 63zm-65.32-150.893c-7.93 18.501-18.43 49.321-19.06 63.646-1.7 39.01 34.18 72.382 80 74.392 40.86 1.784 76.41-21.581 84.55-55.58.37-1.567 1.32-2.934 2.65-3.828 25.54-17.066 53.45-41.709 75.88-61.507 12.38-10.929 23.13-20.428 30.52-25.944l37.67-56.116c1.16-1.728 1.71-3.798 1.54-5.873-.16-2.076-1.02-4.035-2.44-5.558-1.41-1.523-3.3-2.522-5.36-2.832-2.05-.311-4.15.084-5.95 1.121l-61.3 35.301-.07.042-35.54 20.466c-1.46.797-3.17.989-4.77.536s-2.96-1.515-3.79-2.959c-.83-1.445-1.06-3.157-.64-4.77.41-1.614 1.44-3.001 2.86-3.865l17.44-10.039-19.24-1.359c-.89-.063-1.76-.314-2.55-.736-.79-.421-1.48-1.004-2.03-1.711s-.94-1.522-1.15-2.391c-.22-.87-.25-1.775-.09-2.656.05-.277 4.9-28.975-10.12-45.509-9.61-10.673-24.18-13.185-44.57-7.705-13.29 3.379-27.2 3.393-40.49.041-9.86-2.311-20.21-1.251-29.4 3.011-10.77 4.738-22.45 7.039-34.21 6.737-14.78 0-32.83 6.641-36.77 37.674l-.21 2.414c-.02.231-.05.461-.09.689-5.33 27.412-3.14 48.628 2.06 53.303.5.453 1.26 1.144 3.61.414 4.56-1.231 8.52-4.059 11.18-7.97.27-.573.64-1.102 1.07-1.567 4.91-7.571 10.27-21.29 20.22-47.848.58-1.547 1.73-2.808 3.22-3.518 1.49-.711 3.19-.815 4.76-.292 1.56.523 2.86 1.634 3.62 3.098.77 1.464.93 3.168.47 4.752-14.88 50.768-13.16 83.598-5.25 92.617.74.932 1.74 1.635 2.86 2.026 1.13.392 2.34.456 3.5.185 18.23-2.875 30.24-17.761 53.22-98.377.44-1.532 1.43-2.845 2.78-3.682 1.35-.836 2.97-1.135 4.53-.839 1.56.297 2.95 1.169 3.91 2.444.95 1.275 1.39 2.861 1.24 4.446-4.2 43.382-7.65 94.386 2.97 103.815 1 .887 2.62 1.803 6.29.985 26.06-5.804 43.51-91.819 49.25-120.084.16-.821.49-1.601.96-2.296.46-.694 1.06-1.29 1.76-1.752 1.41-.935 3.13-1.27 4.78-.933.82.167 1.6.494 2.29.962.7.468 1.29 1.069 1.75 1.767.46.699.78 1.482.94 2.304.16.823.16 1.668-.01 2.49-17.4 85.794-35.04 124.67-58.96 129.999-3.01.849-6.18.938-9.23.259-3.06-.679-5.89-2.105-8.26-4.151-8.8-7.808-12.31-25.106-11.1-60.607-14.48 39.24-27.16 52.709-47.12 55.863-3.29.612-6.68.342-9.82-.782-3.15-1.123-5.94-3.061-8.1-5.617-8.05-9.204-10.12-26.544-8.66-46.546z" fill="#000"/><path d="m2970.65 571.539c-1.28-.001-2.53-.387-3.58-1.108-1.06-.72-1.87-1.742-2.34-2.932l-23.76-60.182c-.32-.781-.48-1.618-.47-2.461 0-.844.18-1.677.51-2.453.33-.775.81-1.478 1.41-2.066s1.32-1.051 2.1-1.361c.78-.311 1.62-.462 2.46-.447.84.016 1.67.199 2.44.538s1.47.828 2.05 1.439c.58.61 1.03 1.33 1.33 2.117l15 37.968 6.1-41.859c.11-.841.38-1.652.8-2.386s.99-1.377 1.66-1.889c.68-.513 1.45-.886 2.26-1.098.82-.211 1.68-.257 2.51-.135.84.123 1.64.411 2.37.849.72.437 1.35 1.015 1.85 1.7.5.684.86 1.461 1.06 2.286.19.824.22 1.68.08 2.516l-9.54 65.499c-.21 1.39-.86 2.674-1.87 3.653-1 .979-2.3 1.598-3.7 1.761-.24.031-.49.048-.73.051z" fill="#000"/><path d="m3150.12 1120.43c5.52.75 11.33 1.53 17.45 2.32 64.92 8.29 246.34-16.17 237.64-59.97-5.31-26.58-51.35-10.85-140.25-4.04 77.65-19.78 121.79-82.089 105.87-105.056-15.91-22.967-68.32 32.324-128.15 47.846 33.1-27.431 54.95-85.061 39.46-100.159-22.49-21.692-51.77 18.501-74.05 43.169-49.01 54.653-84.02-17.225-127.09-34.238-24.67-9.888-57.98-.542-78.01 21.387" fill="#fff"/><path d="m3197.41 1130.67c-10.24.1-20.48-.44-30.66-1.6-6.14-.79-11.97-1.56-17.5-2.32-1.67-.23-3.18-1.11-4.2-2.46-1.03-1.35-1.47-3.05-1.24-4.72.23-1.68 1.11-3.2 2.45-4.22 1.35-1.02 3.04-1.47 4.72-1.24 5.49.75 11.29 1.52 17.39 2.31 58.63 7.49 197.91-11.08 226.5-41.81 5.1-5.48 4.34-9.32 4.09-10.59-2.59-12.99-23.32-11.05-69.97-5.48-18.35 2.2-39.14 4.68-63.55 6.56-1.59.12-3.17-.35-4.43-1.34s-2.1-2.41-2.35-3.99c-.26-1.58.08-3.2.96-4.53.87-1.34 2.22-2.3 3.76-2.69 53.41-13.61 91.7-48.49 101.92-75.907 3.09-8.294 3.19-15.15.3-19.327-5.63-8.125-25.34 3.307-48.15 16.551-20.61 11.964-46.26 26.853-73.18 33.833-1.4.37-2.89.24-4.21-.36-1.32-.59-2.39-1.62-3.05-2.91s-.86-2.77-.57-4.19c.3-1.426 1.06-2.704 2.18-3.629 24.19-20.041 41.34-56.392 42.2-77.773.25-6.116-.86-10.699-3.12-12.9-1.32-1.429-2.93-2.56-4.72-3.316-1.79-.757-3.72-1.122-5.66-1.071-13.77.6-31.66 21.134-46.03 37.64-2.91 3.35-5.75 6.606-8.48 9.634-37.99 42.357-69.72 15.843-97.71-7.558-11.86-9.912-24.12-20.158-36.44-25.025-22.11-8.86-52.6-.362-70.98 19.758-.56.618-1.24 1.118-2 1.473-.76.354-1.58.556-2.41.593-.84.037-1.67-.092-2.46-.378-.78-.286-1.5-.724-2.12-1.29-.62-.565-1.12-1.247-1.47-2.006s-.55-1.581-.59-2.418.09-1.673.37-2.46c.29-.788.73-1.511 1.29-2.129 22.12-24.22 57.89-33.896 85.07-23.001 14.2 5.61 27.26 16.525 39.89 27.084 31.19 26.069 51.74 40.443 80.1 8.81 2.7-2.988 5.48-6.186 8.35-9.476 16.8-19.29 35.84-41.153 55.06-41.989 3.67-.132 7.33.508 10.74 1.88s6.49 3.444 9.05 6.084c5.05 4.923 7.39 12.513 6.99 22.584-.73 18.125-11.25 45.413-28.26 67.57 15.73-7.101 31.02-15.15 45.79-24.103 29.42-17.08 52.66-30.567 64.98-12.783 5.43 7.824 5.83 18.568 1.17 31.068-8.23 22.077-32.28 48.347-66.76 66.777 5.91-.68 11.57-1.36 17.01-2.01 23.89-2.86 42.75-5.12 56.16-4.13 5.99.44 24.22 1.78 27.81 19.77 1.05 5.27.64 13.31-7.26 21.79-28.34 30.46-139.69 47.36-206.77 47.36z" fill="#000"/><path d="m2528.06 1850.35c-1.26 0-2.49-.37-3.54-1.07-1.05-.71-1.86-1.7-2.34-2.87l-187.1-453.16c-11.29-27.35-12.34-57.87-2.97-85.94l143.22-428.713c.29-.87.77-1.666 1.39-2.335.63-.67 1.39-1.196 2.23-1.544l367.49-151.089c1.53-.632 3.26-.637 4.8-.012s2.78 1.829 3.44 3.355c1.38 3.154 2.55 6.021 3.55 8.687.11.117.22.236.31.364l357.74 458.917c13.48 17.3 23.64 36.97 29.93 58.01l164.48 588.34c.27.95.31 1.95.13 2.92-.19.96-.59 1.88-1.18 2.66-.6.79-1.36 1.42-2.24 1.86s-1.85.67-2.84.67h-340.76c-1.36 0-2.69-.44-3.79-1.26-1.09-.81-1.9-1.95-2.3-3.26l-139.73-459.4-158.63-221.09-88.27 192.59 206.54 483.53c.42.96.59 2.02.49 3.07-.09 1.05-.44 2.06-1.02 2.94s-1.36 1.61-2.29 2.11c-.92.5-1.96.76-3.01.77l-343.72.95zm-41.57-964.929-142.3 425.949c-8.41 25.15-7.46 52.5 2.65 77l185.47 449.21 329.83-.92-203.87-477.26c-.35-.82-.52-1.7-.51-2.59s.21-1.77.58-2.58l93.99-205.13c.47-1.02 1.19-1.89 2.1-2.54.91-.64 1.97-1.04 3.08-1.15 1.1-.11 2.22.08 3.24.54 1.01.46 1.89 1.18 2.54 2.09l165.63 230.85c.41.56.72 1.19.92 1.86l138.68 455.89h327.65l-162.18-580.11c-5.84-19.48-15.24-37.7-27.74-53.72l-356.32-457.105c-1.32-.759-2.32-1.966-2.83-3.402-.49-1.412-1.06-2.888-1.67-4.451z" fill="#000"/><path d="m2316.46 305.126-4.84-104.995 50.93-40.405 94.2 87.724c0-11.224 4.45-21.988 12.37-29.924 7.92-7.937 18.65-12.395 29.85-12.395s21.94 4.458 29.86 12.395c7.92 7.936 12.37 18.7 12.37 29.924-.41 24.985-21.63 37.744-21.63 37.744-1.1 7.343-3.1 14.521-5.96 21.374-.84 2.05-1.76 4.06-2.72 6.042l17.58 46.485 5.73 15.736c2.69 6.242 4.06 12.976 4.03 19.777-.02 12.827-4.5 25.245-12.68 35.113-8.17 9.867-19.53 16.564-32.11 18.933-12.57 2.37-25.58.264-36.77-5.953-11.2-6.218-19.87-16.158-24.53-28.103l-2.76-7.656-13.4-34.463c-.22 0-.41.013-.61.013-21.33.018-42.17-6.397-59.81-18.412s-31.26-29.072-39.1-48.954z" fill="#fff"/><path d="m2483.27 456.039c-12.33-.03-24.36-3.778-34.54-10.756-10.18-6.979-18.03-16.865-22.52-28.373l-2.82-7.811-11.78-30.3c-21.97-.641-43.27-7.747-61.24-20.433s-31.82-30.391-39.82-50.909c-.26-.653-.41-1.344-.44-2.046l-4.84-104.995c-.04-1.008.16-2.012.57-2.93.42-.918 1.05-1.723 1.84-2.35l50.92-40.405c1.2-.943 2.69-1.428 4.2-1.367 1.52.061 2.97.663 4.08 1.699l85.25 79.395c2.3-8.253 6.73-15.754 12.83-21.751 6.11-5.996 13.69-10.276 21.97-12.409 8.28-2.134 16.97-2.046 25.21.255 8.23 2.301 15.72 6.733 21.7 12.852 4.45 4.486 7.96 9.821 10.31 15.69 2.36 5.868 3.52 12.15 3.41 18.474-.38 23.02-15.95 36.789-22.2 41.389-1.2 6.907-3.17 13.654-5.89 20.113-.51 1.225-1.06 2.497-1.67 3.828l16.61 43.944 5.7 15.64c2.98 6.996 4.5 14.529 4.48 22.136-.05 16.284-6.52 31.887-18.02 43.399-11.49 11.512-27.06 17.995-43.31 18.031zm-67.29-89.927c1.28-.002 2.54.385 3.6 1.111 1.06.725 1.87 1.754 2.34 2.953l13.4 34.451 2.81 7.802c4.15 10.534 11.84 19.287 21.74 24.753 9.89 5.466 21.38 7.301 32.48 5.19 11.11-2.11 21.13-8.035 28.34-16.753 7.21-8.719 11.17-19.685 11.18-31.011.04-5.928-1.15-11.8-3.51-17.238-.05-.116-.09-.233-.14-.351l-5.73-15.736-17.55-46.408c-.3-.814-.44-1.682-.4-2.552.04-.869.25-1.721.63-2.503.99-2.035 1.83-3.896 2.57-5.682 2.67-6.412 4.54-13.135 5.56-20.012.15-.906.5-1.769 1.02-2.528.52-.76 1.19-1.398 1.98-1.871.72-.443 18.19-11.388 18.54-32.382.08-4.63-.77-9.228-2.5-13.522-1.73-4.295-4.3-8.198-7.56-11.48-4.99-5.113-11.39-8.622-18.38-10.079-6.98-1.458-14.25-.799-20.86 1.894-6.61 2.692-12.27 7.295-16.27 13.224-3.99 5.929-6.13 12.914-6.15 20.068 0 1.242-.36 2.457-1.04 3.497-.68 1.039-1.65 1.858-2.78 2.355-1.14.496-2.4.65-3.62.441-1.22-.208-2.35-.769-3.26-1.615l-90.2-84-44.08 34.974 4.64 100.653c7.44 18.487 20.24 34.312 36.74 45.429 16.51 11.117 35.97 17.014 55.86 16.928z" fill="#000"/><path d="m2323.12 300.576c-7.55 6.236-16.93 9.821-26.71 10.207-9.77.386-19.41-2.448-27.42-8.069-8.02-5.622-13.98-13.721-16.97-23.058s-2.84-19.399.41-28.646c3.26-9.247 9.45-17.169 17.63-22.556 8.17-5.387 17.88-7.942 27.65-7.273 9.76.669 19.03 4.525 26.4 10.977s12.42 15.145 14.39 24.75" fill="#fff"/><path d="m2294.64 317.201c-9.67-.002-19.14-2.752-27.32-7.933-8.17-5.181-14.71-12.579-18.86-21.336s-5.74-18.513-4.57-28.137c1.16-9.624 5.02-18.72 11.13-26.233 6.11-7.512 14.23-13.134 23.4-16.211s19.02-3.484 28.42-1.174c9.39 2.31 17.94 7.243 24.65 14.226s11.3 15.73 13.25 25.225c.18.827.2 1.681.05 2.514s-.47 1.627-.93 2.337-1.05 1.321-1.75 1.797c-.7.477-1.49.809-2.31.978-.83.17-1.68.172-2.51.008s-1.62-.492-2.32-.964-1.3-1.08-1.76-1.787c-.47-.707-.79-1.499-.94-2.331-1.69-8.239-6.03-15.695-12.35-21.229-6.32-5.533-14.28-8.84-22.65-9.413-8.38-.573-16.71 1.618-23.72 6.239s-12.32 11.418-15.11 19.349c-2.8 7.932-2.92 16.562-.36 24.572 2.57 8.009 7.68 14.956 14.55 19.779 6.88 4.822 15.14 7.254 23.53 6.924 8.38-.33 16.43-3.405 22.91-8.753.65-.533 1.39-.934 2.19-1.179s1.64-.329 2.47-.249c.84.081 1.64.325 2.38.719s1.4.93 1.93 1.577.93 1.393 1.17 2.195c.25.802.33 1.644.25 2.479s-.32 1.645-.71 2.386c-.4.74-.93 1.396-1.58 1.929-9.16 7.559-20.66 11.693-32.53 11.696z" fill="#000"/><path d="m2415.37 378.872c-1.68 0-3.3-.672-4.5-1.869-1.19-1.196-1.86-2.819-1.86-4.511s.67-3.315 1.86-4.511c1.2-1.197 2.82-1.869 4.5-1.869 15.25-.161 30.28-3.598 44.09-10.08.76-.341 1.59-.529 2.42-.552.84-.023 1.67.119 2.45.419.78.299 1.49.75 2.1 1.326s1.1 1.266 1.44 2.031.53 1.59.55 2.428c.02.837-.12 1.671-.42 2.454-.3.782-.75 1.498-1.32 2.107-.58.608-1.27 1.097-2.03 1.439-15.44 7.22-32.24 11.035-49.28 11.188z" fill="#000"/><path d="m2369.12 346.122h-23.34c-1.69 0-3.31-.672-4.5-1.868-1.2-1.197-1.87-2.819-1.87-4.511s.67-3.315 1.87-4.511c1.19-1.197 2.81-1.869 4.5-1.869h23.34c1.69 0 3.31.672 4.5 1.869 1.19 1.196 1.86 2.819 1.86 4.511s-.67 3.314-1.86 4.511c-1.19 1.196-2.81 1.868-4.5 1.868z" fill="#000"/><path d="m2346.63 318.69c-.16 0-.33 0-.5-.02l-26.95-2.126c-.97-.077-1.92-.377-2.76-.879-.84-.501-1.55-1.19-2.08-2.013-.54-.823-.87-1.757-.98-2.731-.12-.974-.01-1.96.32-2.883l22.71-63.798c.56-1.593 1.74-2.896 3.27-3.621 1.52-.725 3.27-.813 4.86-.245 1.59.569 2.89 1.747 3.62 3.276.72 1.529.81 3.284.24 4.878l-19.91 55.945 18.66 1.474c1.64.128 3.16.887 4.26 2.119 1.09 1.232 1.67 2.841 1.6 4.489-.06 1.648-.76 3.207-1.94 4.35-1.19 1.144-2.77 1.782-4.42 1.782z" fill="#000"/><path d="m2481.99 262.408c-1.17-.001-2.31-.32-3.3-.924-.99-.603-1.8-1.468-2.34-2.5s-.79-2.192-.71-3.355c.07-1.162.46-2.283 1.12-3.239l19.98-28.835c.47-.704 1.08-1.308 1.78-1.776.71-.468 1.5-.79 2.33-.948s1.68-.149 2.51.028c.83.176 1.61.516 2.3.999.7.483 1.29 1.1 1.74 1.815.46.715.77 1.514.91 2.349s.12 1.691-.07 2.516c-.2.826-.55 1.605-1.04 2.292l-12.21 17.617 20.07-1.818c1.69-.152 3.36.371 4.66 1.456 1.29 1.084 2.11 2.64 2.26 4.326.15 1.685-.37 3.362-1.46 4.661-1.08 1.3-2.63 2.115-4.31 2.267l-33.65 3.043c-.19.017-.38.026-.57.026z" fill="#000"/><path d="m2294.65 297.637c4.33 0 7.85-3.523 7.85-7.869 0-4.345-3.52-7.868-7.85-7.868-4.34 0-7.85 3.523-7.85 7.868 0 4.346 3.51 7.869 7.85 7.869z" fill="#000"/><path d="m2453.81 240.077c8.19-28.399 47.15-50.132 72.54-28.664.56.47 1.06.971 1.57 1.488.13-.663.15-1.342.07-2.012l-.8-5.954v-.213c0-.275-.01-.55-.05-.823-3.55-27.207-16.87-52.188-37.46-70.277-20.58-18.089-47.04-28.048-74.41-28.018-27.38.03-53.82 10.047-74.36 28.181-20.55 18.133-33.81 43.143-37.31 70.359-.15 1.254.07 2.526.63 3.656.57 1.129 1.46 2.064 2.55 2.687 1.1.623 2.36.905 3.61.811 1.26-.094 2.46-.561 3.46-1.34l37-29.07 41.88 36.713c16.91 14.748 38.31 23.311 60.71 24.29.07-.614.2-1.22.37-1.814z" fill="#0618bb"/><path d="m2387.37 310.821c24.72 0 44.77-20.089 44.77-44.87 0-24.782-20.05-44.871-44.77-44.871-24.73 0-44.77 20.089-44.77 44.871 0 24.781 20.04 44.87 44.77 44.87z" fill="#fff"/><path d="m2387.37 317.201c-10.12 0-20-3.006-28.41-8.637-8.41-5.632-14.97-13.636-18.84-23.001-3.87-9.364-4.88-19.669-2.91-29.611 1.98-9.941 6.85-19.073 14-26.241 7.15-7.167 16.26-12.048 26.18-14.026 9.92-1.977 20.2-.963 29.54 2.916 9.35 3.879 17.33 10.448 22.95 18.876 5.62 8.429 8.62 18.337 8.62 28.474-.01 13.587-5.41 26.614-14.99 36.222-9.59 9.608-22.59 15.013-36.14 15.028zm0-89.741c-7.6 0-15.02 2.257-21.34 6.487-6.32 4.229-11.24 10.24-14.15 17.274-2.9 7.033-3.66 14.772-2.18 22.239 1.48 7.466 5.14 14.325 10.51 19.708s12.21 9.049 19.66 10.534 15.18.723 22.19-2.19c7.02-2.914 13.02-7.847 17.24-14.177s6.47-13.772 6.47-21.384c-.01-10.205-4.06-19.988-11.26-27.204s-16.96-11.275-27.14-11.287z" fill="#000"/><path d="m2387.37 297.637c4.33 0 7.85-3.523 7.85-7.869 0-4.345-3.52-7.868-7.85-7.868-4.34 0-7.85 3.523-7.85 7.868 0 4.346 3.51 7.869 7.85 7.869z" fill="#000"/><path d="m956.757 1445.66c45.143 0 81.733-36.57 81.733-81.67 0-45.11-36.59-81.67-81.733-81.67-45.139 0-81.732 36.56-81.732 81.67 0 45.1 36.593 81.67 81.732 81.67z" fill="#fff"/><path d="m956.757 1452.04c-17.428 0-34.464-5.17-48.955-14.84-14.49-9.68-25.785-23.43-32.454-39.52s-8.414-33.79-5.014-50.87 11.792-32.77 24.115-45.08c12.324-12.32 28.024-20.7 45.117-24.1s34.811-1.66 50.912 5.01c16.102 6.66 29.862 17.95 39.542 32.43 9.69 14.48 14.85 31.5 14.85 48.92-.02 23.34-9.32 45.72-25.83 62.23-16.52 16.51-38.921 25.79-62.283 25.82zm0-163.34c-14.902 0-29.469 4.41-41.86 12.69-12.39 8.27-22.048 20.03-27.751 33.79-5.702 13.75-7.194 28.89-4.287 43.5 2.907 14.6 10.083 28.02 20.62 38.55 10.538 10.52 23.963 17.7 38.579 20.6 14.615 2.91 29.765 1.41 43.533-4.28 13.767-5.7 25.539-15.35 33.809-27.73 8.28-12.39 12.7-26.94 12.7-41.83-.02-19.96-7.97-39.1-22.09-53.22-14.126-14.11-33.277-22.05-53.253-22.07z" fill="#000"/><path d="m723.271 1598.58v-25.74c-.026-22.56-7.845-44.42-22.136-61.89l-10.429-12.76h210.926l-10.429 12.76c-14.291 17.47-22.11 39.33-22.136 61.89v25.74c.004 9.55-1.876 19.01-5.532 27.84-3.657 8.82-9.019 16.85-15.779 23.6-6.76 6.76-14.786 12.11-23.619 15.77-8.834 3.65-18.301 5.53-27.862 5.53-9.576.02-19.064-1.84-27.919-5.48-8.856-3.65-16.904-9-23.686-15.76-6.782-6.75-12.163-14.78-15.835-23.62s-5.563-18.31-5.564-27.88z" fill="#fff"/><path d="m795.849 1677.7c-20.961-.06-41.042-8.43-55.844-23.26s-23.116-34.92-23.12-55.86v-25.74c-.037-21.08-7.345-41.51-20.695-57.85l-10.429-12.76c-.766-.93-1.25-2.07-1.397-3.27-.146-1.2.051-2.41.569-3.5.519-1.1 1.336-2.02 2.359-2.66 1.022-.65 2.206-.99 3.416-.99h210.925c1.21 0 2.394.34 3.417.99 1.022.64 1.84 1.56 2.358 2.66.518 1.09.715 2.3.569 3.5-.147 1.2-.631 2.34-1.397 3.27l-10.429 12.76c-13.35 16.33-20.66 36.77-20.697 57.85v25.74c-.024 20.97-8.374 41.08-23.217 55.92-14.843 14.83-34.968 23.17-55.96 23.2zm-91.686-173.13 1.916 2.34c15.212 18.62 23.538 41.9 23.577 65.93v25.74c.003 17.56 6.977 34.41 19.391 46.85 12.415 12.44 29.258 19.45 46.838 19.5h.356c17.611-.01 34.498-7 46.954-19.44s19.464-29.31 19.486-46.91v-25.74c.039-24.03 8.365-47.31 23.577-65.93l1.915-2.34z" fill="#000"/><path d="m1349.88 1802.12c-1.7 0-3.32-.68-4.52-1.87-1.2-1.2-1.87-2.82-1.87-4.51v-398.15c0-1.69.67-3.31 1.87-4.51s2.82-1.87 4.52-1.87c1.69 0 3.31.67 4.51 1.87s1.87 2.82 1.87 4.51v398.15c0 1.69-.67 3.31-1.87 4.51-1.2 1.19-2.82 1.87-4.51 1.87z" fill="#000"/><path d="m1437.35 1395.89h-174.53c-14.28 0-27.98-5.67-38.07-15.76-10.1-10.09-15.78-23.78-15.78-38.05s5.68-27.96 15.78-38.05c10.09-10.09 23.79-15.76 38.07-15.76h174.53c14.28 0 27.98 5.67 38.08 15.76s15.77 23.78 15.77 38.05-5.67 27.96-15.77 38.05-23.8 15.76-38.08 15.76zm-174.74-64.44c-1.43 0-2.84.28-4.15.82-1.32.55-2.52 1.35-3.53 2.35-1 1.01-1.8 2.21-2.35 3.52-.54 1.32-.83 2.73-.83 4.15 0 1.43.29 2.84.83 4.15.55 1.32 1.35 2.52 2.35 3.52 1.01 1.01 2.21 1.81 3.53 2.35 1.31.55 2.72.83 4.15.83h174.53c1.43 0 2.84-.28 4.15-.83 1.32-.54 2.52-1.34 3.53-2.35 1-1 1.8-2.2 2.35-3.52.54-1.31.82-2.72.82-4.15 0-1.42-.28-2.83-.82-4.15-.55-1.31-1.35-2.51-2.35-3.52-1.01-1-2.21-1.8-3.53-2.35-1.31-.54-2.72-.82-4.15-.82z" fill="#0618bb"/><path d="m1426.28 1540.09c-19.79 0-76.41-35.94-76.41-35.94s56.62-35.95 76.41-35.95c4.73 0 9.41.93 13.77 2.74 4.36 1.8 8.33 4.45 11.67 7.79s5.99 7.3 7.8 11.66c1.8 4.36 2.73 9.04 2.73 13.76s-.93 9.39-2.73 13.75c-1.81 4.36-4.46 8.32-7.8 11.66s-7.31 5.99-11.67 7.79c-4.36 1.81-9.04 2.74-13.77 2.74z" fill="#fff"/><path d="m1426.29 1546.47c-21.05 0-73.88-33.16-79.84-36.94-.91-.57-1.65-1.37-2.17-2.31s-.79-2-.79-3.07c0-1.08.27-2.13.79-3.08.52-.94 1.26-1.73 2.17-2.31 5.96-3.78 58.79-36.94 79.84-36.94 11.23 0 22 4.46 29.95 12.4 7.94 7.94 12.4 18.7 12.4 29.93 0 11.22-4.46 21.99-12.4 29.92-7.95 7.94-18.72 12.4-29.95 12.4zm-64.27-42.32c21.83 13.15 52.84 29.56 64.27 29.56 7.84 0 15.37-3.12 20.92-8.66 5.54-5.54 8.66-13.06 8.66-20.9s-3.12-15.36-8.66-20.91c-5.55-5.54-13.08-8.66-20.92-8.66-11.43 0-42.44 16.41-64.27 29.57z" fill="#000"/><path d="m1273.68 1540.09c19.79 0 76.41-35.94 76.41-35.94s-56.62-35.95-76.41-35.95c-9.54 0-18.69 3.79-25.44 10.53-6.74 6.74-10.53 15.88-10.53 25.42 0 9.53 3.79 18.67 10.53 25.41 6.75 6.74 15.9 10.53 25.44 10.53z" fill="#fff"/><path d="m1273.68 1546.47c-11.23 0-22.01-4.46-29.95-12.4-7.94-7.93-12.41-18.7-12.41-29.92 0-11.23 4.47-21.99 12.41-29.93s18.72-12.4 29.95-12.4c21.04 0 73.88 33.16 79.83 36.94.91.58 1.66 1.37 2.18 2.31.51.95.78 2 .78 3.08 0 1.07-.27 2.13-.78 3.07-.52.94-1.27 1.74-2.18 2.31-5.95 3.78-58.79 36.94-79.83 36.94zm0-71.89c-7.85 0-15.37 3.12-20.92 8.66-5.55 5.55-8.67 13.07-8.67 20.91s3.12 15.36 8.67 20.9 13.07 8.66 20.92 8.66c11.42 0 42.43-16.41 64.27-29.56-21.84-13.16-52.85-29.57-64.27-29.57z" fill="#000"/><path d="m713.478 1046.45c-5.982 0-11.719 2.38-15.95 6.61-4.23 4.22-6.608 9.96-6.611 15.94-.003-5.98-2.38-11.72-6.611-15.94-4.23-4.23-9.967-6.61-15.95-6.61s-11.72 2.38-15.95 6.61c-4.23 4.22-6.608 9.96-6.611 15.94-.003-5.98-2.381-11.72-6.611-15.94-4.231-4.23-9.968-6.61-15.95-6.61-5.983 0-11.72 2.38-15.95 6.61-4.231 4.22-6.609 9.96-6.612 15.94-.002-5.98-2.38-11.72-6.611-15.94-4.23-4.23-9.967-6.61-15.95-6.61-5.982 0-11.719 2.38-15.95 6.61-4.23 4.22-6.608 9.96-6.611 15.94-.003-5.98-2.381-11.72-6.611-15.94-4.23-4.23-9.967-6.61-15.95-6.61s-11.72 2.38-15.95 6.61c-4.231 4.22-6.608 9.96-6.611 15.94v94.64c-.007 14.86 2.917 29.58 8.605 43.31s14.029 26.2 24.545 36.71c10.515 10.51 23.001 18.84 36.742 24.53 13.74 5.68 28.468 8.6 43.339 8.6 14.872 0 29.599-2.92 43.34-8.6 13.741-5.69 26.226-14.02 36.742-24.53s18.856-22.98 24.544-36.71 8.613-28.45 8.606-43.31v-94.64c-.338-6.02-2.938-11.69-7.28-15.87-4.341-4.18-10.104-6.56-16.133-6.68z" fill="#fff"/><path d="m623.66 1283.17c-31.714-.04-62.118-12.64-84.543-35.05s-35.039-52.79-35.074-84.48v-94.64c-.002-5.99 1.857-11.84 5.321-16.72 3.463-4.89 8.36-8.58 14.015-10.57 5.654-1.99 11.786-2.17 17.549-.53 5.763 1.65 10.872 5.04 14.623 9.71 2.709-3.37 6.142-6.1 10.047-7.97 3.906-1.88 8.182-2.85 12.514-2.85s8.608.97 12.513 2.85c3.905 1.87 7.339 4.6 10.048 7.97 2.709-3.37 6.143-6.1 10.048-7.97 3.905-1.88 8.181-2.85 12.513-2.85s8.608.97 12.513 2.85c3.905 1.87 7.339 4.6 10.048 7.97 2.709-3.37 6.143-6.1 10.048-7.97 3.905-1.88 8.182-2.85 12.514-2.85 4.331 0 8.608.97 12.513 2.85 3.905 1.87 7.339 4.6 10.048 7.97 2.708-3.37 6.142-6.1 10.047-7.97 3.905-1.88 8.182-2.85 12.514-2.85 7.645.12 14.962 3.12 20.485 8.4 5.523 5.29 8.845 12.46 9.298 20.09 0 .14.015.29.015.44v94.64c-.036 31.69-12.65 62.07-35.074 84.48-22.425 22.41-52.83 35.01-84.543 35.05zm-90.671-230.34c-4.288.01-8.4 1.71-11.433 4.74-3.032 3.03-4.738 7.14-4.743 11.43v94.64c0 28.32 11.257 55.47 31.295 75.5 20.038 20.02 47.214 31.27 75.552 31.27 28.337 0 55.514-11.25 75.552-31.27 20.037-20.03 31.294-47.18 31.294-75.5v-94.41c-.268-4.36-2.166-8.47-5.319-11.51-3.152-3.04-7.33-4.78-11.708-4.89-4.289.01-8.401 1.71-11.433 4.74-3.033 3.03-4.739 7.14-4.743 11.43 0 1.69-.673 3.31-1.87 4.51-1.198 1.19-2.822 1.87-4.515 1.87-1.694 0-3.318-.68-4.515-1.87-1.198-1.2-1.87-2.82-1.87-4.51 0-4.29-1.705-8.4-4.738-11.43-3.034-3.04-7.148-4.74-11.438-4.74-4.291 0-8.405 1.7-11.439 4.74-3.033 3.03-4.737 7.14-4.737 11.43 0 1.69-.673 3.31-1.871 4.51-1.197 1.19-2.821 1.87-4.515 1.87-1.693 0-3.317-.68-4.515-1.87-1.197-1.2-1.87-2.82-1.87-4.51 0-4.29-1.704-8.4-4.738-11.43-3.033-3.04-7.148-4.74-11.438-4.74s-8.404 1.7-11.438 4.74c-3.034 3.03-4.738 7.14-4.738 11.43 0 1.69-.673 3.31-1.87 4.51-1.197 1.19-2.822 1.87-4.515 1.87-1.694 0-3.318-.68-4.515-1.87-1.198-1.2-1.87-2.82-1.87-4.51 0-4.29-1.705-8.4-4.738-11.43-3.034-3.04-7.148-4.74-11.438-4.74s-8.405 1.7-11.438 4.74c-3.034 3.03-4.738 7.14-4.738 11.43 0 1.69-.673 3.31-1.87 4.51-1.198 1.19-2.822 1.87-4.515 1.87-1.694 0-3.318-.68-4.515-1.87-1.198-1.2-1.871-2.82-1.871-4.51-.004-4.29-1.71-8.4-4.742-11.43-3.033-3.03-7.145-4.73-11.434-4.74z" fill="#000"/><path d="m441.679 1802.12c-1.693 0-3.317-.68-4.515-1.87-1.197-1.2-1.87-2.82-1.87-4.51v-436.43c0-1.69.673-3.32 1.87-4.51 1.198-1.2 2.822-1.87 4.515-1.87 1.694 0 3.318.67 4.515 1.87 1.198 1.19 1.87 2.82 1.87 4.51v436.43c0 1.69-.672 3.31-1.87 4.51-1.197 1.19-2.821 1.87-4.515 1.87z" fill="#000"/><path d="m441.682 1415.88c31.268 0 56.616-25.33 56.616-56.57 0-31.25-25.348-56.58-56.616-56.58s-56.616 25.33-56.616 56.58c0 31.24 25.348 56.57 56.616 56.57z" fill="#b4baeb"/><path d="m498.295 1538.6c31.268 0 56.615-25.33 56.615-56.57 0-31.25-25.347-56.58-56.615-56.58-31.269 0-56.616 25.33-56.616 56.58 0 31.24 25.347 56.57 56.616 56.57z" fill="#b4baeb"/><path d="m384.85 1538.6c31.268 0 56.616-25.33 56.616-56.57 0-31.25-25.348-56.58-56.616-56.58s-56.616 25.33-56.616 56.58c0 31.24 25.348 56.57 56.616 56.57z" fill="#b4baeb"/><path d="m498.295 1664.3c31.268 0 56.615-25.33 56.615-56.58 0-31.24-25.347-56.57-56.615-56.57-31.269 0-56.616 25.33-56.616 56.57 0 31.25 25.347 56.58 56.616 56.58z" fill="#b4baeb"/><path d="m384.85 1664.3c31.268 0 56.616-25.33 56.616-56.58 0-31.24-25.348-56.57-56.616-56.57s-56.616 25.33-56.616 56.57c0 31.25 25.348 56.58 56.616 56.58z" fill="#b4baeb"/><path d="m796.274 1802.12c-1.694 0-3.318-.68-4.515-1.87-1.198-1.2-1.87-2.82-1.87-4.51v-159.78c0-1.69.672-3.32 1.87-4.51 1.197-1.2 2.821-1.87 4.515-1.87 1.693 0 3.318.67 4.515 1.87 1.198 1.19 1.87 2.82 1.87 4.51v159.78c0 1.69-.672 3.31-1.87 4.51-1.197 1.19-2.822 1.87-4.515 1.87z" fill="#000"/><path d="m796.274 1503.72c-.861 0-1.713-.17-2.505-.51s-1.508-.83-2.103-1.45l-40.014-41.69c-.581-.6-1.037-1.32-1.341-2.1-.305-.78-.453-1.61-.436-2.45.018-.84.2-1.66.537-2.43s.822-1.46 1.427-2.04 1.319-1.04 2.1-1.34c.781-.31 1.615-.45 2.453-.44.838.02 1.665.2 2.433.54s1.462.82 2.043 1.43l40.014 41.68c.866.91 1.448 2.04 1.674 3.27.225 1.23.083 2.5-.408 3.65s-1.31 2.13-2.354 2.82-2.269 1.06-3.52 1.06z" fill="#000"/><path d="m796.274 1503.72c-1.694 0-3.318-.67-4.515-1.87-1.198-1.19-1.87-2.82-1.87-4.51v-55.51c0-1.69.672-3.32 1.87-4.51 1.197-1.2 2.821-1.87 4.515-1.87 1.693 0 3.318.67 4.515 1.87 1.197 1.19 1.87 2.82 1.87 4.51v39.64l29.021-30.23c1.173-1.22 2.782-1.93 4.476-1.97 1.693-.03 3.331.61 4.553 1.78s1.928 2.78 1.963 4.47c.036 1.69-.603 3.33-1.776 4.55l-40.014 41.69c-.596.62-1.312 1.11-2.103 1.45-.792.34-1.644.51-2.505.51z" fill="#000"/><path d="m956.754 1802.12c-1.693 0-3.317-.68-4.515-1.87-1.197-1.2-1.87-2.82-1.87-4.51v-350.08c0-1.69.673-3.32 1.87-4.51 1.198-1.2 2.822-1.87 4.515-1.87 1.694 0 3.318.67 4.515 1.87 1.198 1.19 1.871 2.82 1.871 4.51v350.08c0 1.69-.673 3.31-1.871 4.51-1.197 1.19-2.821 1.87-4.515 1.87z" fill="#000"/><path d="m956.757 1383.13c-16.779-.04-33.2-4.85-47.349-13.86s-25.442-21.86-32.562-37.04c-.716-1.53-.792-3.29-.212-4.88.579-1.59 1.767-2.89 3.302-3.6 1.535-.72 3.292-.79 4.883-.21 1.592.58 2.888 1.76 3.603 3.3 6.06 13 15.71 24.01 27.815 31.72 12.106 7.71 26.164 11.81 40.52 11.81 14.357 0 28.414-4.1 40.52-11.81 12.103-7.71 21.753-18.72 27.813-31.72.35-.77.85-1.46 1.47-2.03s1.34-1.02 2.13-1.31 1.63-.42 2.48-.38c.84.03 1.66.23 2.43.59.76.35 1.45.86 2.01 1.48.57.62 1.01 1.35 1.3 2.14.28.79.41 1.63.37 2.47s-.25 1.67-.61 2.43c-7.12 15.18-18.41 28.03-32.56 37.04-14.152 9.01-30.574 13.82-47.353 13.86z" fill="#000"/><path d="m990.812 1375.47c-.923 0-1.835-.2-2.673-.59-17.255-7.93-31.475-21.23-40.532-37.91s-12.463-35.85-9.709-54.63c.257-1.66 1.162-3.16 2.519-4.16 1.356-1 3.053-1.42 4.721-1.18 1.667.25 3.171 1.14 4.181 2.49 1.011 1.35 1.447 3.04 1.213 4.71-2.352 16.05.562 32.44 8.307 46.69 7.745 14.26 19.903 25.63 34.655 32.41 1.324.61 2.399 1.65 3.047 2.95.649 1.31.832 2.79.519 4.21-.314 1.43-1.104 2.7-2.24 3.61-1.137.91-2.551 1.4-4.008 1.4z" fill="#000"/><path d="m1127.24 1802.12c-1.69 0-3.32-.68-4.51-1.87-1.2-1.2-1.87-2.82-1.87-4.51v-41.27c0-1.69.67-3.31 1.87-4.51 1.19-1.19 2.82-1.87 4.51-1.87 1.7 0 3.32.68 4.52 1.87 1.19 1.2 1.87 2.82 1.87 4.51v41.27c0 .83-.17 1.66-.49 2.44-.32.77-.79 1.47-1.38 2.07-.6.59-1.3 1.06-2.07 1.38-.78.32-1.61.49-2.45.49z" fill="#000"/><path d="m1127.03 1432.05h-.02c-.84-.01-1.67-.17-2.44-.5-.78-.32-1.48-.79-2.07-1.39-.59-.59-1.06-1.3-1.38-2.07-.32-.78-.48-1.61-.47-2.45l.21-61.68c0-1.68.68-3.3 1.88-4.49 1.19-1.19 2.81-1.86 4.5-1.86h.02c.84 0 1.67.17 2.45.49.77.32 1.47.8 2.06 1.39.59.6 1.06 1.3 1.38 2.08.32.77.48 1.6.48 2.44l-.21 61.68c-.01 1.69-.68 3.3-1.88 4.49-1.2 1.2-2.82 1.87-4.51 1.87z" fill="#000"/><path d="m1127.03 1432.05c-1.24 0-2.45-.36-3.48-1.03-1.04-.67-1.86-1.63-2.36-2.76l-25.11-56.36c-.69-1.55-.74-3.3-.13-4.88s1.82-2.86 3.36-3.55c1.55-.68 3.31-.73 4.89-.12 1.58.6 2.86 1.81 3.54 3.36l25.12 56.36c.43.97.62 2.03.53 3.09-.08 1.07-.43 2.09-1.01 2.98s-1.37 1.63-2.31 2.13c-.93.51-1.98.78-3.04.78z" fill="#000"/><path d="m1127.03 1432.05c-1.07 0-2.12-.27-3.05-.78-.94-.51-1.73-1.25-2.31-2.14s-.92-1.92-1.01-2.98c-.08-1.06.11-2.13.55-3.1l25.32-56.36c.7-1.54 1.98-2.75 3.56-3.35s3.34-.55 4.89.14c1.54.7 2.75 1.97 3.35 3.55.6 1.59.55 3.34-.14 4.89l-25.33 56.36c-.51 1.12-1.33 2.07-2.36 2.74s-2.24 1.03-3.47 1.03z" fill="#000"/><path d="m1181.94 1610.28-54.91 54.87-54.92-54.87c-17.17-17.23-26.81-40.56-26.81-64.87 0-24.32 9.64-47.65 26.81-64.87l54.92-54.87 54.91 54.87c8.55 8.5 15.34 18.61 19.97 29.74 4.62 11.14 7.01 23.07 7.01 35.13 0 12.05-2.39 23.99-7.01 35.12-4.63 11.13-11.42 21.24-19.97 29.75z" fill="#fff"/><path d="m1127.03 1671.53c-.84 0-1.67-.17-2.45-.49-.77-.32-1.47-.79-2.07-1.38l-54.91-54.87c-18.34-18.44-28.63-43.38-28.63-69.37-.01-26 10.28-50.94 28.62-69.38l54.92-54.89c1.2-1.19 2.83-1.86 4.52-1.86s3.32.67 4.51 1.86l54.92 54.88c9.14 9.09 16.39 19.91 21.34 31.81 4.96 11.91 7.5 24.67 7.5 37.57 0 12.89-2.54 25.66-7.5 37.56-4.95 11.91-12.2 22.72-21.34 31.82l-54.92 54.87c-.59.59-1.29 1.06-2.07 1.38-.77.32-1.6.49-2.44.49zm0-236.84-50.4 50.36c-15.95 16.04-24.9 37.74-24.9 60.36 0 22.61 8.95 44.31 24.9 60.35l50.4 50.37 50.4-50.37c7.95-7.91 14.27-17.31 18.58-27.67 4.3-10.35 6.52-21.46 6.52-32.67.01-11.22-2.21-22.32-6.52-32.68-4.3-10.36-10.62-19.76-18.57-27.68z" fill="#000"/><path d="m1127.24 1754.47c24.69 0 44.7-19.99 44.7-44.66s-20.01-44.66-44.7-44.66c-24.68 0-44.69 19.99-44.69 44.66s20.01 44.66 44.69 44.66z" fill="#fff"/><path d="m1127.24 1760.86c-10.1 0-19.98-3-28.38-8.61s-14.94-13.58-18.81-22.9c-3.87-9.33-4.88-19.6-2.91-29.5s6.84-18.99 13.98-26.13c7.15-7.14 16.25-12 26.16-13.97s20.18-.96 29.51 2.9c9.34 3.87 17.31 10.41 22.93 18.8 5.61 8.4 8.6 18.27 8.6 28.36-.01 13.53-5.4 26.51-14.97 36.08-9.58 9.57-22.56 14.95-36.11 14.97zm0-89.33c-7.57 0-14.98 2.24-21.28 6.45s-11.21 10.19-14.11 17.18c-2.9 7-3.66 14.69-2.18 22.12s5.12 14.25 10.48 19.6c5.36 5.36 12.19 9 19.62 10.48s15.13.72 22.13-2.18 12.99-7.8 17.2-14.1 6.45-13.7 6.45-21.27c-.01-10.15-4.05-19.88-11.23-27.06-7.18-7.17-16.92-11.21-27.08-11.22z" fill="#000"/><path d="m1452.25 1795.74h-1154.664v399.63h1154.664z" fill="#fff"/><path d="m1452.25 2201.75h-1154.664c-1.693 0-3.317-.67-4.515-1.87-1.197-1.2-1.87-2.82-1.87-4.51v-399.63c0-1.7.673-3.32 1.87-4.52 1.198-1.19 2.822-1.87 4.515-1.87h1154.664c1.69 0 3.32.68 4.52 1.87 1.19 1.2 1.87 2.82 1.87 4.52v399.63c0 1.69-.68 3.31-1.87 4.51-1.2 1.2-2.83 1.87-4.52 1.87zm-1148.278-12.76h1141.898v-386.87h-1141.898z" fill="#000"/><path d="m1452.25 1875.49h-1154.664c-1.693 0-3.317-.67-4.515-1.87-1.197-1.19-1.87-2.82-1.87-4.51s.673-3.31 1.87-4.51c1.198-1.2 2.822-1.87 4.515-1.87h1154.664c1.69 0 3.32.67 4.52 1.87 1.19 1.2 1.87 2.82 1.87 4.51s-.68 3.32-1.87 4.51c-1.2 1.2-2.83 1.87-4.52 1.87z" fill="#000"/><path d="m690.704 1162.58c-1.694 0-3.318-.68-4.515-1.87-1.198-1.2-1.871-2.82-1.871-4.51v-88.91c0-1.69.673-3.31 1.871-4.51 1.197-1.19 2.821-1.87 4.515-1.87 1.693 0 3.317.68 4.515 1.87 1.197 1.2 1.87 2.82 1.87 4.51v88.91c0 1.69-.673 3.31-1.87 4.51-1.198 1.19-2.822 1.87-4.515 1.87z" fill="#000"/><path d="m645.582 1162.58c-1.694 0-3.318-.68-4.516-1.87-1.197-1.2-1.87-2.82-1.87-4.51v-88.91c0-1.69.673-3.31 1.87-4.51 1.198-1.19 2.822-1.87 4.516-1.87 1.693 0 3.317.68 4.515 1.87 1.197 1.2 1.87 2.82 1.87 4.51v88.91c0 1.69-.673 3.31-1.87 4.51-1.198 1.19-2.822 1.87-4.515 1.87z" fill="#000"/><path d="m600.246 1162.58c-1.694 0-3.318-.68-4.515-1.87-1.198-1.2-1.871-2.82-1.871-4.51v-88.91c0-1.69.673-3.31 1.871-4.51 1.197-1.19 2.821-1.87 4.515-1.87 1.693 0 3.317.68 4.515 1.87 1.197 1.2 1.87 2.82 1.87 4.51v88.91c0 1.69-.673 3.31-1.87 4.51-1.198 1.19-2.822 1.87-4.515 1.87z" fill="#000"/><path d="m554.913 1162.58c-1.694 0-3.318-.68-4.515-1.87-1.198-1.2-1.871-2.82-1.871-4.51v-88.91c0-1.69.673-3.31 1.871-4.51 1.197-1.19 2.821-1.87 4.515-1.87 1.693 0 3.317.68 4.515 1.87 1.197 1.2 1.87 2.82 1.87 4.51v88.91c0 1.69-.673 3.31-1.87 4.51-1.198 1.19-2.822 1.87-4.515 1.87z" fill="#000"/><path d="m622.81 1802.12c-1.693 0-3.318-.68-4.515-1.87-1.197-1.2-1.87-2.82-1.87-4.51v-580.84c0-1.7.673-3.32 1.87-4.52 1.197-1.19 2.822-1.86 4.515-1.86s3.318.67 4.515 1.86c1.198 1.2 1.87 2.82 1.87 4.52v580.84c0 1.69-.672 3.31-1.87 4.51-1.197 1.19-2.822 1.87-4.515 1.87z" fill="#000"/><path d="m2681.57 1239.09-142.25-318.606v-318.816h-480.85c-14.81 58.85-30.49 86.659-50.56 91.12-1.76.4-3.56.606-5.37.615-4.52.076-8.9-1.542-12.29-4.536-8.88-7.868-12.42-25.296-11.2-61.064-14.63 39.535-27.42 53.106-47.59 56.284-3.31.619-6.73.348-9.91-.784s-6-3.086-8.18-5.663c-8.28-9.428-10.29-27.402-8.64-48.05-4.27 5.986-10.46 10.323-17.54 12.283-2.71.966-5.63 1.186-8.46.636-2.82-.55-5.44-1.849-7.59-3.762-7.46-6.689-9.86-21.123-9.43-37.066h-229.68v318.803l142.25 318.606-142.25 318.81 142.25 318.82-142.25 318.6h907.29l142.25-318.6-142.25-318.82z" fill="#fff"/><path d="m2539.32 2201.75h-907.3c-1.07 0-2.12-.27-3.06-.78-.95-.51-1.74-1.25-2.33-2.15-.58-.9-.93-1.93-1.01-3-.09-1.07.1-2.14.54-3.12l141.08-315.98-141.09-316.2c-.36-.82-.55-1.72-.55-2.62s.19-1.79.55-2.62l141.09-316.19-141.08-315.985c-.37-.825-.56-1.718-.56-2.621v-318.816c0-1.705.67-3.34 1.88-4.545 1.21-1.206 2.84-1.883 4.54-1.883h229.69c.86 0 1.71.172 2.51.506.79.334 1.5.823 2.1 1.439.6.615 1.07 1.345 1.38 2.145.32.8.46 1.655.44 2.514-.43 15.855 2.22 27.568 7.29 32.113 1.32 1.171 2.94 1.956 4.67 2.268 1.74.312 3.53.14 5.18-.499 5.78-1.551 10.83-5.078 14.27-9.967.83-1.121 2.01-1.94 3.34-2.335 1.34-.395 2.77-.344 4.08.146s2.42 1.392 3.17 2.57c.74 1.177 1.09 2.567.98 3.958-1.67 20.83.84 36.209 7.07 43.295 1.46 1.765 3.37 3.101 5.53 3.864 2.16.764 4.49.927 6.74.473 15.64-2.462 27.61-11.785 42.55-52.164.53-1.432 1.55-2.629 2.88-3.377 1.34-.747 2.89-.995 4.39-.7s2.84 1.114 3.79 2.31c.95 1.197 1.44 2.692 1.39 4.218-1.11 32.238 1.68 49.518 9.04 56.037 1.65 1.367 3.6 2.306 5.7 2.735 2.09.429 4.26.335 6.31-.275 17.32-3.856 31.85-31.312 45.72-86.414.35-1.39 1.16-2.623 2.29-3.503 1.13-.881 2.52-1.358 3.95-1.357h480.85c1.7 0 3.34.677 4.54 1.883 1.21 1.205 1.88 2.84 1.88 4.545v317.445l141.7 317.347c.37.83.56 1.72.56 2.63 0 .9-.19 1.79-.56 2.62l-141.09 316.19 141.09 316.2c.37.82.56 1.72.56 2.62s-.19 1.79-.56 2.62l-142.25 318.6c-.51 1.14-1.33 2.1-2.37 2.77-1.05.68-2.26 1.04-3.5 1.04zm-897.39-12.86h893.22l139.38-312.17-141.08-316.2c-.37-.82-.56-1.72-.56-2.62s.19-1.79.56-2.62l141.08-316.19-141.08-315.985c-.37-.825-.56-1.718-.56-2.621v-312.388h-469.43c-15.24 58.649-31.55 85.939-54.16 90.967-2.22.5-4.49.758-6.76.767-6.09.077-12-2.115-16.56-6.151-7.4-6.558-11.55-17.653-13-36.085-11.17 20.663-23.4 30.139-40.52 32.837-4.39.78-8.91.401-13.1-1.099-4.2-1.5-7.93-4.07-10.82-7.454-6.88-7.838-10.48-20.432-10.76-37.545-2.76 1.519-5.66 2.747-8.67 3.666-3.78 1.292-7.83 1.559-11.75.773-3.91-.787-7.55-2.598-10.53-5.249-7.31-6.558-11.19-18.46-11.57-35.427h-216.81v311.017l141.7 317.347c.36.83.55 1.72.55 2.63 0 .9-.19 1.79-.55 2.62l-141.09 316.19 141.09 316.2c.37.82.56 1.72.56 2.62s-.19 1.79-.56 2.62z" fill="#000"/><path d="m2539.32 924.769h-907.3c-1.7 0-3.34-.677-4.54-1.882-1.21-1.206-1.88-2.841-1.88-4.545 0-1.705.67-3.34 1.88-4.546 1.2-1.205 2.84-1.882 4.54-1.882h907.3c1.7 0 3.34.677 4.54 1.882 1.21 1.206 1.88 2.841 1.88 4.546 0 1.704-.67 3.339-1.88 4.545-1.2 1.205-2.84 1.882-4.54 1.882z" fill="#000"/><path d="m2539.32 1562.19h-907.3c-1.7 0-3.34-.68-4.54-1.88-1.21-1.21-1.88-2.85-1.88-4.55s.67-3.34 1.88-4.55c1.2-1.2 2.84-1.88 4.54-1.88h907.3c1.7 0 3.34.68 4.54 1.88 1.21 1.21 1.88 2.85 1.88 4.55s-.67 3.34-1.88 4.55c-1.2 1.2-2.84 1.88-4.54 1.88z" fill="#000"/><path d="m2681.57 1243.59h-907.29c-1.7 0-3.34-.68-4.54-1.89-1.21-1.2-1.89-2.84-1.89-4.54 0-1.71.68-3.34 1.89-4.55 1.2-1.2 2.84-1.88 4.54-1.88h907.29c1.71 0 3.34.68 4.55 1.88 1.2 1.21 1.88 2.84 1.88 4.55 0 1.7-.68 3.34-1.88 4.54-1.21 1.21-2.84 1.89-4.55 1.89z" fill="#000"/><path d="m2677.29 1881h-903.01c-1.7 0-3.34-.67-4.54-1.88-1.21-1.2-1.89-2.84-1.89-4.54 0-1.71.68-3.34 1.89-4.55 1.2-1.2 2.84-1.88 4.54-1.88h903.01c1.7 0 3.34.68 4.54 1.88 1.21 1.21 1.89 2.84 1.89 4.55 0 1.7-.68 3.34-1.89 4.54-1.2 1.21-2.84 1.88-4.54 1.88z" fill="#000"/><path d="m3814.2 2202.31h-3564.4c-3.739 0-6.599-2.92-6.599-6.74 0-3.81 2.86-6.73 6.599-6.73h3564.4c3.74 0 6.6 2.92 6.6 6.73 0 3.82-2.86 6.74-6.6 6.74z" fill="#000"/></svg>