<svg class="img-fluid" fill="none" height="2304" viewBox="0 0 4096 2304" width="4096" xmlns="http://www.w3.org/2000/svg"><path d="m2732.07 734.164c50.8 0 91.98-41.096 91.98-91.791s-41.18-91.792-91.98-91.792-91.98 41.097-91.98 91.792 41.18 91.791 91.98 91.791z" fill="#fff"/><path d="m2732.07 740.568c-19.46 0-38.48-5.759-54.66-16.549s-28.8-26.126-36.24-44.069c-7.45-17.943-9.4-37.686-5.6-56.734 3.79-19.049 13.17-36.545 26.93-50.278s31.29-23.085 50.37-26.874c19.09-3.789 38.87-1.844 56.85 5.588s33.35 20.018 44.16 36.166 16.58 35.133 16.58 54.555c-.03 26.033-10.4 50.992-28.85 69.401-18.44 18.409-43.45 28.764-69.54 28.794zm0-183.583c-16.92 0-33.46 5.008-47.53 14.391-14.07 9.382-25.04 22.718-31.52 38.32-6.47 15.603-8.17 32.771-4.86 49.335 3.3 16.563 11.45 31.778 23.41 43.72 11.97 11.941 27.21 20.073 43.81 23.368s33.8 1.604 49.43-4.859c15.64-6.463 29-17.407 38.4-31.449s14.42-30.55 14.42-47.438c-.03-22.639-9.05-44.343-25.09-60.35-16.04-16.008-37.79-25.012-60.47-25.038z" fill="#000"/><path d="m2844.85 1472.54 162.76 447.37 337.03-45.08-198.64-546.89c-7.51-20.66-19.07-39.62-33.99-55.78l-286.8-321.336c-.08-.733-.12-1.461-.21-2.195l-1.59.188-.17-.188-.26.239-304 36.222-216.89 211.7c-26.63 29.06-42.03 66.64-43.46 106-1.42 39.36 11.23 77.95 35.7 108.85l336.37 425.02 267.97-181.71-255.76-338.37 32-34.92z" fill="#fff"/><path d="m2585.88 710.719c-21.05-14.209-40.79-21.04-67.95-17.334l-151.73 20.685 18.97 202.197 144.66-19.724c-1.1 9.023-2.98 17.936-5.61 26.641-5.96 20.062-7.74 41.13-5.24 61.906l306.02-36.397c-1.59-13.431-4.96-26.594-10.01-39.144l76.77 3.111 19.87-215.027-84.04-3.405-155.34 48.558c-25.06 7.832-54.07 5.477-72.8-12.892z" fill="#fff"/><path d="m2518.97 991.494c-1.57-.003-3.08-.578-4.26-1.617-1.17-1.039-1.92-2.47-2.11-4.023-2.63-21.644-.77-43.598 5.46-64.493 1.72-5.687 3.1-11.469 4.14-17.317l-136.17 18.572c-.86.117-1.73.06-2.57-.168-.83-.229-1.61-.623-2.29-1.16s-1.24-1.206-1.65-1.966c-.42-.759-.67-1.594-.75-2.455l-18.97-202.197c-.16-1.644.33-3.285 1.36-4.578 1.03-1.294 2.52-2.141 4.16-2.364l151.74-20.685c26.35-3.599 48 1.902 72.41 18.375.64.432 1.2.978 1.64 1.61l13.23 18.691c18.31 17.556 46.03 17.193 65.98 10.959l155.34-48.557c.7-.221 1.44-.319 2.18-.288l84.05 3.404c.87.036 1.72.247 2.5.622.79.375 1.49.906 2.06 1.559.58.654 1.01 1.417 1.28 2.243s.36 1.698.28 2.563l-19.87 215.027c-.15 1.633-.93 3.145-2.17 4.225-1.23 1.081-2.84 1.648-4.48 1.586l-67.18-2.722c3.42 10.269 5.78 20.858 7.05 31.604.2 1.686-.27 3.382-1.33 4.716-1.05 1.334-2.59 2.196-4.28 2.397l-306.02 36.394c-.25.03-.51.044-.76.043zm10.85-101.357c.91 0 1.81.193 2.64.565.83.373 1.57.917 2.17 1.596s1.05 1.478 1.32 2.345c.27.866.35 1.779.24 2.679-1.15 9.386-3.1 18.657-5.83 27.712-5.12 17.146-7.03 35.085-5.64 52.921l293.01-34.848c-1.74-10.677-4.66-21.129-8.7-31.167-.4-.992-.55-2.068-.42-3.131.12-1.062.51-2.076 1.13-2.95s1.45-1.579 2.41-2.051c.96-.473 2.02-.698 3.09-.654l70.68 2.863 18.69-202.255-76.17-3.089-154.28 48.222c-30.16 9.433-60.51 3.902-79.2-14.434-.28-.268-.52-.56-.75-.871l-12.89-18.214c-21.42-14.236-39.61-18.772-62.52-15.647l-145.64 19.853 17.77 189.436 138.03-18.822c.29-.039.58-.059.87-.059z" fill="#000"/><path d="m3467.42 2050.77c-103.39-15.26-160.62-104.46-165-171.42-6.5 3.81-214.9 37.23-264.69 38.32l1.34 242.39 74.86-.36-1.28-147.79 158.05 147.08 273.89-1.32c3.55-50.21-27.59-99.58-77.17-106.9z" fill="#0618bb"/><path d="m2969.63 1806.12-90.69-140.39c-4.09 3.44-215.46 148.58-215.48 148.56-.3.83-.64 1.68-1.02 2.57-.02.06-.05.1-.07.16 37.23 55.62 66.79 142.31-11.21 211.16-37.51 33.17-36.57 91.52-6.11 131.63l236.95-152.66 10.87-182.89 79.82 124.49 38.99-25.15c-2.49-1.54-39.93-107.17-42.05-117.48z" fill="#0618bb"/><path d="m3081.54 1236.81c-6.67-57.85-16.33-109.34-16.33-109.34l94.84-287.71c4.28-15.641 4.97-32.045 2.03-47.991-2.95-15.945-9.47-31.021-19.07-44.106-9.59-13.085-22.02-23.841-36.36-31.468s-30.21-11.929-46.45-12.585l-148.57-5.998-19.87 215.048 24.09.982-15.99 120.818z" fill="#fff"/><path d="m3081.54 1243.21c-.9 0-1.8-.19-2.62-.55-.82-.37-1.56-.91-2.16-1.58l-181.68-202.35c-.62-.68-1.08-1.5-1.35-2.38s-.35-1.81-.23-2.73l15.06-113.871-17.06-.696c-.87-.035-1.72-.247-2.51-.622-.78-.375-1.48-.905-2.06-1.559-.57-.653-1-1.416-1.27-2.242-.27-.827-.37-1.699-.29-2.564l19.87-215.048c.15-1.636.92-3.152 2.16-4.234s2.85-1.646 4.49-1.576l148.57 5.998c17.2.695 34.02 5.253 49.21 13.333 15.19 8.081 28.36 19.476 38.52 33.338 10.17 13.861 17.07 29.833 20.19 46.725 3.13 16.892 2.4 34.27-2.14 50.84-.03.105-.06.214-.09.314l-94.33 286.164c1.69 9.24 10.14 56.45 16.09 108.16.11.89.02 1.8-.25 2.66-.28.86-.73 1.65-1.33 2.33-.6.67-1.34 1.21-2.17 1.58-.82.37-1.72.56-2.62.56zm-174.93-210.82 166.08 184.97c-6.26-48.37-13.7-88.26-13.79-88.71-.2-1.06-.12-2.15.21-3.18l94.79-287.554c4-14.706 4.63-30.122 1.84-45.103s-8.93-29.142-17.95-41.431c-9.03-12.289-20.72-22.391-34.19-29.553-13.48-7.163-28.4-11.204-43.66-11.821l-142.49-5.753-18.69 202.28 17.34.707c.89.036 1.76.257 2.56.649s1.51.946 2.09 1.627c.57.681 1 1.474 1.25 2.328s.32 1.75.2 2.633z" fill="#000"/><path d="m2514.51 481.227c-1.95 3.312-3.68 6.749-5.17 10.287-4.25 9.986-6.64 20.657-7.08 31.495-12.65 13.273-20.94 30.082-23.77 48.181-2.82 18.1-.05 36.63 7.95 53.116s20.85 30.143 36.84 39.149c15.98 9.006 34.34 12.931 52.62 11.252l6.07 20.651 4.43 14.302c2.41 8.163 7.02 15.508 13.33 21.235 6.3 5.727 14.07 9.615 22.44 11.24l60.7-35.713-27.8-98.196-2.14-81.118-100.53-72.579-19.25 10.673z" fill="#fff"/><path d="m2622.17 748.53c-.41.001-.82-.039-1.23-.117-9.53-1.828-18.37-6.244-25.55-12.764s-12.42-14.89-15.14-24.19l-4.41-14.221-4.65-15.82c-19 .705-37.78-4.196-53.99-14.091-16.22-9.895-29.15-24.343-37.18-41.537-8.02-17.193-10.79-36.368-7.96-55.124 2.84-18.756 11.16-36.26 23.92-50.321.7-10.789 3.22-21.382 7.45-31.335 1.61-3.798 3.46-7.485 5.56-11.038.35-.605.81-1.148 1.34-1.605l18.63-16.025c.33-.285.69-.536 1.07-.748l19.26-10.673c1.06-.592 2.28-.867 3.49-.795 1.22.073 2.4.491 3.38 1.205l100.54 72.579c.79.577 1.45 1.33 1.91 2.2.46.871.71 1.835.74 2.819l2.12 80.317 27.59 97.425c.39 1.361.31 2.812-.22 4.125s-1.47 2.414-2.7 3.133l-60.71 35.707c-.99.582-2.12.891-3.26.894zm-46.27-80.236c1.39.001 2.73.449 3.84 1.278s1.92 1.994 2.31 3.32l6.08 20.651 4.4 14.217c1.94 6.679 5.6 12.737 10.61 17.572s11.2 8.28 17.95 9.993l54.27-31.922-26.47-93.454c-.14-.512-.22-1.04-.24-1.571l-2.05-77.955-94.66-68.327-15.1 8.377-17.33 14.889c-1.59 2.791-3.02 5.674-4.28 8.633-3.94 9.276-6.17 19.19-6.57 29.26-.06 1.555-.69 3.034-1.76 4.16-11.75 12.328-19.45 27.94-22.08 44.752s-.05 34.024 7.38 49.337c7.43 15.314 19.37 28 34.21 36.365 14.85 8.366 31.9 12.012 48.88 10.453.21-.017.41-.028.61-.028z" fill="#000"/><path d="m2577.88 1977.18c-9.34-.01-18.43-3-25.94-8.54-7.51-5.55-13.04-13.34-15.78-22.25s-2.55-18.46.54-27.26c3.1-8.79 8.94-16.36 16.67-21.6 17.78-11.42 120.6-37.67 132.26-40.63 1.3-.33 2.68-.24 3.93.25s2.31 1.35 3.04 2.48 1.08 2.45 1.02 3.79c-.07 1.34-.55 2.62-1.39 3.67-7.48 9.39-73.72 92.18-91.37 103.56-.19.12-.38.23-.58.33-6.77 4.06-14.51 6.2-22.4 6.2zm92.19-103.02c-37.68 9.92-98.36 26.81-109.64 34.06-6.67 4.52-11.3 11.47-12.89 19.36s-.03 16.09 4.37 22.84c4.39 6.75 11.26 11.51 19.14 13.26 7.87 1.76 16.11.36 22.97-3.89l.21-.12c11.72-7.99 51.54-55.61 75.84-85.51z" fill="#000"/><path d="m2555.92 1891.81c-1.27.01-2.54-.05-3.8-.18-5.7-.65-11.21-2.41-16.22-5.18s-9.43-6.5-13-10.98c-3.57-4.47-6.22-9.6-7.8-15.1s-2.06-11.25-1.41-16.93c.64-5.69 2.41-11.19 5.18-16.19 2.78-5 6.52-9.41 11-12.97 4.49-3.56 9.63-6.21 15.14-7.78 5.5-1.58 11.27-2.06 16.96-1.42 20.87 2.35 117.06 47.13 127.96 52.23 1.22.57 2.22 1.5 2.88 2.67s.93 2.51.78 3.85c-.16 1.33-.72 2.58-1.62 3.57-.9 1-2.09 1.68-3.41 1.97-11.17 2.39-105.25 22.43-132.64 22.44zm1.07-74.2c-7.87 0-15.45 3.01-21.17 8.41-5.72 5.39-9.15 12.77-9.58 20.62-.44 7.84 2.15 15.56 7.23 21.56s12.28 9.83 20.1 10.7c12.39 1.41 69.01-8.95 113.41-18.09-41.22-18.84-94.08-41.61-106.45-43-1.18-.13-2.36-.2-3.54-.2z" fill="#000"/><path d="m3275.94 2064.39c-7.48 0-14.85-1.77-21.51-5.18s-12.41-8.35-16.78-14.41c-4.36-6.06-7.22-13.08-8.34-20.46-1.11-7.39-.44-14.93 1.94-22.01 7.29-21.63 77.33-113.87 85.3-124.32.81-1.06 1.94-1.85 3.22-2.24 1.29-.4 2.66-.38 3.93.05 1.28.43 2.38 1.25 3.17 2.33.78 1.09 1.2 2.4 1.2 3.74 0 13.12-.23 128.75-7.52 150.46-3.15 9.32-9.15 17.42-17.15 23.17s-17.6 8.85-27.46 8.87zm39.2-163.22c-25.41 33.95-66.95 91.11-71.72 105.25-1.48 4.27-2.09 8.78-1.81 13.29.28 4.5 1.45 8.91 3.44 12.96 2 4.05 4.77 7.67 8.18 10.64 3.4 2.98 7.35 5.25 11.64 6.69 4.29 1.45 8.82 2.03 13.33 1.71 4.51-.31 8.91-1.51 12.96-3.53 4.04-2.02 7.65-4.82 10.6-8.23 2.96-3.42 5.21-7.39 6.62-11.67 4.76-14.22 6.37-84.76 6.76-127.11z" fill="#000"/><path d="m3200.29 2004.69c-10.24.02-20.2-3.28-28.38-9.42s-14.14-14.76-16.97-24.58c-2.83-9.81-2.38-20.28 1.28-29.82s10.34-17.63 19.02-23.04c19.28-12.1 132.12-39.13 144.92-42.17 1.31-.31 2.68-.2 3.92.31 1.25.5 2.3 1.39 3.01 2.53.71 1.13 1.05 2.46.96 3.8-.08 1.34-.59 2.62-1.44 3.65-8.34 10.15-82.04 99.51-101.43 111.61-7.46 4.66-16.09 7.14-24.89 7.13zm104.08-112.01c-41.24 10.18-109.73 28.1-122.32 36-3.85 2.37-7.19 5.47-9.84 9.13-2.64 3.66-4.53 7.8-5.56 12.2-1.04 4.39-1.19 8.94-.45 13.39.74 4.46 2.36 8.72 4.75 12.54 2.4 3.83 5.53 7.14 9.21 9.76 3.69 2.61 7.86 4.47 12.26 5.47 4.41 1 8.98 1.12 13.43.35 4.46-.77 8.72-2.41 12.53-4.83 12.67-7.9 58.77-61.48 85.99-94.01z" fill="#000"/><path d="m3263.25 1654.6c-6.38.11-12.7-1.36-18.38-4.27-6.14-3.12-12.94-4.75-19.84-4.75-6.89 0-13.69 1.63-19.83 4.75-8.92 4.55-19.25 5.5-28.85 2.66s-17.74-9.26-22.74-17.92c-4.99-8.66-6.46-18.9-4.1-28.62 2.36-9.71 8.36-18.14 16.78-23.56 6.2-4.16 11.25-9.8 14.68-16.41 3.44-6.61 5.16-13.98 5-21.43v-.16c-.01-7.47 2.13-14.78 6.16-21.08 4.03-6.29 9.79-11.3 16.59-14.42-2.31-6.88-3.84-14-4.58-21.22-11.62 4.28-21.64 12.02-28.72 22.17-7.07 10.15-10.86 22.22-10.85 34.59v.23.24c.1 3.86-.77 7.69-2.54 11.14-1.76 3.44-4.37 6.38-7.57 8.56-12.99 8.42-22.24 21.5-25.85 36.53-3.6 15.03-1.29 30.87 6.47 44.24 7.76 13.38 20.37 23.27 35.22 27.64 14.86 4.37 30.83 2.88 44.61-4.17 3.13-1.59 6.59-2.42 10.1-2.42 3.52 0 6.98.83 10.11 2.42 11.46 5.87 24.5 7.91 37.21 5.82-3.23-6.75-6.29-13.59-9.08-20.56z" fill="#0618bb"/><path d="m3069.78 1783.2c-3.49-1.43-6.57-3.71-8.93-6.65-2.36-2.93-3.94-6.42-4.58-10.13-.28-1.68-.63-3.35-1.1-5.18-2.97-11.48-9.28-21.82-18.12-29.73-8.84-7.92-19.83-13.05-31.58-14.76s-23.75.08-34.49 5.15c-10.74 5.06-19.74 13.18-25.87 23.33 3.29 9.48 8.66 18.12 12.83 27.25.92-9.08 5-17.55 11.54-23.92 6.54-6.38 15.12-10.26 24.23-10.97 9.12-.71 18.19 1.81 25.64 7.1 7.44 5.3 12.79 13.04 15.1 21.86.3 1.19.53 2.29.71 3.37l.02.1c1.24 7.28 4.32 14.12 8.95 19.88s10.66 10.25 17.5 13.04c9.27 3.8 16.72 11 20.81 20.13 4.09 9.12 4.52 19.46 1.18 28.89-3.33 9.42-10.17 17.21-19.1 21.74-8.92 4.54-19.25 5.48-28.85 2.62-6.64-1.92-13.63-2.26-20.42-.98-6.79 1.29-13.18 4.15-18.65 8.37-.16.12-.33.22-.49.34 1.84 7.1 4.26 14.04 7.24 20.74 2.2-1.26 4.31-2.66 6.33-4.19 2.79-2.16 6.05-3.62 9.51-4.28 3.47-.67 7.04-.5 10.43.48 14.86 4.4 30.84 2.94 44.65-4.09 13.81-7.02 24.38-19.07 29.54-33.66 5.15-14.59 4.5-30.59-1.84-44.71-6.33-14.12-17.86-25.27-32.2-31.14z" fill="#0618bb"/><path d="m3022.31 1177.53c-6.46 7.08-15.3 11.54-24.84 12.54s-19.12-1.54-26.9-7.14c-5.59-4.06-12.06-6.74-18.89-7.82s-13.81-.53-20.39 1.6c-9.51 3.09-19.85 2.41-28.89-1.89-9.03-4.3-16.06-11.89-19.65-21.21-3.59-9.33-3.45-19.67.38-28.89 3.83-9.23 11.06-16.63 20.21-20.69 6.77-3.16 12.64-7.97 17.07-13.99 4.42-6.01 7.25-13.05 8.23-20.45.02-.14.04-.29.05-.46.12-.72.31-1.42.47-2.13-5.25-5.86-10.9-11.35-16.9-16.44-2.31 5.01-3.91 10.31-4.77 15.76-.04.24-.07.52-.09.81-.56 3.76-2.03 7.32-4.3 10.37-2.27 3.06-5.26 5.51-8.7 7.13-14.08 6.35-25.19 17.83-31.05 32.1s-6.02 30.24-.45 44.62c5.57 14.39 16.44 26.1 30.39 32.73 13.95 6.62 29.92 7.67 44.62 2.92 3.36-1.09 6.94-1.37 10.44-.81 3.49.55 6.8 1.93 9.66 4.01 12.01 8.65 26.77 12.61 41.5 11.12s28.4-8.32 38.42-19.2c-5.29-4.77-10.5-9.63-15.62-14.59z" fill="#0618bb"/><path d="m2408.67 1248.31c-3.44-14.52-12.15-27.26-24.47-35.72-12.31-8.47-27.33-12.07-42.15-10.1-3.76.49-7.58.02-11.1-1.37-3.53-1.38-6.64-3.64-9.04-6.56-1.15-1.39-2.33-2.64-3.36-3.74l-.15-.16c-1.91-1.94-3.95-3.75-6.11-5.42-4.61 5.45-9.11 11.01-13.84 16.36 1.63 1.19 3.17 2.5 4.59 3.93.84.88 1.63 1.72 2.38 2.62 4.7 5.72 10.79 10.14 17.68 12.85 6.89 2.72 14.36 3.63 21.71 2.66 9.92-1.3 19.96 1.25 28.05 7.12 8.09 5.88 13.61 14.63 15.42 24.45s-.23 19.96-5.69 28.32c-5.46 8.37-13.93 14.32-23.67 16.63-6.71 1.61-12.94 4.78-18.19 9.25-5.24 4.47-9.35 10.12-12 16.48-2.67 6.49-7.06 12.14-12.7 16.35-5.63 4.21-12.3 6.82-19.29 7.56-7 .73-14.07-.43-20.46-3.38-6.39-2.94-11.86-7.55-15.84-13.34.7 10.66 2.29 21.25 4.75 31.66 8.53 4.38 17.98 6.66 27.57 6.65 11.96 0 23.65-3.56 33.57-10.21 9.93-6.65 17.65-16.1 22.18-27.15 1.34-3.24 3.44-6.11 6.11-8.39 2.67-2.27 5.84-3.89 9.26-4.7 15.58-3.72 29.05-13.46 37.45-27.08 8.39-13.62 11.03-30.01 7.34-45.57z" fill="#0618bb"/><path d="m2689.36 1425.4c.8-1.36 1.58-2.75 2.33-4.17 6.4-11.83 8.62-25.45 6.31-38.69-5.51-6.85-10.99-13.73-16.35-20.71-8.74-7.93-17.96-15.37-26.42-23.6-1.23-1.17-2.16-2.61-2.71-4.21-12.95-3.08-26.55-1.81-38.71 3.6s-22.19 14.66-28.54 26.33v.02c-.06.1-.12.2-.18.3-1.85 3.39-4.54 6.26-7.8 8.34-3.26 2.09-6.99 3.31-10.85 3.58-15.49.74-30.09 7.39-40.8 18.57-10.7 11.18-16.7 26.05-16.73 41.51-.04 15.47 5.88 30.36 16.53 41.6 10.65 11.23 25.22 17.96 40.7 18.77 3.5.19 6.92 1.21 9.96 2.96 3.04 1.76 5.62 4.21 7.53 7.15 8.42 12.89 21.45 22.07 36.43 25.69 14.97 3.61 30.77 1.38 44.15-6.25 13.38-7.62 23.34-20.06 27.84-34.77s3.19-30.58-3.64-44.36c-1.7-3.37-2.51-7.11-2.36-10.88.16-3.76 1.27-7.43 3.24-10.65zm-16.53-14.23c-.62 1.17-1.25 2.28-1.89 3.38-3.83 6.28-5.99 13.44-6.29 20.79-.3 7.34 1.28 14.65 4.59 21.22 4.41 8.9 5.24 19.15 2.33 28.64-2.9 9.5-9.33 17.53-17.97 22.45s-18.84 6.37-28.51 4.04-18.09-8.25-23.53-16.56c-3.75-5.77-8.81-10.57-14.77-14.01-5.97-3.44-12.66-5.42-19.54-5.79-10.01-.54-19.43-4.9-26.3-12.17-6.88-7.28-10.69-16.92-10.64-26.92.05-10.01 3.95-19.61 10.9-26.82 6.94-7.21 16.4-11.48 26.42-11.92 7.44-.46 14.65-2.79 20.96-6.76 6.31-3.98 11.51-9.48 15.13-15.99l.04-.07c.09-.14.16-.27.24-.41 2.43-4.51 5.72-8.5 9.69-11.74s8.55-5.67 13.46-7.15c4.91-1.47 10.07-1.97 15.17-1.46 5.11.52 10.06 2.03 14.58 4.45s8.52 5.71 11.76 9.67c3.25 3.97 5.68 8.53 7.16 13.44 1.48 4.9 1.98 10.04 1.46 15.14-.51 5.09-2.02 10.04-4.45 14.55z" fill="#0618bb"/><path d="m2567.93 1630.69c-3.54-1.33-6.69-3.53-9.13-6.41-2.45-2.87-4.12-6.33-4.86-10.03-.34-1.67-.75-3.36-1.21-5.03-.04-.11-.07-.21-.1-.33-3.53-11.2-10.26-21.13-19.37-28.56-9.1-7.44-20.18-12.06-31.88-13.31-11.7-1.24-23.51.96-33.98 6.32s-19.14 13.65-24.95 23.86c5.37 5.53 10.56 11.25 15.68 17.01 2.69-7.73 7.74-14.41 14.45-19.11 6.7-4.7 14.72-7.17 22.91-7.07s16.14 2.78 22.73 7.64c6.58 4.87 11.46 11.68 13.95 19.47.31 1.11.58 2.22.8 3.32v.02c1.44 7.25 4.72 14.01 9.51 19.64 4.8 5.63 10.95 9.95 17.89 12.55 9.38 3.52 17.05 10.51 21.41 19.52s5.08 19.35 2.01 28.88c-3.07 9.52-9.7 17.5-18.5 22.28-8.81 4.79-19.12 6-28.81 3.4-.12-.03-.24-.05-.36-.08 7.31 6.98 14.16 14.42 21.01 21.87 13.04-2.3 24.96-8.81 33.94-18.53 8.97-9.73 14.49-22.12 15.72-35.28 1.22-13.16-1.92-26.36-8.94-37.57-7.02-11.2-17.53-19.8-29.93-24.46z" fill="#0618bb"/><path d="m2682.06 560.522c-.95 0-1.89-.209-2.75-.614-.85-.405-1.61-.995-2.21-1.727-.61-.732-1.04-1.589-1.27-2.508-.23-.918-.25-1.877-.07-2.806 1.01-5.051 25.2-123.989 70.38-146.07 4.98-2.53 10.5-3.818 16.08-3.751 5.59.066 11.08 1.485 16 4.133 13.06 6.52 16.51 16.224 17.11 23.23 3.79 44.615-97.88 120.379-109.48 128.873-1.1.805-2.43 1.239-3.79 1.24zm79.63-144.638c-3.45.031-6.84.858-9.91 2.415-28.1 13.732-49.83 80.614-59.58 120.029 34.84-27.48 92.69-79.25 90.35-106.839-.3-3.514-1.67-8.667-10.06-12.853-3.33-1.752-7.03-2.695-10.8-2.752z" fill="#000"/><path d="m2682.99 560.524h-.96c-1.33-.005-2.62-.422-3.7-1.192-1.08-.771-1.9-1.857-2.33-3.109-.44-1.253-.47-2.609-.11-3.883.37-1.274 1.13-2.401 2.17-3.228 8.19-6.517 81.05-63.453 115.8-56.089 3.36.635 6.54 2.029 9.28 4.074s4.97 4.688 6.53 7.727c5.74 11.126 3.2 19.566.05 24.692-18.3 29.806-111.88 31.008-126.73 31.008zm103.66-55.414c-21.22 0-59.97 24.335-84.82 42.171 38.52-1.746 87.39-8.887 96.95-24.457 1.34-2.186 2.74-5.817-.5-12.119-.69-1.357-1.69-2.532-2.92-3.428-1.23-.897-2.66-1.488-4.16-1.727-1.5-.305-3.02-.452-4.55-.44z" fill="#000"/><path d="m2671.08 1292.29c-1.23 0-2.44-.35-3.47-1.02-1.04-.67-1.86-1.62-2.37-2.74s-.68-2.36-.5-3.58c.18-1.21.71-2.35 1.52-3.28l41.17-46.94c.55-.66 1.23-1.19 1.99-1.58s1.59-.62 2.44-.69c.85-.06 1.7.04 2.51.31s1.56.7 2.2 1.26 1.17 1.24 1.54 2.01c.38.77.59 1.6.64 2.45s-.07 1.7-.36 2.5c-.28.81-.73 1.54-1.3 2.17l-41.18 46.95c-.6.68-1.34 1.23-2.17 1.61-.84.38-1.74.57-2.66.57z" fill="#000"/><path d="m2869.47 1493.07c-1.12 0-2.22-.3-3.19-.86l-24.66-14.11c-.76-.4-1.44-.95-1.99-1.61-.54-.67-.95-1.44-1.19-2.27-.24-.82-.31-1.69-.21-2.55.11-.85.38-1.68.81-2.42.43-.75 1-1.4 1.69-1.92s1.48-.9 2.31-1.11c.84-.21 1.71-.25 2.56-.11.86.13 1.67.44 2.4.89l24.67 14.11c1.22.71 2.18 1.8 2.72 3.1s.64 2.75.27 4.11c-.36 1.36-1.17 2.57-2.29 3.43-1.12.85-2.5 1.32-3.91 1.32z" fill="#000"/><path d="m2947.45 1482.57c-11.68-.02-23.11-3.41-32.9-9.75-9.79-6.35-17.54-15.39-22.31-26.03-1.42-3.21-3.59-6.05-6.32-8.26-2.73-2.22-5.96-3.76-9.4-4.49-15.16-3.19-28.52-12.07-37.31-24.81s-12.34-28.36-9.91-43.64c2.42-15.27 10.63-29.04 22.94-38.44 12.3-9.4 27.75-13.73 43.16-12.09 3.82.34 7.66-.28 11.17-1.79 3.52-1.51 6.61-3.87 8.99-6.86.16-.23.33-.45.5-.67 9.9-12.04 24.08-19.79 39.58-21.63 15.49-1.84 31.1 2.37 43.55 11.76 12.46 9.38 20.79 23.21 23.25 38.59 2.47 15.38-1.12 31.12-10.02 43.91-1.13 1.58-2.14 2.91-3.2 4.17l-.07.09c-2.45 2.87-4.13 6.33-4.86 10.03-.74 3.71-.51 7.54.65 11.14 2.9 9.04 3.62 18.64 2.1 28.01-1.51 9.38-5.22 18.26-10.83 25.93-5.6 7.68-12.94 13.92-21.41 18.24-8.48 4.31-17.86 6.57-27.37 6.59zm-58.4-146.49c-9.65-.01-18.97 3.54-26.15 9.98s-11.71 15.31-12.72 24.89c-1.01 9.59 1.57 19.2 7.25 26.99 5.68 7.8 14.05 13.21 23.49 15.2 6.76 1.44 13.08 4.45 18.44 8.79s9.62 9.89 12.42 16.19c4.08 9.09 11.49 16.28 20.71 20.09 9.22 3.8 19.56 3.94 28.88.38s16.92-10.55 21.24-19.53c4.31-8.99 5.02-19.28 1.97-28.76-2.28-7.03-2.73-14.52-1.29-21.77 1.43-7.25 4.7-14.01 9.49-19.64.7-.86 1.4-1.77 2.15-2.82 5.7-8.24 8-18.36 6.42-28.26-1.57-9.89-6.91-18.8-14.9-24.87s-18.01-8.83-27.99-7.72c-9.97 1.12-19.14 6.03-25.58 13.71-.08.1-.16.21-.24.31-4.59 5.93-10.6 10.6-17.48 13.58s-14.41 4.18-21.88 3.48c-1.4-.15-2.81-.22-4.22-.22z" fill="#0618bb"/><path d="m2642.38 1179.31c-3.66-.01-7.31-.34-10.91-.99-7.81-1.39-15.27-4.31-21.95-8.6-6.67-4.28-12.43-9.85-16.93-16.37-2.01-2.88-4.67-5.25-7.77-6.9-3.09-1.65-6.54-2.55-10.05-2.62-15.51-.26-30.32-6.46-41.37-17.32-11.05-10.85-17.49-25.53-18-41s4.96-30.54 15.28-42.09c10.31-11.55 24.68-18.71 40.14-19.98 3.67-.38 7.2-1.64 10.28-3.67 3.08-2.02 5.63-4.76 7.44-7.97.16-.46.37-.91.6-1.34 7.37-13.815 19.85-24.226 34.78-29.03s31.14-3.626 45.22 3.287c14.07 6.912 24.9 19.013 30.2 33.753 5.29 14.74 4.64 30.95-1.83 45.21-.6 1.37-1.34 2.84-2.29 4.59l-.09.16c-1.85 3.28-2.82 6.98-2.81 10.75.01 3.76.99 7.46 2.86 10.73 5.05 9.17 7.62 19.5 7.47 29.97-.16 10.46-3.04 20.71-8.37 29.73-5.32 9.02-12.91 16.5-22.01 21.7-9.1 5.21-19.4 7.96-29.89 8zm-33.81-159.83c-.14.35-.29.69-.46 1.03-3.37 6.67-8.38 12.39-14.56 16.62-6.19 4.22-13.34 6.82-20.79 7.55-10.04.74-19.4 5.31-26.13 12.77-6.74 7.46-10.33 17.23-10.02 27.27.31 10.03 4.48 19.56 11.66 26.6 7.17 7.04 16.8 11.04 26.86 11.17 6.9.13 13.68 1.89 19.77 5.14s11.32 7.9 15.27 13.56c5.7 8.2 14.34 13.9 24.13 15.94 9.79 2.03 19.99.23 28.49-5.03 8.51-5.25 14.66-13.56 17.21-23.22 2.54-9.65 1.27-19.91-3.55-28.66-3.64-6.45-5.55-13.72-5.55-21.12.01-7.39 1.92-14.66 5.56-21.11.67-1.22 1.14-2.16 1.54-3.05 4.15-9.12 4.62-19.49 1.31-28.95s-10.14-17.28-19.08-21.85c-8.93-4.56-19.29-5.511-28.91-2.65-9.62 2.86-17.77 9.3-22.75 18z" fill="#0618bb"/><path d="m3007.6 1926.31c-1.31 0-2.6-.4-3.68-1.16-1.08-.75-1.9-1.82-2.35-3.06l-96.65-265.68c-.37 1.57-1.31 2.94-2.64 3.84l-267.98 181.71c-1.34.91-2.97 1.28-4.58 1.03-1.6-.25-3.05-1.09-4.06-2.36l-336.37-425.02c-25.53-32.04-38.76-72.14-37.28-113.06 1.48-40.91 17.56-79.96 45.35-110.08.08-.09.16-.18.24-.26l216.89-211.697c1.02-.987 2.33-1.613 3.73-1.781l302.68-36.061c.85-.328 1.75-.473 2.66-.427.19.009.38.026.56.052l.12-.013c.83-.1 1.68-.035 2.5.192.81.227 1.57.612 2.23 1.132s1.21 1.165 1.63 1.899c.41.733.67 1.541.77 2.376.02.09.02.181.04.271l285.4 319.747c15.48 16.75 27.46 36.42 35.22 57.85l198.65 546.89c.33.9.45 1.86.35 2.81-.09.96-.4 1.88-.89 2.7-.5.82-1.18 1.51-1.98 2.04-.8.52-1.71.86-2.66.99l-337.04 45.08c-.28.04-.57.05-.86.05zm-332.69-651.06h.05c.89.01 1.78.2 2.6.57s1.55.91 2.15 1.58l169.94 190.89c.54.61.96 1.31 1.24 2.07l160.98 442.52 324.02-43.34-195.92-539.41c-7.2-19.87-18.31-38.1-32.68-53.62l-286.44-320.937-298.94 35.615-215.2 210.052c-25.67 27.89-40.51 64.02-41.85 101.86-1.35 37.85 10.89 74.93 34.5 104.57l332.68 420.34 257.45-174.57-251.7-333c-.9-1.19-1.36-2.67-1.29-4.16s.67-2.91 1.68-4.02l31.99-34.92c.61-.66 1.34-1.18 2.15-1.54.82-.36 1.7-.55 2.59-.55zm-23.66 41.73 250.99 332.06-63-173.16-164.4-184.65z" fill="#000"/><path d="m2174.12 386.49c-18.29-56.612-47.43-115.57-69.88-106.22-20.6 8.524-.3 43.238 19.62 113.971-28.52-59.554-53.8-101.197-74.04-89.898-20.06 11.273 9.05 71.279 31.51 116.993-27.51-22.307-63.67-54.056-77.74-42.864-20.15 16.044 9.56 44.401 27.3 65.003 39.45 45.954 22.28 69.894 15.42 107.644-4.63 25.119 10.44 50.997 33.67 75.805l99.85 255.521c11.05 16.985 26.72 30.48 45.18 38.909 18.45 8.429 38.92 11.445 59.03 8.695l101.13-13.79-18.97-202.198-41.16 4.769s-130.34-205.241-131.13-206.315" fill="#fff"/><path d="m2269.68 937.439c-18.91-.02-37.52-4.739-54.14-13.729-16.63-8.99-30.75-21.97-41.09-37.768-.24-.367-.44-.756-.6-1.163l-99.4-254.389c-27.66-29.819-38.93-56.142-34.44-80.43 1.27-7.017 2.87-13.483 4.42-19.735 6.82-27.538 11.75-47.454-18.41-82.585-2.02-2.348-4.2-4.79-6.44-7.311-14.29-16.062-30.48-34.264-29.06-50.703.28-3.179 1.24-6.261 2.8-9.046 1.57-2.785 3.7-5.209 6.27-7.114 14.11-11.233 38.26 4.761 63.46 24.763-23.64-50.206-36.75-88.02-16.37-99.468 2.53-1.424 5.32-2.303 8.21-2.579 2.88-.276 5.8.056 8.54.976 10.21 3.236 20.95 13.766 33.89 33.988-9.72-30.588-13.26-49.45 4.47-56.783 2.67-1.066 5.52-1.556 8.39-1.438 2.87.119 5.67.843 8.24 2.126 28.82 13.25 54.59 87.144 61.8 109.475.53 1.617.38 3.374-.39 4.886-.78 1.511-2.12 2.653-3.74 3.175-1.62.521-3.39.378-4.9-.396-1.51-.775-2.66-2.118-3.18-3.735-17.35-53.741-39.44-94.641-54.97-101.782-.95-.55-2.01-.88-3.11-.965-1.09-.086-2.2.076-3.22.472-9.06 3.749-3.93 20.728 7.59 55.715 4.79 14.555 10.22 31.049 15.73 50.62.43 1.541.26 3.184-.47 4.607s-1.96 2.524-3.46 3.085c-1.5.562-3.15.544-4.64-.05-1.48-.594-2.7-1.72-3.39-3.159-10.67-22.273-39.01-81.447-58.53-87.633-1.07-.398-2.22-.553-3.36-.455-1.13.098-2.24.446-3.23 1.021-2.56 1.445-7.48 8.052 2.75 37.92 7.66 22.357 21.37 50.278 31.38 70.658.65 1.312.83 2.806.51 4.233-.32 1.428-1.12 2.704-2.26 3.615-1.15.911-2.57 1.403-4.04 1.393-1.47-.009-2.89-.519-4.02-1.445-2.38-1.932-4.82-3.932-7.31-5.977-18.72-15.31-53.58-43.84-62.37-36.849-1.19.83-2.19 1.906-2.93 3.155-.74 1.25-1.2 2.643-1.35 4.086-.94 10.957 13.93 27.674 25.88 41.105 2.29 2.575 4.52 5.079 6.58 7.472 34.46 40.132 27.99 66.299 21.13 93.992-1.49 6.063-3.05 12.33-4.25 18.969-3.75 20.279 6.73 43.27 32.04 70.289.55.594.99 1.288 1.28 2.045l99.59 254.913c10.47 15.77 25.18 28.279 42.44 36.097 17.26 7.817 36.38 10.627 55.17 8.108l95.04-12.958-17.79-189.56-34.64 4.016c-1.2.137-2.41-.065-3.5-.584-1.09-.518-2.01-1.333-2.66-2.349-44.35-69.839-128.63-202.524-131.01-206.142-.94-1.387-1.3-3.088-1.01-4.737.3-1.649 1.24-3.116 2.61-4.085s3.06-1.364 4.72-1.099 3.15 1.168 4.15 2.515c.75 1.023 70.16 110.291 129.22 203.295l37.16-4.308c.85-.098 1.71-.026 2.53.211.82.238 1.58.637 2.25 1.174.66.537 1.21 1.201 1.62 1.953.4.752.65 1.576.73 2.426l18.97 202.197c.15 1.644-.34 3.284-1.36 4.578-1.03 1.294-2.52 2.14-4.16 2.364l-101.13 13.79c-5.05.688-10.14 1.032-15.23 1.031z" fill="#000"/><path d="m2126.89 549.614c-3.66-30.603 14.2-59.703 22.64-93.576 11.84-46.963 23.57-75.905 34.62-78.984 25.44-6.831 6.61 68.368 10.07 134.293" fill="#fff"/><path d="m2126.89 556.02c-1.56-.002-3.08-.577-4.25-1.617s-1.92-2.473-2.11-4.027c-2.62-21.846 4.71-42.218 12.45-63.789 3.98-10.515 7.42-21.223 10.32-32.084 17.48-69.315 30.09-81.092 39.13-83.611 2.26-.755 4.68-.932 7.04-.516 2.35.416 4.56 1.412 6.43 2.898 9.97 8.144 9.09 29.032 6.53 68.333-1.41 21.65-3.01 46.191-1.79 69.407.04.841-.08 1.681-.36 2.474s-.72 1.523-1.28 2.148c-.56.626-1.25 1.134-2.01 1.496s-1.58.571-2.42.615c-1.7.072-3.35-.523-4.62-1.656-1.26-1.133-2.02-2.714-2.13-4.404-1.26-23.97.37-48.908 1.8-70.912 1.55-23.721 3.47-53.239-1.85-57.594-.38-.309-1.49-.062-1.94.062-1.99.555-13.05 6.816-30.07 74.366-3 11.274-6.56 22.389-10.69 33.301-7.22 20.107-14.05 39.097-11.79 57.94.1.835.04 1.681-.19 2.491s-.61 1.567-1.13 2.229c-.52.661-1.17 1.213-1.91 1.625-.73.412-1.54.676-2.38.776-.25.033-.52.049-.78.049z" fill="#000"/><path d="m2197.33 593.414c-1.7 0-3.34-.675-4.54-1.876s-1.88-2.83-1.88-4.529c0-6.267-1.82-42.926-3.41-74.165-.05-.846.06-1.695.34-2.496s.71-1.539 1.28-2.172c.57-.632 1.25-1.146 2.02-1.512.76-.366 1.6-.576 2.44-.618.85-.043 1.7.084 2.5.371s1.53.73 2.16 1.303 1.13 1.264 1.49 2.034.56 1.602.59 2.45c1.7 33.339 3.42 68.31 3.42 74.82 0 1.696-.68 3.32-1.88 4.518-1.21 1.197-2.83 1.87-4.53 1.872z" fill="#000"/><path d="m2498.53 588.7c0 7.108 0 28.541 15.49 27.943s22.69-22.414 22.69-22.414z" fill="#000"/><path d="m2506.19 583.982c-.92.002-1.84-.198-2.68-.585s-1.59-.952-2.19-1.656l-14.76-17.206c-1.09-1.266-1.64-2.904-1.53-4.567s.86-3.219 2.09-4.339l29.76-26.939c1.26-1.107 2.91-1.673 4.59-1.577s3.26.847 4.39 2.09c1.13 1.244 1.72 2.881 1.66 4.559-.07 1.678-.8 3.262-2.02 4.412l-25.14 22.76 10.69 12.48c.8.93 1.31 2.068 1.48 3.281.17 1.212-.01 2.448-.52 3.56-.52 1.112-1.34 2.054-2.37 2.715s-2.23 1.012-3.46 1.012z" fill="#000"/><path d="m2550.15 556.463c3.05-2.026 3.87-6.134 1.84-9.176-2.03-3.041-6.15-3.865-9.19-1.838-3.05 2.026-3.88 6.134-1.85 9.176s6.15 3.865 9.2 1.838z" fill="#000"/><path d="m2503.13 541.23c3.05-2.026 3.87-6.135 1.84-9.176-2.03-3.042-6.14-3.865-9.19-1.839s-3.87 6.135-1.84 9.176c2.03 3.042 6.14 3.865 9.19 1.839z" fill="#000"/><path d="m2604.88 545.396c-10.68-7.601-19.28-17.755-25-29.531l-31.74-53.517-33.63 18.785c10.69-18.338 27.54-32.301 47.57-39.406 15.55-5.534 32.33-6.702 48.5-3.376 16.17 3.325 31.12 11.016 43.21 22.234 12.09 11.219 20.87 25.534 25.37 41.387s4.56 32.635.16 48.517" fill="#fff"/><path d="m2679.32 556.895c-.99.001-1.96-.227-2.85-.665-.88-.438-1.66-1.074-2.26-1.86-.6-.785-1-1.698-1.19-2.667s-.15-1.968.11-2.92c4.51-16.292 3.96-33.564-1.56-49.541-5.53-15.976-15.78-29.905-29.4-39.953-13.61-10.047-29.96-15.741-46.89-16.33-16.92-.589-33.63 3.954-47.92 13.03 1.24-.148 2.49.065 3.61.615 1.12.549 2.05 1.411 2.69 2.48l31.74 53.517c.09.151.17.305.25.463 5.27 10.804 13.16 20.123 22.96 27.11 1.38.987 2.32 2.483 2.6 4.159.28 1.675-.12 3.393-1.11 4.776s-2.49 2.316-4.17 2.596-3.4-.118-4.78-1.105c-11.47-8.183-20.72-19.077-26.92-31.704l-28.43-47.915-28.15 15.73c-1.23.686-2.65.951-4.04.753-1.4-.199-2.69-.848-3.67-1.849-.99-1.001-1.62-2.299-1.79-3.692-.18-1.393.11-2.806.82-4.02 11.82-20.222 30.62-35.457 52.88-42.861s46.46-6.47 68.08 2.627c21.61 9.098 39.18 25.736 49.41 46.81 10.22 21.074 12.42 45.142 6.16 67.711-.37 1.352-1.17 2.544-2.29 3.393-1.12.85-2.48 1.311-3.89 1.312z" fill="#000"/><path d="m2604.78 545.537c3.34-5.051 7.83-9.247 13.1-12.251 5.27-3.003 11.17-4.73 17.23-5.041 6.06-.312 12.11.801 17.66 3.249 5.55 2.447 10.44 6.161 14.29 10.842 3.85 4.682 6.55 10.199 7.87 16.109s1.23 12.047-.26 17.918c-1.49 5.87-4.33 11.31-8.31 15.88-3.98 4.571-8.98 8.145-14.6 10.435" fill="#fff"/><path d="m2651.76 609.095c-1.49.001-2.93-.514-4.08-1.457s-1.93-2.256-2.22-3.713-.06-2.969.65-4.276 1.84-2.328 3.22-2.888c2.01-.821 3.93-1.839 5.73-3.038 3.99-2.652 7.33-6.154 9.8-10.254 2.46-4.1 3.99-8.695 4.45-13.453.47-4.759-.13-9.562-1.75-14.061-1.62-4.5-4.22-8.585-7.61-11.959s-7.5-5.954-12.01-7.552c-4.52-1.598-9.33-2.175-14.1-1.689-4.76.485-9.36 2.022-13.46 4.498s-7.6 5.83-10.24 9.819c-.95 1.387-2.4 2.347-4.06 2.672-1.65.325-3.36-.011-4.77-.935-1.4-.924-2.39-2.363-2.74-4.005-.35-1.643-.05-3.359.86-4.777 3.68-5.576 8.57-10.264 14.29-13.727 5.73-3.462 12.15-5.611 18.81-6.293 6.66-.681 13.39.123 19.7 2.354 6.3 2.232 12.04 5.834 16.78 10.548 4.75 4.713 8.38 10.42 10.64 16.707 2.27 6.287 3.1 12.998 2.45 19.647-.65 6.648-2.78 13.069-6.22 18.797-3.45 5.729-8.13 10.622-13.7 14.326-2.51 1.673-5.19 3.092-7.99 4.235-.77.315-1.6.476-2.43.474z" fill="#000"/><path d="m2766.62 666.121c30.68 5.475 58.46 21.548 78.46 45.405 20 23.856 30.96 53.975 30.95 85.082s-10.98 61.219-31 85.064c-20.02 23.844-47.8 39.901-78.49 45.358-30.68 5.458-62.31-.033-89.35-15.509s-47.76-39.951-58.54-69.141c-10.77-29.189-10.92-61.23-.4-90.514 10.51-29.284 31.02-53.943 57.91-69.658" fill="#fff"/><path d="m2743.25 935.522c-30.57-.004-60.29-10.051-84.57-28.589-24.28-18.539-41.78-44.539-49.78-73.987-8-29.447-6.07-60.705 5.5-88.947s32.14-51.898 58.52-67.316c.72-.425 1.53-.704 2.36-.819.84-.116 1.69-.066 2.5.147.82.212 1.58.582 2.25 1.09.68.507 1.24 1.142 1.67 1.867.42.726.7 1.528.82 2.361.11.833.06 1.681-.15 2.494-.21.814-.58 1.578-1.09 2.249s-1.14 1.235-1.87 1.66c-25.6 14.957-45.11 38.424-55.12 66.294-10.01 27.869-9.87 58.364.38 86.145 10.25 27.78 29.97 51.074 55.71 65.804 25.73 14.73 55.83 19.956 85.04 14.763 29.2-5.193 55.65-20.474 74.7-43.167 19.05-22.692 29.49-51.35 29.5-80.956.01-29.605-10.41-58.27-29.45-80.975s-45.47-38.004-74.67-43.216c-.84-.136-1.64-.438-2.36-.887-.73-.45-1.35-1.038-1.84-1.73s-.84-1.475-1.03-2.303c-.18-.828-.2-1.684-.05-2.52.14-.835.46-1.633.92-2.346.46-.714 1.06-1.329 1.76-1.81s1.49-.818 2.32-.992 1.69-.181 2.52-.021c34.25 6.111 64.97 24.799 86.1 52.384s31.15 62.067 28.07 96.654c-3.07 34.587-19.01 66.773-44.67 90.217-25.66 23.445-59.2 36.449-93.99 36.452z" fill="#000"/><path d="m1265.04 1046.13-13.62 19.09c-13.5 18.94-22.49 40.71-26.3 63.66-3.8 22.94-2.32 46.44 4.35 68.72l-154.29 332.96-83.589 108.35-149.133 182.06 278.272 138.17 245.14-285.54c10.8-12.58 19.52-26.81 25.83-42.14l68.33-166.36 35.09 78.5-34.15 354.32 344.13 33.21 38.61-399.69c2.87-29.77-2.03-59.78-14.24-87.09l-200.8-397.92v-.3z" fill="#fff"/><path d="m1120.73 1965.54c-.99 0-1.97-.23-2.85-.67l-278.271-138.17c-.861-.43-1.615-1.04-2.206-1.8-.59-.76-1.002-1.65-1.204-2.59s-.19-1.91.036-2.84c.227-.94.66-1.81 1.27-2.55l149.131-182.06 83.034-107.64 152.98-330.13c-6.55-22.91-7.83-47.01-3.75-70.49 4.08-23.47 13.41-45.73 27.31-65.09l13.62-19.09c.59-.83 1.37-1.51 2.28-1.98.9-.46 1.91-.71 2.93-.71h363.63c1.41 0 2.79.47 3.91 1.33 1.11.86 1.92 2.07 2.28 3.43l200.33 396.98c.04.09.08.18.13.27 12.64 28.33 17.73 59.44 14.76 90.32l-38.61 399.69c-.08.84-.32 1.65-.72 2.39-.39.75-.93 1.4-1.58 1.94-.65.53-1.39.93-2.2 1.18-.8.25-1.65.33-2.49.25l-344.12-33.21c-.84-.08-1.65-.32-2.4-.72-.74-.39-1.4-.93-1.93-1.58-.54-.65-.94-1.39-1.19-2.2-.24-.8-.33-1.65-.25-2.48l33.99-352.65-28.3-63.32-62.66 152.54c-6.57 15.96-15.64 30.78-26.89 43.88l-245.15 285.54c-.6.7-1.34 1.26-2.18 1.65-.84.38-1.75.58-2.67.58zm-268.22-146.73 266.61 132.39 241.91-281.77c10.35-12.06 18.71-25.71 24.75-40.41l68.34-166.35c.47-1.16 1.28-2.15 2.31-2.86 1.04-.7 2.26-1.09 3.51-1.11h.1c1.23 0 2.44.36 3.48 1.03 1.04.68 1.86 1.63 2.36 2.76l35.09 78.49c.45 1.01.63 2.13.53 3.23l-33.54 347.96 331.38 31.98 37.99-393.31c2.75-28.62-1.95-57.47-13.65-83.73l-199.11-394.57h-356.23l-11.7 16.4c-13 18.12-21.66 38.98-25.31 60.97-3.64 22-2.18 44.53 4.27 65.87.45 1.5.33 3.1-.32 4.52l-154.3 332.95c-.2.44-.45.84-.74 1.22l-83.591 108.36z" fill="#000"/><path d="m1505.92 1862.63c-15.66.04-30.92-4.98-43.48-14.32-1.37-1.01-2.28-2.52-2.53-4.2s.18-3.39 1.19-4.75c1.01-1.37 2.52-2.27 4.2-2.52s3.39.17 4.76 1.18c8.58 6.34 18.69 10.28 29.3 11.44 10.6 1.15 21.33-.53 31.07-4.87 9.75-4.35 18.16-11.19 24.39-19.85 6.23-8.65 10.06-18.81 11.08-29.42 1.02-10.62-.79-21.31-5.26-30.99-4.46-9.69-11.41-18.02-20.15-24.14s-18.94-9.81-29.57-10.7c-10.63-.9-21.31 1.05-30.95 5.63-1.53.72-3.28.81-4.88.24-1.59-.57-2.9-1.75-3.63-3.27-.73-1.53-.82-3.28-.26-4.88s1.73-2.91 3.26-3.64c9.82-4.7 20.57-7.12 31.46-7.09 9.6 0 19.11 1.89 27.98 5.56s16.93 9.05 23.72 15.84 12.17 14.84 15.85 23.71c3.67 8.86 5.56 18.37 5.56 27.96 0 9.6-1.89 19.1-5.56 27.97-3.68 8.86-9.06 16.92-15.85 23.7-6.79 6.79-14.85 12.17-23.72 15.84-8.87 3.68-18.38 5.57-27.98 5.57z" fill="#000"/><path d="m1784.74 1459.54c-17.76 0-34.92-6.47-48.26-18.19s-21.96-27.89-24.25-45.49c-2.28-17.61 1.92-35.45 11.84-50.18 9.91-14.73 24.84-25.36 42.02-29.89 1.62-.38 3.33-.11 4.76.75 1.43.85 2.47 2.24 2.9 3.85.42 1.61.2 3.33-.62 4.78s-2.18 2.53-3.78 2.99c-14.17 3.74-26.49 12.51-34.66 24.66-8.18 12.15-11.64 26.87-9.76 41.39 1.89 14.52 9 27.86 20 37.53 11.01 9.66 25.16 15 39.81 15 13.74.05 27.07-4.63 37.75-13.27.66-.52 1.41-.92 2.22-1.15.8-.24 1.65-.31 2.48-.22.84.09 1.65.34 2.39.75.74.4 1.39.95 1.91 1.6.53.66.92 1.41 1.16 2.21.23.81.31 1.66.22 2.49-.09.84-.35 1.65-.75 2.38-.4.74-.95 1.39-1.61 1.92-12.98 10.4-29.13 16.08-45.77 16.09z" fill="#000"/><path d="m1697.65 1189.52c-.56.01-1.11-.07-1.65-.21-9.97-2.66-19.26-7.39-27.27-13.9-8.01-6.5-14.55-14.62-19.2-23.83-4.65-9.2-7.29-19.29-7.76-29.59-.48-10.3 1.24-20.59 5.02-30.18.63-1.58 1.85-2.85 3.41-3.52 1.56-.68 3.32-.7 4.9-.08s2.85 1.85 3.52 3.41c.68 1.56.7 3.32.08 4.9-3.12 7.91-4.53 16.39-4.14 24.89s2.57 16.81 6.4 24.41c3.83 7.59 9.23 14.29 15.84 19.66 6.6 5.36 14.26 9.27 22.49 11.46 1.5.4 2.81 1.33 3.67 2.62.87 1.29 1.24 2.86 1.04 4.4s-.96 2.95-2.13 3.98c-1.17 1.02-2.67 1.59-4.22 1.59z" fill="#000"/><path d="m1741.51 1925c-5.04 40.05 33.29 93.82 86.74 111.93 25.25 8.55 65.54 22.42 88.06 30.27 42.81 14.93 67.62 39.87 64.02 81.5h-460.56l-.69-244.88z" fill="#fff"/><path d="m1980.33 2155.1h-460.56c-1.7 0-3.32-.67-4.52-1.87s-1.88-2.82-1.89-4.51l-.68-244.88c-.01-.89.18-1.78.54-2.6.35-.82.88-1.55 1.54-2.15.66-.61 1.44-1.06 2.29-1.35.85-.28 1.75-.38 2.64-.3l222.42 21.18c.86.08 1.68.33 2.44.74.75.41 1.42.96 1.95 1.63.54.67.93 1.44 1.17 2.26.23.82.29 1.69.19 2.54-4.39 34.92 29.94 87.28 82.45 105.07 24.16 8.19 64.51 22.06 88.11 30.29 49.58 17.29 71.92 46.1 68.29 88.09-.14 1.6-.87 3.08-2.05 4.17-1.18 1.08-2.72 1.69-4.33 1.69zm-454.18-12.8h448.11c.6-32.58-18.63-54.61-60.06-69.06-23.57-8.22-63.87-22.07-88-30.25-51.53-17.46-92.56-68.58-91.53-112.21l-209.17-19.92z" fill="#000"/><path d="m1049.93 1923.99c-3.08 40.41 25.75 81.67 86.8 106.54l88.06 36.67c40.49 10.33 67.57 39.88 64.02 81.5l-306.065 1.76-223.71-106.06 102.788-213.81z" fill="#fff"/><g fill="#000"><path d="m982.745 2156.86c-.949 0-1.886-.21-2.744-.61l-223.712-106.07c-.762-.36-1.444-.87-2.007-1.5-.564-.63-.999-1.36-1.279-2.15-.28-.8-.4-1.64-.354-2.48s.258-1.67.624-2.43l102.778-213.81c.367-.76.882-1.44 1.516-2.01.634-.56 1.373-.99 2.175-1.27.803-.27 1.652-.39 2.498-.33.846.05 1.673.28 2.432.65l188.108 93.41c1.14.57 2.09 1.46 2.72 2.57s.91 2.38.82 3.65c-3.08 40.31 27.88 77.75 82.83 100.13l87.69 36.51c45.81 11.86 71.99 45.59 68.36 88.12-.14 1.59-.86 3.08-2.03 4.16-1.18 1.08-2.71 1.69-4.31 1.7l-306.068 1.76zm-215.154-115.49 216.578 102.69 298.551-1.73c.4-33.68-21.47-59.23-59.52-68.93-.3-.08-.59-.18-.88-.3l-88.05-36.66c-58.41-23.79-92.08-64.15-90.94-108.59l-178.547-88.65z"/><path d="m1194.1 1880.09c-.47 0-.95-.05-1.42-.16-12.21-2.78-23.5-8.65-32.79-17.04-9.3-8.4-16.27-19.04-20.27-30.9-4-11.87-4.88-24.56-2.56-36.86s7.77-23.8 15.81-33.4c8.05-9.59 18.42-16.96 30.13-21.4 11.71-4.43 24.37-5.79 36.76-3.94 12.38 1.86 24.09 6.86 33.98 14.54 9.9 7.67 17.66 17.76 22.54 29.29.33.77.51 1.6.52 2.45.01.84-.15 1.68-.46 2.46-.32.79-.78 1.5-1.38 2.1-.59.61-1.29 1.08-2.07 1.41s-1.61.5-2.46.51c-.84 0-1.68-.16-2.46-.48s-1.49-.79-2.09-1.39c-.6-.59-1.07-1.3-1.4-2.08-4.02-9.51-10.42-17.83-18.58-24.16-8.17-6.33-17.82-10.46-28.04-11.99-10.21-1.53-20.65-.42-30.32 3.24-9.66 3.66-18.22 9.74-24.85 17.66-6.64 7.91-11.13 17.39-13.05 27.54-1.91 10.15-1.19 20.62 2.11 30.41 3.29 9.78 9.05 18.56 16.71 25.49 7.66 6.92 16.98 11.76 27.05 14.06 1.54.35 2.89 1.25 3.81 2.53.91 1.28 1.32 2.86 1.14 4.42-.17 1.56-.92 3.01-2.09 4.06s-2.69 1.63-4.27 1.63z"/><path d="m909.171 1815.06c-17.474 0-34.37-6.25-47.627-17.63-.641-.55-1.167-1.21-1.549-1.96s-.612-1.57-.676-2.41c-.065-.84.036-1.68.298-2.48.262-.81.68-1.55 1.229-2.18.549-.64 1.218-1.17 1.97-1.55s1.571-.6 2.411-.67c.84-.06 1.685.05 2.484.31.8.26 1.54.68 2.177 1.23 6.099 5.24 13.185 9.21 20.84 11.67s15.725 3.36 23.735 2.66c8.011-.7 15.8-3 22.909-6.75 7.11-3.76 13.396-8.9 18.49-15.11 5.093-6.22 8.891-13.4 11.17-21.1 2.279-7.71 2.993-15.8 2.1-23.78-.894-7.99-3.376-15.72-7.301-22.73-3.925-7.02-9.214-13.18-15.556-18.12-1.322-1.05-2.175-2.58-2.374-4.25-.198-1.68.274-3.37 1.314-4.7s2.564-2.19 4.239-2.4c1.676-.22 3.367.24 4.707 1.27 12.001 9.36 20.779 22.24 25.108 36.83s3.993 30.16-.96 44.55c-4.954 14.39-14.279 26.88-26.673 35.71-12.394 8.84-27.24 13.59-42.465 13.59z"/><path d="m1393.26 1455.51c-14.47 0-28.6-4.29-40.63-12.31-12.02-8.03-21.39-19.45-26.92-32.8-5.54-13.35-6.99-28.05-4.16-42.22 2.82-14.18 9.78-27.2 20.01-37.42 10.22-10.22 23.25-17.18 37.43-20 14.18-2.81 28.89-1.37 42.25 4.16s24.77 14.9 32.81 26.92c8.03 12.01 12.32 26.14 12.32 40.6-.02 19.37-7.73 37.94-21.44 51.64s-32.29 21.41-51.67 21.43zm0-133.35c-11.93 0-23.59 3.53-33.51 10.16-9.92 6.62-17.65 16.03-22.21 27.05-4.57 11.01-5.76 23.13-3.44 34.83 2.33 11.69 8.07 22.43 16.51 30.86 8.43 8.43 19.18 14.17 30.88 16.49 11.7 2.33 23.82 1.14 34.85-3.43 11.02-4.56 20.43-12.28 27.06-22.2 6.63-9.91 10.17-21.56 10.17-33.48-.02-15.99-6.38-31.31-17.69-42.61s-26.64-17.65-42.62-17.67z"/><path d="m1460.33 1470.83c-1.05 0-2.09-.26-3.02-.76-.92-.49-1.72-1.21-2.3-2.08-.59-.87-.95-1.88-1.05-2.92-.11-1.05.05-2.11.45-3.08l46.29-112.66c.64-1.57 1.89-2.82 3.45-3.47 1.57-.66 3.33-.66 4.9-.02s2.82 1.89 3.48 3.45c.65 1.57.66 3.33.01 4.9l-46.29 112.66c-.48 1.18-1.3 2.18-2.35 2.89-1.06.71-2.3 1.09-3.57 1.09z"/><path d="m1756.59 1981.86c-1.39 0-2.73-.45-3.84-1.28-1.1-.83-1.91-1.99-2.3-3.32-.39-1.32-.34-2.74.14-4.03.48-1.3 1.37-2.4 2.54-3.15l109.93-70.69c8.73-5.61 19.33-7.52 29.48-5.33 10.15 2.2 19.01 8.33 24.64 17.05.67 1.03 1.3 2.11 1.87 3.22 2.95 5.73 4.45 12.1 4.35 18.55-.1 6.44-1.79 12.76-4.92 18.4-3.14 5.63-7.61 10.41-13.03 13.9-5.43 3.49-11.63 5.58-18.05 6.1l-130.29 10.56c-.18.01-.35.02-.52.02zm127.62-75.9c-5.05 0-9.99 1.46-14.23 4.19l-88.44 56.87 104.81-8.5c4.33-.34 8.5-1.76 12.15-4.11 3.65-2.34 6.66-5.56 8.77-9.35s3.25-8.04 3.32-12.38c.06-4.34-.94-8.62-2.93-12.48-.38-.74-.81-1.47-1.25-2.16-2.39-3.71-5.68-6.76-9.56-8.87-3.87-2.11-8.22-3.21-12.63-3.21z"/><path d="m1197.45 2018.01c-3.95 0-7.87-.6-11.64-1.78l-124.74-38.99c-1.36-.43-2.54-1.3-3.36-2.47-.81-1.17-1.2-2.58-1.12-4.01.08-1.42.64-2.78 1.58-3.85s2.21-1.8 3.61-2.07l128.39-24.43c10.2-1.94 20.76.25 29.35 6.08 8.59 5.84 14.51 14.85 16.45 25.04.23 1.24.41 2.5.53 3.75.47 5.12-.08 10.28-1.61 15.19s-4.01 9.48-7.3 13.43-7.33 7.22-11.89 9.61c-4.55 2.39-9.53 3.86-14.66 4.33-1.2.11-2.4.17-3.59.17zm-108.18-45.37 100.36 31.37c4.14 1.29 8.54 1.54 12.8.73s8.26-2.67 11.63-5.39c3.38-2.73 6.03-6.25 7.71-10.24 1.69-4 2.37-8.35 1.98-12.66-.08-.84-.2-1.68-.36-2.51-.65-3.4-1.96-6.64-3.86-9.53s-4.35-5.38-7.21-7.33c-2.86-1.94-6.08-3.3-9.47-4.01-3.39-.7-6.89-.73-10.29-.08z"/><path d="m1238.4 1616.68c-11.61-.02-23.05-2.79-33.38-8.09s-19.25-12.98-26.03-22.4c-.5-.68-.86-1.45-1.06-2.27-.2-.83-.24-1.68-.11-2.51.14-.84.43-1.64.88-2.36.44-.72 1.03-1.35 1.71-1.84.69-.49 1.47-.85 2.29-1.04.83-.19 1.68-.21 2.52-.07.83.14 1.63.45 2.35.9.71.45 1.33 1.04 1.82 1.73 6.02 8.39 14.1 15.1 23.46 19.48 9.36 4.37 19.69 6.27 30 5.51 10.31-.77 20.25-4.16 28.86-9.87 8.62-5.7 15.62-13.53 20.34-22.71 4.72-9.19 7-19.44 6.62-29.76-.38-10.33-3.41-20.38-8.8-29.19-5.38-8.82-12.94-16.1-21.96-21.16-9.01-5.05-19.17-7.71-29.51-7.71-1.7 0-3.32-.67-4.52-1.87s-1.88-2.83-1.88-4.53c0-1.69.68-3.32 1.88-4.52s2.82-1.88 4.52-1.88c19.39 0 37.99 7.7 51.7 21.41 13.71 13.7 21.42 32.29 21.42 51.67s-7.71 37.97-21.42 51.67c-13.71 13.71-32.31 21.4-51.7 21.4z"/><path d="m1512.58 1584.28c-1.18 0-2.35-.33-3.35-.95-1.01-.62-1.83-1.5-2.36-2.56l-17.4-34.27c-.77-1.52-.9-3.27-.37-4.89.52-1.61 1.67-2.95 3.19-3.72 1.51-.76 3.27-.9 4.88-.37 1.62.53 2.95 1.67 3.72 3.19l17.4 34.27c.49.98.73 2.06.68 3.16-.04 1.09-.37 2.15-.94 3.08-.57.94-1.37 1.71-2.33 2.24-.95.54-2.03.82-3.12.82z"/><path d="m1729.17 1766.49c-14.46 0-28.6-4.28-40.62-12.31-12.03-8.03-21.4-19.44-26.93-32.8-5.54-13.35-6.98-28.04-4.16-42.22 2.82-14.17 9.78-27.19 20.01-37.41 10.22-10.22 23.25-17.18 37.43-20 14.19-2.82 28.89-1.37 42.25 4.16s24.78 14.89 32.81 26.91 12.32 26.15 12.32 40.6c-.02 19.37-7.73 37.95-21.44 51.65-13.7 13.7-32.29 21.4-51.67 21.42zm0-133.35c-11.93 0-23.59 3.54-33.51 10.16s-17.65 16.04-22.21 27.05c-4.57 11.02-5.76 23.14-3.43 34.83 2.32 11.69 8.07 22.43 16.5 30.86 8.44 8.43 19.18 14.17 30.88 16.5 11.7 2.32 23.83 1.13 34.85-3.43s20.44-12.29 27.06-22.2c6.63-9.91 10.17-21.57 10.17-33.49-.02-15.98-6.38-31.3-17.69-42.6-11.3-11.3-26.63-17.66-42.62-17.68z"/><path d="m1596.53 1563.18c-14.46 0-28.6-4.28-40.62-12.31s-21.39-19.45-26.93-32.8c-5.53-13.35-6.98-28.04-4.16-42.22 2.82-14.17 9.79-27.2 20.01-37.41 10.23-10.22 23.25-17.18 37.44-20 14.18-2.82 28.88-1.38 42.24 4.15 13.36 5.54 24.78 14.9 32.81 26.92 8.04 12.02 12.33 26.14 12.33 40.6-.03 19.37-7.74 37.94-21.44 51.64-13.71 13.7-32.29 21.41-51.68 21.43zm0-133.35c-11.93 0-23.59 3.53-33.51 10.16-9.91 6.62-17.64 16.04-22.21 27.05-4.56 11.01-5.76 23.13-3.43 34.83 2.33 11.69 8.07 22.43 16.5 30.86 8.44 8.43 19.19 14.17 30.88 16.5 11.7 2.32 23.83 1.13 34.85-3.43 11.02-4.57 20.44-12.29 27.07-22.2 6.62-9.92 10.16-21.57 10.16-33.49-.02-15.98-6.38-31.31-17.68-42.61-11.31-11.3-26.64-17.65-42.63-17.67z"/><path d="m1579.33 1330.75c-14.46 0-28.6-4.28-40.62-12.31s-21.4-19.44-26.93-32.8c-5.53-13.35-6.98-28.04-4.16-42.22 2.82-14.17 9.78-27.19 20.01-37.41 10.22-10.22 23.25-17.18 37.44-20 14.18-2.82 28.88-1.37 42.24 4.16s24.78 14.89 32.81 26.91c8.04 12.02 12.33 26.15 12.33 40.6-.03 19.37-7.74 37.95-21.44 51.65-13.71 13.7-32.3 21.4-51.68 21.42zm0-133.35c-11.93 0-23.59 3.54-33.51 10.16-9.91 6.62-17.65 16.04-22.21 27.05-4.56 11.02-5.76 23.14-3.43 34.83s8.07 22.43 16.5 30.86c8.44 8.43 19.18 14.17 30.88 16.5 11.7 2.32 23.83 1.13 34.85-3.43s20.44-12.29 27.07-22.2c6.62-9.92 10.16-21.57 10.16-33.49-.02-15.98-6.38-31.3-17.68-42.6-11.31-11.3-26.64-17.66-42.63-17.68z"/><path d="m1353.37 1238.53c-14.46 0-28.6-4.29-40.62-12.32-12.03-8.03-21.4-19.44-26.93-32.8-5.54-13.35-6.98-28.04-4.16-42.22 2.82-14.17 9.78-27.19 20.01-37.41 10.22-10.22 23.25-17.18 37.43-20 14.19-2.82 28.89-1.37 42.25 4.16s24.78 14.89 32.81 26.91c8.04 12.02 12.32 26.15 12.32 40.6-.02 19.37-7.73 37.95-21.44 51.65-13.7 13.7-32.29 21.4-51.67 21.43zm0-133.36c-11.93 0-23.59 3.54-33.51 10.16s-17.65 16.04-22.21 27.05c-4.57 11.02-5.76 23.14-3.43 34.83 2.32 11.69 8.07 22.43 16.5 30.86 8.44 8.43 19.18 14.17 30.88 16.5 11.7 2.32 23.83 1.13 34.85-3.43s20.44-12.29 27.06-22.2c6.63-9.91 10.17-21.57 10.17-33.49-.02-15.98-6.38-31.3-17.69-42.6-11.3-11.3-26.63-17.66-42.62-17.68z"/><path d="m2103.32 623.032c-1.28-1.431-29.39 32.207-56.01 29.761-32.74-2.999-65.36-44.218-69.06-73.642-2.62-20.839-5.26-40.384-4.6-61.003-13.22 6.102-25.05 14.855-34.75 25.717l-153.53 171.276s-218.62-26.099-219.24-26.19c-8.05-1.216-21.06-.981-28.08-.941-8.54.047-34.13-.085-34.13-.085.15 4.253-16.53 68.815-90.32 72.84-52.71 2.875-90.84-45.242-91.89-72.22 0-.213.02-.411.03-.62h-31.99c-8.13.354-16.21 1.392-24.17 3.103-42.18 7.154-74.56 37.5-88.26 58.902l-164.09 261.61c-14.404 22.94-19.525 50.5-14.319 77.08l63.039 322.78c2.52 12.91 7.41 25.25 14.43 36.38 2.62-13.48 10.18-24.94 13.43-38.72 1.97-8.34 1.1-17.11 2.21-25.59 1.12-8.24 3.9-16.17 8.18-23.3 6.34-10.82 14.94-21.55 25.37-28.67 12.06-8.21 25.26-6.17 38.93-8.04 25.78-3.52 50.87 3.28 69.36 22.23 9.03 9.47 15.85 20.82 19.98 33.24 4.13 12.41 5.46 25.59 3.9 38.58-2.67 22.52-13.17 41.98-27.22 58.94 16.09-12.02 28.46-28.33 35.69-47.07 7.23-18.73 9.02-39.12 5.17-58.83l-54.94-281.4 44.45-70.86 4.23 21.69h362.8l5-127.524 176.32 22.529c5.57.902 11.21 1.352 16.86 1.343 14.98-.019 29.78-3.19 43.45-9.305s25.9-15.037 35.9-26.187c0 0 164.59-152.337 195.93-218.711 6.31-13.367 10.58-49.369 1.94-59.093z"/><path d="m1633.05 913.229c-1.7 0-3.33-.675-4.53-1.875s-1.88-2.827-1.88-4.524v-77.151c0-1.697.68-3.325 1.88-4.525s2.83-1.874 4.53-1.874c1.69 0 3.32.674 4.52 1.874s1.88 2.828 1.88 4.525v77.151c0 1.697-.68 3.324-1.88 4.524s-2.83 1.875-4.52 1.875z"/><path d="m1260.89 1020.43c-1.14 0-2.27-.31-3.25-.89s-1.79-1.41-2.35-2.41c-.55-1-.83-2.13-.79-3.28.03-1.14.36-2.25.97-3.22l48.1-76.678c.91-1.438 2.34-2.459 4-2.838 1.65-.38 3.39-.086 4.83.815s2.46 2.337 2.84 3.991c.38 1.655.09 3.392-.82 4.83l-48.1 76.68c-.57.92-1.38 1.68-2.33 2.2-.95.53-2.01.8-3.1.8z"/></g><path d="m1255.84 1395.3c2.73 15.42.95 31.31-5.12 45.75-11.98 28.5-32.57 76.53-46.42 106.65-25.35 55.3-133.85 186.37-164.11 157.96-18.36-17.21 16.75-45.75 65.79-112.62-53.78 51.56-96.95 85.53-113.706 65.61-16.753-19.92 37.906-71.66 79.666-111.17-37.88 12.8-88.587 31.83-98.937 14.53-14.939-24.96 27.747-43.02 54.637-57.87 59.75-32.89 51.22-65.07 58.98-107.56 3.5-19.2 15.11-39.76 33.13-56.21 14.1-12.7 32.24-20 51.21-20.62 19.69-.75 38.98 5.65 54.32 18.02 15.33 12.36 25.66 29.86 29.09 49.25z" fill="#fff"/><path d="m1050.95 1716.03c-5.61.15-11.05-1.9-15.16-5.71-16.26-15.26-2.66-34.94 22.24-66.17-24.53 19.23-41.48 27.3-54.34 26.63-3.13-.1-6.211-.87-9.027-2.25s-5.304-3.35-7.3-5.77c-16.718-19.88 13.367-55.32 59.327-99.99-35.6 11.71-68.749 19.95-79.174 2.51-1.895-2.92-3.15-6.22-3.684-9.66-.534-3.45-.334-6.97.585-10.33 4.879-17.45 28.811-30.11 49.923-41.28 3.55-1.88 6.99-3.7 10.21-5.48 46.06-25.35 48.81-48.52 52.6-80.58.86-7.2 1.74-14.64 3.18-22.53 3.86-21.15 16.65-42.94 35.11-59.78 15.23-13.72 34.83-21.62 55.32-22.3 21.21-.72 41.97 6.22 58.49 19.54 16.51 13.32 27.67 32.15 31.43 53.02l1.47 8.27c2.96 16.64 1.04 33.78-5.52 49.35-10.35 24.62-31.79 74.83-46.5 106.84-21.82 47.59-108.28 156.27-153.11 165.05-2 .4-4.03.61-6.07.62zm55.03-129.39c1.18 0 2.34.32 3.35.94s1.83 1.51 2.36 2.56c.54 1.06.77 2.24.67 3.42-.09 1.17-.52 2.3-1.22 3.26-13.57 18.5-25.82 33.77-36.64 47.25-26.99 33.62-38.56 48.83-29.94 56.92 1.45 1.36 4.06 3.02 9.99 1.86 36.98-7.25 121.23-108.31 143.93-157.83 14.65-31.86 36.02-81.9 46.34-106.46 5.6-13.3 7.24-27.94 4.71-42.15l-1.47-8.28c-3.21-17.84-12.75-33.92-26.87-45.31-14.11-11.39-31.85-17.31-49.98-16.69-17.47.58-34.18 7.3-47.17 18.99-16.39 14.97-27.74 34.15-31.11 52.6-1.37 7.49-2.23 14.73-3.06 21.74-3.92 33.14-7.32 61.76-59.13 90.28-3.28 1.81-6.79 3.66-10.4 5.58-17.91 9.47-40.19 21.26-43.59 33.42-.441 1.69-.512 3.45-.209 5.18.303 1.72.973 3.36 1.966 4.8 1.21 2.01 6.379 6.24 28.213 1.92 16.36-3.24 36.54-10.14 54.35-16.22 3-1.02 5.95-2.03 8.83-3 1.38-.46 2.88-.45 4.25.06 1.37.5 2.53 1.45 3.28 2.7.76 1.25 1.06 2.72.86 4.17-.19 1.44-.88 2.78-1.94 3.78-20.93 19.8-44.65 42.23-61.23 62.35-22.238 26.96-20.782 36.67-17.931 40.06.876 1.07 1.976 1.93 3.221 2.53 1.25.6 2.61.92 3.99.94 20.81 1.14 65.44-39.18 97.16-69.58 1.19-1.15 2.77-1.78 4.42-1.79z" fill="#000"/><path d="m1476.83 454.462c9.08-2.094 18.6-1.2 27.13 2.549 8.54 3.749 15.63 10.153 20.23 18.258 4.6 8.104 6.45 17.477 5.29 26.721s-5.28 17.866-11.74 24.581l-45.61-34.767z" fill="#fff"/><path d="m1517.73 532.97c-1.4 0-2.76-.461-3.88-1.312l-45.6-34.767c-.89-.679-1.59-1.58-2.02-2.613-.44-1.033-.59-2.161-.45-3.272l4.69-37.346c.17-1.299.72-2.517 1.6-3.489.88-.973 2.03-1.652 3.31-1.948 10.43-2.402 21.35-1.374 31.15 2.931 9.79 4.305 17.94 11.656 23.21 20.96 5.28 9.304 7.41 20.063 6.07 30.674-1.33 10.611-6.06 20.507-13.48 28.215-.59.62-1.31 1.113-2.1 1.451s-1.64.513-2.5.516zm-38.79-44.018 37.8 28.808c3.87-5.52 6.15-11.996 6.6-18.723.44-6.727-.97-13.447-4.08-19.429-3.11-5.981-7.81-10.994-13.57-14.494-5.77-3.499-12.39-5.35-19.13-5.351-1.33 0-2.65.071-3.97.213z" fill="#000"/><path d="m1471.83 676.426 34.15 11.501c0 36.687-41.36 72.84-92.39 72.84-51.02 0-92.4-36.26-92.4-72.84l35.39-11.701" fill="#fff"/><path d="m1413.59 767.164c-52.63 0-98.81-37.028-98.81-79.241 0-1.346.43-2.657 1.22-3.747.78-1.091 1.9-1.905 3.17-2.328l35.4-11.701c.79-.264 1.64-.369 2.48-.307s1.65.288 2.41.666c.75.377 1.42.899 1.97 1.536.55.636.97 1.375 1.23 2.173.26.799.37 1.641.31 2.48-.07.838-.29 1.656-.67 2.407-.38.752-.9 1.421-1.54 1.97-.63.55-1.37.968-2.17 1.232l-30.75 10.166c3.31 30.113 38.89 61.903 85.75 61.903s82.45-31.811 85.74-61.931l-29.54-9.948c-1.61-.542-2.94-1.7-3.69-3.221-.76-1.52-.88-3.278-.33-4.886.54-1.608 1.7-2.935 3.22-3.689s3.28-.874 4.89-.332l34.14 11.501c1.27.427 2.38 1.241 3.16 2.328.78 1.086 1.2 2.39 1.2 3.728 0 42.213-46.16 79.241-98.79 79.241z" fill="#000"/><path d="m1310.85 489.202c-5.18-18.284-4.08-37.775 3.14-55.358 7.21-17.583 20.11-32.241 36.64-41.63 16.53-9.388 35.73-12.965 54.54-10.158 18.8 2.807 36.12 11.835 49.19 25.641l-101.8 24.871 10.17 64.705" fill="#fff"/><path d="m1362.72 503.674c-1.52-.002-2.99-.548-4.15-1.539s-1.93-2.363-2.16-3.868l-10.18-64.705c-.25-1.586.11-3.206 1-4.542.89-1.335 2.25-2.287 3.81-2.668l90.15-22.025c-8.7-6.834-18.73-11.756-29.46-14.445s-21.91-3.084-32.8-1.159-21.25 6.126-30.41 12.33c-9.15 6.203-16.89 14.268-22.71 23.667-5.74 9.279-9.48 19.648-10.99 30.448-1.52 10.8-.77 21.797 2.19 32.293.47 1.633.26 3.383-.57 4.864s-2.21 2.573-3.85 3.035c-1.63.461-3.38.255-4.86-.573-1.48-.829-2.58-2.212-3.04-3.845-5.57-19.66-4.38-40.62 3.37-59.526 7.76-18.907 21.63-34.668 39.41-44.763 17.77-10.096 38.42-13.942 58.64-10.924s38.85 12.725 52.9 27.57c.77.814 1.31 1.816 1.57 2.905.26 1.09.23 2.229-.08 3.303-.32 1.075-.91 2.047-1.72 2.82-.82.773-1.82 1.32-2.91 1.586l-96.08 23.473 9.26 58.893c.13.83.1 1.679-.1 2.496-.19.817-.55 1.587-1.05 2.267-.49.679-1.12 1.255-1.83 1.693-.72.438-1.52.73-2.35.86-.33.051-.66.077-1 .079z" fill="#000"/><path d="m1362.74 497.273c-6.28-5.891-14.07-9.923-22.51-11.648-8.44-1.726-17.19-1.076-25.28 1.877-8.09 2.952-15.21 8.092-20.55 14.845-5.34 6.754-8.7 14.857-9.7 23.406-1.01 8.55.38 17.211 4.01 25.018s9.36 14.454 16.54 19.2c7.19 4.747 15.55 7.406 24.16 7.683s17.12-1.841 24.6-6.116l.09.164 2.36 102.169c.39 15.053 6.64 29.36 17.43 39.87 10.79 10.511 25.26 16.394 40.32 16.395h.09c15.32-.023 30-6.128 40.82-16.972s16.89-25.539 16.86-40.852v-51.048c13.84-6.741 25.58-17.108 33.97-29.997 8.4-12.889 13.14-27.814 13.71-43.184.58-15.37-3.04-30.607-10.45-44.084-7.42-13.478-18.35-24.69-31.64-32.441.39-6.81-.04-13.642-1.28-20.348v-.06c-2.9-16.318-10.54-31.424-21.96-43.442l-101.71 24.378z" fill="#fff"/><path d="m1414.31 736.535c-16.78.108-32.92-6.388-44.94-18.083-12.03-11.695-18.96-27.65-19.3-44.413l-2.14-92.764c-8.23 2.79-17.02 3.51-25.6 2.096-8.58-1.413-16.68-4.918-23.58-10.202-6.9-5.285-12.39-12.187-15.99-20.097s-5.19-16.584-4.64-25.256 3.23-17.074 7.81-24.464c4.57-7.389 10.9-13.539 18.41-17.906 7.52-4.366 16-6.815 24.68-7.13 8.69-.314 17.33 1.516 25.14 5.327l-7.85-50.568c-.25-1.588.11-3.211 1.01-4.546.89-1.336 2.26-2.285 3.82-2.659l101.71-24.382c1.09-.262 2.24-.232 3.31.087 1.08.319 2.05.916 2.83 1.731 12.27 12.925 20.48 29.168 23.6 46.711v.032c1.09 5.938 1.6 11.97 1.5 18.007 12.86 8.293 23.45 19.667 30.78 33.089 7.34 13.422 11.21 28.465 11.25 43.761.07 16.446-4.34 32.6-12.75 46.737-8.41 14.136-20.5 25.721-34.99 33.517v47.139c.02 17.009-6.72 33.33-18.73 45.373-12.02 12.044-28.33 18.825-45.35 18.85zm-60.3-171.396c1.13-.001 2.24.299 3.22.869.98.571 1.79 1.391 2.35 2.378.55.97.87 2.055.92 3.169l2.36 102.169c.37 13.489 6.04 26.29 15.78 35.635 9.74 9.344 22.77 14.48 36.27 14.296s26.39-5.673 35.87-15.279 14.8-22.557 14.8-36.052v-51.058c0-1.2.33-2.377.97-3.395s1.54-1.837 2.62-2.364c13.28-6.406 24.47-16.434 32.28-28.928 7.81-12.493 11.93-26.941 11.87-41.673-.04-13.718-3.65-27.19-10.49-39.084-6.84-11.895-16.66-21.803-28.5-28.744-1.02-.596-1.85-1.461-2.41-2.502-.56-1.04-.81-2.213-.75-3.391.37-6.295-.02-12.612-1.17-18.813l-.02-.096c-2.46-13.864-8.62-26.807-17.83-37.463l-92.3 22.119 9.21 59.36c.21 1.316 0 2.663-.6 3.853-.6 1.191-1.56 2.164-2.74 2.785-1.17.622-2.52.86-3.84.682-1.32-.179-2.55-.765-3.52-1.676-5.42-5.08-12.14-8.557-19.42-10.045-7.27-1.488-14.82-.927-21.8 1.619s-13.11 6.977-17.71 12.801c-4.61 5.824-7.51 12.811-8.38 20.183-.86 7.373.33 14.841 3.46 21.574 3.13 6.732 8.07 12.465 14.26 16.559 6.2 4.094 13.41 6.389 20.83 6.629 7.43.24 14.77-1.585 21.22-5.27.97-.556 2.07-.848 3.19-.847z" fill="#000"/><path d="m1436.32 510.593c-1.55.001-3.05-.561-4.22-1.581s-1.92-2.429-2.13-3.966c-.21-1.536.15-3.095 1.01-4.387.85-1.292 2.15-2.229 3.65-2.638l15.41-4.225-17.05-30.74c-.82-1.484-1.02-3.235-.55-4.866.47-1.632 1.56-3.011 3.05-3.833 1.48-.823 3.24-1.023 4.87-.555s3.01 1.565 3.83 3.049l21 37.86c.47.847.74 1.791.8 2.758.05.968-.12 1.934-.5 2.828-.37.893-.95 1.689-1.67 2.328-.73.639-1.6 1.104-2.53 1.36l-23.26 6.378c-.56.153-1.14.231-1.71.23z" fill="#000"/><path d="m1405.16 484.206c4.95 0 8.97-4.011 8.97-8.958 0-4.948-4.02-8.959-8.97-8.959s-8.96 4.011-8.96 8.959c0 4.947 4.01 8.958 8.96 8.958z" fill="#000"/><path d="m1467.61 473.414c4.95 0 8.96-4.011 8.96-8.959 0-4.947-4.01-8.958-8.96-8.958s-8.96 4.011-8.96 8.958c0 4.948 4.01 8.959 8.96 8.959z" fill="#000"/><path d="m1434.53 636.288c-13.52-.006-26.87-3.041-39.06-8.881-1.53-.73-2.71-2.039-3.28-3.639s-.48-3.36.26-4.892c.73-1.533 2.04-2.712 3.64-3.28 1.6-.567 3.36-.476 4.89.254 14.79 7.088 31.44 9.318 47.58 6.369 7.1-1.27 13.99-3.502 20.49-6.633.76-.4 1.59-.643 2.45-.715.85-.071 1.72.031 2.53.299.82.269 1.57.699 2.22 1.266.65.566 1.17 1.256 1.54 2.03.38.774.59 1.614.63 2.472.05.859-.09 1.716-.38 2.522-.3.806-.76 1.544-1.35 2.17-.58.626-1.29 1.127-2.08 1.474-12.51 6.018-26.21 9.152-40.09 9.171z" fill="#000"/><path d="m1483.83 527.015c5.63 39.609-38.42 43.171-46.51 6.932z" fill="#000"/><path d="m1327.74 549.432c-1.33.001-2.62-.412-3.71-1.18-1.08-.768-1.9-1.854-2.34-3.108-.43-1.253-.47-2.612-.1-3.888.37-1.275 1.12-2.404 2.16-3.231l11.55-9.172-26.62-1.328c-1.68-.106-3.25-.869-4.37-2.124-1.12-1.256-1.71-2.902-1.62-4.583.08-1.68.83-3.26 2.07-4.397s2.88-1.74 4.56-1.677l43.56 2.176c1.3.064 2.55.523 3.58 1.315s1.8 1.879 2.19 3.117c.4 1.238.41 2.567.04 3.812-.38 1.244-1.13 2.345-2.15 3.154l-24.82 19.73c-1.13.899-2.53 1.387-3.98 1.384z" fill="#000"/><path d="m2080.52 440.826c-.98-37.911 10.59-117.525-19.37-117.525-14.94 0-14.94 42.659-12.81 74.653-2.13-36.26 6.41-76.786-13.69-77.093-33.3-.51-55.21 127.145-59.16 180.128-.71 9.726-2.14 33.252-2.14 33.252s-2.13 58.358 21.99 87.451c20.57 24.7 39.9 29.179 39.9 29.179 42.09 10.665 82.49-24.678 76.04-67.593-.36-2.404-.88-4.783-1.53-7.124-5.37-18.521-10.59-33.127-15.19-48.845" fill="#fff"/><path d="m2050.43 659.17c-5.65.001-11.28-.702-16.76-2.092-.75-.173-21.56-5.234-43.25-31.288-25.39-30.63-23.56-89.286-23.47-91.779.03-.391 1.45-23.83 2.15-33.488 3.19-37.546 9.47-74.767 18.77-111.284 13.32-50.59 28.59-75.02 46.87-74.775 2.28-.014 4.54.432 6.65 1.312 2.1.88 4 2.174 5.59 3.807.98 1.023 1.85 2.15 2.58 3.361.45-.565.85-1.002 1.2-1.36 1.31-1.467 2.91-2.643 4.7-3.452 1.79-.808 3.73-1.231 5.69-1.241 2.8-.024 5.58.53 8.15 1.627 2.58 1.098 4.9 2.715 6.82 4.751 14.2 14.747 12.72 53.55 11.41 87.783-.43 11.009-.82 21.405-.61 29.595.02.841-.12 1.677-.43 2.461-.3.785-.75 1.503-1.33 2.112s-1.27 1.099-2.04 1.44c-.77.342-1.6.529-2.44.55-.84.022-1.68-.122-2.46-.424-.79-.302-1.5-.755-2.11-1.334s-1.1-1.272-1.45-2.04c-.34-.768-.52-1.596-.55-2.436-.21-8.6.19-19.197.62-30.412 1.09-28.526 2.59-67.598-7.84-78.42-.72-.802-1.61-1.437-2.6-1.861s-2.06-.627-3.14-.594c-.17 0-.45 0-1.04.64-1.22 1.297-3.89 5.558-5.37 18.518.14 5.866 0 12.305-.15 19.197-.21 9.728-.43 19.789.14 29.535.1 1.685-.48 3.338-1.6 4.6-1.13 1.261-2.7 2.028-4.39 2.134-1.68.106-3.34-.458-4.61-1.57-1.27-1.111-2.05-2.679-2.17-4.362-1.4-16.576-1.41-33.239-.05-49.818-.24-9.385-1.24-17.063-4.15-20.094-.42-.423-.92-.75-1.47-.959s-1.15-.294-1.74-.251h-.09c-8.24 0-21.53 17.119-34.2 65.237-9.11 35.757-15.26 72.203-18.38 108.968-.69 9.566-2.11 32.931-2.13 33.168-.02.401-1.74 56.13 20.52 82.971 18.71 22.467 36.28 26.995 36.46 27.038 8.89 2.26 18.19 2.282 27.09.065s17.1-6.606 23.89-12.771c6.64-5.872 11.7-13.319 14.72-21.656 3.01-8.337 3.88-17.298 2.52-26.058-.33-2.142-.78-4.261-1.37-6.348-2.81-9.705-5.6-18.369-8.29-26.749-2.42-7.5-4.7-14.586-6.87-22.025-.26-.813-.35-1.668-.27-2.517s.32-1.674.72-2.426c.41-.752.95-1.416 1.61-1.954.67-.538 1.43-.938 2.25-1.178.82-.239 1.67-.313 2.52-.216.85.096 1.67.361 2.41.778.74.418 1.4.979 1.92 1.652s.91 1.444 1.13 2.267c2.13 7.279 4.38 14.29 6.77 21.702 2.72 8.466 5.55 17.222 8.42 27.159.73 2.609 1.3 5.258 1.71 7.935 1.61 10.847.5 21.925-3.22 32.242s-9.94 19.552-18.1 26.879c-12.55 11.403-28.9 17.73-45.86 17.748z" fill="#000"/><path d="m2094.56 533.712c-1.58-.002-3.09-.58-4.26-1.626-1.17-1.045-1.92-2.484-2.1-4.043-.06-.51-5.97-51.451-13.09-81.502-1.64-6.922-5.37-10.746-10.52-10.772h-.05c-6.37 0-14.3 6.062-17.17 17.678-2.06 8.295-6.49 50.914-8.02 66.636-.16 1.689-.99 3.243-2.3 4.322-1.31 1.078-3 1.591-4.69 1.427s-3.24-.993-4.32-2.304c-1.08-1.31-1.6-2.996-1.43-4.685.57-5.88 5.67-57.769 8.33-68.467 3.99-16.147 16.15-27.398 29.59-27.398h.12c11.14.057 19.93 7.958 22.92 20.621 7.3 30.791 13.11 80.871 13.35 82.989.1.835.03 1.681-.2 2.489s-.62 1.562-1.14 2.22c-.53.659-1.17 1.207-1.91 1.615-.73.409-1.54.668-2.38.764-.24.026-.49.038-.73.036z" fill="#000"/><path d="m3087.22 177.164h198.85c45.67 0 89.48 18.181 121.77 50.544 32.3 32.364 50.44 76.258 50.44 122.026 0 45.769-18.14 89.663-50.44 122.026-32.29 32.363-76.1 50.545-121.77 50.545h-198.85c-2.21 0-4.19 0-6.29-.111-7.55-.316-15.07 1.082-22 4.089-6.93 3.008-13.1 7.547-18.03 13.279l-50.28 58.829c-1.39 1.645-3.26 2.82-5.35 3.365-2.09.546-4.29.436-6.32-.315-2.02-.75-3.76-2.105-4.99-3.882-1.23-1.776-1.89-3.887-1.88-6.049v-93.166c-.03-12.375-4.63-24.301-12.92-33.474-28.46-31.624-44.19-72.707-44.16-115.291.04-45.741 18.21-89.596 50.5-121.925 32.29-32.33 76.07-50.49 121.72-50.49z" fill="#fff"/><path d="m2982.58 608.736c-2.26-.004-4.49-.453-6.57-1.322s-3.97-2.14-5.56-3.742c-1.59-1.601-2.85-3.501-3.71-5.591s-1.29-4.329-1.29-6.589v-93.143c-.02-10.73-4.01-21.07-11.2-29.019-23.12-25.733-38.29-57.632-43.69-91.832-5.39-34.2-.77-69.233 13.3-100.856s36.99-58.478 65.99-77.312c28.99-18.834 62.82-28.84 97.37-28.804h198.84c47.44 0 92.93 18.881 126.46 52.489 33.54 33.608 52.39 79.19 52.39 126.719s-18.85 93.111-52.39 126.719c-33.53 33.608-79.02 52.489-126.46 52.489h-198.84c-2.25 0-4.37 0-6.64-.122-6.54-.281-13.06.93-19.07 3.542-6 2.611-11.34 6.555-15.6 11.534l-50.26 58.811c-1.45 1.721-3.24 3.134-5.24 4.16-2.01 1.025-4.2 1.642-6.44 1.814-.47.038-.93.057-1.39.055zm104.64-424.935c-31.99-.035-63.3 9.226-90.15 26.66-26.84 17.434-48.07 42.294-61.1 71.569-13.03 29.274-17.31 61.707-12.32 93.37s19.03 61.197 40.43 85.025c9.39 10.384 14.6 23.892 14.62 37.906v93.179c0 .572.12 1.139.35 1.659.24.521.59.983 1.02 1.354.39.334.85.588 1.33.746.49.159 1.01.219 1.52.178s1.01-.183 1.47-.417c.45-.235.86-.557 1.19-.949l50.29-58.838c5.57-6.511 12.55-11.668 20.4-15.079s16.38-4.988 24.93-4.612c1.99.107 3.86.107 6.02.107h198.84c43.92 0 86.04-17.483 117.1-48.601 31.05-31.119 48.5-73.324 48.5-117.333 0-44.008-17.45-86.214-48.5-117.332-31.06-31.119-73.18-48.601-117.1-48.601z" fill="#000"/><path d="m3313.6 313.163h-268.26c-1.76 0-3.44-.7-4.69-1.944-1.24-1.245-1.94-2.933-1.94-4.694 0-1.76.7-3.448 1.94-4.693 1.25-1.245 2.93-1.944 4.69-1.944h268.26c1.76 0 3.44.699 4.68 1.944 1.25 1.245 1.94 2.933 1.94 4.693 0 1.761-.69 3.449-1.94 4.694-1.24 1.244-2.92 1.944-4.68 1.944z" fill="#000"/><path d="m3155.07 387.943h-104.21c-1.76 0-3.44-.699-4.69-1.944-1.24-1.245-1.94-2.933-1.94-4.693s.7-3.449 1.94-4.693c1.25-1.245 2.93-1.944 4.69-1.944h104.21c1.76 0 3.44.699 4.68 1.944 1.25 1.244 1.94 2.933 1.94 4.693s-.69 3.448-1.94 4.693c-1.24 1.245-2.92 1.944-4.68 1.944z" fill="#000"/><path d="m3313.6 387.943h-82.73c-1.76 0-3.44-.699-4.69-1.944-1.24-1.245-1.94-2.933-1.94-4.693s.7-3.449 1.94-4.693c1.25-1.245 2.93-1.944 4.69-1.944h82.73c1.76 0 3.44.699 4.68 1.944 1.25 1.244 1.94 2.933 1.94 4.693s-.69 3.448-1.94 4.693c-1.24 1.245-2.92 1.944-4.68 1.944z" fill="#000"/><path d="m978.85 231.444h-196.56c-45.15 0-88.45 17.917-120.376 49.811-31.926 31.893-49.862 75.15-49.862 120.255 0 45.104 17.936 88.361 49.862 120.254 31.926 31.894 75.226 49.811 120.376 49.811h196.56c2.183 0 4.169 0 6.22-.109 7.465-.318 14.905 1.056 21.76 4.02 6.86 2.965 12.95 7.442 17.83 13.096l49.7 57.975c1.39 1.609 3.23 2.756 5.29 3.286s4.24.419 6.23-.318c2-.738 3.72-2.067 4.93-3.809 1.22-1.743 1.88-3.815 1.88-5.94v-91.574c.02-12.198 4.56-23.957 12.75-33.01 28.13-31.158 43.68-71.636 43.65-113.595.01-22.334-4.38-44.451-12.93-65.088-8.54-20.638-21.07-39.392-36.87-55.192-15.8-15.801-34.56-28.337-55.21-36.894-20.65-8.558-42.79-12.968-65.143-12.979z" fill="#fff"/><path d="m1082.28 656.715c-.42 0-.85-.015-1.27-.048-2.23-.158-4.4-.755-6.39-1.757-2-1.003-3.77-2.39-5.22-4.082l-49.71-57.996c-4.22-4.916-9.51-8.807-15.46-11.376-5.948-2.569-12.406-3.749-18.881-3.451-2.157.116-4.265.116-6.5.116h-196.56c-46.887 0-91.853-18.607-125.008-51.728-33.154-33.12-51.78-78.042-51.78-124.881 0-46.84 18.626-91.761 51.78-124.882 33.155-33.12 78.121-51.727 125.008-51.727h196.647c34.154.013 67.584 9.914 96.224 28.503 28.65 18.59 51.29 45.073 65.18 76.245 13.9 31.173 18.46 65.7 13.13 99.406-5.34 33.705-20.33 65.145-43.17 90.518-7.11 7.851-11.05 18.055-11.06 28.64v91.561c-.01 4.49-1.8 8.793-4.98 11.968-3.17 3.175-7.48 4.963-11.98 4.971zm-95.096-91.833c8.059-.021 16.026 1.705 23.356 5.059 7.32 3.355 13.83 8.257 19.08 14.37l49.71 57.997c.33.382.74.695 1.19.922.45.226.95.361 1.45.397.51.042 1.02-.02 1.51-.18.48-.16.93-.417 1.31-.753.43-.363.76-.812 1-1.317.23-.505.35-1.054.35-1.609v-91.566c.02-13.819 5.16-27.143 14.44-37.395 21.14-23.494 35.01-52.604 39.95-83.81 4.93-31.206.71-63.171-12.16-92.03s-33.83-53.377-60.35-70.588-57.46-26.379-89.084-26.394l-.083-6.541v6.541h-196.564c-43.413 0-85.048 17.228-115.746 47.895s-47.944 72.26-47.944 115.63c0 43.369 17.246 84.962 47.944 115.629s72.333 47.896 115.746 47.896h196.56c2.143 0 3.994 0 5.871-.101.823-.035 1.637-.052 2.464-.052z" fill="#000"/><path d="m1020.25 365.469h-265.176c-1.736 0-3.402-.689-4.63-1.916s-1.917-2.89-1.917-4.625.689-3.399 1.917-4.625c1.228-1.227 2.894-1.916 4.63-1.916h265.176c1.74 0 3.4.689 4.63 1.916 1.23 1.226 1.92 2.89 1.92 4.625s-.69 3.398-1.92 4.625-2.89 1.916-4.63 1.916z" fill="#000"/><path d="m903.487 439.142h-148.413c-1.736 0-3.402-.689-4.63-1.916-1.228-1.226-1.917-2.89-1.917-4.625 0-1.734.689-3.398 1.917-4.625s2.894-1.916 4.63-1.916h148.413c1.737 0 3.402.689 4.63 1.916s1.918 2.891 1.918 4.625c0 1.735-.69 3.399-1.918 4.625-1.228 1.227-2.893 1.916-4.63 1.916z" fill="#000"/><path d="m3656.94 1002.84c-1.56.18-30.72-7.154-35.34-8.562l50.01-98.189c.46-.901 1.16-1.659 2.02-2.187.86-.529 1.86-.809 2.87-.809h.07c1.03.013 2.03.313 2.89.867.87.554 1.56 1.338 1.99 2.265l25.43 53.525c.05.109.1.218.14.328 4.04 10.171 3.45 21.51.46 32.616-.68.346-33.79 18.216-50.54 20.146z" fill="#fff"/><path d="m3657.32 1008.89c-5.01 0-37.19-8.71-37.5-8.8-.85-.259-1.63-.7-2.3-1.294-.66-.593-1.18-1.324-1.53-2.141-.35-.816-.51-1.699-.48-2.586.03-.888.26-1.757.66-2.549l50.01-98.188c.99-1.925 2.49-3.537 4.34-4.653s3.98-1.692 6.14-1.663c2.16.03 4.27.664 6.09 1.831s3.28 2.819 4.2 4.771l25.43 53.528c.1.203.19.416.27.624 4.17 10.506 4.4 22.765.71 36.496-.22.824-.61 1.593-1.15 2.256-.53.663-1.21 1.206-1.97 1.593l-.18.099c-8.28 4.386-36.51 18.836-52.43 20.666-.1.01-.21.01-.31.01zm-26.91-18.52c9.09 2.35 23.21 5.792 26.46 6.351 10.64-1.473 29.92-10.085 45.37-18.142 2.33-10.09 2.04-18.915-.88-26.261l-24.88-52.392z" fill="#000"/><path d="m3715.98 1039.66 84.4-30.39c2.19-.77 4.56-.91 6.83-.41s4.36 1.63 6.02 3.25c1.67 1.62 2.85 3.68 3.41 5.93.56 2.26.47 4.62-.24 6.83-.62 1.81-1.63 3.45-2.97 4.82-1.33 1.36-2.95 2.42-4.74 3.08l-20.28 7.09 17.24 2.84c3.26.51 6.17 2.29 8.11 4.95s2.75 5.98 2.24 9.23c-.52 3.25-2.3 6.17-4.96 8.1-2.66 1.94-5.99 2.74-9.24 2.23l-55.43-8.76" fill="#fff"/><path d="m3803.78 1073.45c-.98 0-1.96-.08-2.93-.23l-55.44-8.77c-1.58-.26-2.99-1.14-3.92-2.44-.94-1.3-1.32-2.92-1.07-4.5s1.12-3 2.41-3.94c1.29-.95 2.9-1.35 4.48-1.12l55.43 8.76c.98.15 1.98.08 2.92-.21.95-.3 1.82-.8 2.53-1.48.85-.79 1.46-1.81 1.75-2.94.28-1.12.24-2.3-.12-3.41-.34-1.15-1.01-2.19-1.92-2.98s-2.03-1.31-3.22-1.49l-17.27-2.83c-1.33-.23-2.55-.88-3.47-1.87s-1.48-2.26-1.6-3.61c-.11-1.34.22-2.69.96-3.82.73-1.13 1.82-1.99 3.1-2.44l20.16-7.05c.94-.35 1.79-.9 2.49-1.61.7-.72 1.24-1.57 1.57-2.51.38-1.12.43-2.32.15-3.47-.29-1.14-.9-2.18-1.76-2.99-.84-.85-1.91-1.45-3.08-1.71-1.17-.27-2.4-.19-3.53.22l-84.37 30.37c-.75.28-1.55.41-2.36.38-.8-.04-1.59-.23-2.32-.56-.73-.34-1.39-.82-1.93-1.41-.54-.6-.96-1.29-1.24-2.05-.27-.75-.39-1.55-.35-2.36.04-.8.24-1.59.58-2.31.35-.73.84-1.38 1.44-1.91.6-.54 1.29-.95 2.05-1.22l84.41-30.38c3.27-1.16 6.8-1.38 10.19-.64s6.5 2.42 8.98 4.84c2.49 2.42 4.25 5.48 5.07 8.85.83 3.36.7 6.89-.38 10.19-.86 2.54-2.26 4.87-4.09 6.83-1.84 1.97-4.07 3.52-6.55 4.55 2.37 1.1 4.48 2.68 6.19 4.65 1.71 1.96 2.99 4.26 3.75 6.76 1.03 3.28 1.11 6.78.24 10.11-.87 3.32-2.66 6.33-5.17 8.69-3.46 3.24-8.02 5.05-12.76 5.06z" fill="#000"/><path d="m3554.35 1016.16-47.86 4.66 46.85 18.84z" fill="#000"/><path d="m3575.65 1060.32c8.67 3.99 15.95 10.48 20.89 18.64 5.47 8.83 12.72 16.42 21.3 22.29 30.62 21.47 72.61 16 98.37-11.15l30.22-32-90.67-58.349c-10.74-4.114-20.64-10.156-29.2-17.827-8.27-7.24-18.8-11.38-29.79-11.708s-21.75 3.176-30.44 9.91c-8.69 6.735-14.75 16.279-17.16 26.994-2.41 10.72-1.01 21.93 3.97 31.73 4.91 9.46 12.83 17.01 22.51 21.47z" fill="#fff"/><path d="m3659.88 1120.42c-16.28.06-32.19-4.89-45.54-14.2-9.25-6.33-17.07-14.52-22.96-24.05-4.29-7.12-10.63-12.8-18.19-16.29l-.07-.03c-10.9-5.01-19.82-13.51-25.35-24.15-5.66-11.06-7.29-23.74-4.59-35.86 2.69-12.117 9.54-22.92 19.35-30.541 9.81-7.622 21.98-11.586 34.41-11.208 12.42.378 24.32 5.073 33.66 13.277 8.01 7.176 17.27 12.831 27.31 16.689.41.152.79.345 1.15.577l90.66 58.346c.75.48 1.39 1.12 1.86 1.88.48.76.78 1.61.89 2.49.1.89.02 1.79-.26 2.63-.28.85-.74 1.63-1.36 2.28l-30.22 32.01c-7.82 8.24-17.24 14.81-27.68 19.31-10.45 4.49-21.7 6.82-33.07 6.84zm-81.74-65.64c9.78 4.47 17.99 11.77 23.56 20.96 5.02 8.12 11.68 15.1 19.57 20.49 27.66 19.4 66.56 14.95 90.52-10.31l25.19-26.67-83.98-54.05c-11.19-4.37-21.51-10.711-30.47-18.716-7.2-6.299-16.37-9.899-25.94-10.184-9.57-.284-18.94 2.764-26.51 8.623-7.56 5.859-12.85 14.164-14.96 23.487-2.1 9.33-.9 19.1 3.42 27.64 4.27 8.24 11.17 14.83 19.61 18.73z" fill="#000"/><path d="m3579.3 1034.39c6.72 0 12.17-5.44 12.17-12.15s-5.45-12.16-12.17-12.16-12.17 5.45-12.17 12.16 5.45 12.15 12.17 12.15z" fill="#000"/><path d="m3614.71 1048.1c-1.78-1.33-3.38-2.87-4.78-4.59-.11-.15-.22-.3-.32-.46-4.23-6.85-5.66-15.05-4-22.92 1.09-4.9.32-10.03-2.18-14.38-.32-.46-.61-.91-.9-1.36-.16-.26-.32-.53-.51-.79-.1-.13-.19-.26-.28-.4-2.64-4.228-6.85-7.232-11.71-8.356s-9.96-.276-14.19 2.357l-23.33 14.589c-1.02.63-2.2.95-3.4.92-1.2-.04-2.36-.42-3.34-1.12-.98-.69-1.73-1.66-2.16-2.78-.43-1.11-.52-2.34-.26-3.51 2.78-12.441 10.03-23.437 20.38-30.904 9.8-7.247 21.81-10.903 33.99-10.352 12.19.55 23.81 5.273 32.92 13.374 7.11 6.472 15.27 11.685 24.14 15.413l110.44-85.401c.9-.696 1.97-1.126 3.11-1.242 1.13-.115 2.27.089 3.29.59 1.02.5 1.88 1.277 2.49 2.242.6.964.92 2.078.92 3.215v65.637c0 .134 0 .266-.02.405-2.75 41.933-67.33 71.453-74.17 74.463-11.94 7.71-25.85 11.82-40.08 11.84-16.8.02-33.08-5.81-46.05-16.48z" fill="#0618bb"/><path d="m3652.27 1004.86c-.82-.53-1.51-1.24-1.99-2.09-.49-.84-.76-1.79-.8-2.76-.05-.977.15-1.946.56-2.829s1.03-1.654 1.8-2.249l113.38-87.517c.9-.695 1.98-1.124 3.11-1.238 1.13-.115 2.27.09 3.29.591s1.88 1.278 2.49 2.242c.6.965.92 2.078.92 3.215v24.918c-.05 11.104-2.99 22.005-8.53 31.629-5.55 9.624-13.51 17.639-23.1 23.255l-24.72 14.373c-9.66 5.69-20.67 8.69-31.88 8.7-12.26-.03-24.25-3.58-34.53-10.24z" fill="#b4baeb"/><path d="m3772.01 2158.81c-1.65-.25-3.14-1.14-4.16-2.47-1.01-1.33-1.47-3-1.27-4.66l80.99-689.68c.2-1.7 1.06-3.25 2.4-4.31 1.35-1.07 3.06-1.55 4.75-1.35 1.7.2 3.25 1.07 4.31 2.41s1.55 3.05 1.35 4.75l-80.99 689.68c-.1.84-.36 1.66-.77 2.4-.42.74-.97 1.39-1.64 1.91-.66.53-1.42.92-2.24 1.15-.81.23-1.66.3-2.5.2z" fill="#000"/><path d="m3841.66 1565.25c-1.05-.17-2.05-.59-2.9-1.23s-1.53-1.49-1.98-2.46l-31.23-68.17c-.71-1.55-.77-3.33-.18-4.93.6-1.6 1.8-2.91 3.36-3.62 1.55-.71 3.32-.78 4.93-.19 1.6.6 2.9 1.81 3.61 3.36l26.82 58.54 39.7-50.82c.52-.68 1.17-1.25 1.91-1.68s1.55-.71 2.4-.81c.85-.11 1.7-.05 2.53.17.82.23 1.59.61 2.26 1.14s1.24 1.18 1.65 1.93c.42.74.69 1.56.78 2.41.1.85.03 1.71-.21 2.53-.23.82-.63 1.59-1.16 2.25l-46.23 59.17c-.68.87-1.58 1.56-2.6 1.98-1.02.43-2.13.59-3.23.46z" fill="#000"/><path d="m3834.04 1629.77c-1.06-.16-2.06-.59-2.92-1.24-.85-.64-1.53-1.5-1.97-2.47l-44.99-99.36c-.36-.77-.55-1.6-.58-2.45s.1-1.7.4-2.49c.3-.8.75-1.53 1.33-2.15s1.27-1.12 2.05-1.47c.77-.35 1.6-.55 2.45-.57.85-.03 1.7.11 2.49.41s1.52.76 2.14 1.34c.61.58 1.11 1.28 1.46 2.05l40.58 89.62 60.4-77.86c.51-.7 1.15-1.29 1.89-1.74.74-.44 1.56-.74 2.42-.86.85-.12 1.72-.07 2.56.15.83.23 1.62.61 2.3 1.14s1.25 1.2 1.67 1.95c.42.76.69 1.59.78 2.45s.01 1.73-.23 2.56c-.25.82-.67 1.59-1.22 2.26l-66.95 86.32c-.68.88-1.58 1.56-2.6 1.99s-2.14.59-3.24.46z" fill="#000"/><path d="m3825.46 1703.5c-1.05-.16-2.05-.58-2.9-1.23-.85-.64-1.53-1.48-1.98-2.46l-58.54-127.75c-.68-1.55-.72-3.31-.12-4.89s1.8-2.86 3.34-3.57c1.53-.7 3.29-.78 4.88-.2 1.59.57 2.89 1.75 3.62 3.28l54.13 118.12 80.05-102.44c.51-.67 1.16-1.25 1.9-1.67.74-.43 1.55-.71 2.4-.82s1.71-.05 2.53.18 1.59.61 2.26 1.14c.68.53 1.24 1.18 1.65 1.92.42.75.69 1.57.79 2.42.09.85.02 1.71-.21 2.53-.24.82-.64 1.58-1.17 2.25l-86.57 110.79c-.68.87-1.57 1.55-2.59 1.98-1.02.42-2.14.58-3.24.45z" fill="#000"/><path d="m3817.07 1774.52c-1.05-.16-2.04-.58-2.89-1.22-.85-.65-1.53-1.49-1.97-2.46l-69.19-150.85c-.37-.77-.58-1.61-.62-2.47-.05-.85.08-1.71.37-2.51.29-.81.74-1.54 1.32-2.17.58-.64 1.28-1.14 2.05-1.5.78-.36 1.62-.56 2.48-.59.85-.02 1.7.12 2.5.42.8.31 1.53.77 2.15 1.36s1.12 1.29 1.46 2.08l64.78 141.23 95.85-122.46c1.05-1.34 2.6-2.22 4.29-2.42 1.7-.21 3.41.27 4.76 1.32 1.34 1.06 2.21 2.61 2.42 4.3.2 1.7-.27 3.41-1.33 4.76l-102.37 130.79c-.68.87-1.58 1.55-2.6 1.97-1.02.43-2.13.58-3.23.45-.08 0-.15-.02-.23-.03z" fill="#000"/><path d="m601.471 1270.57c34.394 0 62.276-27.87 62.276-62.25 0-34.37-27.882-62.24-62.276-62.24s-62.276 27.87-62.276 62.24c0 34.38 27.882 62.25 62.276 62.25z" fill="#fff"/><path d="m601.471 1276.94c-13.578 0-26.851-4.02-38.141-11.56s-20.089-18.26-25.285-30.8-6.556-26.33-3.907-39.64 9.188-25.54 18.789-35.14c9.601-9.59 21.834-16.13 35.151-18.78 13.317-2.64 27.121-1.28 39.666 3.91 12.544 5.19 23.266 13.99 30.81 25.27 7.543 11.29 11.57 24.55 11.57 38.12-.021 18.2-7.261 35.64-20.131 48.5-12.87 12.87-30.32 20.1-48.522 20.12zm0-124.49c-11.056 0-21.863 3.28-31.056 9.42-9.192 6.14-16.357 14.86-20.588 25.07s-5.338 21.45-3.181 32.28c2.157 10.84 7.481 20.8 15.298 28.61 7.818 7.82 17.778 13.14 28.622 15.29 10.843 2.16 22.083 1.05 32.297-3.18 10.215-4.23 18.945-11.39 25.087-20.57 6.143-9.19 9.421-20 9.421-31.05-.017-14.81-5.912-29.01-16.391-39.48-10.48-10.48-24.688-16.37-39.509-16.39z" fill="#000"/><path d="m667.361 1403.35c34.394 0 62.276-27.87 62.276-62.25s-27.882-62.25-62.276-62.25-62.276 27.87-62.276 62.25 27.882 62.25 62.276 62.25z" fill="#fff"/><path d="m667.361 1409.72c-13.578 0-26.852-4.03-38.141-11.57-11.29-7.54-20.09-18.25-25.286-30.79s-6.555-26.34-3.907-39.65c2.649-13.31 9.188-25.53 18.789-35.13s21.834-16.13 35.151-18.78c13.318-2.65 27.121-1.29 39.666 3.9 12.545 5.2 23.267 13.99 30.81 25.28 7.544 11.28 11.57 24.55 11.57 38.12-.02 18.19-7.26 35.63-20.13 48.5-12.87 12.86-30.321 20.1-48.522 20.12zm0-124.49c-11.056 0-21.864 3.27-31.056 9.41-9.193 6.14-16.358 14.87-20.589 25.08s-5.338 21.44-3.181 32.28 7.481 20.79 15.299 28.61c7.817 7.81 17.778 13.13 28.621 15.29 10.844 2.15 22.083 1.05 32.298-3.18 10.214-4.23 18.944-11.39 25.087-20.58 6.142-9.19 9.42-19.99 9.42-31.04-.016-14.81-5.911-29.01-16.391-39.49-10.479-10.47-24.688-16.37-39.508-16.38z" fill="#000"/><path d="m543.021 1406.74c34.394 0 62.276-27.86 62.276-62.24s-27.882-62.25-62.276-62.25-62.276 27.87-62.276 62.25 27.882 62.24 62.276 62.24z" fill="#fff"/><path d="m543.021 1413.12c-13.578 0-26.851-4.03-38.141-11.57s-20.089-18.25-25.285-30.79c-5.197-12.54-6.556-26.34-3.907-39.65s9.187-25.54 18.789-35.13c9.601-9.6 21.834-16.13 35.151-18.78s27.121-1.29 39.665 3.9c12.545 5.2 23.267 13.99 30.811 25.28 7.543 11.28 11.57 24.55 11.57 38.12-.021 18.19-7.261 35.63-20.131 48.5-12.871 12.86-30.32 20.1-48.522 20.12zm0-124.49c-11.056 0-21.863 3.27-31.056 9.41s-16.357 14.87-20.588 25.08-5.338 21.44-3.181 32.28 7.48 20.79 15.298 28.61c7.818 7.81 17.778 13.13 28.622 15.29 10.843 2.15 22.083 1.05 32.297-3.18s18.945-11.39 25.087-20.58 9.421-19.99 9.421-31.04c-.017-14.81-5.912-29.02-16.391-39.49-10.48-10.47-24.688-16.37-39.509-16.38z" fill="#000"/><path d="m671.187 1541.65c34.394 0 62.276-27.87 62.276-62.25s-27.882-62.25-62.276-62.25c-34.395 0-62.276 27.87-62.276 62.25s27.881 62.25 62.276 62.25z" fill="#fff"/><path d="m671.187 1548.02c-13.579 0-26.852-4.03-38.142-11.57-11.289-7.54-20.089-18.25-25.285-30.79s-6.556-26.34-3.907-39.65 9.188-25.53 18.789-35.13 21.834-16.13 35.151-18.78 27.121-1.29 39.666 3.9c12.544 5.2 23.266 13.99 30.81 25.28 7.544 11.28 11.57 24.55 11.57 38.12-.02 18.19-7.26 35.63-20.13 48.5-12.871 12.86-30.321 20.1-48.522 20.12zm0-124.49c-11.056 0-21.864 3.27-31.057 9.41-9.192 6.14-16.357 14.87-20.588 25.08s-5.338 21.44-3.181 32.28 7.481 20.79 15.299 28.61c7.817 7.81 17.778 13.13 28.621 15.29 10.844 2.15 22.083 1.05 32.297-3.18 10.215-4.23 18.945-11.39 25.087-20.58 6.143-9.19 9.421-19.99 9.421-31.04-.017-14.81-5.911-29.02-16.391-39.49s-24.688-16.37-39.508-16.38z" fill="#000"/><path d="m546.637 1544.83c34.394 0 62.276-27.87 62.276-62.24 0-34.38-27.882-62.25-62.276-62.25-34.395 0-62.276 27.87-62.276 62.25 0 34.37 27.881 62.24 62.276 62.24z" fill="#fff"/><path d="m546.634 1551.21c-13.578 0-26.851-4.03-38.141-11.57s-20.089-18.26-25.285-30.79c-5.196-12.54-6.556-26.34-3.907-39.65s9.188-25.54 18.789-35.13c9.601-9.6 21.834-16.14 35.151-18.78 13.317-2.65 27.121-1.29 39.666 3.9 12.544 5.19 23.266 13.99 30.81 25.27 7.544 11.29 11.57 24.55 11.57 38.13-.021 18.19-7.261 35.63-20.131 48.49-12.87 12.87-30.32 20.1-48.522 20.13zm0-124.5c-11.055 0-21.863 3.28-31.056 9.42-9.192 6.14-16.357 14.87-20.588 25.08-4.231 10.2-5.338 21.44-3.181 32.28 2.157 10.83 7.481 20.79 15.298 28.6 7.818 7.82 17.779 13.14 28.622 15.3 10.843 2.15 22.083 1.04 32.297-3.18 10.215-4.23 18.945-11.39 25.087-20.58 6.143-9.19 9.421-19.99 9.421-31.04-.017-14.82-5.912-29.02-16.391-39.49-10.48-10.48-24.688-16.37-39.509-16.39z" fill="#000"/><path d="m627.19 2160.06c-1.662 0-3.258-.64-4.449-1.8s-1.883-2.74-1.928-4.4l-24.855-916.08c-.023-.84.119-1.67.419-2.45.299-.78.749-1.5 1.325-2.11 1.163-1.23 2.767-1.94 4.458-1.99 1.691-.04 3.331.58 4.56 1.75 1.228 1.16 1.945 2.76 1.991 4.45l24.855 916.09c.023.83-.12 1.67-.419 2.45-.3.78-.75 1.5-1.326 2.1-.576.61-1.266 1.1-2.031 1.44s-1.589.53-2.426.55z" fill="#000"/><path d="m3691.84 2156.87c-1.61 0-3.15-.62-4.32-1.74-1.16-1.12-1.87-2.65-1.98-4.29l-9.8-150.47c-.11-1.71.45-3.4 1.55-4.69s2.66-2.08 4.34-2.19c1.67-.11 3.32.46 4.58 1.58 1.26 1.13 2.03 2.73 2.14 4.44l9.8 150.47c.11 1.71-.45 3.39-1.55 4.68-1.11 1.29-2.67 2.08-4.34 2.2-.15 0-.28.01-.42.01z" fill="#000"/><path d="m3679.02 1959.64c-1.05 0-2.09-.27-3.02-.78-.92-.52-1.71-1.26-2.28-2.17l-33.3-52.45c-.91-1.44-1.23-3.19-.88-4.87.35-1.67 1.33-3.14 2.74-4.07 1.4-.94 3.11-1.26 4.75-.9 1.64.35 3.08 1.36 3.99 2.8l33.3 52.45c.62.98.97 2.11 1.02 3.27.04 1.16-.22 2.31-.76 3.34-.54 1.02-1.35 1.87-2.32 2.47-.98.59-2.1.91-3.23.91z" fill="#000"/><path d="m3679.02 1959.64c-1.61 0-3.15-.63-4.32-1.75s-1.88-2.65-1.99-4.29l-4.23-64.92c-.06-.85.05-1.7.32-2.5.26-.81.68-1.55 1.23-2.19 1.1-1.29 2.66-2.08 4.33-2.19 1.67-.12 3.32.45 4.58 1.58s2.04 2.73 2.15 4.44l2.62 40.18 15.82-34.1c.35-.77.85-1.46 1.47-2.03.62-.56 1.34-1 2.12-1.29.78-.28 1.61-.41 2.44-.36.83.04 1.64.25 2.39.61.75.37 1.42.88 1.97 1.51.56.63.99 1.37 1.27 2.17s.4 1.64.35 2.49c-.04.85-.24 1.68-.6 2.45l-26.22 56.5c-.51 1.1-1.32 2.03-2.33 2.69-1.01.65-2.18 1-3.37 1z" fill="#000"/><path d="m3628.39 2011.25-1.27-19.6c-1.12-17.15-7.99-33.37-19.45-45.93l-8.43-9.22 156.73-10.66-7.16 10.27c-9.76 14-14.47 31.02-13.36 48.17l1.27 19.6c.47 7.27-.46 14.57-2.74 21.47-2.28 6.91-5.87 13.28-10.56 18.77-4.69 5.48-10.39 9.97-16.78 13.2-6.38 3.23-13.33 5.15-20.44 5.63h-.02c-14.37.99-28.52-3.9-39.36-13.59s-17.47-23.39-18.43-38.08z" fill="#b4baeb"/><path d="m261.846 2156.87c-.402 0-.804-.04-1.199-.12-.797-.16-1.555-.47-2.231-.93-.677-.45-1.258-1.03-1.711-1.71-.452-.67-.768-1.44-.928-2.24-.161-.8-.163-1.62-.006-2.42l74.008-379.14c.332-1.6 1.278-3.01 2.635-3.91 1.356-.91 3.013-1.24 4.61-.92 1.597.31 3.006 1.25 3.921 2.6.915 1.36 1.262 3.02.966 4.63l-74.006 379.13c-.275 1.42-1.03 2.69-2.135 3.61-1.105.91-2.492 1.41-3.924 1.42z" fill="#000"/><path d="m395.32 1785.06-119.53-23.62c-9.702-2-18.227-7.77-23.72-16.06-5.492-8.29-7.506-18.42-5.603-28.2 1.902-9.77 7.567-18.39 15.761-23.99 8.194-5.59 18.254-7.7 27.988-5.87l119.53 23.6c9.568 2.14 17.928 7.95 23.295 16.2 5.368 8.25 7.319 18.28 5.437 27.95-1.883 9.67-7.449 18.22-15.512 23.83-8.062 5.6-17.983 7.81-27.646 6.16zm-110.936-68.08c-1.929-.32-3.906.13-5.512 1.25-1.607 1.12-2.716 2.82-3.094 4.75s.006 3.93 1.07 5.58 2.725 2.82 4.63 3.26l119.551 23.61c.968.19 1.963.18 2.93-.01.966-.2 1.885-.58 2.703-1.14.818-.55 1.52-1.26 2.065-2.09.546-.82.924-1.75 1.113-2.72.19-.98.187-1.98-.009-2.95-.195-.97-.579-1.89-1.129-2.72-.55-.82-1.256-1.53-2.078-2.07-.821-.55-1.742-.93-2.71-1.12z" fill="#0618bb"/><path d="m385.441 1928.06c-2.322 0-4.638-.21-6.925-.61-.429-.07-.849-.19-1.253-.36-19.974-5.04-61.001-43.9-65.692-48.4-.753-.72-1.314-1.62-1.629-2.61-.316-1-.376-2.06-.176-3.09.201-1.02.655-1.98 1.322-2.79.666-.8 1.524-1.42 2.492-1.8 6.158-2.42 60.703-23.55 80.168-19.71 9.622 2.09 18.137 7.68 23.91 15.69 5.773 8.02 8.396 17.9 7.365 27.75-1.031 9.84-5.643 18.95-12.95 25.59-7.308 6.63-16.794 10.31-26.636 10.34zm-3.916-12.72c7.055 1 14.222-.78 19.995-4.99 5.772-4.2 9.7-10.49 10.958-17.54s-.251-14.32-4.212-20.28c-3.96-5.96-10.062-10.14-17.024-11.66-10.343-2.04-41.496 7.42-63.872 15.6 17.63 16.07 42.915 36.65 53.376 38.66.263.06.521.12.775.21z" fill="#000"/><path d="m243.428 1900.06c-1.854.02-3.706-.14-5.531-.47-5.148-1.01-10.047-3.03-14.418-5.94s-8.128-6.67-11.056-11.04c-2.927-4.38-4.968-9.29-6.005-14.46s-1.05-10.5-.039-15.67c1.012-5.18 3.028-10.1 5.934-14.49s6.644-8.16 11.001-11.1c4.357-2.93 9.246-4.98 14.389-6.01 5.142-1.03 10.437-1.03 15.58-.01 19.463 3.85 62.032 44.15 66.812 48.73.753.72 1.313 1.63 1.629 2.62.315 1 .376 2.06.175 3.09-.2 1.02-.655 1.98-1.321 2.78-.667.81-1.524 1.43-2.493 1.81-5.644 2.22-51.979 20.16-74.657 20.16zm-3.151-12.67c10.469 2.07 41.642-7.39 64.021-15.56-17.643-16.08-42.942-36.69-53.399-38.76-7.104-1.28-14.424.3-20.382 4.4-5.958 4.09-10.077 10.38-11.47 17.5-1.394 7.12.051 14.51 4.022 20.57 3.972 6.06 10.151 10.31 17.208 11.83z" fill="#000"/><path d="m1951.48 269.686c-1.12 0-2.22-.278-3.21-.812-.99-.533-1.83-1.304-2.45-2.244l-31.02-46.943c-1-1.513-1.36-3.363-1.01-5.145.36-1.781 1.4-3.347 2.91-4.353 1.5-1.005 3.34-1.369 5.1-1.01 1.77.358 3.33 1.41 4.33 2.923l31 46.947c.69 1.031 1.08 2.228 1.14 3.465.06 1.238-.22 2.468-.8 3.56s-1.44 2.005-2.5 2.642c-1.05.637-2.26.973-3.49.974z" fill="#000"/><path d="m2221.28 269.685c-1.23.002-2.44-.333-3.49-.969-1.06-.636-1.93-1.549-2.51-2.642-.58-1.092-.85-2.323-.8-3.561.06-1.238.45-2.437 1.14-3.469l31.01-46.942c1-1.513 2.55-2.565 4.32-2.923 1.77-.359 3.61.005 5.11 1.01 1.5 1.006 2.54 2.572 2.9 4.353.36 1.782 0 3.632-1 5.145l-31.02 46.943c-.62.94-1.46 1.711-2.45 2.244-.99.534-2.09.812-3.21.811z" fill="#000"/><path d="m2086.38 222.741c-1.8 0-3.53-.721-4.8-2.005-1.28-1.284-2-3.026-2-4.841v-57.714c0-1.816.72-3.557 2-4.841 1.27-1.284 3-2.005 4.8-2.005s3.53.721 4.81 2.005c1.27 1.284 1.99 3.025 1.99 4.841v57.714c0 1.815-.72 3.557-1.99 4.841-1.28 1.284-3.01 2.005-4.81 2.005z" fill="#000"/><path d="m3899.37 2159.89h-3737.925c-3.921 0-6.92-3.28-6.92-7.57s2.999-7.58 6.92-7.58h3737.925c3.92 0 6.92 3.29 6.92 7.58s-3 7.57-6.92 7.57z" fill="#000"/></svg>