<svg width="200" height="200" viewBox="0 0 200 200" fill="none" xmlns="http://www.w3.org/2000/svg">
<path d="M15.4876 77.5287L16.5124 88.4712L53.5 108.513V147.5L81.5 132.5L82.1327 124.907L137.506 156.612L183.996 129.966L185.004 120.034L137.494 147.388L15.4876 77.5287Z" fill="#E5DBD0"/>
<path fill-rule="evenodd" clip-rule="evenodd" d="M63.4973 48.7637L185.5 119.637V131.868L180.5 134.741V171C180.5 172.769 179.151 173.814 177.969 174.339C176.735 174.888 175.199 175.125 173.75 175.125C172.301 175.125 170.765 174.888 169.531 174.339C168.349 173.814 167 172.769 167 171V142.496L144 155.709V193C144 194.769 142.651 195.814 141.469 196.339C140.235 196.888 138.699 197.125 137.25 197.125C135.801 197.125 134.265 196.888 133.031 196.339C131.849 195.814 130.5 194.769 130.5 193V155.983L83 128.586V133.37L53.4932 150.231L24.5 133.363V94.8457L15 89.3665V77.1398L63.4973 48.7637ZM27.5 96.576V112.374L52 126.183V110.707L27.5 96.576ZM55 112.437V145.915L80 131.63V126.856L55 112.437ZM170 140.772L177.5 136.464V171.001C177.5 171.028 177.5 171.069 177.42 171.161C177.32 171.275 177.115 171.436 176.75 171.598C176.015 171.925 174.926 172.125 173.75 172.125C172.574 172.125 171.485 171.925 170.75 171.598C170.385 171.436 170.18 171.275 170.08 171.161C170 171.069 170 171.027 170 171V140.772ZM136.999 159.731L141 157.432V193.001C141 193.028 141 193.069 140.92 193.161C140.82 193.275 140.615 193.436 140.25 193.598C139.515 193.925 138.426 194.125 137.25 194.125C136.074 194.125 134.985 193.925 134.25 193.598C133.885 193.436 133.68 193.275 133.58 193.161C133.5 193.069 133.5 193.027 133.5 193V157.713L136.999 159.731ZM63.5027 52.2363L18 78.8602V87.6335L137.001 156.269L182.5 130.132V121.363L63.5027 52.2363ZM52 129.626V145.892L27.5 131.637V115.817L52 129.626Z" fill="black"/>
<path d="M130.5 14.2058L131.506 11.0867C131.963 9.67979 133.069 8.57334 134.484 8.10925L137.603 7.10291L134.484 6.09657C133.069 5.6398 131.963 4.53335 131.506 3.11913L130.5 0L129.493 3.11913C129.037 4.53335 127.93 5.63982 126.516 6.09657L123.397 7.10291L126.516 8.10925C127.93 8.56603 129.037 9.67248 129.493 11.0867L130.5 14.2058Z" fill="#0618BB"/>
<path d="M116.524 28.9762L114.868 34.1104L113.211 28.9762C112.51 26.8072 110.803 25.0999 108.634 24.3989L103.5 22.7355L108.634 21.0795C110.803 20.3785 112.51 18.6711 113.211 16.5022L114.868 11.368L116.524 16.5022C117.225 18.6712 118.932 20.3785 121.101 21.0795L126.235 22.7355L121.101 24.3915C118.932 25.0999 117.232 26.8 116.524 28.9762Z" fill="#0618BB"/>
<path d="M139.154 53.3381L136.184 62.5293L133.214 53.3381C131.814 48.9929 128.404 45.5858 124.059 44.1833L114.868 41.2131L124.059 38.243C128.404 36.8434 131.811 33.4337 133.214 29.0882L136.184 19.897L139.154 29.0882C140.554 33.4334 143.963 36.8405 148.309 38.243L157.5 41.2131L148.309 44.1833C143.964 45.5829 140.561 48.9926 139.154 53.3381Z" fill="#0618BB"/>
</svg>
