<svg width="40" height="42" viewBox="0 0 40 42" fill="none" xmlns="http://www.w3.org/2000/svg">
<path d="M35.4522 23.445C35.5958 22.6659 35.6368 21.8252 35.6368 21.0051C35.6368 20.185 35.5958 19.3444 35.4522 18.5653L39.4708 15.0798C39.7578 14.8748 39.8604 14.4852 39.7168 14.1572C38.8967 11.6353 37.482 9.23651 35.7393 7.24774C35.4933 6.9607 35.1447 6.85819 34.8167 7.00171L29.7525 8.76495C28.5018 7.73981 27.0871 6.9197 25.5699 6.32512L24.5653 1.0764C24.5038 0.748352 24.2167 0.44081 23.8682 0.399805C21.2438 -0.133268 18.5374 -0.133268 15.9131 0.399805C15.5645 0.44081 15.2775 0.748352 15.216 1.0764L14.2113 6.32512C12.6941 6.9197 11.2384 7.73981 10.0288 8.76495L4.96458 7.00171C4.63653 6.85819 4.28798 6.9607 4.04195 7.24774C2.29921 9.23651 0.884518 11.6353 0.0644061 14.1572C-0.0791135 14.4852 0.0234005 14.8748 0.31044 15.0798L4.32899 18.5653C4.18547 19.3444 4.14446 20.185 4.14446 21.0051C4.14446 21.8252 4.18547 22.6659 4.32899 23.445L0.31044 26.9304C0.0234005 27.1355 -0.0791135 27.525 0.0644061 27.8531C0.884518 30.3749 2.29921 32.7737 4.04195 34.7625C4.28798 35.0495 4.63653 35.1521 4.96458 35.0085L10.0288 33.2453C11.2384 34.2704 12.6941 35.0906 14.2113 35.6851L15.216 40.9339C15.2775 41.2619 15.5645 41.5694 15.9131 41.6104C17.2253 41.8565 18.5374 42 19.8906 42C21.2438 42 22.556 41.8565 23.8682 41.6104C24.2167 41.5694 24.5038 41.2619 24.5653 40.9339L25.5699 35.6851C27.0871 35.0906 28.5018 34.2704 29.7525 33.2453L34.8167 35.0085C35.1447 35.1521 35.4933 35.0495 35.7393 34.7625C37.482 32.7737 38.8967 30.3749 39.7168 27.8531C39.8604 27.525 39.7578 27.1355 39.4708 26.9304L35.4522 23.445ZM19.8906 28.8782C15.5235 28.8782 12.0175 25.3722 12.0175 21.0051C12.0175 16.679 15.5235 13.132 19.8906 13.132C24.2167 13.132 27.7637 16.679 27.7637 21.0051C27.7637 25.3722 24.2167 28.8782 19.8906 28.8782Z" fill="#F6F6F6"/>
</svg>
