<svg fill="none" height="100" viewBox="0 0 100 100" width="100" xmlns="http://www.w3.org/2000/svg"><path d="m89.7733 29.7146-39.0493-15.5801c-.4581-.1793-.9834-.1793-1.4446 0l-39.0494 15.5801c-.73672.2947-1.23 1.0154-1.23 1.8033v5.708c0 1.0826.86806 1.9507 1.9507 1.9507h4.9521v45.8365c0 1.0827.868 1.9507 1.9507 1.9507h64.2866c1.0826 0 1.9507-.868 1.9507-1.9507l.0064-45.8365h4.9521c1.0826 0 1.9507-.8681 1.9507-1.9507v-5.708c.0032-.804-.4901-1.5086-1.2268-1.8033zm-52.4638 45.5101c-.7047 0-1.0346-.064-1.1467-.0993-.016-.048-.064-.1153-.1153-.2466-.3107-.7207-.3779-3.8534-.1313-5.9354.0641 0 .1153-.016.1794-.016 8.9208-1.4254 17.9761-1.4767 26.9125-.1314l.9353.1474c.048 0 .0993.016.1633.016.2307 2.0981.1634 5.2307-.1313 5.9546-.048.1313-.0993.1954-.1153.2466-.1153.0321-.442.0993-1.1467.0993l-25.4037-.0032zm1.0506-10.7756c.5093-1.0154 1.0154-2.0981 1.0154-2.1141.82-1.8194 2.1334-3.674 2.7067-4.148.836-.1634 3.8374-.378 7.9214-.378s7.0853.2146 7.9214.378c.5734.474 1.8867 2.3286 2.7067 4.148 0 .016.5093 1.1147 1.0154 2.1141-7.7388-.9834-15.5481-.9834-23.2865 0zm.41 14.8757h22.4665v3.738h-22.4665zm32.0605 3.738h-5.4934v-4.1321c1.1148-.41 1.8546-1.1979 2.3767-2.4279.9834-2.2646.5254-7.5594.394-8.5108-.1954-1.3934-1.1659-2.7867-2.114-4.1481l-.1314-.1794c-.2466-.41-1.278-2.5433-1.4926-3.0173-.6246-1.3774-2.6746-5.1827-4.6574-6.166-.442-.2307-1.1307-.4581-4.0679-.6246-1.624-.0993-3.69-.1474-5.6407-.1474-1.9508 0-4.0168.0481-5.6408.1474-2.934.1633-3.6259.3939-4.0679.6246-1.986.9994-4.036 4.7886-4.6574 6.166-.2146.474-1.246 2.6233-1.4926 3.0173l-.1314.1794c-.9513 1.3614-1.9186 2.7547-2.114 4.1481-.1314.9514-.5894 6.2653.394 8.5108.5413 1.23 1.278 2.002 2.3767 2.4279v4.1321h-5.4934v-34.6033h41.657zm9.3661 0h-5.4614v-36.5541c0-1.0826-.8681-1.9507-1.9507-1.9507h-45.561c-1.0827 0-1.9507.8681-1.9507 1.9507v23.8793h-.0321v12.6781l-5.4293-.0032v-43.8866h60.4015zm6.9028-47.7717h-74.1914v-2.444l37.0953-14.8085 37.0952 14.8085z" fill="#000"/><g fill="#0618bb"><path d="m42.9459 69.6836h-3.1967c-1.1307 0-2.05.9193-2.05 2.05s.9193 2.05 2.05 2.05h3.1967c1.1307 0 2.05-.9193 2.05-2.05 0-1.1339-.9161-2.05-2.05-2.05z"/><path d="m60.2584 69.6836h-3.1967c-1.1307 0-2.05.9193-2.05 2.05s.9193 2.05 2.05 2.05h3.1967c1.1307 0 2.05-.9193 2.05-2.05 0-1.1339-.9193-2.05-2.05-2.05z"/></g></svg>