<svg width="100" height="100" viewBox="0 0 100 100" fill="none" xmlns="http://www.w3.org/2000/svg">
<path d="M42.0059 40.8292H35.3122C34.8253 40.8292 34.4277 41.2236 34.4277 41.7136V48.4073C34.4277 48.8942 34.8222 49.2918 35.3122 49.2918H42.0059C42.4928 49.2918 42.8904 48.8973 42.8904 48.4073L42.8873 41.7106C42.8873 41.2236 42.4928 40.8292 42.0059 40.8292H42.0059ZM41.1214 47.5228H36.1936V42.595H41.1214V47.5228Z" fill="black"/>
<path d="M54.4375 40.8292H47.7439C47.2569 40.8292 46.8594 41.2236 46.8594 41.7136V48.4073C46.8594 48.8942 47.2538 49.2918 47.7439 49.2918H54.4375C54.9245 49.2918 55.322 48.8973 55.322 48.4073L55.3189 41.7106C55.3189 41.2236 54.9245 40.8292 54.4375 40.8292H54.4375ZM53.5531 47.5228H48.6253V42.595H53.5531V47.5228Z" fill="black"/>
<path d="M29.5733 52.5339H22.8796C22.3927 52.5339 21.9951 52.9283 21.9951 53.4183V60.112C21.9951 60.5989 22.3896 60.9965 22.8796 60.9965H29.5733C30.0602 60.9965 30.4578 60.602 30.4578 60.112V53.4183C30.4547 52.9283 30.0602 52.5339 29.5733 52.5339ZM28.6888 59.2275H23.761V54.2997H28.6888V59.2275Z" fill="black"/>
<path d="M42.0059 52.5339H35.3122C34.8253 52.5339 34.4277 52.9283 34.4277 53.4183V60.112C34.4277 60.5989 34.8222 60.9965 35.3122 60.9965H42.0059C42.4928 60.9965 42.8904 60.602 42.8904 60.112V53.4183C42.8873 52.9283 42.4928 52.5339 42.0059 52.5339ZM41.1214 59.2275H36.1936V54.2997H41.1214V59.2275Z" fill="black"/>
<path d="M54.4375 52.5339H47.7439C47.2569 52.5339 46.8594 52.9283 46.8594 53.4183V60.112C46.8594 60.5989 47.2538 60.9965 47.7439 60.9965H54.4375C54.9245 60.9965 55.322 60.602 55.322 60.112V53.4183C55.3189 52.9283 54.9245 52.5339 54.4375 52.5339ZM53.5531 59.2275H48.6253V54.2997H53.5531V59.2275Z" fill="black"/>
<path d="M29.5733 64.2386H22.8796C22.3927 64.2386 21.9951 64.633 21.9951 65.123V71.8167C21.9951 72.3037 22.3896 72.7012 22.8796 72.7012H29.5733C30.0602 72.7012 30.4578 72.3067 30.4578 71.8167V65.123C30.4547 64.6361 30.0602 64.2386 29.5733 64.2386ZM28.6888 70.9323H23.761V66.0045H28.6888V70.9323Z" fill="black"/>
<path d="M42.0059 64.2386H35.3122C34.8253 64.2386 34.4277 64.633 34.4277 65.123V71.8167C34.4277 72.3037 34.8222 72.7012 35.3122 72.7012H42.0059C42.4928 72.7012 42.8904 72.3067 42.8904 71.8167V65.123C42.8873 64.6361 42.4928 64.2386 42.0059 64.2386ZM41.1214 70.9323H36.1936V66.0045H41.1214V70.9323Z" fill="black"/>
<path d="M54.4375 64.2386H47.7439C47.2569 64.2386 46.8594 64.633 46.8594 65.123V71.8167C46.8594 72.3037 47.2538 72.7012 47.7439 72.7012H54.4375C54.9245 72.7012 55.322 72.3067 55.322 71.8167V65.123C55.3189 64.6361 54.9245 64.2386 54.4375 64.2386ZM53.5531 70.9323H48.6253V66.0045H53.5531V70.9323Z" fill="black"/>
<path d="M30.0696 40.6201L29.8107 40.8789C29.7337 40.8574 29.6566 40.8296 29.5703 40.8296H22.8767C22.3897 40.8296 21.9922 41.2241 21.9922 41.7141V48.4078C21.9922 48.8947 22.3867 49.2923 22.8767 49.2923H29.5703C30.0573 49.2923 30.4548 48.8978 30.4548 48.4078V42.7342L31.3178 41.8713C31.6629 41.5261 31.6629 40.9683 31.3178 40.6232C30.9726 40.2749 30.4148 40.2749 30.0697 40.6201L30.0696 40.6201ZM28.689 47.5233H23.7612V42.5955H28.0942L26.2913 44.3984L25.4746 43.5817C25.1294 43.2365 24.5716 43.2365 24.2265 43.5817C23.8813 43.9268 23.8813 44.4846 24.2265 44.8298L25.6687 46.272C25.8352 46.4385 26.057 46.5309 26.2943 46.5309C26.5286 46.5309 26.7535 46.4385 26.9199 46.272L28.692 44.5L28.689 47.5233Z" fill="#001AFF"/>
<path d="M70.2164 50.9134C68.1886 50.9134 66.2163 51.2739 64.3271 51.9458V21.7507C64.3271 20.5488 63.3471 19.5719 62.1483 19.5719H58.9833C58.555 16.4315 55.8615 14 52.604 14C49.3466 14 46.6531 16.4315 46.2248 19.5719H44.8133C44.3849 16.4315 41.6914 14 38.434 14C35.1765 14 32.483 16.4315 32.0547 19.5719H30.6432C30.2148 16.4315 27.5214 14 24.2639 14C21.0034 14.0031 18.3099 16.4315 17.8816 19.5719H15.339C14.0478 19.5719 13 20.6166 13 21.9017V77.8273C13 79.1401 14.0263 80.1663 15.339 80.1663H57.1465C60.4625 83.886 65.1929 86.0279 70.2129 86.0279C79.8932 86.0279 87.77 78.1508 87.77 68.4708C87.77 58.7909 79.896 50.9138 70.2161 50.9138L70.2164 50.9134ZM64.3271 59.1452C66.093 58.0265 68.1208 57.4378 70.2164 57.4378C76.2998 57.4378 81.2489 62.3872 81.2489 68.4704C81.2489 74.5538 76.2996 79.5029 70.2164 79.5029C68.1084 79.5029 66.0837 78.9143 64.3271 77.7986V59.1452ZM52.6011 15.7693C54.8816 15.7693 56.7801 17.4118 57.193 19.5753L48.0089 19.5722C48.4219 17.4118 50.3203 15.7693 52.6008 15.7693L52.6011 15.7693ZM38.431 15.7693C40.7115 15.7693 42.6099 17.4118 43.0229 19.5753H33.8388C34.2518 17.4118 36.1502 15.7693 38.4307 15.7693H38.431ZM24.2608 15.7693C26.5414 15.7693 28.4398 17.4118 28.8527 19.5753L19.6687 19.5722C20.0785 17.4118 21.98 15.7693 24.2605 15.7693L24.2608 15.7693ZM14.766 21.902C14.766 21.5877 15.0187 21.3411 15.3392 21.3411H28.8529C28.4369 23.5046 26.5385 25.1441 24.2611 25.1441C23.7741 25.1441 23.3766 25.5385 23.3766 26.0285C23.3766 26.5155 23.771 26.913 24.2611 26.913C27.5124 26.913 30.2027 24.4846 30.6373 21.3442H43.0228C42.6068 23.5076 40.7084 25.1471 38.431 25.1471C37.944 25.1471 37.5465 25.5416 37.5465 26.0316C37.5465 26.5185 37.9409 26.9161 38.431 26.9161C41.6823 26.9161 44.3726 24.4877 44.8072 21.3473H57.1896C56.7735 23.5107 54.8751 25.1502 52.5977 25.1502C52.1108 25.1502 51.7132 25.5447 51.7132 26.0347C51.7132 26.5216 52.1077 26.9192 52.5977 26.9192C55.849 26.9192 58.5394 24.4907 58.9739 21.3504H62.142C62.37 21.3504 62.5549 21.5353 62.5549 21.7633V33.3757L14.7657 33.3665L14.766 21.902ZM15.3392 78.3972C15.0063 78.3972 14.766 78.1568 14.766 77.824V35.1321H62.5126C62.5311 35.1413 62.5465 35.1506 62.5619 35.1598C62.5619 48.1221 62.5341 80.2375 62.5218 78C62.4633 78.2219 62.2352 78.3976 61.9979 78.3976H15.3393L15.3392 78.3972ZM70.217 84.2588C66.2538 84.2588 62.4817 82.7857 59.6034 80.1631H61.998C62.6359 80.1631 63.2369 79.8857 63.6591 79.4604C65.6315 80.6438 67.8781 81.2695 70.2141 81.2695C77.2714 81.2695 83.0131 75.5281 83.0131 68.4705C83.0131 61.4132 77.2717 55.6715 70.2141 55.6715C68.1462 55.6715 66.1399 56.1739 64.3248 57.1199V53.8163C66.1985 53.0612 68.1771 52.6791 70.2141 52.6791C78.92 52.6791 86.0055 59.7642 86.0055 68.4705C86.0055 77.1764 78.9235 84.2588 70.2172 84.2588L70.217 84.2588Z" fill="black"/>
<path d="M71.0979 75.3208V74.1159C72.5032 73.7275 73.5449 72.4486 73.5449 70.92C73.5449 69.0833 72.0502 67.5886 70.2134 67.5886C69.3505 67.5886 68.6479 66.8859 68.6479 66.0261C68.6479 65.1631 69.3505 64.4605 70.2134 64.4605C71.0764 64.4605 71.7759 65.1631 71.7759 66.0261C71.7759 66.513 72.1704 66.9105 72.6604 66.9105C73.1473 66.9105 73.5449 66.5161 73.5449 66.0261C73.5449 64.4975 72.5033 63.2185 71.0979 62.8302V61.6253C71.0979 61.1384 70.7034 60.7408 70.2134 60.7408C69.7265 60.7408 69.329 61.1353 69.329 61.6253V62.8302C67.9237 63.2216 66.882 64.4975 66.882 66.0261C66.882 67.8628 68.3766 69.3575 70.2134 69.3575C71.0764 69.3575 71.7759 70.0602 71.7759 70.9231C71.7759 71.786 71.0733 72.4856 70.2134 72.4856C69.3505 72.4856 68.6479 71.7829 68.6479 70.9231C68.6479 70.4362 68.2534 70.0386 67.7634 70.0386C67.2765 70.0386 66.8789 70.4331 66.8789 70.9231C66.8789 72.4517 67.9205 73.7306 69.3259 74.1189V75.3239C69.3259 75.8108 69.7203 76.2084 70.2104 76.2084C70.7004 76.2022 71.0979 75.8077 71.0979 75.3208Z" fill="#001AFF"/>
</svg>
