<?xml version="1.0" encoding="UTF-8"?>
<svg fill="#000000" width="100pt" height="100pt" version="1.1" viewBox="0 0 100 100" xmlns="http://www.w3.org/2000/svg">
 <path d="m4.3203 86h36l1.5703-20.512h16.219l1.5703 20.512h36c1.1016-0.003906 2.1289-0.55078 2.7461-1.4648 0.61328-0.91406 0.73438-2.0742 0.32422-3.0938l-25.871-64c-0.89453-2.0977-2.957-3.4531-5.2383-3.4414h-13.492l1 13.672h-10.348l1-13.672h-13.441c-2.3047 0.003906-4.375 1.4023-5.2383 3.5391l-25.871 64c-0.37109 1.0117-0.22656 2.1367 0.38281 3.0234 0.60938 0.88672 1.6133 1.4219 2.6875 1.4375zm39.84-50.102h11.68l1.4883 19.41h-14.656z"/>
</svg>
