<svg class="img-fluid" fill="none" height="2344" viewBox="0 0 4242 2344" width="4242" xmlns="http://www.w3.org/2000/svg"><path d="m1615.88 2136.9c-3.7 0-6.7-2.99-6.7-6.69v-604.73c0-3.7 3-6.7 6.7-6.7s6.7 3 6.7 6.7v604.72c0 3.7-3 6.7-6.7 6.7z" fill="#000"/><path d="m1878.03 1480.03 120.95-502.5c12.03-49.298-18.19-99.01-67.48-111.034-7.12-1.737-14.42-2.615-21.75-2.617h-86.34-106.65c-37.07 0-69.9 23.95-81.22 59.257l-151.9 473.914" fill="#fff"/><path d="m1878.03 1486.73c-.51 0-1.04-.06-1.57-.19-3.6-.87-5.81-4.48-4.94-8.08l120.95-502.497c11.14-45.652-16.93-91.829-62.56-102.96-6.59-1.608-13.37-2.423-20.16-2.425h-192.99c-34.29 0-64.37 21.943-74.84 54.604l-151.9 473.908c-1.13 3.53-4.9 5.47-8.42 4.34-3.53-1.13-5.47-4.9-4.34-8.43l151.9-473.909c12.26-38.227 47.46-63.91 87.6-63.91h192.99c7.86.002 15.71.946 23.34 2.806 52.8 12.88 85.28 66.322 72.4 119.131l-120.95 502.472c-.74 3.08-3.48 5.14-6.51 5.14z" fill="#000"/><path d="m1878.16 1479.66c-8.06 25.92-32.24 44.73-60.81 44.73h-412.38c-30.48 0-58.63-16.27-73.85-42.68l-28.81-49.98c-8.77-15.21 1.93-34.58 19.47-34.68h.38 428.62" fill="#fff"/><path d="m1817.35 1531.09h-412.38c-32.77 0-63.3-17.64-79.66-46.03l-28.81-49.99c-5.39-9.34-5.38-20.53.01-29.92 5.28-9.21 14.71-14.74 25.23-14.8h.42 428.62c3.7 0 6.7 3 6.7 6.7s-3 6.7-6.7 6.7h-428.62l-.38-6.7.04 6.7c-5.69.03-10.81 3.05-13.69 8.07-2.99 5.2-3 11.39-.02 16.56l28.81 49.99c13.98 24.26 40.05 39.32 68.05 39.32h412.38c25.1 0 46.97-16.08 54.41-40.03 1.1-3.53 4.86-5.5 8.39-4.4 3.53 1.09 5.5 4.85 4.4 8.38-9.2 29.58-36.2 49.45-67.2 49.45z" fill="#000"/><path d="m1519.38 2130.21v-604.73h96.5l-.02 607.25h107.71c44.64.01 80.81 36.21 80.8 80.85v2.22h-466.83-6.65v-2.22c-.01-44.64 36.16-80.84 80.8-80.85h107.71" fill="#fff"/><path d="m1804.37 2222.5h-473.48c-3.7 0-6.7-3-6.7-6.7v-2.22c-.01-48.26 39.24-87.53 87.5-87.54h100.99v-600.56c0-3.7 3-6.7 6.7-6.7h96.5c1.78 0 3.48.71 4.74 1.97 1.25 1.25 1.96 2.96 1.96 4.73l-.03 600.55h101.02c23.38.01 45.36 9.12 61.88 25.66 16.53 16.53 25.62 38.51 25.62 61.89v2.22c0 3.7-3 6.7-6.7 6.7zm-466.65-13.39h459.82c-1.07-18.12-8.63-35.01-21.56-47.95-14-14-32.61-21.72-52.41-21.73h-107.71c-1.78 0-3.48-.7-4.74-1.96-1.25-1.26-1.96-2.96-1.96-4.73l.02-600.56h-83.1v598.03c0 .41-.03.81-.11 1.2.09.43.14.87.14 1.33 0 3.69-3 6.69-6.7 6.69h-107.72c-19.8.01-38.41 7.73-52.41 21.73-12.93 12.94-20.49 29.83-21.56 47.95z" fill="#000"/><path d="m1416.42 334.818-35.73 182.861 174.19 13.38 39.79-69.434-4.06-115.657-11.16-17.84z" fill="#fff"/><path d="m1306.12 2011.67c-.86 35.1-17.61 64.53-61.44 81.79l-67.78 15.84c-49.43 12.59-82.5 59.04-78.16 109.8h267.98l282.89-76.73-81.87-286.19" fill="#0618bb"/><path d="m561.646 1937.66c-24.887 28.71-61.683 47.26-102.49 51.84-28.93 3.24-86.747 12.47-114.472 21.34-32.129 10.28-93.07 40.53-99.443 91.09l262.107 55.76 150.539 32.09 137.206 29.41 38.167-179.14" fill="#0618bb"/><path d="m1010.79 1601.23-164.156 441.99-334.976-124.08 210.455-566.69c19.055-51.29 60.469-90.69 111.922-107.5" fill="#fff"/><path d="m846.634 2049.91c-.788 0-1.576-.14-2.329-.42l-334.976-124.08c-3.468-1.28-5.237-5.13-3.953-8.59l210.455-566.69c19.774-53.24 62.1-93.89 116.12-111.54 3.52-1.15 7.3.77 8.45 4.28 1.153 3.51-.766 7.29-4.283 8.44-50.114 16.37-89.378 54.08-107.724 103.47l-208.123 560.41 322.415 119.43 161.824-435.71c1.29-3.47 5.14-5.23 8.61-3.95s5.24 5.13 3.95 8.6l-164.149 441.98c-.619 1.67-1.872 3.02-3.489 3.76-.888.41-1.842.61-2.798.61z" fill="#000"/><path d="m1804.33 743.367c.07.051.14.109.2.16.2.154.4.301.6.457z" fill="#b4baeb"/><path d="m1863.96 912.004-.01.018c9.36-58.589-17.36-136.704-59.41-168.495-21.52-16.977-47.71-28.631-76.83-32.645-8.93-1.231-17.94-1.701-26.95-1.409l-39.02 1.229s.03 87.093-86.02 90.736c-84.53 3.58-90.79-85.17-90.79-85.17l-32.81 1.032c-47.1 1.521-88.76 23.324-116.85 56.743l-102.7 138.41 231.02 127.837 89.19-110.363s67.51-66.367 154.8-6.208c86.25 59.443 39.78 156.221 39.78 156.221l84.64-.62 30.45-159.406c.57-2.531 1.05-5.111 1.47-7.727z" fill="#b4baeb"/><path d="m1333.58 973.584c-3.7 0-6.7-2.995-6.7-6.69v-62.496c0-3.695 3-6.69 6.7-6.69s6.7 2.995 6.7 6.69v62.493c0 3.696-3 6.693-6.7 6.693z" fill="#000"/><path d="m1483.23 667.243 1.67 48.251c1.31 48.777 41.98 87.256 90.82 85.944 47.97-1.295 86.17-40.541 86.09-88.464l-2.01-180.608" fill="#fff"/><path d="m1573.31 808.162c-51.31 0-93.72-40.965-95.11-92.488l-1.67-48.199c-.13-3.693 2.77-6.79 6.46-6.918 3.71-.165 6.8 2.761 6.93 6.454l1.67 48.251c1.22 45.064 38.88 80.717 83.95 79.488 44.69-1.206 79.64-37.12 79.57-81.765l-2.01-180.544c-.04-3.695 2.92-6.723 6.62-6.763 3.67-.043 6.74 2.921 6.78 6.616l2.01 180.608c.08 52.022-40.59 93.824-92.61 95.226-.86.023-1.73.034-2.59.034z" fill="#000"/><path d="m1379.72 538.795c-.01 0-.01 0-.01 0-3.7-.003-6.7-3.002-6.69-6.697.02-21.466 4.59-42.156 13.59-61.49 1.56-3.352 5.54-4.806 8.9-3.247 3.36 1.556 4.81 5.535 3.25 8.886-8.17 17.562-12.33 36.356-12.35 55.864 0 3.693-3 6.684-6.69 6.684z" fill="#000"/><path d="m1404.13 388.945c-.08 0-.15 0-.23-.005-3.7-.127-6.59-3.222-6.47-6.915.7-20.151 5.48-39.616 14.21-57.856 1.6-3.333 5.6-4.743 8.93-3.151 3.34 1.593 4.75 5.589 3.16 8.92-7.93 16.567-12.27 34.247-12.91 52.544-.12 3.617-3.1 6.463-6.69 6.463z" fill="#000"/><path d="m1522.19 473.426c25.21 0 45.65-20.407 45.65-45.581s-20.44-45.582-45.65-45.582-45.64 20.408-45.64 45.582 20.43 45.581 45.64 45.581z" fill="#fff"/><path d="m1522.19 480.116c-28.86 0-52.34-23.448-52.34-52.271s23.48-52.272 52.34-52.272c28.87 0 52.35 23.449 52.35 52.272s-23.48 52.271-52.35 52.271zm0-91.16c-21.47 0-38.94 17.447-38.94 38.891s17.47 38.891 38.94 38.891c21.48 0 38.95-17.447 38.95-38.891s-17.47-38.891-38.95-38.891z" fill="#000"/><path d="m1404.39 473.426c25.21 0 45.65-20.407 45.65-45.581s-20.44-45.582-45.65-45.582-45.64 20.408-45.64 45.582 20.43 45.581 45.64 45.581z" fill="#fff"/><path d="m1404.39 480.116c-28.86 0-52.34-23.448-52.34-52.271s23.48-52.272 52.34-52.272c28.87 0 52.35 23.449 52.35 52.272s-23.48 52.271-52.35 52.271zm0-91.16c-21.47 0-38.94 17.447-38.94 38.891s17.47 38.891 38.94 38.891c21.48 0 38.95-17.447 38.95-38.891s-17.47-38.891-38.95-38.891z" fill="#000"/><path d="m1744.8 1079.32h80.5l-13.55 145.17c-9.1 97.47-91.01 172-189.05 172h-62.58l-265.11-28.87 281.05 479.49-306.13 184.02-410.745-681.4c-50.887-84.41-23.614-194.04 60.919-244.85 27.818-16.73 59.672-25.56 92.146-25.56l116.09.32" fill="#fff"/><path d="m1269.93 2037.82c-.54 0-1.08-.06-1.61-.19-1.73-.43-3.21-1.52-4.13-3.04l-410.746-681.41c-52.712-87.43-24.36-201.39 63.203-254.03 28.857-17.35 61.913-26.52 95.593-26.52l116.12.32c3.7.01 6.69 3.02 6.68 6.71s-3.01 6.67-6.7 6.67h-.01l-116.1-.32c-31.23 0-61.898 8.51-88.671 24.6-81.232 48.84-107.537 154.56-58.635 235.68l407.296 675.67 294.71-177.17-277.7-473.79c-1.28-2.19-1.22-4.9.16-7.02 1.37-2.12 3.83-3.28 6.35-3.01l264.74 28.84h62.22c95.15 0 173.55-71.34 182.38-165.94l12.87-137.86h-73.15c-3.7 0-6.7-2.99-6.7-6.69 0-3.69 3-6.69 6.7-6.69h80.5c1.88 0 3.68.79 4.95 2.18 1.27 1.4 1.9 3.26 1.72 5.13l-13.55 145.17c-4.55 48.8-27.04 93.87-63.33 126.88-36.28 33.01-83.3 51.2-132.39 51.2h-62.58c-.24 0-.48-.02-.73-.04l-251.87-27.44 274.32 468.02c1.85 3.16.81 7.22-2.33 9.11l-306.12 184.02c-1.05.64-2.25.96-3.46.96z" fill="#000"/><path d="m1542.67 946.242c-1.45 0-2.91-.464-4.13-1.425-2.91-2.279-3.43-6.485-1.14-9.391l65.26-83.135c2.28-2.908 6.5-3.416 9.41-1.137s3.42 6.485 1.13 9.391l-65.26 83.134c-1.32 1.682-3.28 2.563-5.27 2.563z" fill="#000"/><path d="m1103.78 1059.57c13.4 2.23 13.4 11.15 30.05 25.38.76.65 281 224.74 282.57 225.97 50.08 39.21 122.5 30.45 161.77-19.56 0 0 149.24-190.18 150.34-191.65 40.62-54.24 29.52-131.106-24.81-171.674-54.32-40.569-131.29-29.481-171.92 24.766l-72.07 91.808s-143.53-77.431-197.09-108.533c-81.22-47.169-93.9-49.433-127.47-57.467-11.41-2.732-26.2-5.493-42.99-8.017 0 0-68.59-8.32-93.808-12.343-63.71-10.423-243.099 7.488-236.009 50.893 4.324 26.377 50.182 12.394 138.104 8.775-77.156 16.765-132.588 34.704-125.026 61.116 7.561 26.416 85.557 9.009 144.821-4.358-33.689 25.764-80.32 58.944-71.383 78.264 13.095 27.86 54.291.99 83.228-13.74 64.206-32.99 87.583-6.67 129.463 11.82 11.53 5.1 42.23 8.55 42.23 8.55z" fill="#fff"/><path d="m1487.36 1342.07c-26.32 0-52.82-8.45-75.1-25.89-2.09-1.64-282.23-225.67-282.79-226.15-6.95-5.94-11.14-10.96-14.5-15-4.62-5.54-6.56-7.87-12.13-8.83-4.04-.46-32.09-3.79-44-9.07-7.62-3.36-14.55-6.93-21.26-10.39-30.59-15.76-52.696-27.14-102.424-1.59-3.569 1.81-7.298 3.8-11.139 5.85-22.232 11.85-47.431 25.28-65.562 19.25-6.961-2.31-12.229-7.17-15.657-14.47-9.008-19.47 18-43.74 49.362-68.083-66.557 14.083-115.602 19.653-123.179-6.823-1.876-6.554-.996-12.937 2.615-18.967 7.05-11.77 24.361-21.943 56.117-32.181-42.566 3.474-68.145 3.891-71.979-19.504-.869-5.32-.175-13.384 8.066-21.606 34.257-34.186 180.909-45.925 235.638-36.969 24.782 3.954 92.852 12.22 93.532 12.305 17.09 2.567 32.15 5.377 43.74 8.151l2.65.633c32.09 7.66 46.73 11.155 126.63 57.559 47.23 27.431 166.16 91.815 191.94 105.745l68.58-87.363c42.68-56.995 124.01-68.711 181.21-25.998 27.71 20.69 45.69 50.918 50.62 85.111 4.94 34.19-3.75 68.26-24.47 95.93-1.11 1.49-135.15 172.3-150.43 191.77-24.02 30.59-59.88 46.58-96.08 46.58zm-500.763-325.37c21.893 0 38.783 8.7 57.133 18.15 6.53 3.37 13.28 6.84 20.54 10.05 8.67 3.84 32 7.09 40.26 8.02.11.02.23.03.35.05 10.6 1.77 15.14 7.2 20.39 13.5 3.2 3.84 6.82 8.19 12.92 13.4 2.02 1.64 279.19 223.29 282.36 225.79 47.07 36.86 115.42 28.6 152.35-18.43 1.48-1.88 148.17-188.82 150.27-191.56 18.55-24.77 26.34-55.31 21.91-85.97-4.43-30.659-20.54-57.756-45.39-76.308-51.27-38.291-124.19-27.79-162.54 23.415l-72.16 91.933c-2.02 2.56-5.59 3.3-8.46 1.76-1.44-.78-144.24-77.842-197.28-108.64-78.2-45.412-92.24-48.766-123.01-56.112l-2.65-.633c-11.23-2.687-25.9-5.421-42.42-7.906-.5-.055-68.82-8.353-93.874-12.352-56.984-9.323-195.733 4.993-224.025 33.225-5.112 5.1-4.511 8.778-4.315 9.986 2.048 12.504 22.352 11.324 68.081 7.455 18.227-1.541 38.884-3.289 63.136-4.286 3.477-.098 6.478 2.391 6.921 5.832.442 3.443-1.825 6.652-5.222 7.388-45.516 9.892-107.35 25.248-118.778 44.321-1.681 2.808-2.072 5.481-1.232 8.418 1.293 4.507 8.975 11.527 45.929 7.919 27.806-2.716 62.833-10.615 90.975-16.964 3.073-.691 6.211.841 7.544 3.689 1.335 2.848.505 6.237-1.994 8.148-2.638 2.016-5.351 4.079-8.113 6.175-25.15 19.087-67.241 51.047-61.261 63.967 1.84 3.92 4.306 6.29 7.736 7.43 12.673 4.21 36.16-8.31 55.028-18.37 3.919-2.08 7.724-4.11 11.34-5.95 23.392-12.02 41.771-16.54 57.551-16.54z" fill="#000"/><path d="m1608.24 419.304h-43.02c-3.7 0-6.69-2.995-6.69-6.69s2.99-6.69 6.69-6.69h43.02c3.7 0 6.7 2.995 6.7 6.69s-3 6.69-6.7 6.69z" fill="#000"/><path d="m1441.75 493.075c-1.87 0-3.67-.787-4.94-2.179-1.36-1.487-1.98-3.505-1.68-5.497l7.39-49.517c.54-3.655 3.96-6.179 7.61-5.631 3.66.544 6.19 3.95 5.64 7.604l-6.17 41.381 31.41-1.805c3.66-.198 6.86 2.607 7.07 6.296.21 3.688-2.61 6.85-6.3 7.062l-39.64 2.275c-.13.007-.26.011-.39.011z" fill="#000"/><path d="m1479.16 419.304h-29.12c-3.7 0-6.7-2.995-6.7-6.69s3-6.69 6.7-6.69h29.12c3.7 0 6.7 2.995 6.7 6.69s-3 6.69-6.7 6.69z" fill="#000"/><path d="m1683.87 376.668v-88.868c0-44.21-35.87-80.055-80.14-80.079h-157.91c-15.94-.099-28.94 12.722-29.03 28.633v.178 92.211l146.94 4.014c15.72.402 28.16 13.423 27.82 29.124l-1.49 70.714c-.19 9.038 2.76 17.494 7.91 24.244" fill="#fff"/><path d="m1597.97 463.529c-2.02 0-4.01-.907-5.33-2.635-6.2-8.124-9.5-18.224-9.28-28.44l1.5-70.713c.25-11.987-9.3-21.988-21.3-22.296l-146.96-4.014c-3.63-.098-6.51-3.064-6.51-6.688v-92.211c.12-19.793 16.16-35.713 35.77-35.501h157.87c47.89.026 86.84 38.951 86.84 86.769v88.866c0 3.695-3 6.69-6.7 6.69s-6.7-2.995-6.7-6.69v-88.866c0-40.443-32.95-73.367-73.45-73.389h-157.9c-12.31-.134-22.26 9.787-22.33 21.983v85.84l140.42 3.835c19.35.495 34.76 16.625 34.34 35.957l-1.49 70.711c-.16 7.201 2.17 14.322 6.53 20.048 2.25 2.939 1.68 7.138-1.26 9.377-1.22.921-2.64 1.367-4.06 1.367z" fill="#000"/><path d="m1597.96 456.121-42.47 70.937c-23.44-21.306-83.95-24.474-109.27-22.612-32.8 2.41-65.99 17.148-65.99 17.148-.24 3.256-.37 6.517-.38 9.781-.27 77.196 62.17 139.998 139.48 140.272 77.3.275 140.2-62.085 140.47-139.282v-1.155c4.78.935 9.73 1.423 14.78 1.423 42.32 0 76.62-34.255 76.62-76.512 0-42.256-34.3-76.511-76.62-76.511-42.31 0-76.62 34.257-76.62 76.511z" fill="#fff"/><path d="m1519.84 678.34c-.18 0-.35 0-.53 0-39.18-.141-75.96-15.506-103.57-43.267-27.6-27.761-42.73-64.597-42.59-103.72.01-3.394.15-6.842.4-10.247.18-2.46 1.7-4.621 3.96-5.622 1.39-.62 34.64-15.24 68.22-17.708 19.5-1.441 77.86-.54 107.87 19.392l37.68-62.929c1.01-45.01 37.99-81.317 83.3-81.317 45.95 0 83.32 37.324 83.32 83.202s-37.37 83.201-83.32 83.201c-2.75 0-5.51-.136-8.25-.403-1.73 36.679-16.91 70.863-43.16 96.885-27.67 27.438-64.35 42.53-103.33 42.533zm-133.17-152.176c-.07 1.75-.11 3.501-.12 5.236-.13 35.548 13.62 69.019 38.7 94.244 25.09 25.226 58.5 39.188 94.1 39.313h.49c35.42 0 68.74-13.712 93.89-38.648 25.26-25.047 39.24-58.42 39.37-93.968v-1.133c0-1.998.89-3.894 2.44-5.165 1.54-1.271 3.58-1.781 5.54-1.4 4.42.863 8.96 1.3 13.5 1.3 38.56 0 69.92-31.321 69.92-69.822 0-38.499-31.36-69.821-69.92-69.821s-69.92 31.32-69.92 69.821c0 1.209-.33 2.395-.95 3.435l-42.48 70.936c-1.03 1.722-2.78 2.893-4.77 3.185-1.98.292-4-.321-5.48-1.671-21.75-19.764-80.71-22.616-104.27-20.888-24.99 1.837-50.65 11.286-60.04 15.046zm211.29-70.043h.03z" fill="#000"/><path d="m1466.7 590.129c-20.52 0-41.87-16.285-43.37-52.715-.07-1.782.57-3.517 1.79-4.823 1.21-1.307 2.89-2.076 4.68-2.137l77.4-2.631c1.89-.076 3.66.647 4.97 1.96 1.31 1.314 2.02 3.113 1.96 4.969-1.32 36.284-24.81 55.324-47.33 55.377-.03 0-.06 0-.1 0zm-29.42-46.544c3.15 24.329 17.39 33.162 29.43 33.162h.05c14.67-.036 29.94-12.138 33.33-35.296z" fill="#000"/><path d="m1685.75 479.65c-.76 0-1.52-.129-2.27-.399l-49.11-17.684c-2.62-.943-4.39-3.412-4.43-6.193-.04-2.783 1.65-5.3 4.24-6.322l66.82-26.336c3.44-1.356 7.33.33 8.69 3.766 1.36 3.437-.33 7.324-3.77 8.68l-50.32 19.831 32.42 11.672c3.48 1.253 5.29 5.087 4.03 8.563-.98 2.727-3.56 4.422-6.3 4.422z" fill="#000"/><path d="m1508.79 447.514c8.16 0 14.76-6.6 14.76-14.741s-6.6-14.74-14.76-14.74c-8.15 0-14.76 6.599-14.76 14.74s6.61 14.741 14.76 14.741z" fill="#000"/><path d="m1405.75 447.045c8.16 0 14.77-6.599 14.77-14.74s-6.61-14.741-14.77-14.741c-8.15 0-14.76 6.6-14.76 14.741s6.61 14.74 14.76 14.74z" fill="#000"/><path d="m855.755 217.6h-193.669c-58.168 0-105.323 47.384-105.323 105.834v133.695c0 58.452 47.155 105.834 105.323 105.834h34.568l48.749 62.281c.84 1.071 1.802 2.037 2.87 2.884 7.464 5.908 18.285 4.619 24.167-2.884l48.747-62.281h34.568c58.168 0 105.323-47.382 105.323-105.834v-133.695c0-58.45-47.155-105.834-105.323-105.834z" fill="#b4baeb"/><path d="m861.245 349.116h-204.649c-3.822 0-6.92-3.113-6.92-6.954 0-3.84 3.098-6.953 6.92-6.953h204.649c3.823 0 6.92 3.113 6.92 6.953 0 3.841-3.097 6.954-6.92 6.954z" fill="#000"/><path d="m861.245 400.503h-204.649c-3.822 0-6.92-3.113-6.92-6.953 0-3.841 3.098-6.954 6.92-6.954h204.649c3.823 0 6.92 3.113 6.92 6.954 0 3.84-3.097 6.953-6.92 6.953z" fill="#000"/><path d="m861.245 451.891h-204.649c-3.822 0-6.92-3.113-6.92-6.954s3.098-6.954 6.92-6.954h204.649c3.823 0 6.92 3.113 6.92 6.954s-3.097 6.954-6.92 6.954z" fill="#000"/><path d="m3628.22 1837.77c34.81 32.94 81.37 44.47 133 39.64 70.84-6.62 129.3-16.88 129.3-16.88 53.62-16.26 111.15 8.58 135.99 58.72l-269.34 162.09-193.47 1.74 49.89 84.75-101.68 61.24-113.04-186.7" fill="#fff"/><path d="m3511.92 2235.76c-2.27 0-4.48-1.15-5.74-3.23l-113.05-186.7c-1.91-3.16-.9-7.27 2.27-9.18 3.17-1.92 7.29-.9 9.2 2.26l109.59 180.98 90.26-54.37-46.53-79.05c-1.21-2.06-1.23-4.6-.05-6.69 1.18-2.07 3.38-3.37 5.77-3.39l191.64-1.72 262.34-157.88c-24.8-43.73-76.43-64.63-125.15-49.85-.26.07-.52.14-.79.18-.59.11-59.54 10.39-129.84 16.96-56.22 5.26-104.03-9.07-138.23-41.45-2.69-2.54-2.8-6.78-.26-9.46 2.55-2.68 6.8-2.79 9.48-.25 31.76 30.06 74.74 42.79 127.76 37.84 66.79-6.25 123.18-15.85 128.38-16.74 56.88-17.05 117.2 9.09 143.54 62.27 1.55 3.12.44 6.9-2.54 8.7l-269.34 162.09c-1.03.61-2.2.95-3.4.96l-181.88 1.63 44.01 74.77c1.86 3.16.83 7.23-2.32 9.12l-101.67 61.24c-1.08.65-2.27.96-3.45.96z" fill="#000"/><path d="m2352.11 1248.67-47.41-54.27c-7.47-8.54-11.93-19.27-12.73-30.57l-30.05-283.659c-10.22-62.117-2.23-124.89 51.8-160.833l263.21-198.225c27.07-19.59 62.27-31.117 93.83-20.071l116.17 42.373c7.03 3.189 18.09 13.637 22.34 20.071l127.34 178.414 154.15-124.889c19.61-14.372 59.71-26.983 75.96-8.921l89.37 127.12c8.68 15.441 6.77 48.698-6.71 60.214l-279.26 234.166-105-136.038-355.22-6.691 22.34 263.159-107.23-69.13c-57.17 6.19-85.91 41.27-93.83 98.12z" fill="#fff"/><path d="m2875.24 902.818 108.42 122.362 94.43 106.53 220.97 249.38 54.89 61.95 166.98 188.43 94.39 106.51 61.44 69.34-283.2 252.63-145.47-164.11-68.03-76.74-64.53-72.8-567.65-660.95 216.61-183.926" fill="#fff"/><path d="m2512.14 1995.26c-33.74 34.84-32.42 62.33-23.41 80.66 6.78 13.8 19.12 23.95 33.56 29.27 45.37 16.69 74.62 61.89 70.28 110.85h-17.88l-297.13-1.52-57.24-173.32-59.56 66.59-82.77-75.56 212.98-231z" fill="#fff"/><path d="m2592.57 2222.73h-17.88l-297.16-1.51c-2.88-.02-5.43-1.87-6.33-4.6l-53.61-162.32-51.83 57.94c-1.19 1.34-2.87 2.14-4.66 2.23s-3.54-.54-4.86-1.74l-82.77-75.56c-1.31-1.2-2.1-2.87-2.17-4.65-.08-1.78.55-3.51 1.76-4.82l212.98-231c2.46-2.68 6.61-2.9 9.35-.5l221.18 194.03c1.37 1.21 2.19 2.92 2.27 4.75.07 1.83-.61 3.61-1.88 4.92-25.59 26.42-33.06 51.01-22.21 73.07 5.78 11.77 16.39 20.98 29.86 25.94 48.51 17.85 79.2 66.26 74.63 117.72-.3 3.46-3.2 6.1-6.67 6.1zm-310.15-14.87 292.31 1.49h11.52c1.21-43.14-25.35-82.82-66.27-97.88-16.73-6.16-29.96-17.74-37.27-32.6-8.93-18.16-12.35-47.03 19.83-83.13l-211.08-185.17-203.98 221.25 72.8 66.46 55.05-61.54c1.59-1.78 4.01-2.58 6.36-2.09 2.34.48 4.25 2.18 5 4.45z" fill="#000"/><path d="m2493.96 1477.82-258.85 301.11 285.97 249.78 425.59-480.6c9.67-11.61 36.48-46.87 39.09-99.25 2.05-40.92-11.69-71.9-18.99-85.86l-167.55-461.643-288.2-13.381 24.58 269.854 24.95 159.59c3.37 21.58-.64 43.66-11.39 62.69z" fill="#fff"/><path d="m2699.88 203.755c-24.91-9.986-51.28-15.049-78.36-15.049-116.03 0-210.43 94.232-210.43 210.058 0 68.52 33.62 132.907 89.94 172.236 1.17.816 87.53-81.194 146.58-80.659 11.02-26.492 30.34-72.917 48.06-115.572 4.99-40.586-22.46-67.748-22.46-91.236 0-44.012 31.04-52.041 31.44-53.024 1.37-3.426-1.33-25.378-4.77-26.754z" fill="#0618bb"/><path d="m2695.47 330.394c-.95 6.101-1.5 12.29-1.63 18.528l-.03-.023c-.18 8.825.48 17.465 1.86 25.875l-36.06 86.774c-.03 0-5.3 12.658-12 28.796-15.48 37.255 2.22 79.989 39.54 95.444s80.13-2.219 95.61-39.474l23.48-56.508c8.29 1.706 16.84 2.728 25.6 2.915 77.9 1.668 142.41-60.023 144.08-137.784.37-17.148-2.41-34.019-8.01-49.858 6.23-15.493 9.77-32.228 10.13-49.557.13-6.001-.13-12.007-.78-17.975l-33.94-46.499" fill="#fff"/><path d="m2715.18 598.097c-10.37 0-20.73-2.043-30.6-6.129-40.67-16.842-60.03-63.58-43.16-104.187l11.06-26.586c.31-.727.62-1.476.99-2.192l-.05-.018 35.34-85.034c-1.27-8.414-1.82-16.88-1.64-25.192 0-.192.01-.381.03-.569.16-6.273.73-12.6 1.7-18.818.56-3.653 4-6.157 7.65-5.586 3.66.566 6.16 3.985 5.59 7.636-.9 5.832-1.42 11.766-1.55 17.643 0 .182-.01.365-.03.546-.14 7.944.46 16.042 1.78 24.086.2 1.231.05 2.491-.43 3.642l-36.06 86.773c-.04.092-.07.181-.12.268-.36.847-2.77 6.604-11.88 28.528-14.04 33.792 2.07 72.684 35.92 86.7 16.4 6.789 34.46 6.798 50.86.027 16.41-6.773 29.19-19.516 35.99-35.885l23.48-56.509c1.23-2.963 4.4-4.629 7.54-3.989 8.12 1.672 16.33 2.605 24.39 2.778 74.04 1.646 135.64-57.286 137.23-131.238.35-16.205-2.21-32.182-7.62-47.487-.55-1.535-.51-3.21.1-4.719 6.07-15.092 9.31-30.971 9.64-47.2.12-5.111-.07-10.265-.56-15.359l-32.87-45.041c-2.18-2.986-1.52-7.172 1.47-9.346 2.99-2.175 7.18-1.519 9.36 1.467l33.94 46.499c.69.944 1.12 2.052 1.25 3.212.68 6.242.96 12.585.82 18.851-.35 17.003-3.61 33.665-9.69 49.559 5.38 16.107 7.93 32.864 7.57 49.849-1.75 81.328-69.46 146.058-150.92 144.33-7.07-.152-14.23-.834-21.35-2.032l-21.4 51.497c-8.18 19.67-23.53 34.985-43.24 43.123-9.84 4.068-20.19 6.099-30.53 6.102z" fill="#000"/><g fill="#0618bb"><path d="m3616.13 1737.31-38.82 42.91c-7.08 7.81-19.16 8.42-26.98 1.35-.48-.43-.93-.87-1.35-1.35l-67.03-73.93c-16.89-18.52-15.54-47.21 3.02-64.08 9.93-9.02 23.35-13.2 36.66-11.41z"/><path d="m3354.77 1442.37c-1.96 4.38-4.61 8.41-7.84 11.94l-67.03 73.93c-7.06 7.81-19.12 8.42-26.94 1.38-.49-.44-.95-.9-1.39-1.38l-67.02-73.93c-16.9-18.53-15.56-47.23 2.99-64.1 18.56-16.87 47.31-15.53 64.21 2.99l13.88 15.3 13.85-15.3c5.44-5.97 12.38-10.38 20.1-12.78z"/><path d="m3078.9 1131.04-38.8 42.87c-7.06 7.8-19.13 8.42-26.95 1.38-.48-.44-.95-.9-1.38-1.38l-67.03-73.91c-16.89-18.53-15.53-47.22 3.03-64.08 9.92-9.01 23.31-13.19 36.61-11.41z"/><path d="m2742.83 944.003-66.89 73.927c-.42.47-.87.92-1.34 1.34-7.82 7.07-19.9 6.47-26.99-1.34l-67.02-73.927c-.18-.201-.38-.424-.56-.625-7.59-8.608-11.3-19.291-11.3-29.951 0-8.943 2.61-17.841 7.82-25.468l79.04 3.412 6.08 6.69 5.6-6.177 83.67 3.613c6.84 15.856 4.27 34.902-8.11 48.506z"/><path d="m2911.95 1194.74-65.79 72.72c-7.08 7.81-19.16 8.41-26.98 1.35-.47-.43-.92-.87-1.35-1.35l-67.02-73.93c-16.91-18.52-15.57-47.22 2.99-64.09 18.56-16.88 47.3-15.54 64.21 2.99l13.87 15.27 13.85-15.27c9.48-10.4 23.26-15.81 37.29-14.63z"/><path d="m2763.52 1369.67c-18.6-16.37-46.92-14.83-63.63 3.46l-13.85 15.27-13.87-15.27c-16.71-18.29-45.03-19.83-63.63-3.46-18.86 16.55-20.71 45.22-4.14 64.05l.57.63 66.91 73.9c7.06 7.81 19.12 8.43 26.94 1.38.49-.43.95-.89 1.39-1.38l66.88-73.9c16.93-18.5 15.62-47.2-2.91-64.09-.22-.2-.44-.4-.66-.59z"/><path d="m3347.23 1676.03c-18.6-16.38-46.92-14.84-63.63 3.45l-13.85 15.28-13.87-15.28c-16.71-18.29-45.03-19.83-63.63-3.45-18.86 16.54-20.71 45.22-4.13 64.05.18.21.37.42.56.62l66.91 73.91c7.06 7.81 19.12 8.42 26.95 1.38.48-.44.94-.9 1.38-1.38l66.89-73.91c16.92-18.5 15.62-47.19-2.92-64.08-.22-.2-.44-.4-.66-.59z"/><path d="m2768.52 1746.24-103.82 118.93-42.06-46.45c-16.91-18.53-15.57-47.23 2.99-64.1s47.31-15.53 64.21 2.99l13.87 15.28 13.85-15.28c12.89-14.13 33.27-18.68 50.96-11.37z"/><path d="m2406.85 1673.6-67.02 73.91c-7.06 7.81-19.13 8.42-26.95 1.38-.49-.44-.95-.9-1.38-1.38l-24.31-26.92 104-119.14c4.4 1.88 8.48 4.45 12.06 7.63 18.83 16.57 20.63 45.23 4.04 64.02-.14.17-.29.33-.44.5z"/></g><path d="m3394.38 2065.98c-.13 0-.26-.01-.39-.02-1.78-.1-3.45-.91-4.63-2.24l-452.92-510.95c-2.46-2.76-2.2-6.99.57-9.44 2.78-2.45 7.01-2.19 9.46.58l448.46 505.91 273.2-243.72-797.1-899.517c-2.45-2.768-2.19-6.996.58-9.445s7.01-2.188 9.46.578l801.52 904.504c2.44 2.76 2.2 6.97-.55 9.42l-283.2 252.63c-1.23 1.1-2.82 1.71-4.46 1.71z" fill="#000"/><path d="m2983.96 236.963c-4.43-42.253-16.46-70.739-39-92.356-29.79-28.546-68.89-43.803-110.22-42.96-41.28.843-79.77 17.688-108.37 47.427-22.16 23.053-36.44 51.932-41.28 83.54l-1.13 7.524c-.54 3.656 36.38-17.674 49.45-17.105 63.47 2.759 56.76 57.101 60.19 57.101.2 0 .41-.009.62-.029 26.42-2.428 51.9-12.868 71.8-29.398l74.04-52.157 31.84 43.08c1.8 2.431 5 3.361 7.82 2.266 2.82-1.09 4.56-3.934 4.24-6.933z" fill="#0618bb"/><path d="m2733.41 344.049c-19.98-.158-39.46-10.163-50.89-28.297-17.82-28.285-9.3-65.638 19.04-83.43 28.33-17.793 65.75-9.285 83.57 19.001 4.39 6.965 7.19 14.48 8.48 22.119" fill="#fff"/><path d="m2733.41 350.739c-.02 0-.04 0-.05 0-23.1-.182-44.22-11.931-56.51-31.425-19.76-31.363-10.28-72.927 21.14-92.655 15.22-9.556 33.25-12.627 50.79-8.639 17.53 3.985 32.45 14.547 42.03 29.741 4.76 7.563 7.93 15.828 9.4 24.568.62 3.644-1.84 7.096-5.49 7.712-3.65.611-7.11-1.84-7.72-5.484-1.19-6.992-3.72-13.611-7.54-19.67-7.67-12.168-19.62-20.627-33.66-23.819-14.04-3.193-28.49-.736-40.68 6.918-25.16 15.799-32.75 49.086-16.93 74.205 9.84 15.613 26.76 25.022 45.27 25.167 3.7.029 6.68 3.049 6.65 6.744-.03 3.678-3.03 6.637-6.7 6.637z" fill="#000"/><path d="m2876.88 908.115c-.12 0-.25-.002-.38-.011-3.69-.205-6.52-3.363-6.32-7.052 1.62-28.834-2.63-57.195-12.62-84.294-13.47-37.409-17.08-77.853-10.48-117.001.61-3.644 4.08-6.098 7.72-5.487 3.65.614 6.11 4.066 5.5 7.71-6.23 36.892-2.82 75.001 9.86 110.208 10.61 28.779 15.12 58.944 13.41 89.613-.2 3.557-3.16 6.314-6.69 6.314z" fill="#000"/><path d="m2938.2 746.227c-.3 0-.6-.02-.9-.06-1.89-.257-3.59-1.31-4.66-2.893-.73-1.088-73.78-109.343-98.25-145.046-14.24-20.767-32.57-41.111-51.62-57.28-2.82-2.395-3.16-6.617-.76-9.431 2.39-2.814 6.62-3.156 9.44-.763 19.93 16.918 39.11 38.199 54 59.918 21.08 30.757 78.13 115.229 94.11 138.898l128.33-109.743c24.69-21.104 54.37-31.882 85.66-31.133 3.7.087 6.63 3.151 6.54 6.845-.09 3.693-3.17 6.581-6.85 6.532-28.03-.645-54.49 8.998-76.63 27.921l-134.05 114.629c-1.22 1.039-2.77 1.606-4.36 1.606z" fill="#000"/><path d="m2983.42 1029.69c-2.12 0-4.21-1.01-5.51-2.87-2.11-3.04-1.36-7.21 1.68-9.32 3.13-2.17 6.18-4.53 9.08-7l239.04-204.327c15.42-13.18 39.4-38.673 26.7-61.331-1.81-3.225-.65-7.302 2.58-9.106 3.23-1.807 7.31-.651 9.12 2.573 12.87 22.962 2.33 50.674-29.68 78.03l-239.04 204.331c-3.24 2.76-6.65 5.39-10.15 7.81-1.16.82-2.5 1.21-3.82 1.21z" fill="#000"/><path d="m2531.15 1171.84c-.44 0-.89-.05-1.33-.14-3.63-.73-5.98-4.26-5.25-7.88 2.31-11.41 2.87-23.14 1.67-34.84-.08-.77-.17-1.55-.26-2.32l-27.52-243.226c-.22-1.952.43-3.901 1.78-5.333 1.34-1.429 3.25-2.185 5.22-2.098l371.75 18.738c3.7.185 6.54 3.329 6.36 7.018-.19 3.689-3.33 6.557-7.03 6.345l-363.88-18.341 26.63 235.327c.09.8.19 1.66.28 2.52 1.34 13.04.72 26.12-1.86 38.86-.64 3.17-3.44 5.37-6.56 5.37z" fill="#000"/><path d="m2367.95 1262.56c-.77 0-1.56-.13-2.33-.42-46.63-17.3-78.76-58.71-83.85-108.09l-35.73-316.866c-5.01-44.558 13.95-89.284 49.47-116.722 2.24-1.713 221.66-169.761 243.7-186.362 20.63-15.538 61.97-42.811 107.12-50.877 3.63-.647 7.13 1.768 7.78 5.408.65 3.637-1.77 7.112-5.42 7.763-42.4 7.576-81.73 33.566-101.41 48.384-21.99 16.572-241.38 184.587-243.59 186.281-31.83 24.584-48.82 64.682-44.34 104.631l35.75 316.93c4.56 44.33 33.37 81.47 75.19 96.98 3.47 1.28 5.23 5.13 3.94 8.6-1 2.69-3.55 4.36-6.28 4.36z" fill="#000"/><path d="m2415.9 1081.15c-70.74 5.24-120.15 92.56-69.26 149.09.69.78 1.38 1.52 2.08 2.23 23.37 24.31 42.85 52.74 31.94 100.83-7.68 33.9-24.44 83.49 7.94 89.63 22.34 4.23 44.39-52.95 62.08-94.52 2.03 64.95 4.8 149.98 34.25 150.78 29.44.81 36.97-42.75 33.71-126.94 19.8 91.69 13.76 124.34 42.14 121.77 46.91-4.26 17.38-194.36-10.41-257.32 0 0-6.26-15.14-25.94-70.78-20.02-56.87-71.4-67.62-108.53-64.77z" fill="#fff"/><path d="m2485.73 1485.9c-.33 0-.65-.01-.98-.02-29.35-.8-36.49-53.75-39.67-127.1-16.13 37.36-33.17 71.07-54.04 71.07-1.22 0-2.45-.11-3.7-.35-8.37-1.59-14.73-5.68-18.92-12.17-10.99-17.07-3.72-46.73 2.69-72.9 1.07-4.36 2.11-8.59 3.02-12.61 9.63-42.48-5.13-68.58-30.25-94.72-.74-.76-1.49-1.57-2.25-2.42-23.31-25.89-28.98-59.93-15.51-93.36 14.96-37.13 50.84-63.99 89.28-66.84 26.66-2.04 91.21.61 115.35 69.22 19.34 54.66 25.75 70.3 25.81 70.45 23.82 53.95 50.88 208.32 24.71 252.66-6.22 10.54-14.25 13.36-19.88 13.87-25.72 2.31-29.89-18.13-36.71-59.04-2.43 28.37-8.18 45.9-17.66 55.47-5.78 5.83-12.94 8.79-21.29 8.79zm-35.05-164.18c.41 0 .82.04 1.24.12 3.09.58 5.36 3.23 5.46 6.37.97 30.89 2.17 69.33 6.77 98.61 6.19 39.42 15.79 45.55 20.96 45.69 5.03.16 8.99-1.39 12.38-4.81 16.32-16.47 16.06-73.63 14.46-115.19-.14-3.47 2.4-6.46 5.85-6.89s6.66 1.83 7.39 5.23c5.67 26.25 9.22 47.62 12.08 64.8 7.47 44.98 9.85 52.9 22.9 51.71 1.36-.12 5.51-.5 9.55-7.34 22.44-38.02-.42-183.83-25.49-240.62-.32-.77-6.61-16.08-26.12-71.25-21.08-59.89-78.15-62.14-101.7-60.33-.01 0-.01 0-.02 0-33.46 2.48-64.74 25.99-77.84 58.49-11.48 28.51-6.72 57.47 13.08 79.46.65.74 1.28 1.4 1.9 2.05 24.36 25.33 45.27 55.8 33.67 106.95-.93 4.09-1.98 8.4-3.07 12.84-5.49 22.38-12.31 50.24-4.43 62.47 2.17 3.38 5.4 5.37 10.14 6.27.41.08.83.12 1.24.12 15.2 0 36.39-50.27 49.19-80.63 1.44-3.42 2.85-6.78 4.24-10.05 1.07-2.5 3.52-4.07 6.17-4.07zm-34.78-240.57h.02z" fill="#000"/><path d="m2505.12 889.375c-1.82 0-3.63-.734-4.95-2.179-2.5-2.728-2.31-6.961.43-9.452l156.54-142.771c2.74-2.493 6.98-2.301 9.47.426 2.5 2.728 2.31 6.961-.43 9.452l-156.54 142.771c-1.28 1.175-2.9 1.753-4.52 1.753z" fill="#000"/><path d="m3239.46 656.545c20.6-31.013 5.78-23.292 14.91-64.55l16.91-91.344c11-58.419-35.65-23.401-45.62-1.119l-36.24 71.729c-40.35 29.255-61.43 40.42-99.35 76.566-46.37 44.162 8.19 125.057 53.88 139.459 34.89 10.895 72.93-.064 96.63-27.843 9.93-11.909 17.44-23.651 26.01-34.102l.24-.292c6.55-8.414 14.51-15.64 23.51-21.365 4.79-2.933 9.88-5.348 15.19-7.208 12.06-4.259 27.07-6.606 46.83-6.447 32.99.316 82.34 5.861 81.57-25.297-.26-10.622-14.34-18.178-33.55-24.041l-67.12-10.288 82.43-27.097c31.14-10.93 54-23.733 51.13-38.932-5.16-27.393-64.02-10.236-113.7.923 48.57-20.076 101.76-44.273 93.69-70.005-7.9-25.183-22.96-27.81-84.15-5.241l-96.55 38.469" fill="#fff"/><path d="m3171.23 798.147c-9.76 0-19.62-1.46-29.28-4.473-32.21-10.152-65.39-48.475-73.98-85.434-6.05-26.032-.01-48.597 17.47-65.25 28.38-27.045 47.54-40.353 71.8-57.202 8.36-5.805 16.99-11.8 26.93-18.987l35.44-70.148c6.87-15.15 31.1-39.245 47.88-34.006 11.13 3.475 14.62 16.677 10.37 39.24l-2.94 15.93 85.26-33.974c43.31-15.977 63.33-19.298 76.68-12.748 9.84 4.822 13.91 14.398 16.36 22.201 6.15 19.633-12.76 36.731-41.37 52.38 22.11-3.724 40.78-4.339 51.84 2.855 5.27 3.434 8.55 8.35 9.73 14.61 4.27 22.701-29.63 37.4-55.5 46.481l-55.99 18.408 39.48 6.05c.32.049.63.121.94.217 16.24 4.957 37.88 13.49 38.28 30.277.21 8.153-2.36 14.948-7.62 20.187-13.75 13.695-42.81 12.915-68.44 12.224-4.25-.114-8.37-.226-12.27-.264-18.01-.147-32.58 1.84-44.54 6.064-4.86 1.704-9.53 3.923-13.91 6.604-8.29 5.265-15.62 11.938-21.72 19.766-.05.067-.11.131-.16.196l-.25.292c-3.82 4.67-7.49 9.69-11.38 15.005-4.51 6.175-9.17 12.56-14.6 19.074-18.97 22.233-46.33 34.425-74.51 34.425zm91.03-322.899c-7.26 0-24.75 14.213-30.49 27.014-.04.093-.08.189-.13.281l-36.23 71.731c-.48.952-1.18 1.775-2.05 2.402-10.61 7.694-19.69 13.999-28.47 20.096-23.78 16.516-42.57 29.563-70.2 55.897-17.51 16.686-17.1 37.783-13.67 52.547 7.51 32.302 37.26 66.965 64.95 75.692 32.37 10.105 67.51-.022 89.51-25.801 5.1-6.128 9.64-12.337 14.03-18.343 4-5.47 7.77-10.635 11.89-15.658l.22-.259c7.03-8.998 15.48-16.67 25.12-22.801 5.29-3.236 10.83-5.865 16.57-7.877 13.43-4.746 29.49-6.994 49.11-6.824 3.98.038 8.18.152 12.51.268 21.8.586 48.93 1.313 58.61-8.319 2.63-2.618 3.8-5.919 3.69-10.388-.07-2.717-2.97-9.846-28.35-17.668l-66.63-10.214c-3.07-.468-5.41-2.975-5.67-6.059-.25-3.084 1.64-5.941 4.59-6.909l82.43-27.095c42.86-15.049 47.62-26.097 46.64-31.34-.5-2.643-1.7-4.454-3.88-5.874-13.1-8.526-51.55.432-85.47 8.336-5.49 1.278-10.95 2.551-16.3 3.753-3.39.763-6.81-1.195-7.86-4.505-1.05-3.311.61-6.875 3.82-8.204 31.4-12.976 96.72-39.976 89.87-61.825-2.48-7.906-5.31-12.15-9.47-14.189-9.18-4.504-28.29-.669-65.97 13.228l-92.95 37.038-11.07 59.838c-.01.076-.03.152-.05.227-3.56 16.12-3.3 24.071-3.08 30.458.36 10.999-.03 17.139-12.78 36.347-2.05 3.08-6.2 3.919-9.29 1.88-3.08-2.043-3.93-6.193-1.88-9.273 10.95-16.494 10.83-20.011 10.55-28.508-.22-6.746-.53-15.984 3.37-33.676l11.71-63.267c.01-.054.02-.107.03-.161l5.14-27.799c3.46-18.323.31-23.548-1.19-24.019-.37-.123-.78-.178-1.23-.178z" fill="#000"/><path d="m3315.1 586.638c-2.69 0-5.23-1.628-6.26-4.284-1.33-3.446.39-7.32 3.84-8.649l38.03-14.643c3.45-1.334 7.33.386 8.66 3.834 1.34 3.445-.38 7.319-3.84 8.648l-38.02 14.644c-.8.305-1.61.45-2.41.45z" fill="#000"/><path d="m2928.53 1557.79c-2.24 2.98-4.69 5.91-7.2 8.78l-52.83 60.35-18.95-20.94c-16.9-18.52-15.56-47.22 3-64.1 18.55-16.87 47.3-15.53 64.2 2.99z" fill="#0618bb"/><path d="m2522.41 2035.3c-1.62 0-3.18-.58-4.4-1.65l-286.32-249.13c-2.79-2.43-3.08-6.65-.65-9.44l155.38-178.01 102.69-123.46c2.37-2.85 6.59-3.24 9.44-.88s3.24 6.58.88 9.42l-102.8 123.59-151.08 173.09 276.21 240.34 359.87-412.19 52.84-60.36c1.98-2.28 4.56-5.3 6.87-8.38 39.08-50.58 48.97-116.38 26.51-176.08l-173.1-462.168c-1.29-3.461.47-7.317 3.93-8.61 3.46-1.294 7.33.464 8.63 3.925l173.09 462.163c24.1 64.06 13.49 134.66-28.38 188.85-2.5 3.35-5.3 6.62-7.44 9.09l-52.85 60.36-364.27 417.24c-1.17 1.33-2.82 2.15-4.59 2.28-.15 0-.31.01-.46.01z" fill="#000"/><path d="m2927.3 387.191c-2.51 0-4.92-1.416-6.06-3.835-1.58-3.344-.15-7.331 3.2-8.908l26.21-12.348-22.54-51.515c-1.49-3.385.06-7.331 3.45-8.809 3.4-1.481 7.35.067 8.83 3.452l25.15 57.472c1.46 3.316 0 7.185-3.28 8.731l-32.1 15.12c-.93.435-1.9.64-2.86.64z" fill="#000"/><path d="m2892.37 325.352c4.84-3.043 6.3-9.431 3.25-14.269s-9.45-6.293-14.29-3.25c-4.85 3.043-6.31 9.431-3.26 14.269s9.45 6.293 14.3 3.25z" fill="#000"/><path d="m2969.21 333.653c4.84-3.043 6.3-9.431 3.25-14.269-3.04-4.838-9.44-6.293-14.29-3.25-4.85 3.042-6.3 9.431-3.26 14.269 3.05 4.837 9.45 6.293 14.3 3.25z" fill="#000"/><path d="m2905.21 426.396c-2.45 0-4.91-.243-7.36-.734-9.69-1.942-18.05-7.538-23.53-15.756-.71-1.066-1.37-2.184-1.98-3.328l-.64-1.211c-1.72-3.269-.47-7.315 2.8-9.038 3.28-1.727 7.33-.473 9.06 2.794l.65 1.227c.39.744.81 1.46 1.26 2.141 3.5 5.243 8.83 8.811 15.02 10.051 6.18 1.242 12.48 0 17.73-3.488l4.67-3.129c3.07-2.061 7.24-1.242 9.3 1.824 2.06 3.067 1.24 7.224-1.83 9.284l-4.69 3.145c-6.16 4.097-13.23 6.218-20.46 6.218z" fill="#000"/><path d="m2806.22 496.537c-.45 0-.91-.047-1.37-.141-25.72-5.312-49.6-17.431-69.05-35.049-2.74-2.482-2.94-6.715-.46-9.452 2.49-2.736 6.73-2.941 9.47-.459 17.68 16.013 39.38 27.027 62.76 31.856 3.63.749 5.96 4.288 5.2 7.908-.65 3.162-3.44 5.337-6.55 5.337z" fill="#000"/><path d="m2755.14 302.322c-.24 0-.48-.013-.72-.04l-49.15-5.332c-3.68-.399-6.34-3.7-5.94-7.373s3.71-6.323 7.39-5.928l31.5 3.417-23.26-25.402c-2.49-2.727-2.3-6.96.43-9.451 2.73-2.494 6.97-2.302 9.47.423l35.23 38.482c1.88 2.054 2.29 5.058 1.03 7.54-1.15 2.264-3.47 3.664-5.98 3.664z" fill="#000"/><path d="m3674.17 1174.49 20.79-.45c9.49-.21 17.35 7.49 17.55 17.19.06 2.73-.51 5.44-1.65 7.91l-24.68 53.25-26.86-52.12c-4.43-8.6-1.2-19.24 7.21-23.76 2.36-1.27 4.97-1.96 7.64-2.02z" fill="#fff"/><path d="m3652.09 1192.1c0-2.28.33-4.58 1.02-6.83 1.77-5.85 5.68-10.65 10.98-13.5 3.06-1.64 6.51-2.56 9.96-2.63h.01l20.78-.45c5.99-.13 11.67 2.13 16 6.37 4.33 4.23 6.78 9.94 6.9 16.06.08 3.56-.67 7.11-2.16 10.32l-24.67 53.24c-.85 1.83-2.64 3.02-4.62 3.06s-3.82-1.06-4.75-2.86l-26.86-52.12c-1.72-3.34-2.59-6.99-2.59-10.66zm22.19-12.26c-1.84.04-3.68.53-5.31 1.41-2.83 1.52-4.91 4.07-5.86 7.2-.95 3.12-.65 6.43.84 9.32l21.98 42.66 20.19-43.58c.8-1.71 1.19-3.59 1.16-5.5-.07-3.27-1.38-6.31-3.68-8.56-2.31-2.26-5.34-3.47-8.53-3.4z" fill="#000"/><path d="m3762.41 1240.17.44 21.25c.17 9.71-7.4 17.73-16.9 17.9-2.65.05-5.27-.53-7.66-1.69l-52.11-25.24 51.05-27.45c8.42-4.51 18.82-1.18 23.23 7.43 1.23 2.41 1.9 5.08 1.95 7.8z" fill="#fff"/><path d="m3680.94 1252.39c0-1.98 1.08-3.81 2.8-4.73l51.05-27.46c10.98-5.87 24.57-1.52 30.3 9.69 1.61 3.12 2.49 6.64 2.56 10.17l.43 21.25c.22 12.66-9.67 23.14-22.04 23.36-3.43.06-6.88-.7-9.98-2.19l-52.12-25.25c-1.8-.87-2.96-2.7-3-4.73 0-.03 0-.07 0-.11zm76.68 9.34c0-.07 0-.14 0-.22l-.44-21.22c0-.01 0-.01 0-.01-.04-1.88-.51-3.76-1.36-5.43-3.07-5.98-10.31-8.3-16.16-5.17l-41.77 22.47 42.64 20.65c1.65.8 3.49 1.2 5.33 1.17 6.52-.12 11.76-5.59 11.76-12.24zm4.79-21.56v.02z" fill="#000"/><path d="m430.388 2003.08c-3.622 0-6.557-2.92-6.557-6.52v-894.27c0-3.59 2.935-6.51 6.557-6.51s6.557 2.92 6.557 6.51v894.27c0 3.6-2.935 6.52-6.557 6.52z" fill="#000"/><path d="m430.388 2225.82c-3.622 0-6.557-2.83-6.557-6.33v-78.98c0-3.49 2.935-6.32 6.557-6.32s6.557 2.83 6.557 6.32v78.98c0 3.49-2.935 6.33-6.557 6.33z" fill="#000"/><path d="m1385.35 2225.82c-3.62 0-6.56-2.94-6.56-6.56v-924.74c0-3.62 2.94-6.55 6.56-6.55s6.56 2.93 6.56 6.55v924.74c0 3.62-2.94 6.56-6.56 6.56z" fill="#000"/><path d="m1145.73 1108.89h-777.94c-3.622 0-6.557-2.93-6.557-6.55s2.935-6.56 6.557-6.56h777.94c3.63 0 6.56 2.94 6.56 6.56s-2.93 6.55-6.56 6.55z" fill="#000"/><path d="m3862.85 234h-179.58c-25.9 0-50.75 10.357-69.06 28.792-18.32 18.435-28.61 43.438-28.61 69.509v124.178c0 26.071 10.29 51.074 28.61 69.509 18.31 18.434 43.16 28.791 69.06 28.791h32.05l45.21 57.848c1.49 1.909 3.39 3.452 5.56 4.513s4.56 1.613 6.97 1.613 4.8-.552 6.97-1.613 4.07-2.604 5.56-4.513l45.21-57.848h32.05c25.9 0 50.75-10.357 69.06-28.791 18.32-18.435 28.61-43.438 28.61-69.509v-124.178c0-26.071-10.29-51.074-28.61-69.509-18.31-18.435-43.16-28.792-69.06-28.792z" fill="#fff"/><path d="m3773.03 625.198c-3.37-.001-6.71-.773-9.74-2.258-3.04-1.484-5.71-3.643-7.79-6.313l-43.29-55.389h-28.94c-27.6-.032-54.05-11.079-73.56-30.718-19.52-19.639-30.49-46.267-30.52-74.041v-124.178c.03-27.775 11-54.402 30.52-74.042 19.51-19.639 45.96-30.686 73.56-30.717h179.58c27.6.031 54.05 11.078 73.56 30.717 19.52 19.64 30.49 46.267 30.52 74.042v124.178c-.03 27.774-11 54.402-30.52 74.041-19.51 19.639-45.96 30.686-73.56 30.718h-28.94l-43.27 55.383c-2.1 2.678-4.77 4.842-7.82 6.328s-6.4 2.255-9.79 2.249zm-89.76-384.739c-24.19.027-47.39 9.712-64.49 26.93-17.11 17.218-26.73 40.562-26.76 64.912v124.178c.03 24.349 9.65 47.694 26.76 64.911 17.1 17.218 40.3 26.903 64.49 26.93h32.05c.97 0 1.93.222 2.81.65.87.427 1.64 1.049 2.24 1.818l45.2 57.848c.89 1.137 2.03 2.056 3.33 2.688 1.29.632 2.72.961 4.16.961s2.86-.329 4.15-.961c1.3-.632 2.44-1.551 3.33-2.688l45.2-57.844c.6-.771 1.37-1.394 2.25-1.823.87-.428 1.83-.65 2.81-.649h32.05c24.19-.027 47.39-9.713 64.49-26.93 17.11-17.218 26.73-40.562 26.76-64.911v-124.178c-.03-24.35-9.65-47.694-26.76-64.911-17.1-17.218-40.3-26.903-64.49-26.931z" fill="#000"/><path d="m2934.6 2215.87c-3.66 0-6.63-2.98-6.63-6.67v-252.84c0-3.69 2.97-6.67 6.63-6.67 3.67 0 6.64 2.98 6.64 6.67v252.84c0 3.69-2.97 6.67-6.64 6.67z" fill="#000"/><path d="m3031.37 1775.13c-13.37 0-24.2 10.9-24.2 24.34 0-13.44-10.83-24.34-24.2-24.34-13.35 0-24.17 10.89-24.17 24.32v.02c0-13.44-10.83-24.34-24.2-24.34-13.36 0-24.19 10.9-24.19 24.34 0-13.44-10.84-24.34-24.2-24.34-13.37 0-24.2 10.9-24.2 24.34.01-13.43-10.8-24.33-24.15-24.34-.01 0-.02 0-.02 0-13.37 0-24.2 10.9-24.2 24.34v101.84c0 67.21 54.15 121.69 120.96 121.69 66.8-.01 120.95-54.48 120.97-121.69v-101.84c0-13.44-10.84-24.34-24.2-24.34z" fill="#b4baeb"/><path d="m3007.17 1899.87c-3.66 0-6.63-2.99-6.63-6.68v-95.66c0-3.68 2.97-6.67 6.63-6.67 3.67 0 6.64 2.99 6.64 6.67v95.66c0 3.69-2.98 6.68-6.64 6.68z" fill="#000"/><path d="m2958.78 1899.87c-3.67 0-6.64-2.99-6.64-6.68v-95.66c0-3.68 2.97-6.67 6.64-6.67 3.66 0 6.63 2.99 6.63 6.67v95.66c0 3.69-2.97 6.68-6.63 6.68z" fill="#000"/><path d="m2910.4 1899.87c-3.66 0-6.63-2.99-6.63-6.68v-95.66c0-3.68 2.97-6.67 6.63-6.67 3.67 0 6.64 2.99 6.64 6.67v95.66c0 3.69-2.97 6.68-6.64 6.68z" fill="#000"/><path d="m2862.01 1899.87c-3.66 0-6.63-2.99-6.63-6.68v-95.66c0-3.68 2.97-6.67 6.63-6.67 3.67 0 6.64 2.99 6.64 6.67v95.66c0 3.69-2.98 6.68-6.64 6.68z" fill="#000"/><path d="m3855.17 341.404c-19.33-16.791-48.75-15.218-66.12 3.535l-14.4 15.673-14.41-15.673c-17.36-18.699-46.73-20.271-66.04-3.535-19.57 16.999-21.44 46.401-4.18 65.675.15.171.31.343.46.512l69.52 75.812c7.36 8.007 19.92 8.624 28.05 1.376.49-.436.95-.893 1.39-1.376l69.55-75.812c17.52-19.026 16.06-48.44-3.26-65.695-.19-.165-.37-.329-.56-.492z" fill="#fff"/><path d="m3774.74 495.954c-7.12 0-14.21-2.842-19.35-8.437l-70.04-76.384c-9.45-10.549-14.16-24.091-13.26-38.129.89-14.039 7.28-26.894 17.99-36.198 21.71-18.812 55.24-17.018 74.75 3.997l9.82 10.677 9.79-10.652c19.54-21.107 53.11-22.903 74.85-4.022l.62.55c10.58 9.443 16.78 22.38 17.48 36.422.7 14.045-4.2 27.516-13.79 37.931l-69.54 75.804c-.58.637-1.19 1.238-1.83 1.81-4.99 4.443-11.25 6.631-17.49 6.631zm-49.39-159.93c-9.65 0-19.32 3.292-27.04 9.982-8.21 7.132-13.12 16.995-13.8 27.764-.68 10.771 2.93 21.158 10.17 29.25l.41.446 69.53 75.828c5.04 5.485 13.68 5.908 19.25.938.34-.3.66-.615.96-.944l69.54-75.806c7.36-7.998 11.12-18.33 10.59-29.103-.54-10.773-5.3-20.696-13.41-27.942l-.49-.427c0-.002 0-.004-.01-.008-16.67-14.484-42.42-13.107-57.4 3.069l-14.38 15.655c-1.18 1.283-2.86 2.017-4.61 2.017h-.01c-1.75 0-3.43-.732-4.61-2.015l-14.42-15.673c-8.01-8.632-19.12-13.031-30.27-13.031z" fill="#000"/><path d="m3340.25 403.053 75.21 9.161c30.35 3.697 51.89 30.76 48.11 60.445l-37.26 292.527c-3.78 29.685-31.45 50.752-61.81 47.054l-75.21-9.161c-30.35-3.697-51.9-30.76-48.12-60.445l37.26-292.527c3.79-29.685 31.46-50.751 61.82-47.054z" fill="#fff"/><path d="m3371.47 818.745c-2.57 0-5.15-.156-7.74-.47l-75.21-9.161c-16.33-1.989-30.89-10.077-41-22.775s-14.56-28.486-12.52-44.456l37.26-292.528c2.03-15.97 10.31-30.209 23.29-40.093 12.99-9.886 29.14-14.237 45.46-12.246l75.21 9.161c16.33 1.988 30.89 10.077 41 22.775s14.56 28.485 12.52 44.455l-37.26 292.529c-2.03 15.97-10.3 30.208-23.29 40.093-10.92 8.319-24.09 12.716-37.72 12.716zm-38.17-410.036c-10.88 0-21.39 3.509-30.11 10.148-10.36 7.889-16.96 19.253-18.58 31.998l-37.27 292.531c-1.62 12.746 1.93 25.345 10 35.479 8.06 10.134 19.69 16.59 32.72 18.177l75.21 9.161c13.03 1.585 25.92-1.883 36.28-9.773 10.37-7.89 16.97-19.254 18.59-31.999l37.26-292.528c1.62-12.747-1.93-25.345-9.99-35.479-8.07-10.136-19.69-16.592-32.73-18.178l-75.2-9.16c-2.07-.252-4.13-.377-6.18-.377z" fill="#000"/><path d="m3485.91 475.384-37.25 292.539c-2.03 15.973-10.3 30.204-23.3 40.097-10.92 8.311-24.09 12.71-37.71 12.71-2.57 0-30.88-3.365-33.45-3.69-3.42-.405 19.88-.243 20.31-3.567.04-.325.11-.629.19-.913 26.14-1.52 48.26-21.062 51.62-47.374l37.25-292.518c3.62-28.401-15.92-54.389-44.18-59.801-3.02-2.636-5.37-5.291-5.18-6.69 0 0 14.78 1.541 18.18 1.987 33.71 4.092 57.73 34.259 53.52 67.22z" fill="#000"/><path d="m3463.93 469.215c-.21 0-.41-.008-.62-.03l-184.64-17.778c-3.42-.329-5.92-3.305-5.58-6.647.34-3.341 3.37-5.796 6.8-5.455l184.64 17.778c3.42.328 5.92 3.304 5.58 6.647-.32 3.14-3.02 5.485-6.18 5.485z" fill="#000"/><path d="m3427.88 759.139c-.2 0-.4-.008-.6-.028l-185.8-17.353c-3.42-.318-5.93-3.288-5.6-6.631.32-3.343 3.34-5.801 6.78-5.475l185.8 17.352c3.42.319 5.93 3.288 5.6 6.631-.31 3.148-3.01 5.504-6.18 5.504z" fill="#000"/><path d="m3440.95 601.54-13.08 103.32c-3.44.634-13.63 2.067-17.12 2.067-7.92 0-15.46-1.569-22.32-4.405 0 0 .42 7.302.41-15.907 0-13.142 19.85-25.033 20.24-42.004.29-12.721-15.46-39.252-15.46-39.252 3.53-6.515 8.94-10.545 17.08-10.545 8.3 0 22.74 3.342 30.25 6.726z" fill="#0618bb"/><path d="m3337.48 620.052c-1.23 0-2.48-.359-3.56-1.103l-14.37-9.848c-1.4-.955-2.33-2.424-2.58-4.068-.26-1.644.19-3.319 1.23-4.635l16.6-20.983c2.11-2.657 6.01-3.142 8.72-1.088 2.72 2.055 3.22 5.875 1.12 8.53l-12.62 15.942 9.03 6.188c2.82 1.928 3.5 5.719 1.53 8.47-1.21 1.691-3.14 2.595-5.1 2.595z" fill="#000"/><path d="m3312.97 583.691c2.86 0 5.18-2.267 5.18-5.064s-2.32-5.064-5.18-5.064-5.18 2.267-5.18 5.064 2.32 5.064 5.18 5.064z" fill="#000"/><path d="m3366.74 583.691c2.86 0 5.18-2.267 5.18-5.064s-2.32-5.064-5.18-5.064-5.18 2.267-5.18 5.064 2.32 5.064 5.18 5.064z" fill="#000"/><path d="m3348.45 632.095c-8.08 29.542-34.22 20.312-34.22-2.803z" fill="#000"/><path d="m3317.61 744.941c-.19 0-.39-.009-.58-.027-3.42-.308-5.94-3.272-5.62-6.616l3.22-34.055c-25.48-11.167-42.28-36.239-42.28-63.806 0-14.371 4.38-28.042 12.7-39.753-2.54-7.257-3.96-16.414-3.96-25.722 0-3.359 2.78-6.082 6.22-6.082 3.43 0 6.21 2.723 6.21 6.082 0 9.209 1.56 18.052 4.26 24.261.88 2.021.58 4.348-.79 6.087-7.98 10.158-12.2 22.305-12.2 35.125 0 24.074 15.51 45.846 38.6 54.177 2.65.953 4.3 3.524 4.04 6.266l-3.64 38.539c-.3 3.156-3.01 5.524-6.18 5.524z" fill="#000"/><path d="m3383.35 750.88c-.19 0-.39-.008-.58-.026-3.42-.308-5.94-3.272-5.62-6.615l5.5-58.183c.14-1.464.81-2.828 1.9-3.844 11.81-11.013 18.31-25.848 18.31-41.775 0-9.655-1.55-18.999-4.16-24.993-1.35-3.089.12-6.661 3.28-7.979 3.16-1.313 6.81.122 8.16 3.213 4.66 10.702 5.16 24.375 5.16 29.759 0 18.512-7.25 35.803-20.48 48.95l-5.28 55.969c-.31 3.156-3.02 5.524-6.19 5.524z" fill="#000"/><path d="m3417.74 546.614c-10.25-24.464-33.32-39.116-64.95-41.261-.04-.002-.08.01-.12.008-.09-.004-.19-.02-.28-.02-28.52 0-45.75 13.479-55.18 24.786-12.03 14.417-18.35 34.563-15.49 49.185.32 1.677 1.23 3.241 2.73 4.113.94.547 1.96.807 2.97.807 1.56 0 3.08-.624 4.18-1.77l59.31-61.783 47.96 95.073c.76 1.496 2.04 2.757 3.68 3.215.53.15 1.08.225 1.62.225 1.63 0 3.2-.681 4.3-1.891 15.15-16.761 19.13-47.148 9.27-70.687z" fill="#0618bb"/><path d="m1140.16 1099.23h-113.1-554.127l-51.57-337.994c-.397-2.602-.597-5.229-.597-7.861.007-28.772 23.409-52.094 52.275-52.087h448.38c25.844-.015 47.817 18.8 51.7 44.269l48.339 316.983h114.98z" fill="#fff"/><path d="m1140.16 1105.72h-667.227c-3.215 0-5.951-2.34-6.435-5.51l-51.57-337.998c-.445-2.914-.67-5.887-.67-8.839.002-15.647 6.118-30.359 17.222-41.421 11.099-11.06 25.856-17.152 41.551-17.152h.011 448.377.035c29.269 0 53.7 20.93 58.1 49.782l47.496 311.468h109.39c3.35 0 6.15 2.52 6.48 5.83l3.71 36.7c.19 1.83-.41 3.64-1.65 5-1.23 1.37-2.98 2.14-4.82 2.14zm-661.634-12.97h654.434l-2.4-23.73h-109.1c-3.22 0-5.95-2.34-6.43-5.51l-48.343-316.978c-3.424-22.461-22.449-38.756-45.235-38.756-.009 0-.015 0-.026 0h-448.384c-.003 0-.007 0-.009 0-12.219 0-23.707 4.74-32.35 13.352-8.644 8.612-13.406 20.065-13.408 32.247 0 2.299.176 4.613.523 6.882z" fill="#000"/><path d="m736.64 950.774c13.804-13.348 11.874-37.651-4.312-54.284-16.185-16.632-40.497-19.294-54.301-5.946s-11.874 37.652 4.312 54.284 40.497 19.295 54.301 5.946z" fill="#b4baeb"/><path d="m2043.12 302.22v1911.88c0 3.73-2.97 6.75-6.63 6.75s-6.63-3.02-6.63-6.75v-1911.88c0-3.725 2.97-6.744 6.63-6.744s6.63 3.019 6.63 6.744z" fill="#000"/><path d="m2765.67 2215.88c-1.25 0-2.47-.36-3.53-1.04-1.06-.69-1.9-1.66-2.43-2.81l-15.03-32.39c-.75-1.61-.84-3.46-.25-5.14s1.81-3.05 3.39-3.81 3.39-.85 5.04-.25c1.64.6 2.99 1.84 3.73 3.45l15.03 32.39c.48 1.02.69 2.15.63 3.29-.07 1.13-.42 2.22-1.01 3.18-.6.96-1.42 1.75-2.39 2.29-.98.55-2.07.84-3.18.84z" fill="#000"/><path d="m2801.96 2215.88c-1.11 0-2.21-.29-3.18-.84-.97-.54-1.8-1.33-2.39-2.29s-.94-2.05-1.01-3.18c-.07-1.14.15-2.27.62-3.29l15.03-32.39c.37-.8.89-1.51 1.53-2.11.64-.59 1.39-1.05 2.21-1.34.81-.3 1.68-.43 2.54-.39.87.04 1.72.26 2.5.64s1.48.91 2.06 1.56c.59.65 1.03 1.42 1.33 2.25.29.83.42 1.71.37 2.59-.04.89-.25 1.75-.62 2.55l-15.03 32.39c-.53 1.15-1.38 2.12-2.43 2.81-1.06.68-2.28 1.04-3.53 1.04z" fill="#000"/><path d="m2783.81 2215.88c-1.75 0-3.42-.71-4.66-1.97-1.23-1.26-1.93-2.97-1.93-4.76v-39.58c0-1.78.7-3.49 1.93-4.75 1.24-1.26 2.91-1.97 4.66-1.97s3.43.71 4.66 1.97c1.24 1.26 1.93 2.97 1.93 4.75v39.58c0 1.79-.69 3.5-1.93 4.76-1.23 1.26-2.91 1.97-4.66 1.97z" fill="#000"/><path d="m3448.08 1711.45c-12.18-7.39-28.04-3.49-35.43 8.7 0 .01-.01.02-.01.03 7.38-12.22 3.46-28.12-8.75-35.51-12.22-7.39-28.1-3.48-35.49 8.75l-68 111.82 17.76-129.69c1.74-14.16-8.32-27.06-22.47-28.8-13.83-1.7-26.52 7.88-28.67 21.66 2.16-14.11-7.53-27.29-21.62-29.44-14.1-2.15-27.26 7.53-29.42 21.64-.03.21-.06.42-.08.63l-2.4 17.05-16.08 114.99c-5.7 40.67 13.05 80.88 47.85 102.63l-.18.26c12.53 7.47 26.4 12.41 40.84 14.53v-.33c40.69 5.11 80.57-14.22 101.8-49.34l60.05-99.34 8.91-14.73c7.43-12.16 3.59-28.05-8.56-35.49-.02-.01-.03-.02-.05-.02z" fill="#fff"/><path d="m3298.83 1917.22c-3.86 0-7.75-.21-11.64-.62-.69.15-1.42.17-2.14.07-15.29-2.24-29.78-7.39-43.05-15.32-.62-.37-1.17-.85-1.61-1.4-35.7-23.22-54.88-65.19-48.95-107.5l18.58-132.75c2.65-17.37 18.92-29.35 36.29-26.7 10.48 1.6 19 8.18 23.52 16.97 6.69-6.8 16.36-10.47 26.59-9.21 17.43 2.14 29.87 18.08 27.72 35.53l-13.83 101.04 52.94-87.05c9.08-15.04 28.71-19.88 43.76-10.78 9.08 5.5 14.45 14.84 15.27 24.7 1.56-.66 3.18-1.19 4.85-1.61 8.26-2.03 16.81-.71 24.08 3.7l.06.03s.02.01.02.02c14.99 9.29 19.66 28.84 10.55 43.77l-68.95 114.05c-20.05 33.16-55.95 53.06-94.06 53.06zm-12.91-12.88c.25 0 .51.01.75.04 38.28 4.8 75.93-13.44 95.89-46.47l68.97-114.07c5.69-9.33 2.75-21.53-6.55-27.22l3.1-5.17-3.12 5.16c-4.52-2.74-9.82-3.55-14.95-2.29-5.12 1.26-9.45 4.43-12.18 8.93-.01.02-.02.04-.03.05-1.72 2.85-5.42 3.77-8.27 2.05-2.63-1.58-3.62-4.84-2.42-7.58.1-.24.23-.48.37-.71 5.65-9.36 2.64-21.57-6.71-27.23s-21.55-2.65-27.2 6.71l-68.02 111.83c-1.48 2.45-4.48 3.51-7.17 2.55-2.69-.95-4.34-3.67-3.95-6.5l17.75-129.69c.64-5.17-.8-10.35-4.05-14.52s-7.93-6.82-13.18-7.47c-10.65-1.32-20.31 5.98-21.96 16.6-.52 3.29-3.6 5.54-6.88 5.03-3.29-.5-5.55-3.58-5.05-6.87 1.65-10.8-5.79-20.92-16.57-22.56-10.78-1.65-20.9 5.79-22.54 16.58l-2.48 17.61-16.08 115c-5.36 38.25 12.33 76.2 45.07 96.66.51.32.97.71 1.36 1.16 10.9 6.24 22.68 10.44 35.08 12.48.33-.06.68-.09 1.02-.09z" fill="#000"/><path d="m3361.16 1811.35c-1.07 0-2.14-.28-3.12-.87-2.85-1.73-3.76-5.44-2.04-8.29l52.54-86.91c1.73-2.85 5.43-3.76 8.28-2.04 2.85 1.73 3.77 5.44 2.04 8.29l-52.54 86.91c-1.13 1.88-3.12 2.91-5.16 2.91z" fill="#000"/><path d="m3154.39 2222.5c-.67 0-1.35-.11-2.02-.35-3.14-1.11-4.78-4.56-3.66-7.71l125.74-354.04c1.12-3.14 4.57-4.78 7.7-3.67 3.14 1.12 4.78 4.57 3.67 7.71l-125.74 354.05c-.88 2.47-3.21 4.01-5.69 4.01z" fill="#000"/><path d="m3253.32 1772.98c-.28 0-.56-.02-.84-.06-3.3-.46-5.6-3.51-5.14-6.81l14.05-100.59c.46-3.3 3.5-5.6 6.81-5.15 3.3.47 5.6 3.52 5.14 6.82l-14.05 100.59c-.43 3.02-3.01 5.2-5.97 5.2z" fill="#000"/><path d="m3264.87 1911.44c-.67 0-1.35-.11-2.02-.35-3.14-1.12-4.77-4.57-3.66-7.71l35.59-100.17c1.11-3.14 4.56-4.78 7.7-3.66 3.14 1.11 4.78 4.57 3.67 7.71l-35.59 100.16c-.88 2.48-3.21 4.02-5.69 4.02z" fill="#000"/><path d="m4072.48 2225.64h-3853.246c-4.043 0-7.134-3.4-7.134-7.85 0-4.44 3.091-7.85 7.134-7.85h3853.246c4.04 0 7.13 3.41 7.13 7.85 0 4.45-3.09 7.85-7.13 7.85z" fill="#000"/></svg>