<svg width="4096" height="2304" viewBox="0 0 4096 2304" fill="none" xmlns="http://www.w3.org/2000/svg">
<g clip-path="url(#clip0)">
<path d="M912.832 1177.38H830.227V2134.39H912.832V1177.38Z" fill="white"/>
<path d="M912.833 2140.8H830.227C828.524 2140.8 826.891 2140.12 825.687 2138.92C824.483 2137.72 823.807 2136.09 823.807 2134.39V1177.38C823.807 1175.68 824.483 1174.05 825.687 1172.85C826.891 1171.64 828.524 1170.97 830.227 1170.97H912.833C914.535 1170.97 916.168 1171.64 917.372 1172.85C918.576 1174.05 919.253 1175.68 919.253 1177.38V2134.39C919.253 2136.09 918.576 2137.72 917.372 2138.92C916.168 2140.12 914.535 2140.8 912.833 2140.8ZM836.647 2127.98H906.412V1183.79H836.647V2127.98Z" fill="black"/>
<path d="M946.643 1175.88H518.42V963.713C518.423 914.356 538.062 867.022 573.018 832.121C607.974 797.221 655.383 777.613 704.818 777.61H1102.01" fill="white"/>
<path d="M946.644 1182.29H518.42C516.717 1182.29 515.084 1181.62 513.88 1180.42C512.676 1179.21 512 1177.58 512 1175.88V963.713C512.057 912.673 532.39 863.739 568.538 827.648C604.686 791.557 653.697 771.257 704.818 771.2H1102.01C1103.71 771.2 1105.35 771.875 1106.55 773.077C1107.75 774.28 1108.43 775.91 1108.43 777.61C1108.43 779.31 1107.75 780.94 1106.55 782.143C1105.35 783.345 1103.71 784.02 1102.01 784.02H704.818C657.102 784.077 611.357 803.027 577.617 836.713C543.877 870.4 524.897 916.073 524.84 963.713V1169.47H946.644C948.346 1169.47 949.979 1170.15 951.183 1171.35C952.387 1172.55 953.064 1174.18 953.064 1175.88C953.064 1177.58 952.387 1179.21 951.183 1180.42C949.979 1181.62 948.346 1182.29 946.644 1182.29Z" fill="black"/>
<path d="M1288.2 1176.1V963.713C1288.23 939.292 1283.44 915.103 1274.1 892.533C1264.75 869.964 1251.04 849.457 1233.74 832.188C1216.45 814.92 1195.91 801.229 1173.3 791.9C1150.7 782.571 1126.47 777.787 1102.01 777.824C1052.58 777.826 1005.17 797.435 970.211 832.335C935.255 867.236 915.616 914.57 915.613 963.927V1176.1H1288.2Z" fill="white"/>
<path d="M1288.2 1182.51H915.614C913.911 1182.51 912.278 1181.83 911.074 1180.63C909.87 1179.43 909.193 1177.8 909.193 1176.1V963.927C909.203 925.836 920.528 888.604 941.734 856.94C962.941 825.275 993.076 800.602 1028.33 786.04C1063.58 771.478 1102.37 767.682 1139.78 775.131C1177.2 782.581 1211.56 800.942 1238.52 827.892C1256.41 845.697 1270.59 866.873 1280.22 890.191C1289.85 913.509 1294.74 938.504 1294.62 963.726V1176.1C1294.62 1177.8 1293.94 1179.43 1292.74 1180.63C1291.53 1181.83 1289.9 1182.51 1288.2 1182.51ZM922.034 1169.69H1281.78V963.713C1281.81 940.133 1277.19 916.778 1268.17 894.986C1259.15 873.194 1245.91 853.394 1229.21 836.72C1212.51 820.047 1192.67 806.828 1170.85 797.821C1149.02 788.814 1125.63 784.197 1102.01 784.234C1054.3 784.29 1008.55 803.24 974.811 836.927C941.07 870.614 922.09 916.287 922.034 963.927V1169.69Z" fill="black"/>
<path d="M1593.58 1182.29H915.826C914.124 1182.29 912.491 1181.62 911.287 1180.42C910.083 1179.21 909.406 1177.58 909.406 1175.88C909.406 1174.18 910.083 1172.55 911.287 1171.35C912.491 1170.15 914.124 1169.47 915.826 1169.47H1593.58C1595.28 1169.47 1596.92 1170.15 1598.12 1171.35C1599.32 1172.55 1600 1174.18 1600 1175.88C1600 1177.58 1599.32 1179.21 1598.12 1180.42C1596.92 1181.62 1595.28 1182.29 1593.58 1182.29Z" fill="black"/>
<path d="M2039.15 655.798L2396.22 359.181C2413.84 344.458 2434.61 333.984 2456.92 328.566C2479.23 323.148 2502.49 322.931 2524.9 327.933C2547.3 332.934 2568.26 343.02 2586.16 357.413C2604.05 371.805 2618.41 390.12 2628.11 410.944L2342.28 590.555L2039.15 655.798Z" fill="white"/>
<path d="M2276.99 448.346C2291.5 456.922 2308.01 461.505 2324.85 461.631C2341.69 461.757 2358.27 457.422 2372.9 449.065C2387.53 440.708 2399.69 428.626 2408.14 414.046C2416.6 399.467 2421.05 382.907 2421.05 366.048C2421.06 357.723 2419.98 349.433 2417.84 341.389C2410.03 349.213 2282.57 444.002 2276.99 448.346Z" fill="#B4BAEB"/>
<path d="M2039.15 657.944C2037.83 657.944 2036.54 657.536 2035.46 656.775C2034.37 656.015 2033.55 654.94 2033.11 653.696C2032.66 652.452 2032.6 651.1 2032.95 649.824C2033.3 648.548 2034.03 647.41 2035.05 646.566L2392.12 349.948C2410.5 334.6 2432.15 323.681 2455.42 318.035C2478.68 312.388 2502.93 312.164 2526.29 317.38C2549.66 322.596 2571.51 333.113 2590.17 348.119C2608.83 363.126 2623.8 382.221 2633.92 403.933C2634.59 405.354 2634.71 406.969 2634.27 408.475C2633.83 409.98 2632.85 411.271 2631.52 412.105L2345.71 591.715C2345.07 592.112 2344.37 592.396 2343.64 592.553L2040.5 657.796C2040.06 657.892 2039.6 657.942 2039.15 657.944ZM2492.32 326.459C2458.7 326.457 2426.15 338.267 2400.33 359.829L2063.41 639.716L2339.83 580.212L2619.78 404.293C2607.71 380.868 2589.43 361.217 2566.95 347.49C2544.47 333.762 2518.65 326.487 2492.32 326.459Z" fill="black"/>
<path d="M2417.63 848.687L2371.38 1389.2C2368.45 1426.85 2351.48 1462.02 2323.82 1487.72C2296.17 1513.41 2259.87 1527.74 2222.14 1527.86C2215.62 1527.85 2209.11 1527.43 2202.65 1526.58L1589.41 1446.42L1628.16 1148.95L2084.67 1208.53L2100.3 1012.64C2063.05 999.248 2030.66 975.006 2007.3 943.035L1966.4 780.538C1976.68 682.38 2056.18 623.657 2129.62 604.154C2221.7 579.722 2326.4 580.579 2384.86 520.355C2423.22 472.136 2476.07 437.566 2535.6 421.769L2697.11 993.419L2488.29 1235.75L2522.98 1764.04L2095.59 1792.12L2077.08 1510.16" fill="white"/>
<path d="M2106.32 1009.92C2095.25 1009.55 2084.49 1004.31 2075.27 998.477C2050.73 983.339 2029.58 963.302 2013.12 939.616C2003.78 943.671 1884.58 959.569 1878.21 961.94C1865.34 966.73 1799.04 1051.26 1668.67 966.441C1647.47 952.645 1632.72 929.044 1622.92 905.471C1597.59 986.49 1604.81 1074.21 1643.06 1149.98C1658.67 1150.04 2084.47 1211.72 2086.82 1208.53C2089.06 1205.49 2104.6 1033.5 2106.32 1009.92Z" fill="#0618BB"/>
<path d="M2077.43 1507.9C1897.21 1485.83 1638.86 1449.51 1610.71 1451.24C1609.84 1451.29 1608.97 1451.25 1608.12 1451.11C1608.08 1453.19 1608.04 1455.26 1608.04 1457.35C1608.05 1514.64 1623.18 1570.91 1651.9 1620.47C1680.62 1670.02 1721.91 1711.1 1771.6 1739.55C1821.28 1768 1877.59 1782.8 1934.83 1782.46C1992.06 1782.12 2048.19 1766.66 2097.54 1737.62C2095.53 1729.66 2078.39 1548.62 2077.43 1507.9Z" fill="#0618BB"/>
<path d="M2119.1 1791.24C2099.6 1876.18 2025.16 1972.98 1901.81 1991.86C1834.79 2002.15 1793.04 2069.23 1797.96 2137.39L2168.39 2137.6L2381.23 1937.21L2380.37 2137.6H2481.65L2482.05 1766.83C2454.31 1772.21 2150 1790.3 2119.1 1791.24Z" fill="#B4BAEB"/>
<path d="M3743.13 1655.26C3739.48 1663.37 3436.72 1891.75 3434.7 1891.06C3432.33 1913.24 3423.18 1934.13 3408.51 1950.91C3393.83 1967.68 3374.34 1979.51 3352.7 1984.79C3341.78 1987.36 3331.93 1989.72 3323.79 1991.65C3257.63 2006.87 3214.8 2069.02 3219.94 2137.17H3456.97C3514.54 2137.22 3570.56 2118.56 3616.62 2084.01C3662.68 2049.46 3696.3 2000.88 3712.42 1945.57L3746.25 1829.84L3864.02 1992.08L3945.6 1932.28L3743.13 1655.26Z" fill="#B4BAEB"/>
<path d="M2197.94 797.465C2250.68 797.465 2293.44 754.67 2293.44 701.879C2293.44 649.088 2250.68 606.293 2197.94 606.293C2145.2 606.293 2102.44 649.088 2102.44 701.879C2102.44 754.67 2145.2 797.465 2197.94 797.465Z" fill="#B4BAEB"/>
<path d="M2280.59 653.985C2272.53 674.357 2257.28 691.063 2237.74 700.942C2232.85 703.403 2227.75 705.418 2222.5 706.965C2201.26 713.092 2178.52 711.111 2158.66 701.406C2138.81 691.7 2123.26 674.962 2115.03 654.435C2112.23 659.29 2109.88 664.39 2108.01 669.673C2120.27 692.48 2140.74 709.762 2165.27 718.01C2189.8 726.257 2216.54 724.852 2240.08 714.08L2240.91 713.694C2260.88 704.289 2277.29 688.685 2287.7 669.202C2285.79 663.927 2283.41 658.834 2280.59 653.985Z" fill="black"/>
<path d="M2243.59 710.801C2243.03 712.028 2242.09 713.042 2240.91 713.694L2240.07 714.08C2239.34 714.379 2238.55 714.532 2237.76 714.53C2236.83 714.529 2235.91 714.324 2235.06 713.93C2230.71 711.911 2226.51 709.583 2222.5 706.965C2208.22 697.688 2196.49 684.998 2188.35 670.041C2180.21 655.084 2175.93 638.333 2175.88 621.302C2175.88 617.081 2176.14 612.865 2176.67 608.678C2181.04 607.679 2185.48 606.999 2189.95 606.642C2189.13 611.486 2188.72 616.39 2188.73 621.302C2188.78 637.807 2193.38 653.977 2202.03 668.03C2210.68 682.083 2223.04 693.472 2237.74 700.942C2238.64 701.392 2239.56 701.843 2240.48 702.271C2241.25 702.626 2241.93 703.129 2242.5 703.75C2243.07 704.371 2243.51 705.099 2243.8 705.891C2244.09 706.684 2244.22 707.525 2244.18 708.368C2244.15 709.21 2243.94 710.037 2243.59 710.801Z" fill="black"/>
<path d="M2602.92 684.487C2580.69 691.898 2561.95 707.208 2550.24 727.518C2547.43 732.364 2545.06 737.457 2543.18 742.735C2537.23 759.23 2535.93 777.046 2539.42 794.232C2542.91 811.418 2551.06 827.311 2562.97 840.171C2574.88 853.032 2590.1 862.365 2606.96 867.148C2623.81 871.931 2641.66 871.98 2658.54 867.29C2656.52 862.586 2606.36 697.612 2602.92 684.487Z" fill="#B4BAEB"/>
<path d="M2635.72 788.56C2635.3 786.94 2634.84 785.33 2634.35 783.729C2633.91 783.729 2633.47 783.755 2633.03 783.755C2615.2 783.739 2597.78 778.372 2583.02 768.347C2568.27 758.323 2556.85 744.101 2550.25 727.518C2547.44 732.364 2545.07 737.457 2543.19 742.735C2551.9 759.003 2564.86 772.603 2580.68 782.09C2596.5 791.577 2614.59 796.596 2633.03 796.614C2634.27 796.614 2635.5 796.591 2636.72 796.546C2636.19 793.913 2635.85 791.244 2635.72 788.56Z" fill="black"/>
<path d="M1622.38 1196.9C1601.05 1184.93 1576.28 1180.42 1554.72 1186.24C1493.91 1202.74 1424.1 1269.61 1343.38 1211.53C1308.95 1186.8 1258.45 1157.31 1233.15 1184.1C1179.83 1155.84 1143.45 1193.56 1178.93 1238.96C1213.84 1283.54 1325.39 1386.84 1452.8 1381.27C1540.58 1377.41 1596.47 1369.27 1601.4 1371.2" fill="white"/>
<path d="M1443.13 1387.91C1389.85 1387.91 1332.9 1369.5 1277.73 1334.34C1230.24 1304.08 1192.94 1267.28 1173.88 1242.93C1152.87 1216.05 1156.24 1193.5 1166.4 1181.36C1179.76 1165.37 1205.19 1163.56 1232.03 1176.35C1254.55 1157.53 1293.23 1167.59 1347.13 1206.3C1403.65 1246.98 1453.82 1223.4 1502.34 1200.59C1519.95 1192.32 1536.58 1184.5 1553.04 1180.03C1575.52 1173.95 1601.95 1178.06 1625.52 1191.29C1626.26 1191.7 1626.9 1192.26 1627.43 1192.92C1627.95 1193.58 1628.33 1194.34 1628.56 1195.16C1628.79 1195.97 1628.86 1196.82 1628.76 1197.66C1628.66 1198.5 1628.4 1199.31 1627.98 1200.04C1627.57 1200.78 1627.02 1201.43 1626.35 1201.95C1625.69 1202.47 1624.93 1202.86 1624.12 1203.09C1623.31 1203.32 1622.46 1203.39 1621.62 1203.29C1620.78 1203.19 1619.97 1202.92 1619.24 1202.51C1598.56 1190.9 1575.66 1187.24 1556.39 1192.44C1541.02 1196.61 1524.89 1204.19 1507.8 1212.22C1458.34 1235.47 1402.28 1261.82 1339.63 1216.74C1289.56 1180.78 1254.35 1171.02 1237.82 1188.52C1236.85 1189.54 1235.58 1190.22 1234.2 1190.45C1232.81 1190.68 1231.39 1190.44 1230.14 1189.79C1204.28 1176.07 1184.44 1179.82 1176.25 1189.61C1167.41 1200.18 1170.37 1217.57 1184 1235C1215.91 1275.76 1326.44 1380.36 1452.52 1374.85C1502.13 1372.66 1541.34 1369.13 1567.29 1366.79C1595.23 1364.27 1600.46 1363.92 1603.74 1365.21C1605.28 1365.81 1606.53 1366.98 1607.23 1368.48C1607.93 1369.99 1608.03 1371.7 1607.49 1373.27C1606.96 1374.84 1605.85 1376.14 1604.38 1376.9C1602.91 1377.67 1601.2 1377.84 1599.62 1377.37C1596.7 1377.07 1583.58 1378.23 1568.44 1379.6C1542.38 1381.96 1502.99 1385.5 1453.09 1387.69C1449.78 1387.84 1446.46 1387.91 1443.13 1387.91ZM1599.06 1377.19H1599.07H1599.06Z" fill="black"/>
<path d="M1444.61 1357.08C1403 1357.08 1373.93 1347.54 1368.75 1319.42C1367.01 1309.97 1368.51 1301.75 1373.22 1295.02C1385.31 1277.69 1416.7 1272.35 1460.15 1264.95C1487.56 1260.28 1518.62 1254.99 1552.14 1245.63C1552.96 1245.39 1553.81 1245.32 1554.66 1245.41C1555.5 1245.51 1556.32 1245.77 1557.06 1246.18C1557.8 1246.59 1558.46 1247.15 1558.98 1247.82C1559.51 1248.49 1559.9 1249.25 1560.13 1250.07C1560.35 1250.89 1560.42 1251.75 1560.31 1252.59C1560.21 1253.44 1559.94 1254.25 1559.52 1254.99C1559.09 1255.73 1558.53 1256.38 1557.86 1256.89C1557.18 1257.41 1556.41 1257.79 1555.59 1258.01C1521.43 1267.55 1490.02 1272.9 1462.3 1277.62C1423.46 1284.24 1392.77 1289.47 1383.75 1302.38C1381.02 1306.3 1380.27 1310.98 1381.4 1317.09C1388.87 1357.68 1482.6 1344.56 1569.88 1329.07C1571.56 1328.77 1573.29 1329.16 1574.68 1330.13C1576.08 1331.11 1577.03 1332.6 1577.33 1334.28C1577.63 1335.96 1577.25 1337.69 1576.27 1339.09C1575.29 1340.49 1573.8 1341.44 1572.12 1341.74C1525.19 1350.06 1480.28 1357.08 1444.61 1357.08Z" fill="black"/>
<path d="M2149.55 1010.07C2134.26 1010.05 2119.2 1013.73 2105.63 1020.79C2105.41 1049.8 2099.59 1078.27 2095.17 1106.85C2092.82 1122.06 2091.3 1137.53 2089.87 1152.87C2089.1 1161.13 2087.62 1169.11 2086.15 1177.11C2097.71 1187.39 2111.6 1194.71 2126.61 1198.43C2141.63 1202.16 2157.32 1202.17 2172.34 1198.48C2187.36 1194.79 2201.26 1187.51 2212.85 1177.25C2224.43 1166.99 2233.36 1154.07 2238.85 1139.6C2244.34 1125.13 2246.24 1109.54 2244.38 1094.17C2242.52 1078.8 2236.96 1064.11 2228.18 1051.37C2219.39 1038.62 2207.65 1028.21 2193.95 1021.01C2180.26 1013.82 2165.02 1010.06 2149.55 1010.07V1010.07Z" fill="#B4BAEB"/>
<path d="M2232.39 1058.08C2224.32 1078.32 2209.18 1094.94 2189.78 1104.83C2184.89 1107.32 2179.79 1109.34 2174.53 1110.87C2161.47 1114.69 2147.71 1115.47 2134.31 1113.13C2120.91 1110.79 2108.22 1105.41 2097.22 1097.39C2097.25 1097.67 2097.29 1097.94 2097.3 1098.23C2097.24 1102.93 2096.94 1107.63 2096.39 1112.3C2108.23 1119.56 2121.43 1124.32 2135.17 1126.28C2148.92 1128.25 2162.92 1127.38 2176.31 1123.73C2189.71 1120.08 2202.22 1113.73 2213.07 1105.06C2223.93 1096.4 2232.9 1085.6 2239.43 1073.34C2237.54 1068.05 2235.19 1062.95 2232.39 1058.08Z" fill="black"/>
<path d="M2195.41 1114.58C2195.05 1115.34 2194.55 1116.03 2193.93 1116.61C2193.31 1117.18 2192.59 1117.62 2191.79 1117.91C2191 1118.2 2190.16 1118.34 2189.32 1118.3C2188.48 1118.26 2187.65 1118.06 2186.88 1117.71C2182.61 1115.73 2178.48 1113.44 2174.53 1110.87C2160.2 1101.6 2148.42 1088.9 2140.24 1073.92C2132.06 1058.94 2127.75 1042.15 2127.7 1025.08C2127.7 1020.84 2127.96 1016.61 2128.49 1012.41C2132.86 1011.42 2137.3 1010.75 2141.77 1010.4C2140.95 1015.25 2140.55 1020.16 2140.55 1025.08C2140.6 1041.62 2145.23 1057.83 2153.91 1071.91C2162.6 1085.98 2175.02 1097.38 2189.78 1104.83C2190.61 1105.23 2191.45 1105.66 2192.3 1106.05C2193.07 1106.4 2193.75 1106.91 2194.32 1107.53C2194.89 1108.15 2195.33 1108.88 2195.62 1109.67C2195.91 1110.46 2196.04 1111.3 2196 1112.14C2195.97 1112.99 2195.76 1113.81 2195.41 1114.58Z" fill="black"/>
<path d="M2384.3 1256.32C2364.16 1259.65 2345.61 1269.35 2331.38 1284C2317.15 1298.66 2307.99 1317.49 2305.24 1337.73C2302.48 1357.98 2306.28 1378.57 2316.08 1396.5C2325.88 1414.43 2341.15 1428.74 2359.67 1437.34C2375.16 1416.71 2382.4 1273.59 2384.3 1256.32Z" fill="#B4BAEB"/>
<path d="M2316.94 1303.18C2314.16 1308.04 2311.81 1313.14 2309.92 1318.42C2316.63 1330.85 2325.84 1341.75 2336.97 1350.44C2348.1 1359.14 2360.91 1365.43 2374.58 1368.93C2375.08 1364.69 2375.57 1360.36 2376.02 1356.03C2362.78 1352.35 2350.56 1345.67 2340.32 1336.5C2330.08 1327.34 2322.08 1315.94 2316.94 1303.18Z" fill="black"/>
<path d="M1866.13 1484.64C1894.55 1491 1923.54 1494.54 1952.65 1495.2C1962.65 1482.1 1969.09 1466.63 1971.35 1450.3C1973.61 1433.97 1971.61 1417.33 1965.55 1402C1959.48 1386.67 1949.56 1373.17 1936.75 1362.82C1923.93 1352.46 1908.66 1345.6 1892.41 1342.9C1876.16 1340.19 1859.49 1341.74 1844.02 1347.39C1828.55 1353.04 1814.8 1362.61 1804.11 1375.15C1793.41 1387.69 1786.15 1402.78 1783.01 1418.97C1779.87 1435.15 1780.96 1451.87 1786.19 1467.51C1812.94 1462.99 1840.51 1478.95 1866.13 1484.64Z" fill="#B4BAEB"/>
<path d="M1959.4 1389.31C1951.35 1409.64 1936.15 1426.32 1916.66 1436.21C1911.79 1438.68 1906.69 1440.7 1901.44 1442.23C1880.2 1448.42 1857.41 1446.48 1837.52 1436.78C1817.63 1427.08 1802.06 1410.32 1793.84 1389.76C1791.04 1394.62 1788.69 1399.72 1786.82 1405C1799.05 1427.72 1819.42 1444.96 1843.84 1453.25C1868.26 1461.53 1894.91 1460.24 1918.42 1449.64C1918.43 1449.64 1918.43 1449.64 1918.43 1449.64C1918.44 1449.63 1918.44 1449.63 1918.44 1449.62C1919.13 1449.3 1919.81 1448.98 1920.5 1448.68L1920.52 1448.66C1940.13 1439.2 1956.24 1423.75 1966.51 1404.53C1964.6 1399.25 1962.22 1394.16 1959.4 1389.31Z" fill="black"/>
<path d="M1922.62 1446.13C1922.16 1447.14 1921.43 1448.02 1920.52 1448.66L1920.5 1448.68C1919.88 1449.12 1919.18 1449.44 1918.44 1449.62C1918.44 1449.63 1918.44 1449.63 1918.44 1449.64C1918.43 1449.64 1918.43 1449.64 1918.42 1449.64C1917.89 1449.79 1917.34 1449.86 1916.79 1449.86C1915.86 1449.86 1914.94 1449.65 1914.1 1449.26C1909.71 1447.23 1905.48 1444.88 1901.44 1442.23C1887.2 1432.95 1875.48 1420.26 1867.36 1405.32C1859.24 1390.37 1854.96 1373.64 1854.91 1356.63C1854.91 1352.39 1855.17 1348.16 1855.7 1343.96C1860.08 1342.97 1864.51 1342.3 1868.98 1341.95C1868.16 1346.8 1867.76 1351.71 1867.76 1356.63C1867.81 1373.11 1872.4 1389.26 1881.03 1403.3C1889.66 1417.34 1901.99 1428.73 1916.66 1436.21C1917.61 1436.7 1918.55 1437.15 1919.51 1437.6C1920.28 1437.95 1920.96 1438.46 1921.53 1439.08C1922.1 1439.7 1922.55 1440.43 1922.83 1441.22C1923.12 1442.01 1923.25 1442.85 1923.21 1443.7C1923.18 1444.54 1922.97 1445.36 1922.62 1446.13Z" fill="black"/>
<path d="M1627.71 1199.25L1621.33 1198.51L1627.11 1148.58C1627.16 1148.15 1627.29 1147.75 1627.5 1147.37C1627.71 1147 1627.99 1146.68 1628.32 1146.41C1628.66 1146.15 1629.04 1145.96 1629.45 1145.85C1629.86 1145.73 1630.29 1145.7 1630.71 1145.76L1642.49 1147.26L1641.68 1153.64L1633.11 1152.55L1627.71 1199.25Z" fill="black"/>
<path d="M1610.61 1452.18L1591.13 1449.61C1590.29 1449.5 1589.52 1449.05 1589 1448.38C1588.48 1447.7 1588.25 1446.85 1588.37 1446L1598.22 1370.78L1604.59 1371.61L1595.15 1443.66L1611.46 1445.8L1610.61 1452.18Z" fill="black"/>
<path d="M2490.42 1242.18C2488.85 1242.17 2487.33 1241.6 2486.16 1240.55C2484.98 1239.5 2484.23 1238.06 2484.05 1236.49L2477.2 1177.99C2477.1 1177.15 2477.16 1176.29 2477.39 1175.48C2477.62 1174.67 2478 1173.9 2478.53 1173.24C2479.05 1172.57 2479.7 1172.02 2480.44 1171.61C2481.17 1171.19 2481.99 1170.93 2482.82 1170.83C2483.66 1170.73 2484.51 1170.8 2485.33 1171.03C2486.14 1171.26 2486.9 1171.65 2487.56 1172.18C2488.23 1172.7 2488.78 1173.35 2489.19 1174.09C2489.6 1174.83 2489.86 1175.65 2489.96 1176.49L2496.81 1234.99C2496.91 1235.9 2496.83 1236.81 2496.55 1237.68C2496.28 1238.54 2495.83 1239.34 2495.23 1240.02C2494.62 1240.7 2493.88 1241.24 2493.05 1241.61C2492.23 1241.98 2491.33 1242.18 2490.42 1242.17V1242.18Z" fill="black"/>
<path d="M1351.95 1270.04C1351.24 1270.04 1350.54 1269.92 1349.87 1269.69C1306.76 1254.99 1273.21 1225.94 1251 1206.72C1244.27 1200.55 1237.16 1194.81 1229.71 1189.53C1228.31 1188.6 1227.32 1187.16 1226.97 1185.51C1226.62 1183.87 1226.92 1182.15 1227.83 1180.72C1228.73 1179.3 1230.15 1178.29 1231.79 1177.91C1233.43 1177.52 1235.15 1177.8 1236.59 1178.68C1244.59 1184.27 1252.22 1190.39 1259.41 1196.99C1282.14 1216.67 1313.27 1243.63 1354.02 1257.52C1355.46 1258.01 1356.68 1259 1357.47 1260.31C1358.25 1261.61 1358.54 1263.16 1358.29 1264.66C1358.04 1266.17 1357.27 1267.53 1356.11 1268.52C1354.94 1269.5 1353.47 1270.04 1351.95 1270.04Z" fill="black"/>
<path d="M2097.72 1798.55C2096.1 1798.55 2094.53 1797.93 2093.34 1796.81C2092.15 1795.7 2091.43 1794.17 2091.32 1792.55L2073.16 1515.86L1590.71 1452.8C1589.02 1452.58 1587.49 1451.69 1586.45 1450.34C1585.41 1448.99 1584.95 1447.28 1585.17 1445.59L1623.93 1148.12C1624.15 1146.43 1625.03 1144.89 1626.38 1143.85C1627.73 1142.81 1629.44 1142.35 1631.13 1142.57L2080.94 1201.28L2095.65 1016.93C2059.05 1002.9 2027.3 978.542 2004.24 946.82C2003.75 946.156 2003.4 945.405 2003.2 944.608L1962.31 782.111C1962.12 781.38 1962.07 780.622 1962.15 779.872C1973.07 675.608 2059.45 616.702 2130.11 597.939C2156.54 590.924 2184.14 585.95 2210.84 581.136C2278.16 569.001 2341.75 557.538 2382.16 516.093C2421.31 466.858 2475.29 431.594 2536.07 415.554C2537.7 415.119 2539.44 415.343 2540.9 416.178C2542.37 417.013 2543.45 418.391 2543.91 420.016L2705.43 991.664C2705.72 992.687 2705.75 993.766 2705.52 994.804C2705.29 995.841 2704.8 996.806 2704.11 997.611L2497.01 1237.96L2531.53 1763.62C2531.58 1764.47 2531.47 1765.31 2531.2 1766.11C2530.93 1766.91 2530.5 1767.65 2529.94 1768.29C2529.39 1768.92 2528.71 1769.44 2527.95 1769.81C2527.2 1770.19 2526.37 1770.41 2525.53 1770.46L2098.14 1798.54C2098.01 1798.54 2097.87 1798.55 2097.72 1798.55ZM2086.14 1517.55L2103.72 1785.28L2518.28 1758.05L2484.02 1236.17C2483.92 1234.48 2484.47 1232.83 2485.57 1231.55L2692.13 991.833L2533.32 429.675C2477.52 445.747 2428.13 478.848 2392.04 524.361C2391.91 524.524 2391.77 524.682 2391.62 524.835C2348.34 569.413 2282.67 581.258 2213.14 593.792C2186.7 598.56 2159.35 603.49 2133.43 610.367C2066.97 628.014 1985.81 683.021 1975.07 780.086L2015.37 940.253C2037.9 970.754 2068.98 993.854 2104.67 1006.61C2105.99 1007.1 2107.11 1008 2107.86 1009.18C2108.61 1010.36 2108.96 1011.76 2108.85 1013.16L2093.22 1209.04C2093.15 1209.91 2092.9 1210.76 2092.5 1211.53C2092.09 1212.3 2091.53 1212.98 2090.86 1213.53C2090.18 1214.07 2089.4 1214.48 2088.56 1214.72C2087.73 1214.95 2086.85 1215.02 2085.99 1214.9L1635.84 1156.15L1598.75 1440.88L2079.92 1503.77C2080.01 1503.77 2080.11 1503.79 2080.2 1503.81L2205.62 1520.2C2211.81 1521.02 2218.04 1521.43 2224.28 1521.43C2257.13 1521.45 2288.98 1510.08 2314.41 1489.25C2329.54 1476.94 2342.02 1461.68 2351.08 1444.4C2360.15 1427.11 2365.6 1408.16 2367.11 1388.7L2413.36 848.139C2413.44 847.297 2413.67 846.478 2414.06 845.729C2414.45 844.979 2414.98 844.313 2415.63 843.769C2416.27 843.225 2417.02 842.813 2417.82 842.558C2418.63 842.303 2419.47 842.208 2420.31 842.28C2421.15 842.352 2421.97 842.589 2422.72 842.978C2423.47 843.366 2424.14 843.899 2424.68 844.545C2425.22 845.191 2425.63 845.937 2425.89 846.742C2426.14 847.547 2426.24 848.395 2426.17 849.236L2379.92 1389.75C2378.26 1410.93 2372.32 1431.56 2362.45 1450.38C2352.59 1469.2 2339 1485.81 2322.52 1499.21C2294.81 1521.91 2260.09 1534.31 2224.28 1534.28C2217.48 1534.28 2210.7 1533.83 2203.97 1532.94L2086.14 1517.55Z" fill="black"/>
<path d="M3773.23 1632.02L2895.71 524.856C2863.28 479.599 2818.44 444.723 2766.61 424.449C2714.78 404.175 2658.2 399.373 2603.7 410.624L2537.75 421.769L2684.85 975.783L3434.28 1893.71L3773.23 1632.02Z" fill="white"/>
<path d="M3434.28 1900.13C3433.33 1900.14 3432.39 1899.93 3431.53 1899.52C3430.66 1899.11 3429.9 1898.52 3429.3 1897.78L2679.88 979.85C2679.3 979.141 2678.88 978.317 2678.64 977.433L2531.54 423.419C2531.31 422.555 2531.27 421.652 2531.4 420.769C2531.54 419.885 2531.86 419.041 2532.35 418.289C2532.83 417.537 2533.47 416.894 2534.21 416.402C2534.96 415.909 2535.8 415.578 2536.68 415.429L2602.52 404.302C2658.19 392.87 2715.97 397.802 2768.91 418.506C2821.84 439.209 2867.66 474.798 2900.84 520.981L3778.27 1628.02C3778.79 1628.68 3779.19 1629.45 3779.42 1630.27C3779.65 1631.09 3779.71 1631.95 3779.61 1632.79C3779.51 1633.64 3779.24 1634.45 3778.81 1635.19C3778.39 1635.93 3777.83 1636.58 3777.15 1637.1L3438.2 1898.79C3437.08 1899.66 3435.7 1900.13 3434.28 1900.13ZM2690.7 972.778L3435.3 1884.79L3764.15 1630.91L2890.68 528.851L2890.49 528.602C2858.76 484.387 2814.91 450.312 2764.25 430.494C2713.59 410.675 2658.28 405.959 2605 416.917L2604.78 416.959L2545.78 426.93L2690.7 972.778Z" fill="black"/>
<path d="M1968.55 780.538L1993.45 776.038C2004.3 774.335 2015.39 774.789 2026.06 777.373C2036.74 779.957 2046.81 784.621 2055.69 791.099C2064.56 797.577 2072.08 805.742 2077.81 815.127C2083.53 824.512 2087.35 834.934 2089.05 845.798C2090.76 856.662 2090.3 867.755 2087.72 878.444C2085.14 889.132 2080.48 899.207 2074.01 908.093C2067.53 916.979 2059.38 924.502 2050 930.232C2040.62 935.963 2030.21 939.789 2019.36 941.492L1994.52 945.349L1879.26 963.416C1859.99 980.134 1837.05 992.066 1812.3 998.244C1787.56 1004.42 1761.71 1004.67 1736.85 998.97C1711.99 993.27 1688.83 981.781 1669.24 965.437C1649.65 949.094 1634.19 928.355 1624.11 904.907L1609.49 780.386C1609.31 778.027 1609.18 775.651 1609.1 773.258C1608.88 766.322 1609.1 759.379 1609.74 752.469L1669.94 686.999L1759.87 757.724L1931.17 725.576L1968.55 780.538Z" fill="white"/>
<path d="M1773.04 1009.49C1740.07 1009.59 1707.8 999.967 1680.27 981.82C1652.73 963.673 1631.15 937.808 1618.21 907.456C1617.97 906.885 1617.81 906.281 1617.73 905.664L1603.11 781.121C1603.11 781.033 1603.09 780.943 1603.09 780.855C1602.9 778.438 1602.77 775.952 1602.68 773.468C1602.45 766.256 1602.67 759.038 1603.35 751.854C1603.48 750.453 1604.07 749.135 1605.02 748.101L1665.23 682.644C1666.32 681.453 1667.82 680.719 1669.44 680.588C1671.05 680.458 1672.65 680.941 1673.92 681.941L1761.56 750.866L1930 719.256C1931.22 719.021 1932.49 719.152 1933.65 719.632C1934.8 720.112 1935.79 720.92 1936.49 721.956L1971.52 773.468L1992.31 769.711C1992.4 769.696 1992.49 769.681 1992.58 769.67C2004.27 767.845 2016.2 768.343 2027.7 771.134C2039.2 773.925 2050.03 778.956 2059.59 785.938C2069.14 792.921 2077.23 801.718 2083.38 811.829C2089.54 821.939 2093.65 833.165 2095.47 844.864C2097.29 856.563 2096.8 868.507 2094.01 880.014C2091.22 891.522 2086.19 902.366 2079.22 911.929C2072.24 921.492 2063.45 929.586 2053.35 935.749C2043.25 941.912 2032.04 946.024 2020.35 947.848L1995.51 951.706L1882.06 969.494C1852.9 994.221 1816.22 1008.31 1778.02 1009.44C1776.36 1009.48 1774.69 1009.49 1773.04 1009.49ZM1630.38 903.221C1640.16 925.609 1655.07 945.381 1673.89 960.942C1692.71 976.503 1714.92 987.416 1738.74 992.802C1762.55 998.187 1787.29 997.893 1810.97 991.944C1834.65 985.995 1856.6 974.557 1875.05 958.554C1875.96 957.762 1877.07 957.242 1878.26 957.053L2018.37 935.129C2038.6 931.945 2056.73 920.851 2068.79 904.285C2080.85 887.72 2085.84 867.039 2082.67 846.79C2079.5 826.541 2068.43 808.381 2051.88 796.302C2035.34 784.224 2014.68 779.216 1994.45 782.379L1969.69 786.854C1968.47 787.075 1967.21 786.937 1966.06 786.456C1964.92 785.976 1963.94 785.174 1963.24 784.147L1928.22 732.659L1761.05 764.031C1760.16 764.202 1759.23 764.177 1758.34 763.96C1757.45 763.742 1756.62 763.336 1755.9 762.769L1670.65 695.73L1615.95 755.208C1615.48 761.145 1615.33 767.105 1615.52 773.059C1615.6 775.298 1615.73 777.559 1615.89 779.769L1630.38 903.221Z" fill="black"/>
<path d="M1876.76 836.042C1875.54 836.042 1874.34 835.694 1873.31 835.039C1872.28 834.384 1871.46 833.449 1870.94 832.344C1870.43 831.238 1870.23 830.008 1870.39 828.797C1870.54 827.586 1871.04 826.444 1871.82 825.504L1907.58 782.426C1908.12 781.777 1908.78 781.24 1909.52 780.846C1910.27 780.453 1911.09 780.21 1911.93 780.132C1912.77 780.054 1913.61 780.143 1914.42 780.393C1915.23 780.643 1915.97 781.049 1916.62 781.588C1917.27 782.128 1917.81 782.79 1918.2 783.537C1918.6 784.284 1918.84 785.101 1918.92 785.942C1918.99 786.783 1918.9 787.631 1918.66 788.438C1918.41 789.244 1918 789.994 1917.46 790.643L1891.85 821.505L1919.32 818.505C1921.01 818.321 1922.71 818.817 1924.04 819.886C1925.37 820.954 1926.22 822.507 1926.4 824.202C1926.58 825.898 1926.09 827.597 1925.02 828.926C1923.95 830.255 1922.4 831.105 1920.71 831.289L1877.45 836.004C1877.22 836.03 1876.99 836.042 1876.76 836.042Z" fill="black"/>
<path d="M1653.35 866.553C1647.64 880.101 1637.11 891.044 1623.79 897.257C1610.48 903.47 1595.34 904.511 1581.3 900.178C1567.26 895.845 1555.33 886.446 1547.83 873.806C1540.32 861.166 1537.78 846.186 1540.69 831.773C1543.59 817.361 1551.75 804.544 1563.56 795.809C1575.38 787.075 1590.02 783.046 1604.64 784.505C1619.25 785.964 1632.81 792.806 1642.67 803.704C1652.53 814.602 1658 828.778 1658 843.482L1653.35 866.553Z" fill="white"/>
<path d="M1598.79 909.192C1585.81 909.192 1573.11 905.339 1562.32 898.12C1551.52 890.901 1543.11 880.64 1538.14 868.634C1533.17 856.629 1531.87 843.419 1534.41 830.674C1536.94 817.929 1543.19 806.222 1552.37 797.033C1561.55 787.844 1573.25 781.586 1585.98 779.051C1598.71 776.516 1611.91 777.817 1623.9 782.79C1635.9 787.762 1646.15 796.183 1653.36 806.988C1660.58 817.793 1664.43 830.495 1664.43 843.49C1664.43 843.918 1664.38 844.344 1664.3 844.763L1659.64 867.828C1659.56 868.251 1659.43 868.663 1659.26 869.06C1654.25 880.967 1645.84 891.127 1635.08 898.266C1624.32 905.405 1611.7 909.206 1598.79 909.192ZM1598.79 790.65C1589.27 790.651 1579.93 793.228 1571.76 798.107C1563.58 802.986 1556.88 809.987 1552.35 818.367C1547.83 826.748 1545.65 836.197 1546.05 845.715C1546.45 855.233 1549.41 864.466 1554.63 872.436C1559.84 880.406 1567.11 886.818 1575.66 890.992C1584.22 895.166 1593.74 896.948 1603.23 896.148C1612.71 895.349 1621.8 891.998 1629.54 886.451C1637.28 880.903 1643.37 873.365 1647.18 864.635L1651.57 842.864C1651.39 828.964 1645.76 815.692 1635.88 805.919C1626 796.146 1612.68 790.658 1598.79 790.641V790.65Z" fill="black"/>
<path d="M1720.92 899.232C1753.62 899.232 1780.13 872.696 1780.13 839.962C1780.13 807.229 1753.62 780.693 1720.92 780.693C1688.21 780.693 1661.7 807.229 1661.7 839.962C1661.7 872.696 1688.21 899.232 1720.92 899.232Z" fill="white"/>
<path d="M1720.92 905.662C1707.94 905.662 1695.24 901.809 1684.45 894.59C1673.65 887.37 1665.24 877.109 1660.27 865.103C1655.3 853.098 1654 839.887 1656.54 827.142C1659.07 814.396 1665.32 802.689 1674.5 793.501C1683.68 784.312 1695.38 778.055 1708.11 775.521C1720.85 772.986 1734.05 774.288 1746.04 779.262C1758.03 784.235 1768.29 792.658 1775.5 803.463C1782.71 814.268 1786.56 826.972 1786.56 839.967C1786.54 857.385 1779.61 874.083 1767.31 886.399C1755 898.715 1738.32 905.643 1720.92 905.662ZM1720.92 787.12C1710.48 787.12 1700.27 790.218 1691.59 796.024C1682.91 801.83 1676.14 810.083 1672.14 819.738C1668.15 829.394 1667.1 840.018 1669.14 850.269C1671.17 860.519 1676.2 869.935 1683.58 877.325C1690.97 884.716 1700.37 889.749 1710.61 891.789C1720.85 893.828 1731.47 892.783 1741.12 888.784C1750.76 884.785 1759.01 878.013 1764.81 869.324C1770.61 860.634 1773.71 850.418 1773.71 839.967C1773.7 825.957 1768.13 812.524 1758.23 802.617C1748.34 792.71 1734.92 787.137 1720.92 787.12Z" fill="black"/>
<path d="M1670.13 962.276C1668.42 962.301 1666.78 961.648 1665.56 960.46C1664.33 959.272 1663.63 957.646 1663.61 955.941C1663.58 954.236 1664.24 952.59 1665.42 951.367C1666.61 950.144 1668.23 949.442 1669.94 949.417L1705.7 948.346C1707.4 948.294 1709.05 948.923 1710.29 950.092C1711.54 951.262 1712.26 952.877 1712.31 954.582C1712.36 956.287 1711.74 957.943 1710.57 959.185C1709.4 960.427 1707.78 961.154 1706.08 961.205L1670.32 962.276H1670.13Z" fill="black"/>
<path d="M1879.33 969.992C1878.02 969.992 1876.75 969.593 1875.67 968.848C1874.6 968.102 1873.77 967.046 1873.32 965.82C1872.86 964.594 1872.78 963.257 1873.1 961.988C1873.42 960.718 1874.12 959.577 1875.11 958.716C1894.53 941.726 1909.51 920.235 1918.72 896.118C1919 895.294 1919.43 894.535 1920.01 893.885C1920.58 893.235 1921.28 892.708 1922.07 892.336C1922.85 891.965 1923.7 891.755 1924.57 891.722C1925.43 891.688 1926.3 891.83 1927.11 892.14C1927.92 892.449 1928.66 892.92 1929.28 893.523C1929.91 894.126 1930.4 894.85 1930.74 895.65C1931.07 896.45 1931.25 897.309 1931.24 898.177C1931.24 899.045 1931.06 899.904 1930.71 900.7C1920.75 926.785 1904.55 950.03 1883.54 968.406C1882.38 969.427 1880.88 969.99 1879.33 969.992Z" fill="black"/>
<path d="M1572.82 871.191C1579.44 871.191 1584.81 865.817 1584.81 859.189C1584.81 852.561 1579.44 847.187 1572.82 847.187C1566.19 847.187 1560.82 852.561 1560.82 859.189C1560.82 865.817 1566.19 871.191 1572.82 871.191Z" fill="black"/>
<path d="M1642.08 918.127C1641.11 918.127 1640.14 917.905 1639.27 917.478C1638.39 917.051 1637.63 916.431 1637.02 915.664C1636.42 914.896 1636 914.003 1635.8 913.049C1635.6 912.096 1635.61 911.109 1635.84 910.163L1657.61 821.649C1657.8 820.821 1658.16 820.04 1658.65 819.351C1659.15 818.662 1659.78 818.078 1660.51 817.634C1661.23 817.19 1662.04 816.894 1662.87 816.764C1663.71 816.633 1664.57 816.67 1665.4 816.873C1666.22 817.076 1667 817.441 1667.68 817.947C1668.36 818.452 1668.94 819.088 1669.37 819.818C1669.81 820.548 1670.1 821.357 1670.22 822.198C1670.34 823.04 1670.29 823.897 1670.08 824.72L1650.34 905.012L1676.79 904.2C1678.49 904.148 1680.14 904.775 1681.39 905.944C1682.63 907.113 1683.35 908.727 1683.41 910.433C1683.46 912.138 1682.83 913.794 1681.66 915.037C1680.5 916.279 1678.88 917.007 1677.18 917.059L1642.28 918.131L1642.08 918.127Z" fill="black"/>
<path d="M1700 867.119C1706.62 867.119 1711.99 861.745 1711.99 855.117C1711.99 848.488 1706.62 843.115 1700 843.115C1693.38 843.115 1688.01 848.488 1688.01 855.117C1688.01 861.745 1693.38 867.119 1700 867.119Z" fill="black"/>
<path d="M1963.28 779.156C1965.74 747.698 1980.41 712.717 1997.54 686.999C1972.6 680.859 1959.68 677.875 1932.85 677.875C1927.33 677.875 1921.85 678.03 1916.4 678.304C1885.29 629.561 1828.81 598.267 1766.32 600.078C1724.07 601.123 1683.8 618.173 1653.63 647.785C1625.29 675.618 1607.58 712.5 1603.56 752.036C1603.44 753.305 1603.69 754.583 1604.29 755.707C1604.9 756.831 1605.82 757.75 1606.95 758.348C1608.07 758.945 1609.35 759.194 1610.62 759.062C1611.89 758.931 1613.09 758.424 1614.06 757.608L1671.17 710.045L1675.24 713.474L1738.4 765.553C1764.83 787.331 1798.01 799.211 1832.24 799.152H1832.47C1832.49 799.088 1832.47 799.03 1832.5 798.965C1833.58 793.884 1845.11 752.458 1887.04 748.53C1937.21 738.195 1953.61 772.921 1961.73 780.534C1965.98 784.512 1963.02 782.707 1963.28 779.156Z" fill="#0618BB"/>
<path d="M1957.69 843.803C1956.6 843.803 1955.53 843.523 1954.57 842.992C1953.62 842.46 1952.81 841.693 1952.24 840.765C1951.66 839.836 1951.33 838.775 1951.28 837.683C1951.23 836.591 1951.45 835.503 1951.94 834.523C1955.89 826.536 1957.94 817.738 1957.91 808.824C1957.91 793.42 1951.8 778.647 1940.91 767.755C1930.03 756.863 1915.27 750.744 1899.88 750.744C1884.49 750.744 1869.73 756.863 1858.85 767.755C1847.97 778.647 1841.86 793.42 1841.86 808.824C1841.86 810.529 1841.18 812.165 1839.97 813.37C1838.77 814.576 1837.14 815.254 1835.43 815.254C1833.73 815.254 1832.09 814.576 1830.89 813.37C1829.68 812.165 1829.01 810.529 1829.01 808.824C1829.01 790.01 1836.47 771.966 1849.77 758.662C1863.06 745.359 1881.09 737.885 1899.88 737.885C1918.68 737.885 1936.71 745.359 1950 758.662C1963.29 771.966 1970.76 790.01 1970.76 808.824C1970.79 819.714 1968.29 830.462 1963.45 840.22C1962.92 841.296 1962.1 842.201 1961.08 842.835C1960.07 843.468 1958.89 843.803 1957.69 843.803Z" fill="black"/>
<path d="M693.943 906.55L698.457 881.136C700.515 869.529 711.585 861.787 723.186 863.842C726.451 864.42 729.537 865.753 732.198 867.735L789.603 910.421L721.026 930.752C709.717 934.1 697.839 927.645 694.492 916.33C693.555 913.156 693.368 909.809 693.943 906.55Z" fill="white"/>
<path d="M709.552 937.613C706.832 937.071 704.18 936.116 701.672 934.752C695.135 931.2 690.373 925.312 688.265 918.175C687.047 914.059 686.799 909.646 687.546 905.421C687.547 905.418 687.547 905.416 687.547 905.416L692.062 880.002C693.36 872.683 697.43 866.303 703.522 862.04C709.616 857.778 717.001 856.146 724.319 857.444C728.58 858.198 732.625 859.95 736.078 862.523L793.48 905.202C795.455 906.672 796.431 909.131 796.001 911.555C795.57 913.98 793.808 915.952 791.447 916.653L722.872 936.984C718.474 938.287 713.925 938.485 709.552 937.613ZM700.342 907.687C699.943 909.94 700.075 912.291 700.726 914.484C701.853 918.293 704.391 921.432 707.878 923.327C711.367 925.222 715.381 925.645 719.187 924.519L775.302 907.884L728.324 872.952C726.482 871.58 724.339 870.653 722.052 870.242C718.151 869.55 714.215 870.42 710.966 872.693C707.718 874.964 705.549 878.365 704.857 882.268L700.342 907.687Z" fill="black"/>
<path d="M793.563 814.703L818.963 819.214C830.568 821.316 838.272 832.43 836.169 844.041C835.584 847.271 834.262 850.324 832.308 852.961L789.606 910.421L769.312 841.75C765.994 830.428 772.477 818.556 783.794 815.234C786.967 814.302 790.309 814.12 793.563 814.703Z" fill="white"/>
<path d="M788.336 916.796C785.974 916.325 784.063 914.583 783.379 912.266L763.085 843.594C758.76 828.837 767.232 813.324 781.969 808.997C786.081 807.789 790.485 807.549 794.703 808.304L820.103 812.815C835.234 815.56 845.302 830.079 842.566 845.199C841.807 849.391 840.064 853.414 837.53 856.835L794.821 914.298C793.351 916.274 790.893 917.251 788.47 916.821C788.425 916.814 788.381 916.805 788.336 916.796ZM818.07 825.66C817.983 825.643 817.896 825.625 817.808 825.61L792.429 821.102C792.427 821.102 792.425 821.102 792.423 821.101C790.171 820.699 787.823 820.827 785.627 821.472C777.765 823.78 773.247 832.055 775.552 839.92L792.156 896.106L827.099 849.086C828.447 847.267 829.376 845.121 829.782 842.884C831.223 834.906 825.983 827.238 818.07 825.66ZM793.564 814.703L793.585 814.707L793.564 814.703Z" fill="black"/>
<path d="M1286.16 650.413L1303.67 646.691C1311.66 644.99 1319.53 650.092 1321.23 658.088C1321.71 660.34 1321.65 662.673 1321.07 664.899L1308.6 712.952L1277.65 674.13C1272.55 667.742 1273.6 658.427 1279.99 653.326C1281.79 651.888 1283.9 650.89 1286.16 650.413Z" fill="#0618BB"/>
<path d="M1371.13 690.501L1374.86 708.008C1376.57 716.002 1371.47 723.87 1363.48 725.578C1361.22 726.061 1358.88 726.01 1356.65 725.429L1308.6 712.952L1347.42 681.992C1353.82 676.897 1363.14 677.959 1368.24 684.363C1369.66 686.156 1370.66 688.258 1371.13 690.501Z" fill="#0618BB"/>
<path d="M325.604 1513.14C359.215 1508.04 382.341 1476.76 377.258 1443.3C372.174 1409.83 340.807 1386.83 307.196 1391.94C273.585 1397.04 250.459 1428.31 255.542 1461.78C260.626 1495.25 291.994 1518.24 325.604 1513.14Z" fill="white"/>
<path d="M326.547 1519.34C313.278 1521.36 299.712 1519.41 287.564 1513.75C275.416 1508.08 265.233 1498.95 258.301 1487.52C251.369 1476.08 248 1462.85 248.62 1449.5C249.241 1436.15 253.822 1423.27 261.786 1412.5C269.749 1401.74 280.737 1393.56 293.36 1389C305.982 1384.45 319.672 1383.72 332.699 1386.92C345.726 1390.11 357.505 1397.08 366.545 1406.95C375.586 1416.82 381.482 1429.14 383.489 1442.35C386.159 1460.06 381.663 1478.12 370.988 1492.55C360.313 1506.99 344.33 1516.62 326.547 1519.34ZM308.138 1398.14C297.334 1399.78 287.257 1404.58 279.181 1411.92C271.106 1419.26 265.395 1428.82 262.77 1439.39C260.145 1449.95 260.724 1461.06 264.435 1471.29C268.145 1481.52 274.82 1490.42 283.615 1496.87C292.41 1503.32 302.931 1507.02 313.846 1507.51C324.761 1508 335.581 1505.25 344.938 1499.62C354.294 1493.99 361.767 1485.72 366.41 1475.86C371.054 1466 372.661 1455 371.027 1444.24C368.82 1429.82 360.959 1416.87 349.169 1408.23C337.379 1399.59 322.623 1395.96 308.138 1398.14Z" fill="black"/>
<path d="M409.628 1632.63C443.239 1627.52 466.365 1596.25 461.281 1562.79C456.198 1529.32 424.83 1506.32 391.219 1511.43C357.608 1516.53 334.482 1547.8 339.566 1581.27C344.649 1614.74 376.017 1637.73 409.628 1632.63Z" fill="white"/>
<path d="M410.57 1638.83C397.301 1640.85 383.735 1638.9 371.587 1633.24C359.44 1627.57 349.256 1618.44 342.324 1607.01C335.392 1595.57 332.024 1582.34 332.644 1568.99C333.264 1555.64 337.846 1542.76 345.809 1531.99C353.773 1521.23 364.761 1513.05 377.383 1508.49C390.006 1503.94 403.696 1503.21 416.723 1506.41C429.75 1509.6 441.528 1516.57 450.569 1526.44C459.609 1536.31 465.506 1548.63 467.512 1561.84C470.183 1579.55 465.687 1597.61 455.012 1612.04C444.337 1626.48 428.354 1636.11 410.57 1638.83ZM392.161 1517.63C381.357 1519.27 371.28 1524.07 363.205 1531.41C355.129 1538.75 349.418 1548.31 346.793 1558.88C344.168 1569.44 344.748 1580.55 348.458 1590.78C352.169 1601.01 358.843 1609.91 367.639 1616.36C376.434 1622.81 386.954 1626.51 397.869 1627C408.785 1627.49 419.605 1624.74 428.961 1619.11C438.317 1613.48 445.79 1605.21 450.434 1595.35C455.078 1585.49 456.684 1574.49 455.05 1563.73C452.843 1549.31 444.982 1536.36 433.193 1527.72C421.403 1519.08 406.647 1515.45 392.161 1517.63Z" fill="black"/>
<path d="M288.622 1654.39C322.233 1649.29 345.359 1618.02 340.276 1584.55C335.192 1551.08 303.824 1528.09 270.213 1533.19C236.602 1538.3 213.476 1569.57 218.56 1603.04C223.643 1636.51 255.011 1659.5 288.622 1654.39Z" fill="white"/>
<path d="M289.564 1660.6C276.295 1662.61 262.729 1660.67 250.582 1655C238.434 1649.34 228.25 1640.21 221.318 1628.77C214.386 1617.34 211.018 1604.11 211.638 1590.75C212.258 1577.4 216.84 1564.53 224.804 1553.76C232.767 1542.99 243.755 1534.81 256.377 1530.26C269 1525.7 282.69 1524.98 295.717 1528.17C308.744 1531.37 320.522 1538.34 329.563 1548.2C338.603 1558.07 344.5 1570.39 346.507 1583.6C349.176 1601.32 344.681 1619.37 334.006 1633.81C323.331 1648.24 307.348 1657.88 289.564 1660.6ZM271.156 1539.4C260.351 1541.04 250.274 1545.83 242.199 1553.17C234.124 1560.51 228.412 1570.07 225.787 1580.64C223.162 1591.21 223.742 1602.31 227.452 1612.54C231.163 1622.77 237.838 1631.68 246.633 1638.12C255.428 1644.57 265.948 1648.27 276.864 1648.76C287.779 1649.25 298.599 1646.51 307.955 1640.87C317.312 1635.24 324.784 1626.97 329.428 1617.11C334.072 1607.26 335.678 1596.25 334.044 1585.5C331.837 1571.08 323.977 1558.12 312.187 1549.48C300.397 1540.84 285.641 1537.21 271.156 1539.4Z" fill="black"/>
<path d="M433.815 1766.71C467.426 1761.6 490.552 1730.33 485.469 1696.86C480.385 1663.39 449.018 1640.4 415.407 1645.51C381.796 1650.61 358.67 1681.88 363.753 1715.35C368.837 1748.82 400.205 1771.81 433.815 1766.71Z" fill="white"/>
<path d="M434.758 1772.91C421.489 1774.93 407.923 1772.98 395.775 1767.32C383.627 1761.65 373.444 1752.52 366.512 1741.09C359.58 1729.65 356.211 1716.42 356.831 1703.07C357.452 1689.72 362.033 1676.84 369.997 1666.07C377.96 1655.3 388.948 1647.13 401.571 1642.57C414.193 1638.02 427.883 1637.29 440.91 1640.49C453.937 1643.68 465.716 1650.65 474.756 1660.52C483.797 1670.39 489.693 1682.7 491.7 1695.92C494.37 1713.63 489.875 1731.69 479.2 1746.12C468.525 1760.56 452.542 1770.19 434.758 1772.91ZM416.349 1651.71C405.545 1653.35 395.468 1658.15 387.392 1665.49C379.317 1672.83 373.606 1682.39 370.981 1692.96C368.356 1703.52 368.935 1714.62 372.646 1724.86C376.356 1735.09 383.031 1743.99 391.826 1750.44C400.621 1756.88 411.142 1760.59 422.057 1761.08C432.972 1761.57 443.792 1758.82 453.149 1753.19C462.505 1747.55 469.978 1739.29 474.621 1729.43C479.265 1719.57 480.872 1708.57 479.238 1697.81C477.031 1683.39 469.17 1670.44 457.38 1661.8C445.59 1653.15 430.834 1649.53 416.349 1651.71Z" fill="black"/>
<path d="M312.573 1788.3C346.184 1783.19 369.31 1751.92 364.227 1718.45C359.143 1684.98 327.775 1661.99 294.164 1667.09C260.554 1672.2 237.428 1703.47 242.511 1736.94C247.594 1770.41 278.962 1793.4 312.573 1788.3Z" fill="white"/>
<path d="M313.513 1794.5C300.245 1796.52 286.678 1794.57 274.531 1788.9C262.383 1783.24 252.199 1774.11 245.268 1762.68C238.336 1751.24 234.967 1738.01 235.587 1724.66C236.208 1711.3 240.789 1698.43 248.753 1687.66C256.716 1676.89 267.704 1668.72 280.326 1664.16C292.949 1659.61 306.639 1658.88 319.666 1662.08C332.693 1665.27 344.472 1672.24 353.512 1682.11C362.552 1691.97 368.449 1704.29 370.456 1717.51C373.126 1735.22 368.63 1753.28 357.955 1767.71C347.28 1782.15 331.297 1791.78 313.513 1794.5ZM295.105 1673.3C284.301 1674.94 274.224 1679.73 266.148 1687.08C258.073 1694.42 252.361 1703.98 249.737 1714.54C247.112 1725.11 247.691 1736.21 251.401 1746.45C255.112 1756.68 261.787 1765.58 270.582 1772.03C279.377 1778.47 289.897 1782.18 300.813 1782.67C311.728 1783.16 322.548 1780.41 331.904 1774.78C341.261 1769.14 348.733 1760.88 353.377 1751.02C358.021 1741.16 359.627 1730.16 357.993 1719.4C355.786 1704.98 347.926 1692.03 336.136 1683.39C324.346 1674.74 309.59 1671.12 295.105 1673.3Z" fill="black"/>
<path d="M482.266 2375.32C480.642 2375.57 478.986 2375.18 477.651 2374.22C476.316 2373.27 475.407 2371.84 475.117 2370.23L315.365 1482.03C315.219 1481.22 315.235 1480.39 315.412 1479.58C315.589 1478.78 315.923 1478.02 316.396 1477.34C317.351 1475.97 318.812 1475.04 320.458 1474.74C322.104 1474.44 323.799 1474.81 325.172 1475.76C326.544 1476.71 327.481 1478.16 327.776 1479.8L487.529 2368C487.675 2368.81 487.659 2369.65 487.482 2370.45C487.305 2371.26 486.97 2372.02 486.497 2372.7C486.024 2373.37 485.422 2373.95 484.725 2374.4C484.028 2374.84 483.25 2375.15 482.436 2375.29L482.266 2375.32Z" fill="black"/>
<path d="M636.798 2137.6C635.053 2137.6 633.38 2136.9 632.146 2135.66C630.912 2134.41 630.219 2132.72 630.219 2130.96V1808.16C630.219 1806.4 630.912 1804.71 632.146 1803.46C633.38 1802.22 635.053 1801.52 636.798 1801.52C638.543 1801.52 640.217 1802.22 641.451 1803.46C642.684 1804.71 643.378 1806.4 643.378 1808.16V2130.96C643.378 2132.72 642.684 2134.41 641.451 2135.66C640.217 2136.9 638.543 2137.6 636.798 2137.6Z" fill="black"/>
<path d="M723.868 1810.81H549.732C535.481 1810.81 521.814 1805.1 511.738 1794.94C501.661 1784.77 496 1770.98 496 1756.61C496 1742.23 501.661 1728.44 511.738 1718.28C521.814 1708.11 535.481 1702.4 549.732 1702.4H723.868C738.119 1702.4 751.785 1708.11 761.862 1718.28C771.939 1728.44 777.6 1742.23 777.6 1756.61C777.6 1770.98 771.939 1784.77 761.862 1794.94C751.785 1805.1 738.119 1810.81 723.868 1810.81ZM549.732 1745.77C546.882 1745.77 544.149 1746.91 542.133 1748.94C540.118 1750.97 538.986 1753.73 538.986 1756.61C538.986 1759.48 540.118 1762.24 542.133 1764.27C544.149 1766.31 546.882 1767.45 549.732 1767.45H723.868C726.718 1767.45 729.451 1766.31 731.467 1764.27C733.482 1762.24 734.614 1759.48 734.614 1756.61C734.614 1753.73 733.482 1750.97 731.467 1748.94C729.451 1746.91 726.718 1745.77 723.868 1745.77H549.732Z" fill="#0618BB"/>
<path d="M713.123 1962.59C692.069 1962.59 639.418 1929.08 633.484 1925.26C632.552 1924.66 631.785 1923.84 631.253 1922.86C630.722 1921.88 630.443 1920.78 630.443 1919.67C630.443 1918.55 630.722 1917.46 631.253 1916.48C631.785 1915.5 632.552 1914.67 633.484 1914.07C639.416 1910.25 692.069 1876.75 713.123 1876.75C724.408 1876.75 735.23 1881.27 743.209 1889.32C751.188 1897.37 755.67 1908.28 755.67 1919.67C755.67 1931.05 751.188 1941.97 743.209 1950.02C735.23 1958.07 724.408 1962.59 713.123 1962.59ZM649.502 1919.67C671.199 1932.91 701.822 1949.32 713.123 1949.32C720.918 1949.32 728.393 1946.19 733.904 1940.63C739.415 1935.07 742.512 1927.53 742.512 1919.67C742.512 1911.81 739.415 1904.26 733.904 1898.7C728.393 1893.14 720.918 1890.02 713.123 1890.02C701.813 1890.02 671.195 1906.43 649.502 1919.67Z" fill="black"/>
<path d="M560.697 1962.59C549.413 1962.59 538.591 1958.07 530.612 1950.02C522.633 1941.97 518.15 1931.05 518.15 1919.67C518.15 1908.28 522.633 1897.37 530.612 1889.32C538.591 1881.27 549.413 1876.75 560.697 1876.75C581.752 1876.75 634.407 1910.25 640.342 1914.07C641.273 1914.67 642.04 1915.5 642.572 1916.48C643.103 1917.46 643.382 1918.55 643.382 1919.67C643.382 1920.78 643.103 1921.88 642.572 1922.86C642.04 1923.84 641.273 1924.66 640.342 1925.26C634.405 1929.08 581.752 1962.59 560.697 1962.59ZM560.697 1890.02C552.903 1890.02 545.428 1893.14 539.917 1898.7C534.406 1904.26 531.309 1911.81 531.309 1919.67C531.309 1927.53 534.406 1935.07 539.917 1940.63C545.428 1946.19 552.903 1949.32 560.697 1949.32C572.001 1949.32 602.624 1932.91 624.321 1919.67C602.624 1906.43 572.001 1890.02 560.697 1890.02Z" fill="black"/>
<path d="M1033.6 2185.6C1030.4 2185.6 1027.81 2183 1027.81 2179.78V1959.5C1027.81 1956.29 1030.4 1953.68 1033.6 1953.68C1036.8 1953.68 1039.39 1956.29 1039.39 1959.5V2179.78C1039.39 2183 1036.8 2185.6 1033.6 2185.6Z" fill="black"/>
<path d="M1118.08 1801.6C1106.41 1801.6 1096.95 1811.1 1096.95 1822.81C1096.95 1811.1 1087.49 1801.6 1075.83 1801.6C1064.17 1801.6 1054.72 1811.09 1054.72 1822.79C1054.72 1822.79 1054.72 1822.8 1054.72 1822.81C1054.72 1811.1 1045.27 1801.6 1033.6 1801.6C1021.93 1801.6 1012.48 1811.1 1012.48 1822.81C1012.48 1811.1 1003.02 1801.6 991.352 1801.6C979.686 1801.6 970.228 1811.1 970.228 1822.81C970.238 1811.11 960.798 1801.61 949.143 1801.6C949.137 1801.6 949.13 1801.6 949.124 1801.6C937.457 1801.6 928 1811.1 928 1822.81V1911.54C928 1970.09 975.278 2017.56 1033.6 2017.56C1091.92 2017.55 1139.19 1970.09 1139.2 1911.54V1822.81C1139.2 1811.1 1129.74 1801.6 1118.08 1801.6Z" fill="#B4BAEB"/>
<path d="M1096.95 1910.28C1093.76 1910.28 1091.16 1907.68 1091.16 1904.46V1821.12C1091.16 1817.91 1093.76 1815.31 1096.95 1815.31C1100.15 1815.31 1102.75 1817.91 1102.75 1821.12V1904.46C1102.75 1907.68 1100.15 1910.28 1096.95 1910.28Z" fill="black"/>
<path d="M1054.7 1910.28C1051.51 1910.28 1048.91 1907.68 1048.91 1904.46V1821.12C1048.91 1817.91 1051.51 1815.31 1054.7 1815.31C1057.9 1815.31 1060.5 1817.91 1060.5 1821.12V1904.46C1060.5 1907.68 1057.9 1910.28 1054.7 1910.28Z" fill="black"/>
<path d="M1012.47 1910.28C1009.27 1910.28 1006.68 1907.68 1006.68 1904.46V1821.12C1006.68 1817.91 1009.27 1815.31 1012.47 1815.31C1015.67 1815.31 1018.27 1817.91 1018.27 1821.12V1904.46C1018.27 1907.68 1015.67 1910.28 1012.47 1910.28Z" fill="black"/>
<path d="M970.23 1910.28C967.031 1910.28 964.438 1907.68 964.438 1904.46V1821.12C964.438 1817.91 967.031 1815.31 970.23 1815.31C973.43 1815.31 976.023 1817.91 976.023 1821.12V1904.46C976.023 1907.68 973.428 1910.28 970.23 1910.28Z" fill="black"/>
<path d="M1259.44 1437.22C1253.68 1436.02 1247.67 1437.15 1242.73 1440.37C1237.8 1443.58 1234.34 1448.62 1233.13 1454.38C1234.24 1448.65 1233.04 1442.72 1229.8 1437.87C1226.55 1433.02 1221.52 1429.65 1215.8 1428.48C1210.07 1427.31 1204.11 1428.44 1199.21 1431.62C1194.31 1434.81 1190.87 1439.79 1189.62 1445.49L1166.34 1555.7L1143.5 1445.45C1142.57 1439.64 1139.37 1434.44 1134.59 1430.99C1129.81 1427.54 1123.86 1426.13 1118.04 1427.07C1115.15 1427.53 1112.39 1428.55 1109.9 1430.08C1107.42 1431.61 1105.25 1433.61 1103.54 1435.97C1100.08 1440.74 1098.66 1446.68 1099.59 1452.49C1099.79 1453.09 1099.89 1453.72 1099.88 1454.35C1099.38 1451.46 1098.31 1448.7 1096.72 1446.23C1095.14 1443.76 1093.09 1441.63 1090.67 1439.95C1088.26 1438.28 1085.54 1437.1 1082.67 1436.48C1079.79 1435.87 1076.83 1435.82 1073.93 1436.36C1071.04 1436.89 1068.29 1437.99 1065.82 1439.59C1063.36 1441.19 1061.24 1443.27 1059.58 1445.69C1057.92 1448.11 1056.77 1450.84 1056.17 1453.71C1055.58 1456.59 1055.56 1459.55 1056.11 1462.43C1056.1 1462.64 1056.29 1462.85 1056.28 1463.05L1059.24 1477.55L1079.19 1575.36C1082.59 1592.29 1090.86 1607.87 1102.99 1620.18C1115.12 1632.5 1130.59 1641.02 1147.5 1644.71L1147.49 1644.92C1159.8 1647.31 1172.46 1647.35 1184.79 1645.03L1184.8 1644.82C1201.71 1641.09 1217.18 1632.56 1229.36 1620.27C1241.53 1607.97 1249.88 1592.43 1253.41 1575.52L1273.64 1477.8L1276.62 1463.26C1277.26 1460.42 1277.33 1457.48 1276.8 1454.62C1276.28 1451.75 1275.18 1449.03 1273.58 1446.59C1271.98 1444.16 1269.9 1442.08 1267.47 1440.47C1265.04 1438.86 1262.31 1437.76 1259.44 1437.22L1259.44 1437.22Z" fill="white"/>
<path d="M1185.92 1651.03C1172.83 1653.51 1159.39 1653.47 1146.31 1650.92C1145.74 1650.81 1145.18 1650.61 1144.65 1650.34C1126.91 1646.16 1110.75 1636.98 1098.08 1623.91C1085.41 1610.83 1076.77 1594.4 1073.18 1576.57L1050.32 1464.53C1050.18 1464.1 1050.08 1463.66 1050.03 1463.21C1049.02 1457.51 1049.8 1451.64 1052.25 1446.39C1054.7 1441.15 1058.7 1436.78 1063.73 1433.88C1068.75 1430.98 1074.54 1429.69 1080.32 1430.19C1086.09 1430.68 1091.58 1432.94 1096.02 1436.65C1096.78 1435.1 1097.67 1433.62 1098.69 1432.23C1100.86 1429.24 1103.61 1426.7 1106.77 1424.78C1109.93 1422.85 1113.45 1421.57 1117.11 1421.01C1120.82 1420.42 1124.6 1420.57 1128.25 1421.45C1131.89 1422.33 1135.33 1423.92 1138.35 1426.14C1141.33 1428.29 1143.85 1431 1145.77 1434.13C1147.69 1437.25 1148.98 1440.72 1149.55 1444.34L1166.41 1525.73L1183.62 1444.25C1184.87 1438.56 1187.85 1433.39 1192.16 1429.45C1196.46 1425.52 1201.88 1423 1207.66 1422.25C1213.45 1421.51 1219.33 1422.56 1224.49 1425.28C1229.65 1427.99 1233.84 1432.23 1236.49 1437.42C1239.75 1434.68 1243.57 1432.7 1247.68 1431.62C1251.8 1430.53 1256.1 1430.38 1260.28 1431.15C1260.66 1431.2 1261.04 1431.27 1261.41 1431.39C1268.63 1433.02 1274.93 1437.41 1278.96 1443.6C1280.97 1446.68 1282.32 1450.14 1282.95 1453.76C1283.57 1457.38 1283.45 1461.09 1282.6 1464.66L1279.65 1479.02L1259.43 1576.75C1255.71 1594.58 1246.97 1610.98 1234.23 1624.04C1221.5 1637.1 1205.3 1646.26 1187.54 1650.47C1187.03 1650.74 1186.49 1650.93 1185.92 1651.03ZM1150.15 1639.18C1160.77 1641.07 1171.64 1641.1 1182.27 1639.25C1182.66 1639.07 1183.06 1638.93 1183.48 1638.84C1199.23 1635.36 1213.64 1627.42 1224.98 1615.97C1236.32 1604.51 1244.11 1590.04 1247.41 1574.28L1270.62 1462.04C1271.11 1460.04 1271.19 1457.96 1270.85 1455.93C1270.51 1453.9 1269.76 1451.96 1268.64 1450.23C1267.47 1448.42 1265.95 1446.87 1264.16 1445.67C1262.38 1444.46 1260.36 1443.63 1258.24 1443.23C1254.07 1442.36 1249.72 1443.16 1246.15 1445.48C1242.57 1447.79 1240.05 1451.42 1239.15 1455.58C1238.82 1457.16 1237.89 1458.55 1236.55 1459.45C1235.2 1460.34 1233.56 1460.68 1231.98 1460.37C1230.39 1460.07 1228.99 1459.16 1228.07 1457.83C1227.16 1456.5 1226.81 1454.87 1227.09 1453.28C1227.87 1449.09 1226.95 1444.76 1224.53 1441.24C1222.12 1437.73 1218.41 1435.31 1214.21 1434.52C1210.12 1433.75 1205.88 1434.6 1202.41 1436.9C1198.94 1439.19 1196.5 1442.75 1195.62 1446.81L1172.35 1556.95C1172.06 1558.33 1171.31 1559.56 1170.21 1560.45C1169.11 1561.34 1167.75 1561.82 1166.34 1561.82C1164.92 1561.82 1163.56 1561.34 1162.46 1560.45C1161.37 1559.56 1160.62 1558.32 1160.33 1556.94L1137.49 1446.69C1137.48 1446.59 1137.46 1446.49 1137.44 1446.38C1137.12 1444.32 1136.4 1442.35 1135.32 1440.57C1134.23 1438.79 1132.8 1437.25 1131.11 1436.03C1129.39 1434.76 1127.43 1433.85 1125.35 1433.35C1123.27 1432.85 1121.11 1432.77 1119 1433.1C1116.94 1433.42 1114.95 1434.15 1113.17 1435.23C1111.38 1436.32 1109.83 1437.75 1108.6 1439.44C1106.09 1442.83 1105.02 1447.07 1105.61 1451.25C1105.93 1452.38 1106.06 1453.55 1106.01 1454.73C1105.91 1456.21 1105.28 1457.62 1104.22 1458.67C1103.17 1459.73 1101.76 1460.36 1100.27 1460.45C1098.78 1460.55 1097.3 1460.1 1096.12 1459.19C1094.94 1458.27 1094.14 1456.96 1093.86 1455.5C1093.09 1451.33 1090.71 1447.63 1087.22 1445.21C1083.74 1442.79 1079.43 1441.84 1075.25 1442.57C1071.06 1443.3 1067.33 1445.64 1064.87 1449.1C1062.41 1452.56 1061.41 1456.84 1062.1 1461.02C1062.21 1461.38 1062.3 1461.74 1062.35 1462.1L1085.2 1574.12C1088.37 1589.89 1096.07 1604.4 1107.37 1615.87C1118.66 1627.34 1133.06 1635.28 1148.81 1638.72C1149.27 1638.82 1149.72 1638.98 1150.15 1639.18Z" fill="black"/>
<path d="M1118.17 1544.29C1116.59 1544.58 1114.95 1544.25 1113.61 1543.35C1112.28 1542.45 1111.35 1541.07 1111.03 1539.49L1093.57 1453.92C1093.25 1452.33 1093.57 1450.68 1094.47 1449.32C1095.37 1447.97 1096.77 1447.02 1098.36 1446.7C1099.15 1446.52 1099.97 1446.51 1100.77 1446.66C1101.56 1446.81 1102.32 1447.11 1102.99 1447.56C1103.67 1448 1104.24 1448.58 1104.69 1449.25C1105.14 1449.92 1105.45 1450.68 1105.6 1451.47L1123.05 1537.04C1123.22 1537.83 1123.22 1538.64 1123.07 1539.43C1122.91 1540.22 1122.6 1540.97 1122.16 1541.64C1121.71 1542.31 1121.14 1542.89 1120.47 1543.34C1119.81 1543.79 1119.05 1544.11 1118.26 1544.27L1118.17 1544.29Z" fill="black"/>
<path d="M1216.97 1544.39C1215.98 1544.58 1214.96 1544.52 1214 1544.21C1213.03 1543.91 1212.16 1543.38 1211.46 1542.66C1210.75 1541.94 1210.23 1541.06 1209.95 1540.1C1209.67 1539.13 1209.63 1538.11 1209.83 1537.13L1227.64 1451.53C1227.79 1450.74 1228.11 1449.98 1228.56 1449.31C1229.01 1448.64 1229.59 1448.06 1230.27 1447.61C1230.94 1447.16 1231.7 1446.85 1232.5 1446.7C1233.29 1446.55 1234.11 1446.55 1234.91 1446.72C1235.7 1446.88 1236.45 1447.2 1237.12 1447.66C1237.79 1448.11 1238.37 1448.7 1238.81 1449.37C1239.25 1450.05 1239.55 1450.81 1239.7 1451.61C1239.84 1452.4 1239.83 1453.22 1239.66 1454.01L1221.85 1539.61C1221.61 1540.8 1221.01 1541.89 1220.14 1542.74C1219.27 1543.59 1218.17 1544.17 1216.97 1544.39Z" fill="black"/>
<path d="M1160.25 2363.6C1159.86 2363.67 1159.46 2363.7 1159.06 2363.7C1157.43 2363.69 1155.88 2363.03 1154.74 2361.87C1153.6 2360.71 1152.97 2359.15 1152.98 2357.53L1160.09 1599C1160.12 1597.38 1160.78 1595.84 1161.94 1594.71C1163.1 1593.59 1164.66 1592.96 1166.28 1592.97C1167.9 1592.99 1169.45 1593.64 1170.59 1594.79C1171.73 1595.94 1172.36 1597.49 1172.36 1599.1L1165.26 2357.62C1165.25 2359.04 1164.74 2360.41 1163.83 2361.5C1162.92 2362.59 1161.65 2363.33 1160.25 2363.6Z" fill="black"/>
<path d="M1274.85 1757.69C1246.15 1753.94 1225.95 1727.48 1229.73 1698.59C1233.51 1669.71 1259.84 1649.34 1288.54 1653.09C1317.24 1656.85 1337.44 1683.31 1333.66 1712.19C1329.88 1741.08 1303.55 1761.45 1274.85 1757.69Z" fill="white"/>
<path d="M1274.08 1763.54C1305.94 1767.71 1335.27 1745.02 1339.46 1712.95C1343.66 1680.89 1321.16 1651.41 1289.3 1647.24C1257.45 1643.07 1228.12 1665.77 1223.92 1697.83C1219.73 1729.9 1242.23 1759.37 1274.08 1763.54ZM1287.77 1658.94C1313.22 1662.28 1331.21 1685.82 1327.86 1711.43C1324.5 1737.05 1301.07 1755.17 1275.61 1751.84C1250.16 1748.51 1232.18 1724.96 1235.53 1699.35C1238.88 1673.74 1262.32 1655.61 1287.77 1658.94Z" fill="black"/>
<path d="M1167.53 2134.76C1170.39 2135.13 1173.17 2133.32 1173.94 2130.43L1287.34 1706.92C1288.19 1703.77 1286.34 1700.53 1283.22 1699.69C1280.1 1698.84 1276.88 1700.72 1276.04 1703.86L1162.64 2127.38C1161.8 2130.53 1163.64 2133.76 1166.76 2134.61C1167.02 2134.68 1167.27 2134.73 1167.53 2134.76Z" fill="black"/>
<path d="M3941.95 2143.83H240.453C236.569 2143.83 233.6 2140.55 233.6 2136.25C233.6 2131.96 236.569 2128.67 240.453 2128.67H3941.95C3945.83 2128.67 3948.8 2131.96 3948.8 2136.25C3948.8 2140.55 3945.83 2143.83 3941.95 2143.83Z" fill="black"/>
</g>
<defs>
<clipPath id="clip0">
<rect width="4096" height="2304" fill="white"/>
</clipPath>
</defs>
</svg>
