<svg class="img-fluid" fill="none" height="2344" viewBox="0 0 4096 2344" width="4096" xmlns="http://www.w3.org/2000/svg" xmlns:xlink="http://www.w3.org/1999/xlink"><clipPath id="a"><path d="m0-193h4096v2731h-4096z"/></clipPath><g clip-path="url(#a)"><path d="m1996.26 1794.34v-1329.025h1246.95v288.261 1040.764z" fill="#fff"/><path d="m1996.26 1800.63h1246.95c3.47 0 6.28-2.82 6.28-6.29v-1329.025c0-3.473-2.81-6.289-6.28-6.289h-1246.95c-3.47 0-6.29 2.816-6.29 6.289v1329.025c0 3.47 2.82 6.29 6.29 6.29zm1240.66-12.58h-1234.37v-1316.446h1234.37z" fill="#000"/><path d="m1996.26 619.686h1246.95c3.47 0 6.28-2.816 6.28-6.289 0-3.474-2.81-6.289-6.28-6.289h-1246.95c-3.47 0-6.29 2.815-6.29 6.289 0 3.473 2.82 6.289 6.29 6.289z" fill="#000"/><path d="m3177.13 564.071c-13.65 0-24.71-11.065-24.71-24.715s11.06-24.715 24.71-24.715 24.72 11.065 24.72 24.715-11.07 24.715-24.72 24.715z" fill="#b4baeb"/><path d="m3107.96 564.071c-13.65 0-24.71-11.065-24.71-24.715s11.06-24.715 24.71-24.715 24.71 11.065 24.71 24.715-11.06 24.715-24.71 24.715z" fill="#b4baeb"/><path d="m3038.78 564.071c-13.65 0-24.71-11.065-24.71-24.715s11.06-24.715 24.71-24.715 24.72 11.065 24.72 24.715-11.07 24.715-24.72 24.715z" fill="#b4baeb"/><path d="m1031.57 990.485-53.013 217.585 1234.913 286.19 53.01-219.55z" fill="#fff"/><path d="m2213.48 1500.14c-.45 0-.9-.05-1.34-.16l-1234.914-286.19c-.759-.17-1.475-.49-2.107-.95-.632-.45-1.168-1.03-1.577-1.69-.408-.66-.681-1.4-.803-2.16-.121-.77-.089-1.56.095-2.31l53.006-217.585c.37-1.503 1.31-2.802 2.63-3.614 1.32-.813 2.91-1.073 4.42-.726l1234.92 284.225c.75.18 1.47.5 2.1.95.64.46 1.17 1.03 1.58 1.69s.69 1.4.81 2.16c.12.77.09 1.56-.09 2.31l-53.01 219.54c-.31 1.29-1.04 2.43-2.08 3.25-1.04.81-2.32 1.26-3.64 1.26zm-1227.789-296.46 1223.429 283.53 50.24-208.1-1223.45-281.59z" fill="#000"/><path d="m1327.9 2220.79v-298.34h283.3l57.92 174.06c6.34 18.82 19.22 34.75 36.32 44.89l8.83 5.3c25.13 14.89 40.45 45.47 40.45 74.68h-258.18l-58.5-110.56v109.97z" fill="#0618bb"/><path d="m715.15 2140.81 107-268.74 273.68 73.7-17.86 150.35c6.28 18.82 19.44 40.77 36.52 50.77l8.83 5.29c12.37 7.25 22.64 17.59 29.8 29.99 7.15 12.41 10.96 26.46 11.04 40.78l-193.977.98-99.539-30.97-15.707-105.07-35.339 88.6z" fill="#0618bb"/><path d="m1611.59 1927.35c-1.4 0-2.75-.5-3.82-1.41s-1.77-2.17-1.99-3.56c-.22-1.38.06-2.79.8-3.99.73-1.19 1.87-2.08 3.2-2.52l189.29-61.22c4.33-1.41 8.93-1.81 13.45-1.18 4.51.63 8.82 2.28 12.61 4.82 3.78 2.54 6.93 5.91 9.21 9.85 2.29 3.94 3.64 8.35 3.96 12.89.28 3.93-.22 7.87-1.46 11.6-1.25 3.74-3.22 7.19-5.81 10.16-2.58 2.97-5.73 5.41-9.25 7.17-3.53 1.75-7.37 2.8-11.3 3.08l-198.46 14.31c-.15 0-.29 0-.43 0zm196.89-62.42c-.45 0-.91.02-1.37.05-1.48.1-2.95.39-4.36.84l-143.1 46.29 149.99-10.81c2.4-.17 4.74-.8 6.89-1.88 2.15-1.07 4.07-2.56 5.64-4.38 2.28-2.63 3.75-5.86 4.25-9.3s0-6.96-1.44-10.12c-1.44-3.17-3.76-5.86-6.68-7.75-2.92-1.9-6.32-2.92-9.81-2.94z" fill="#000"/><path d="m1611.59 1927.35c-1.22 0-2.42-.38-3.42-1.1-1-.71-1.75-1.72-2.15-2.88s-.42-2.41-.07-3.59c.35-1.17 1.06-2.21 2.03-2.96l157.26-121.81c1.94-1.51 4.07-2.78 6.33-3.76 3.62-1.6 7.53-2.46 11.49-2.55s7.9.6 11.6 2.04c3.69 1.41 7.06 3.54 9.92 6.27 2.85 2.73 5.13 6 6.7 9.63 3.19 7.29 3.36 15.54.47 22.96-1.41 3.69-3.55 7.05-6.28 9.9-2.74 2.85-6.02 5.12-9.65 6.69l-181.83 80.65c-.75.34-1.57.51-2.4.51zm172.14-126.89c-2.54 0-5.06.52-7.39 1.54-1.36.59-2.64 1.34-3.82 2.25l-119.01 92.19 137.57-61.02c2.21-.95 4.2-2.32 5.86-4.05s2.96-3.78 3.81-6.01c1.77-4.54 1.67-9.59-.29-14.04-.95-2.19-2.33-4.17-4.06-5.82-1.72-1.65-3.76-2.94-6-3.79-2.13-.82-4.39-1.25-6.67-1.25z" fill="#000"/><path d="m1093.09 1951.26c-1.41 0-2.76-.5-3.83-1.41s-1.77-2.17-1.99-3.55.06-2.8.8-3.99c.73-1.2 1.87-2.09 3.2-2.52l161.29-52.27c1.99-.61 4.03-1.02 6.11-1.23 3.49-.28 7.01.13 10.35 1.22 3.33 1.08 6.42 2.81 9.08 5.1 2.65 2.26 4.83 5.02 6.4 8.13s2.5 6.5 2.74 9.97c.52 7-1.76 13.92-6.35 19.25-2.26 2.64-5.03 4.82-8.14 6.38-3.12 1.57-6.51 2.5-9.99 2.73l-169.24 12.18c-.15.01-.3.01-.43.01zm167.66-53.29c-.36 0-.71.01-1.07.03-1.23.14-2.43.39-3.61.75l-115.08 37.3 120.92-8.7c1.93-.13 3.81-.65 5.53-1.51 1.72-.87 3.26-2.07 4.51-3.54 1.84-2.13 3.04-4.76 3.43-7.55.4-2.8-.02-5.64-1.2-8.21-1.18-2.56-3.08-4.73-5.46-6.25s-5.15-2.33-7.98-2.32z" fill="#000"/><path d="m1093.09 1951.26c-1.23 0-2.43-.38-3.43-1.09-1-.72-1.75-1.72-2.15-2.88s-.42-2.42-.07-3.6c.35-1.17 1.07-2.21 2.04-2.96l134-103.63c1.68-1.4 3.56-2.55 5.57-3.42 6.44-2.82 13.73-2.98 20.29-.43 6.55 2.54 11.82 7.58 14.66 14 1.43 3.17 2.21 6.59 2.31 10.06.09 3.47-.5 6.93-1.75 10.17s-3.13 6.2-5.54 8.71c-2.4 2.51-5.28 4.52-8.47 5.92l-155.07 68.65c-.76.33-1.57.5-2.39.5zm146.62-108.05c-2.03 0-4.04.42-5.91 1.24-.98.4-1.89.95-2.71 1.63-.09.08-.18.15-.27.22l-95.78 74.08 110.76-49.04c1.77-.77 3.37-1.88 4.7-3.27s2.38-3.03 3.07-4.83c.69-1.79 1.01-3.71.96-5.63-.06-1.93-.5-3.82-1.3-5.57-1.15-2.63-3.04-4.86-5.44-6.43-2.4-1.56-5.21-2.4-8.08-2.39z" fill="#000"/><path d="m1149.56 1362.38-61.78 123.14-265.63 386.36 273.68 73.7 272.31-372.44 61.94-123.13-25.49-28.29z" fill="#fff"/><path d="m1095.83 1951.46c-.51 0-1.03-.06-1.53-.2l-273.684-73.7c-.909-.25-1.745-.7-2.44-1.34-.695-.63-1.227-1.42-1.552-2.31-.326-.88-.435-1.82-.318-2.76.117-.93.456-1.82.988-2.6l265.406-386.02 61.59-122.78c.59-1.18 1.56-2.13 2.76-2.69s2.55-.71 3.84-.41l255.04 59.35c1.17.28 2.23.9 3.04 1.8l25.48 28.28c.79.88 1.3 1.98 1.46 3.15.16 1.18-.04 2.37-.57 3.43l-61.93 123.13c-.15.29-.32.56-.51.82l-272.31 372.44c-.55.75-1.26 1.36-2.09 1.77-.83.42-1.74.64-2.67.64zm-264.119-83.09 261.749 70.49 269.64-368.79 59.91-119.1-21.56-23.93-248.71-57.88-59.68 119c-.12.24-.26.47-.41.7z" fill="#000"/><path d="m1792.21 1511.9c3.93 27.83-.58 56.19-12.95 81.43l-168.06 328.92-283.3.2 168.64-393.61-90.13-106.91" fill="#fff"/><path d="m1327.9 1928.33c-.98 0-1.94-.24-2.79-.7-.86-.46-1.59-1.13-2.13-1.94s-.86-1.75-.95-2.72c-.09-.96.07-1.94.45-2.83l167.22-390.28-87.8-104.13c-.5-.59-.88-1.27-1.12-2.01s-.33-1.51-.27-2.29c.07-.77.28-1.52.64-2.21s.85-1.3 1.44-1.8 1.28-.88 2.02-1.11 1.52-.32 2.3-.25c.77.07 1.52.29 2.21.65s1.3.85 1.79 1.45l90.14 106.91c.7.83 1.16 1.84 1.32 2.92s.02 2.18-.41 3.18l-165.13 385.4 270.76-.2 166.42-325.7c11.86-24.16 16.17-51.32 12.37-77.95-.19-1.53.22-3.08 1.16-4.31s2.33-2.04 3.86-2.26c1.54-.21 3.1.18 4.34 1.11 1.24.92 2.07 2.29 2.31 3.82 4.13 28.99-.57 58.55-13.49 84.84l-168.11 329.01c-.5.97-1.25 1.78-2.17 2.34-.93.57-1.99.87-3.08.87l-283.3.2z" fill="#000"/><path d="m1793.56 1511.71-993.792-230.44 178.071-72.33 727.531 168.7 203.79 155.82z" fill="#fff"/><path d="m1909.17 1539.34c-.37 0-.74-.03-1.1-.1l-115.6-21.76c-.08-.01-.16-.03-.24-.05l-993.796-230.43c-1.217-.28-2.313-.94-3.128-1.89-.816-.95-1.308-2.13-1.407-3.37-.098-1.25.202-2.49.858-3.55s1.634-1.89 2.792-2.36l178.071-72.33c1.126-.46 2.367-.56 3.552-.28l727.528 168.69c.82.19 1.58.55 2.25 1.06l203.79 155.82c.98.75 1.7 1.78 2.06 2.96.35 1.18.33 2.43-.06 3.6-.4 1.16-1.15 2.17-2.15 2.89s-2.2 1.1-3.43 1.1zm-114.39-33.38 91.15 17.15-183.13-140.03-724.473-167.99-159.149 64.65z" fill="#000"/><path d="m2207.34 1502.63c-37.15 17.75-75.57 32.74-114.94 44.83l-33.68 10.37-42.48-108.12 191.61 44.43z" fill="#fff"/><path d="m2058.72 1563.72c-1.19 0-2.34-.36-3.32-1.02-.98-.67-1.73-1.61-2.17-2.71l-42.48-108.11c-.39-1-.5-2.08-.32-3.14.18-1.05.65-2.04 1.35-2.85s1.61-1.42 2.63-1.75 2.12-.38 3.16-.14l191.62 44.43c1.35.32 2.55 1.1 3.39 2.21.83 1.12 1.24 2.49 1.16 3.87l-.51 8.48c-.06 1.05-.4 2.06-.99 2.93s-1.4 1.57-2.35 2.02c-37.41 17.88-76.1 32.97-115.74 45.16l-33.69 10.37c-.57.17-1.15.25-1.74.25zm-32.91-105.74 36.39 92.62 28.47-8.76c37.98-11.68 75.08-26.06 111-43.04v-.05z" fill="#000"/><path d="m2260.85 1275-416.32-96.53-295.92-68.62-517.76-120.057-124.87-147.015 621.08 144.037 242.49 56.235 366.24 84.94z" fill="#fff"/><path d="m2260.86 1280.87c-.45.01-.9-.05-1.34-.15l-1230.01-285.207c-1.23-.286-2.34-.961-3.16-1.925l-124.862-147.015c-.801-.943-1.283-2.114-1.379-3.346-.096-1.233.199-2.464.844-3.52.645-1.055 1.607-1.88 2.748-2.359 1.142-.478 2.406-.585 3.612-.306l1229.807 285.208c1.24.29 2.34.96 3.16 1.92l125.06 147.02c.73.85 1.2 1.9 1.35 3.01s-.02 2.24-.49 3.26-1.23 1.88-2.17 2.49c-.95.6-2.05.92-3.17.92zm-1226.78-296.377 1210.75 280.757-112.27-131.98-1210.568-280.748z" fill="#000"/><path d="m2384.9 1388.72-31.22-45.87c-46.84-68.98-103.75-130.59-168.83-182.78l-45.35-36.66-.04-.02c-.2-.15-.4-.29-.62-.41-.12-.07-.24-.17-.37-.23-.18-.08-.36-.16-.55-.22-.17-.07-.35-.15-.53-.2-.11-.03-.24-.04-.36-.06-.25-.06-.5-.11-.75-.14-.1 0-.2 0-.31 0-.27-.01-.54-.01-.82.01-.12.02-.25.06-.37.08-.25.04-.49.09-.74.16-.11.03-.21.09-.31.13-.26.08-.51.19-.75.31-.08.05-.16.12-.24.17-.26.15-.5.31-.73.5l-.03.02c-.13.1-.22.23-.33.35-.16.13-.3.28-.44.43l-.02.04c-.15.2-.29.41-.42.63-.07.12-.16.23-.22.35-.09.2-.18.41-.25.62-.05.15-.13.3-.17.45-.06.2-.07.39-.11.58s-.08.35-.1.54c-.01.22-.01.45 0 .68v.44c.04.23.08.47.15.7.03.14.04.27.08.4.06.18.15.35.22.52.07.18.14.36.23.54.07.13.16.24.24.37.13.21.27.41.42.6l.03.04 123.14 144.75-52.82 224.74c-.02.08-.01.15-.03.23-.04.21-.07.42-.08.63-.02.18-.03.36-.03.54 0 .17.02.39.04.58.02.2.05.38.09.57.04.18.09.35.14.53.06.2.13.4.21.59.03.07.05.15.08.22.07.14.15.27.23.4.04.08.08.15.13.23.18.29.39.56.62.82l.07.06c.21.22.44.43.69.62.08.06.16.11.24.17.23.16.48.3.73.43.06.03.12.06.18.09.31.14.64.25.98.34.03 0 .06.02.09.03.04.01.09 0 .14.02.39.09.8.13 1.21.14.39-.01.78-.05 1.16-.13.11-.02.22-.06.32-.08.3-.08.59-.18.87-.3.06-.03.13-.04.2-.07 62.36-29.81 120.77-67.22 173.91-111.39 1.12-.93 1.86-2.25 2.06-3.7.21-1.45-.14-2.92-.96-4.13z" fill="#0618bb"/><path d="m1030.85 989.793-53.009 219.147-178.072 72.33-124.866-147.01 53.009-219.151 178.072-72.331z" fill="#fff"/><path d="m799.768 1287.15c-.855 0-1.7-.19-2.476-.55s-1.465-.88-2.018-1.53l-124.866-147.02c-.598-.7-1.021-1.54-1.235-2.44-.214-.89-.212-1.83.004-2.73l53.009-219.151c.22-.906.652-1.748 1.262-2.455s1.379-1.259 2.245-1.61l178.071-72.331c1.15-.467 2.417-.559 3.622-.264 1.205.296 2.286.963 3.089 1.908l124.865 147.015c.6.706 1.02 1.544 1.24 2.444.21.901.21 1.839-.01 2.739l-53.006 219.155c-.219.9-.651 1.74-1.26 2.45-.61.71-1.379 1.26-2.244 1.61l-178.072 72.33c-.705.29-1.459.43-2.22.43zm-118.438-154.42 120.17 141.49 171.323-69.59 51.597-213.31-120.169-141.493-171.324 69.587z" fill="#000"/><path d="m1876.87 1569.29c1.89 6.07 7.5 12.93 18.62 20.52 40.05 27.44 86.38-33.13 82.26-61.94 40.25 78.6 50.46 125.65 75.59 116.43 41.62-15.09-20.82-182.88-61.26-233.46-17.74-22.15-38.41-47.1-54.32-65.99l-152.55 110.22c35.04 26.58 64.01 51.69 65.52 69.86l-57.13-13.33c4.73 48.34 48.84 63.28 83.27 57.69 21.29-3.45 38.88-14.74 41.2-30.84" fill="#fff"/><path d="m2047.39 1651.32c-11.99 0-19.54-10.55-22.35-14.46-7.63-10.65-15.34-27.52-25.1-48.89-5.59-12.23-11.72-25.65-18.96-40.46-5.87 17.5-20.02 36.42-36.53 46.67-17.95 11.12-36.52 11.29-52.3.48-9.3-6.35-15.54-12.59-18.93-18.93-22.08 2.46-44.18-3.08-59.91-15.17-14.75-11.34-23.59-28.07-25.58-48.39-.09-.93.04-1.87.38-2.74.35-.87.9-1.64 1.6-2.26.7-.61 1.55-1.05 2.45-1.28.91-.22 1.86-.23 2.77-.02l47.08 10.98c-8.8-16.55-36.16-38.74-60.37-57.11-.73-.55-1.32-1.27-1.72-2.1-.41-.82-.61-1.73-.6-2.65s.23-1.82.66-2.63c.42-.82 1.03-1.52 1.77-2.06l152.55-110.22c1.21-.87 2.7-1.25 4.18-1.07 1.47.18 2.83.91 3.79 2.05 8.93 10.61 32.12 38.29 54.4 66.11 35.49 44.37 87.37 176.82 74.06 224.05-2.71 9.62-7.89 15.88-15.39 18.61-2.54.96-5.23 1.46-7.95 1.49zm-69.64-129.34c1.08 0 2.15.3 3.07.86.93.57 1.68 1.38 2.17 2.34 11.24 21.96 19.97 41.05 27.67 57.9 19.15 41.93 28.15 60.28 40.65 55.7 3.8-1.37 6.44-4.9 8.09-10.75 12.11-42.97-37.96-171.06-71.92-213.52-19.71-24.6-40.13-49.1-50.71-61.69l-141.7 102.38c36.01 27.74 59.94 50.3 61.52 69.23.08.93-.06 1.86-.41 2.72-.36.85-.91 1.62-1.61 2.22-.7.61-1.54 1.04-2.44 1.26s-1.84.23-2.75.02l-48.64-11.35c2.48 12.69 9.51 24.04 19.76 31.94 14.27 10.97 34.96 15.55 55.36 12.25l.14-.02c20.22-3.3 34.44-13.45 36.24-25.86.1-.77.35-1.52.74-2.19.39-.68.91-1.27 1.53-1.74.63-.47 1.34-.81 2.09-1.01.76-.19 1.54-.24 2.32-.13.77.11 1.51.38 2.18.78s1.25.93 1.72 1.56c.46.62.79 1.34.98 2.09.18.76.22 1.55.09 2.32-2.27 15.72-16.91 28.62-38.13 34.13 3.73 4.49 8.14 8.38 13.05 11.53 14.99 10.27 29.71 5.25 39.43-.77 21.17-13.14 35.74-41.09 33.68-55.48-.12-.83-.06-1.68.18-2.49s.65-1.56 1.2-2.19c.55-.64 1.23-1.15 2-1.5s1.6-.53 2.45-.53z" fill="#000"/><path d="m1501.26 839.438 55.17 315.002c3.17 16.06 9.8 31.25 19.43 44.5l193.78 267.37 186.12-134.47-179.25-247.18-48.59-290.503c-4.57-22.583-15.7-43.322-32-59.627l-104.81-51.804-88.83 66.59-145.7 197.96 169.74 39.289z" fill="#fff"/><path d="m1769.64 1472.19c-.31 0-.62-.02-.93-.07-1.55-.25-2.93-1.1-3.84-2.36l-193.78-267.37c-10.15-13.93-17.12-29.91-20.45-46.81l-28.72-163.997-166.67-38.577c-.95-.219-1.83-.671-2.56-1.315-.73-.643-1.29-1.458-1.63-2.372-.34-.913-.45-1.896-.31-2.861.13-.964.51-1.88 1.09-2.665l145.7-197.955c.34-.462.75-.873 1.21-1.219l88.82-66.59c.87-.654 1.91-1.053 3-1.153 1.08-.101 2.17.102 3.15.585l104.81 51.814c.57.282 1.09.655 1.55 1.103 17.07 17.141 28.76 38.895 33.6 62.584.02.08.03.16.05.243l48.36 289.135 178.44 246.06c.45.62.78 1.33.96 2.08.18.76.21 1.53.09 2.3-.13.76-.4 1.49-.8 2.15-.41.66-.94 1.23-1.57 1.68l-186.12 134.47c-1 .72-2.21 1.11-3.45 1.11zm-268.38-638.633c1.38.002 2.72.491 3.78 1.381 1.06.891 1.77 2.126 2.01 3.488l55.17 315.004c3.01 15.19 9.29 29.55 18.41 42.07l190.32 262.6 176.58-127.58-175.79-242.41c-.53-.73-.89-1.58-1.04-2.47l-48.57-290.385c-4.25-21.114-14.57-40.534-29.7-55.879l-100.69-49.766-85.23 63.902-139.89 190.062 152.41 35.283-23.58-138.41c-.27-1.535.09-3.112.99-4.383.91-1.272 2.28-2.134 3.81-2.399.33-.064.67-.1 1.01-.108z" fill="#000"/><path d="m834.399 1153.04c-7.246.01-14.447-1.12-21.341-3.34-20.328-6.55-36.429-21.84-45.341-43.06-8.806-21.76-9.536-45.94-2.057-68.19 6.949-22.41 21.691-41.612 41.569-54.13 19.652-12.022 41.669-15.037 61.995-8.489 20.326 6.547 36.431 21.838 45.34 43.059 8.808 21.76 9.538 45.94 2.06 68.19-12.862 39.83-47.127 65.96-82.225 65.96zm13.35-168.82c-12.171.135-24.065 3.641-34.358 10.129-17.479 11.051-30.43 27.971-36.517 47.711-6.615 19.57-6.008 40.86 1.712 60.03 7.561 18.01 21.088 30.94 38.088 36.41 5.748 1.85 11.752 2.79 17.791 2.79 30.092 0 59.685-22.96 70.956-57.82 6.614-19.58 6.007-40.87-1.712-60.03-7.561-18.01-21.09-30.94-38.088-36.417-5.777-1.861-11.81-2.807-17.88-2.803z" fill="#000"/><path d="m1876.62 1066.38c11.09-5.98 23.97-12.68 42.62-21.9 48.69-24.3 197.9-54.687 203.01-18.03 3.14 22.35-37.3 22.35-109.16 41.36 66.36-5.69 118.32 33.62 112.04 55.97z" fill="#fff"/><path d="m2125.13 1129.66c-.45 0-.89-.05-1.33-.15l-248.51-57.4c-1.16-.27-2.22-.88-3.03-1.77-.8-.88-1.32-1.99-1.48-3.17s.05-2.39.59-3.45c.54-1.07 1.4-1.94 2.45-2.51 12.96-6.98 26.16-13.76 42.81-21.99 41.91-20.92 163.23-48.135 199.47-29.09 8.76 4.6 11.35 10.98 11.98 15.52 3.03 21.56-21.29 26.85-61.58 35.62-3.88.85-7.89 1.73-12.04 2.64 31.31 5.74 55.85 20.37 68.12 35.19 7.62 9.19 10.46 18.28 8.21 26.28-.35 1.23-1.09 2.31-2.11 3.09-1.02.77-2.27 1.19-3.55 1.19zm-231.82-65.47 225.87 52.18c-1.23-3.6-3.15-6.93-5.66-9.79-15.96-19.24-55.41-36.73-99.94-32.92-1.46.13-2.93-.3-4.09-1.2-1.17-.89-1.96-2.2-2.21-3.65-.26-1.45.04-2.94.84-4.18s2.03-2.13 3.45-2.51c20.01-5.29 37.23-9.04 52.42-12.35 37.4-8.14 53.87-12.18 52.42-22.51-.24-1.71-1.1-4.27-5.8-6.74-29.83-15.68-145.18 7.47-188.74 29.21-10.68 5.29-19.9 9.96-28.56 14.46z" fill="#000"/><path d="m1795.26 626.409c-2.71 21.255-13.09 40.796-29.19 54.966s-36.81 22-58.27 22.025c-.2 0-.37-.012-.56-.012l-22.55 57.72c-4.42 11.309-13.16 20.402-24.29 25.279s-23.75 5.139-35.08.727c-5.6-2.184-10.73-5.45-15.07-9.61-4.35-4.161-7.83-9.136-10.25-14.64-2.41-5.503-3.72-11.429-3.85-17.438-.12-6.01.94-11.985 3.12-17.584l44.85-121.556 18.23-30.873 126.53-33.324c5.69 13.506 7.88 28.227 6.37 42.801l-.68-.082 18.85 32.147-18.16 9.446" fill="#fff"/><path d="m1642 796.153c-8.42-.003-16.71-2.056-24.16-5.981-7.44-3.925-13.81-9.604-18.56-16.544s-7.73-14.932-8.69-23.283.14-16.809 3.2-24.64l44.8-121.452c.12-.33.27-.649.45-.953l18.23-30.875c.79-1.334 2.07-2.304 3.57-2.699l126.54-33.323c1.37-.362 2.83-.216 4.1.411 1.28.627 2.28 1.693 2.83 3.001 5.92 14.107 8.29 29.446 6.9 44.677l17.29 29.505c.41.687.67 1.449.77 2.239.1.791.03 1.593-.19 2.358-.22.766-.59 1.478-1.1 2.095-.5.617-1.13 1.125-1.83 1.494l-15.47 8.051c-3.52 21.427-14.33 40.987-30.61 55.377-16.29 14.39-37.05 22.728-58.78 23.605l-21.11 54.029c-3.8 9.681-10.42 17.998-19.01 23.867-8.6 5.869-18.76 9.02-29.17 9.041zm7.46-187.337-44.66 121.058c-1.91 4.878-2.85 10.084-2.75 15.321.11 5.237 1.24 10.403 3.34 15.203s5.13 9.139 8.91 12.771c3.78 3.631 8.24 6.484 13.13 8.394 4.88 1.91 10.1 2.841 15.34 2.74 5.25-.102 10.42-1.234 15.23-3.332s9.15-5.12 12.79-8.895c3.64-3.776 6.49-8.229 8.41-13.106l22.55-57.712c.43-1.105 1.18-2.053 2.17-2.721.98-.667 2.14-1.024 3.32-1.022h.46c20.03-.048 39.36-7.36 54.4-20.576 15.03-13.216 24.74-31.435 27.32-51.267.12-.944.47-1.846 1.01-2.628.55-.781 1.27-1.419 2.12-1.859l12.67-6.592-15.72-26.815c-.55-.938-.83-2.009-.81-3.094.02-1.086.35-2.144.94-3.058.76-11.021-.72-22.083-4.35-32.519l-119.08 31.363z" fill="#000"/><path d="m1549.36 1568.24c-1.12 0-2.22-.32-3.16-.92l-52.81-33.52c-1.05-.67-1.87-1.65-2.32-2.81-.46-1.15-.54-2.43-.22-3.63.31-1.21 1-2.28 1.96-3.07.97-.79 2.15-1.25 3.4-1.32l44.37-2.55c.77-.05 1.55.05 2.29.31.73.25 1.41.64 1.99 1.16.58.51 1.06 1.13 1.4 1.83.33.7.53 1.46.58 2.23.04.77-.07 1.55-.33 2.28-.25.73-.65 1.41-1.17 1.99-.52.57-1.15 1.04-1.85 1.38-.7.33-1.46.52-2.23.56l-26.13 1.5 37.39 23.73c1.08.69 1.9 1.7 2.35 2.89s.5 2.5.15 3.72c-.36 1.23-1.1 2.3-2.13 3.07-1.02.76-2.26 1.17-3.53 1.17z" fill="#000"/><path d="m1106.83 1512.18c-.82 0-1.63-.17-2.38-.5s-1.42-.81-1.97-1.41l-19.05-20.78c-1.05-1.15-1.6-2.67-1.53-4.23s.75-3.03 1.9-4.08c1.16-1.05 2.68-1.6 4.24-1.54 1.56.07 3.03.76 4.09 1.91l19.04 20.78c.77.84 1.28 1.89 1.47 3.01.18 1.13.04 2.28-.42 3.33-.46 1.04-1.22 1.93-2.18 2.55-.95.63-2.07.96-3.21.96z" fill="#000"/><path d="m1707.6 709.477c-14.26-.057-28.33-3.264-41.21-9.392-1.41-.669-2.49-1.871-3.02-3.341-.52-1.469-.44-3.086.23-4.495.67-1.408 1.88-2.493 3.35-3.016 1.47-.522 3.09-.44 4.5.23 11.29 5.38 23.64 8.199 36.15 8.252 1.56 0 3.06.62 4.16 1.723 1.11 1.103 1.73 2.598 1.73 4.158s-.62 3.055-1.73 4.158c-1.1 1.103-2.6 1.723-4.16 1.723z" fill="#000"/><path d="m1726.05 629.5c-1.47 0-2.9-.555-3.98-1.554-1.09-.999-1.76-2.37-1.89-3.84-.12-1.471.32-2.933 1.23-4.098.9-1.164 2.22-1.945 3.67-2.188l8.43-1.416-11.58-11.316c-.55-.541-.99-1.184-1.29-1.895-.31-.71-.47-1.474-.48-2.246 0-.772.14-1.538.43-2.255.29-.716.72-1.369 1.26-1.92.54-.552 1.18-.991 1.9-1.294.71-.303 1.47-.462 2.25-.47.77-.008 1.54.137 2.25.425.72.288 1.37.715 1.93 1.256l19.83 19.406c.77.759 1.32 1.717 1.59 2.769.26 1.051.23 2.155-.1 3.19-.32 1.034-.93 1.959-1.75 2.671-.81.713-1.81 1.186-2.88 1.367l-19.83 3.332c-.33.052-.66.078-.99.076z" fill="#000"/><path d="m1801.01 564.089c-2.3-17.776-9.62-34.529-21.12-48.292-11.5-13.764-26.69-23.968-43.8-29.414-17.1-5.447-35.4-5.911-52.76-1.338s-33.05 13.994-45.23 27.157c-2.06 2.235-3.99 4.567-5.81 6.978-13.92-24.134-34-44.149-58.2-57.999-24.2-13.851-51.65-21.04-79.54-20.835s-55.23 7.798-79.22 22.003-43.78 34.513-57.34 58.85c-13.95-29.089-36.51-53.197-64.64-69.061-28.12-15.863-60.45-22.716-92.6-19.63-32.16 3.086-62.59 15.962-87.17 36.883-24.58 20.922-42.13 48.88-50.28 80.09-8.14 31.21-6.48 64.165 4.75 94.403 11.23 30.239 31.5 56.301 58.06 74.659s58.13 28.125 90.43 27.979c32.3-.145 63.78-10.196 90.17-28.793 1.02-.725 3.85-13.447 6.85-29.011 19.28-17.367 37.17-33.127 38.48-32.539 2.44 1.098 33.24 40.89 45.02 53.631-1.27 5.508-1.86 9.174-1.31 9.624 18.81 15.41 40.93 26.263 64.64 31.71 23.71 5.446 48.36 5.338 72.03-.316 23.66-5.654 45.69-16.7 64.36-32.274s33.48-35.253 43.26-57.494c21.56-1.588 50.24-5.469 77.81-14.565-5.53-2.878-10.19-7.171-13.5-12.44-3.32-5.269-5.17-11.324-5.37-17.543-.2-6.22 1.26-12.381 4.23-17.851 2.97-5.471 7.34-10.054 12.67-13.279 5.33-3.226 11.43-4.979 17.66-5.079 6.23-.099 12.38 1.457 17.81 4.511s9.95 7.494 13.09 12.867c3.15 5.372 4.81 11.483 4.81 17.706 0 .745-.02 1.47-.08 2.195 12.54-14.289 32.22-50.357 31.84-53.493z" fill="#0618bb"/><path d="m1353.81 657.727c-1 0-1.99-.258-2.87-.749-.88-.49-1.62-1.197-2.14-2.053-.53-.856-.83-1.832-.87-2.835-.04-1.004.18-2.001.63-2.897 25.02-49.411 3.65-111.6 3.43-112.224-.5-1.466-.4-3.071.28-4.465.67-1.394 1.88-2.464 3.34-2.979 1.46-.514 3.07-.432 4.47.231 1.41.662 2.49 1.85 3.02 3.307.96 2.73 23.3 67.479-4.03 121.436-.49.971-1.24 1.787-2.17 2.357s-2 .872-3.09.871z" fill="#000"/><path d="m1320.1 753.624c-4.48-.097-8.86-1.406-12.66-3.787-3.69-1.977-6.83-4.84-9.14-8.33s-3.72-7.498-4.09-11.664c-2.8-31.849 50.48-78.255 56.56-83.442.88-.743 1.95-1.217 3.08-1.361 1.14-.144 2.3.046 3.33.548 1.03.503 1.89 1.294 2.48 2.279.59.984.87 2.118.82 3.262-.38 8.737-4.49 85.755-30.8 100.033-2.93 1.61-6.23 2.457-9.58 2.462zm27.6-88.497c-17.81 17.154-43.32 45.91-41.76 63.689.21 2.301 1 4.512 2.31 6.419 1.3 1.906 3.08 3.444 5.16 4.464 5.47 3.217 8.7 2.186 10.64 1.131 13.19-7.153 20.86-45.663 23.65-75.703z" fill="#000"/><path d="m1383.85 755.192c-5.82.04-11.47-2.014-15.9-5.784-24.56-20.516-19.85-91.016-19.24-98.99.09-1.143.51-2.234 1.21-3.142.7-.907 1.65-1.59 2.73-1.964 1.09-.375 2.26-.426 3.37-.145 1.11.28 2.12.879 2.9 1.722 5.92 6.453 57.58 63.872 49.1 92.537-1.53 5.154-5.65 11.895-16.63 14.745-2.46.659-4.99 1.002-7.54 1.021zm-24.01-89.347c-.41 24.735 1.96 63.094 15.68 74.544 1.77 1.478 3.89 2.477 6.15 2.899 2.27.423 4.6.255 6.79-.488 6.12-1.59 7.65-4.583 8.28-6.696 4.26-14.372-17.59-47.023-36.9-70.259z" fill="#000"/><path d="m1715.44 653.156c-.94.001-1.86-.223-2.69-.651-6.83-3.496-12.6-8.745-16.72-15.206-4.12-6.462-6.44-13.903-6.73-21.558-.28-7.654 1.48-15.247 5.11-21.997s8.99-12.413 15.54-16.407c6.54-3.994 14.04-6.175 21.71-6.318 7.67-.144 15.24 1.755 21.93 5.502s12.26 9.205 16.14 15.815c3.88 6.609 5.93 14.13 5.93 21.791 0 1.47-.08 2.939-.22 4.402-.08.773-.3 1.525-.66 2.21-.37.686-.87 1.293-1.47 1.787-.6.493-1.29.862-2.03 1.087-.75.225-1.53.3-2.3.221-.78-.078-1.53-.309-2.21-.679-.69-.369-1.29-.87-1.78-1.474s-.85-1.299-1.07-2.044-.29-1.526-.2-2.298c.11-1.067.16-2.139.16-3.212 0-5.572-1.49-11.042-4.31-15.849-2.82-4.806-6.88-8.776-11.74-11.5-4.87-2.725-10.38-4.105-15.96-4s-11.03 1.692-15.79 4.597c-4.76 2.906-8.66 7.025-11.3 11.935-2.63 4.909-3.91 10.432-3.7 15.999.2 5.567 1.89 10.979 4.89 15.678 3 4.698 7.2 8.515 12.16 11.057 1.18.603 2.12 1.583 2.67 2.783.55 1.201.68 2.551.37 3.834s-1.05 2.424-2.09 3.239c-1.04.816-2.32 1.258-3.64 1.256z" fill="#000"/><path d="m4179.15 2229.12h-4300.837c-4.935 0-8.389-2.67-8.389-6.4 0-3.72 3.454-6.39 8.389-6.39h4300.837c4.94 0 8.39 2.67 8.39 6.39 0 3.73-4.44 6.4-8.39 6.4z" fill="#000"/><path d="m3237.78 379.193h63.86c1.87 0 3.73-.376 5.47-1.106 1.73-.73 3.31-1.801 4.64-3.15 1.33-1.35 2.38-2.952 3.1-4.715s1.09-3.653 1.09-5.561c0-1.909-.37-3.798-1.09-5.562-.72-1.763-1.77-3.365-3.1-4.714-1.33-1.35-2.91-2.42-4.64-3.15-1.74-.731-3.6-1.107-5.47-1.107h-20.59l22.27-12.187c1.92-1.072 3.58-2.57 4.86-4.382s2.14-3.892 2.52-6.087c.44-2.683.13-5.438-.9-7.95-1.02-2.512-2.72-4.682-4.9-6.261s-4.75-2.505-7.42-2.673c-2.67-.167-5.34.431-7.69 1.727l-69 37.81" fill="#fff"/><path d="m3301.64 384.44h-63.86c-1.37 0-2.68-.553-3.65-1.537s-1.51-2.318-1.51-3.71c0-1.391.54-2.726 1.51-3.71s2.28-1.537 3.65-1.537h63.86c1.41.006 2.8-.317 4.07-.943 1.26-.627 2.37-1.54 3.24-2.67 1.04-1.381 1.68-3.031 1.84-4.763.17-1.731-.15-3.475-.91-5.033s-1.94-2.868-3.4-3.781c-1.45-.913-3.13-1.392-4.84-1.384h-20.59c-1.15 0-2.26-.39-3.17-1.108s-1.55-1.723-1.83-2.856-.19-2.328.28-3.397c.46-1.07 1.26-1.951 2.27-2.505l22.27-12.189c1.24-.695 2.3-1.66 3.12-2.826s1.38-2.504 1.62-3.915c.28-1.711.07-3.467-.58-5.067-.66-1.6-1.75-2.981-3.14-3.987-1.39-1.005-3.03-1.594-4.73-1.701-1.7-.106-3.4.275-4.9 1.099l-69.02 37.824c-.6.337-1.25.55-1.93.627s-1.37.017-2.03-.178c-.65-.195-1.26-.521-1.8-.958-.53-.437-.97-.977-1.29-1.588-.33-.612-.53-1.282-.59-1.974-.07-.691 0-1.389.2-2.053s.52-1.281.96-1.815c.44-.535.97-.976 1.58-1.298l69-37.815c3.2-1.762 6.83-2.574 10.47-2.344s7.14 1.494 10.1 3.647c2.97 2.153 5.28 5.11 6.67 8.532 1.39 3.423 1.81 7.174 1.21 10.826-.51 2.968-1.67 5.781-3.39 8.233s-3.96 4.48-6.56 5.934l-4.31 2.363h.1c5.16 0 10.11 2.084 13.76 5.793 3.65 3.71 5.7 8.741 5.7 13.986 0 5.246-2.05 10.277-5.7 13.987-3.65 3.709-8.6 5.793-13.76 5.793z" fill="#000"/><path d="m3103.57 462.442c-.8 0-1.59-.189-2.31-.554-.71-.364-1.34-.893-1.82-1.545s-.81-1.409-.95-2.211c-.14-.801-.1-1.626.12-2.408l22.34-77.818c.18-.673.49-1.302.91-1.851s.95-1.008 1.55-1.348c.59-.341 1.25-.557 1.94-.635.68-.079 1.37-.019 2.02.176.66.195 1.28.522 1.81.96.53.439.97.981 1.3 1.595.32.615.52 1.288.59 1.982.06.694-.01 1.394-.21 2.059l-22.33 77.818c-.32 1.09-.97 2.047-1.86 2.729-.89.681-1.98 1.05-3.1 1.051z" fill="#000"/><path d="m3073.08 462.442c-.8 0-1.59-.189-2.31-.554-.72-.364-1.34-.893-1.82-1.545-.49-.652-.81-1.409-.95-2.21-.15-.802-.1-1.627.12-2.409l22.33-77.818c.39-1.336 1.28-2.463 2.48-3.132s2.61-.826 3.93-.436c1.31.389 2.42 1.294 3.08 2.514s.81 2.656.43 3.992l-22.34 77.818c-.31 1.09-.96 2.048-1.85 2.729-.9.682-1.98 1.05-3.1 1.051z" fill="#000"/><path d="m3007.32 196.894h-61.61l57.31 30.432z" fill="#000"/><path d="m3082.37 378.964c-15.52-.018-30.39-6.288-41.36-17.437-10.97-11.148-17.15-26.263-17.16-42.029v-36.729c-.22-13.889-4.25-27.442-11.62-39.141-6.44-10.405-9.38-22.657-8.37-34.908 1.07-13.327 6.82-25.819 16.2-35.193 9.47-9.546 21.98-15.343 35.28-16.348 1.36-.096 2.71-.143 4.04-.143 11.99.027 23.64 3.976 33.24 11.263 9.61 7.287 16.64 17.523 20.07 29.193 4.15 15.135 11.11 29.323 20.51 41.801l106.12 139.667z" fill="#fff"/><path d="m3059.38 162.283c10.87.019 21.43 3.595 30.14 10.196 8.71 6.602 15.09 15.879 18.21 26.456 4.32 15.768 11.57 30.551 21.36 43.55l99.72 131.232h-146.45c-14.14-.017-27.7-5.734-37.7-15.899-10.01-10.164-15.63-23.945-15.65-38.32v-36.729c-.23-14.887-4.53-29.417-12.43-41.956-5.84-9.449-8.5-20.572-7.57-31.69.97-12.062 6.18-23.365 14.67-31.846 8.6-8.676 19.96-13.947 32.04-14.863 1.22-.088 2.45-.131 3.66-.131zm0-10.494c-1.45 0-2.91.052-4.38.155-14.54 1.065-28.22 7.395-38.55 17.84-10.28 10.239-16.57 23.901-17.73 38.478-1.14 13.381 2.07 26.771 9.12 38.128 6.88 10.862 10.64 23.463 10.84 36.379v36.729c.02 17.157 6.74 33.605 18.68 45.737 11.94 12.131 28.12 18.956 45 18.976h167.47l-112.56-148.14c-9-11.956-15.66-25.551-19.62-40.052-3.71-12.778-11.39-23.992-21.9-31.965-10.5-7.972-23.26-12.276-36.37-12.265z" fill="#000"/><path d="m3038.65 223.653c8.55 0 15.49-7.047 15.49-15.741 0-8.693-6.94-15.741-15.49-15.741-8.56 0-15.49 7.048-15.49 15.741 0 8.694 6.93 15.741 15.49 15.741z" fill="#000"/><path d="m3249.83 384.388h-98.62c-15.38-.007-30.13-6.219-41.01-17.272-10.87-11.052-16.99-26.039-16.99-41.67l-5.75-36.046c-1.1-1.623-2.35-3.14-3.72-4.53l-9.29-9.445c-3.01-3.015-5.4-6.61-7.02-10.574-1.63-3.965-2.46-8.218-2.45-12.513.02-8.665 3.43-16.967 9.47-23.086 6.02-6.127 9.42-14.424 9.46-23.087v-3.848c0-4.278-.83-8.515-2.45-12.463-1.63-3.949-4-7.532-6.99-10.541-3-3.009-6.55-5.385-10.45-6.99-3.9-1.606-8.08-2.408-12.29-2.362h-35.29c7.47-7.546 16.73-12.995 26.88-15.814 10.15-2.818 20.86-2.91 31.05-.266 10.2 2.644 19.55 7.933 27.14 15.351 7.58 7.417 13.14 16.708 16.14 26.964 3.96 14.5 10.62 28.096 19.62 40.052z" fill="#0618bb"/><path d="m3202.37 373.295-70.4-92.871v41.451c.02 13.631 5.36 26.697 14.85 36.335 9.48 9.639 22.34 15.063 35.75 15.085z" fill="#000"/><path d="m2783.83 465.854c.53 0 1.06-.076 1.59-.235 2.93-.881 4.58-3.976 3.7-6.912l-12.89-43.15c-.87-2.936-3.95-4.601-6.87-3.719-2.92.881-4.58 3.976-3.7 6.912l12.89 43.15c.72 2.402 2.91 3.954 5.28 3.954z" fill="#000"/><path d="m2804.87 460.176c.52 0 1.06-.076 1.58-.235 2.93-.881 4.58-3.976 3.71-6.912l-11.45-38.332c-.88-2.936-3.96-4.601-6.88-3.721-2.92.881-4.57 3.976-3.7 6.912l11.45 38.332c.72 2.403 2.91 3.956 5.29 3.956z" fill="#000"/><path d="m2851.78 287.398 39.31 5.55-38.26 20.073z" fill="#000"/><path d="m2849.62 325.528c-4.59 7.14-7.08 15.439-7.17 23.94v24.273c0 23.502-18.96 42.552-42.34 42.552h-111.62l74.99-97.629c5.96-7.905 10.39-16.858 13.07-26.401 6.38-21.544 28.93-33.81 50.37-27.394 21.43 6.414 33.63 29.08 27.25 50.624-1.04 3.508-2.54 6.857-4.47 9.961z" fill="#fff"/><path d="m2688.49 421.844h111.62c26.39 0 47.86-21.58 47.86-48.103v-24.273c.08-7.276 2.19-14.416 6.09-20.612.12-.148.22-.301.32-.458 2.19-3.525 3.9-7.334 5.08-11.319 7.24-24.446-6.65-50.252-30.97-57.531-24.31-7.278-49.99 6.688-57.23 31.13-2.53 8.988-6.62 17.25-12.18 24.634l-74.96 97.588c-1.28 1.675-1.51 3.941-.58 5.839s2.85 3.105 4.95 3.105zm156.71-99.633c-.08.102-.15.203-.21.301-5.17 8.03-7.96 17.328-8.07 26.891v24.337c0 20.402-16.51 37.001-36.81 37.001h-100.38l68.12-88.686c6.43-8.534 11.14-18.036 14.01-28.284 5.49-18.501 25-29.113 43.48-23.583 18.48 5.532 29.04 25.145 23.54 43.722-.87 2.915-2.1 5.707-3.68 8.301z" fill="#000"/><path d="m2829.16 310.635c-5.73 0-10.37-4.663-10.37-10.416s4.64-10.416 10.37-10.416c5.72 0 10.36 4.663 10.36 10.416s-4.64 10.416-10.36 10.416z" fill="#000"/><path d="m2684.03 412.993 74.96-97.589c5.56-7.383 9.65-15.646 12.17-24.624 7.2-24.455 32.85-38.469 57.18-31.235 7.29 2.166 13.99 6.155 19.38 11.535 1.58 1.584 2.06 3.974 1.21 6.053-.85 2.08-2.87 3.436-5.1 3.436h-23.5c-8.73.007-15.83 7.145-15.84 15.911v2.536c0 4.255 1.65 8.255 4.64 11.262 10.48 10.538 10.48 27.686 0 38.234l-6.16 6.17c-3 3.015-4.65 7.025-4.65 11.287v11.563c0 24.484-19.81 44.402-44.17 44.402h-65.75c-2.11 0-4.03-1.202-4.96-3.102-.92-1.898-.7-4.163.59-5.839z" fill="#b4baeb"/><path d="m3906.81 1185.86c-20.74-25.26-23.17-60.76-6.05-88.56 16-26.3 24.71-56.33 25.26-87.05 1.68-84.865-58.62-157.356-139.28-174.7l45.7-45.374c10.83-10.753 10.83-28.187 0-38.941-10.83-10.753-28.39-10.753-39.23 0l-21 20.856v-29.498c0-15.208-12.42-27.535-27.74-27.535s-27.73 12.327-27.73 27.535v29.51l-21.02-20.862c-10.83-10.754-28.39-10.754-39.22 0-10.84 10.754-10.84 28.187 0 38.941l47.64 47.293c-74.54 19.674-129.93 86.616-131.06 166.935-.46 32.56 8.22 64.6 25.08 92.53 16.92 27.96 15.31 63.42-5.61 88.63-30.64 36.96-46.97 83.57-46.06 131.43 1.92 108.31 91.02 196.53 200.14 198.05 112.15 1.6 204.38-87.36 205.99-198.7.69-47.5-15.54-93.71-45.81-130.49z" fill="#b4baeb"/><g fill="#000"><path d="m3749.56 2271.73c-3.17 0-5.74-2.55-5.74-5.7v-1222.14c0-3.15 2.57-5.71 5.74-5.71s5.74 2.56 5.74 5.71v1222.14c0 3.15-2.57 5.7-5.74 5.7z"/><path d="m3750.84 1367.68c-1.46 0-2.92-.55-4.04-1.65-2.25-2.21-2.27-5.82-.04-8.06l56.77-56.97c2.23-2.24 5.87-2.26 8.12-.05 2.26 2.22 2.28 5.83.05 8.07l-56.77 56.97c-1.13 1.12-2.61 1.69-4.09 1.69z"/><path d="m3748.28 1367.68c-1.47 0-2.94-.56-4.06-1.67l-57.39-56.97c-2.24-2.23-2.24-5.84 0-8.07 2.25-2.22 5.88-2.22 8.12 0l57.39 56.97c2.24 2.23 2.24 5.84 0 8.07-1.12 1.11-2.59 1.67-4.06 1.67z"/><path d="m3750.84 1288.95c-1.46 0-2.92-.55-4.04-1.65-2.25-2.21-2.27-5.83-.04-8.06l56.77-56.96c2.23-2.23 5.87-2.25 8.13-.04 2.25 2.22 2.27 5.83.04 8.07l-56.77 56.95c-1.13 1.12-2.61 1.69-4.09 1.69z"/><path d="m3748.28 1288.95c-1.47 0-2.94-.56-4.06-1.67l-57.39-56.95c-2.24-2.23-2.24-5.84 0-8.07 2.24-2.22 5.88-2.22 8.12 0l57.39 56.96c2.24 2.22 2.24 5.83 0 8.06-1.12 1.11-2.59 1.67-4.06 1.67z"/><path d="m3750.84 1210.24c-1.46 0-2.92-.55-4.04-1.65-2.25-2.21-2.27-5.82-.04-8.06l56.77-56.97c2.23-2.24 5.87-2.26 8.12-.05 2.26 2.22 2.28 5.83.05 8.07l-56.77 56.97c-1.13 1.12-2.61 1.69-4.09 1.69z"/><path d="m3748.28 1210.24c-1.47 0-2.94-.56-4.06-1.67l-57.39-56.97c-2.24-2.23-2.24-5.84 0-8.07 2.25-2.22 5.88-2.22 8.12 0l57.39 56.97c2.24 2.23 2.24 5.84 0 8.07-1.12 1.11-2.59 1.67-4.06 1.67z"/><path d="m3750.84 1131.51c-1.46 0-2.92-.55-4.04-1.65-2.25-2.21-2.27-5.82-.04-8.06l56.77-56.97c2.23-2.24 5.87-2.26 8.12-.05 2.26 2.22 2.28 5.83.05 8.07l-56.77 56.97c-1.13 1.12-2.61 1.69-4.09 1.69z"/><path d="m3748.28 1131.51c-1.47 0-2.94-.56-4.06-1.67l-57.39-56.97c-2.24-2.23-2.24-5.84 0-8.07 2.25-2.22 5.88-2.22 8.12 0l57.39 56.98c2.24 2.22 2.24 5.83 0 8.06-1.12 1.11-2.59 1.67-4.06 1.67z"/></g><path d="m3608.03 1713.2-39.15 48.49-48.7-38.89c-7.58-6.03-13.89-13.5-18.56-21.97-4.67-8.46-7.61-17.77-8.66-27.37-1.05-9.61-.18-19.33 2.55-28.6 2.74-9.28 7.28-17.93 13.38-25.46l39.16-48.48 48.69 38.88c7.58 6.04 13.89 13.5 18.56 21.97s7.62 17.77 8.67 27.38c1.05 9.6.18 19.32-2.56 28.6-2.73 9.27-7.28 17.92-13.38 25.45z" fill="#fff"/><path d="m3569.51 1767.41c-1.53.17-3.06-.28-4.26-1.23l-48.69-38.89c-16.46-13.18-26.99-32.31-29.27-53.21s3.87-41.86 17.09-58.28l39.16-48.48c.98-1.16 2.38-1.89 3.89-2.06s3.03.25 4.25 1.17l48.69 38.88c8.18 6.51 14.98 14.56 20.01 23.69 5.04 9.13 8.22 19.16 9.35 29.52s.19 20.84-2.75 30.84c-2.95 10.01-7.85 19.33-14.43 27.45l-39.16 48.49c-.96 1.19-2.36 1.95-3.88 2.11zm-20.58-188.4-35.52 43.99c-5.63 6.94-9.82 14.92-12.34 23.47s-3.32 17.5-2.35 26.36c.96 8.85 3.68 17.43 7.98 25.23 4.31 7.81 10.13 14.69 17.11 20.25l44.19 35.29 35.52-44 .02-.02c5.62-6.93 9.81-14.91 12.32-23.46 2.52-8.54 3.32-17.5 2.35-26.35-.96-8.86-3.68-17.43-7.99-25.23-4.3-7.8-10.12-14.68-17.1-20.24z" fill="#000"/><path d="m3576.69 1833.23c19.81-2.17 34.12-19.89 31.97-39.59-2.15-19.71-19.95-33.92-39.76-31.76s-34.13 19.89-31.97 39.59c2.15 19.71 19.95 33.92 39.76 31.76z" fill="#fff"/><path d="m3577.32 1838.95c-8.24.9-16.55-.65-23.89-4.45s-13.38-9.68-17.36-16.9-5.71-15.46-4.98-23.66c.73-8.21 3.89-16.02 9.08-22.44 5.18-6.43 12.17-11.18 20.07-13.66s16.36-2.57 24.31-.27c7.94 2.3 15.02 6.9 20.34 13.21 5.32 6.3 8.63 14.04 9.53 22.23 1.18 10.98-2.06 21.98-9.01 30.59-6.96 8.61-17.06 14.13-28.09 15.35zm-7.8-71.35c-5.95.65-11.58 3.05-16.18 6.88-4.59 3.83-7.94 8.93-9.62 14.65s-1.62 11.81.18 17.49c1.79 5.69 5.24 10.71 9.91 14.44s10.35 5.99 16.32 6.51 11.96-.74 17.21-3.6c5.26-2.87 9.54-7.22 12.31-12.51s3.91-11.27 3.26-17.19c-.88-7.94-4.88-15.21-11.14-20.21s-14.26-7.32-22.25-6.46z" fill="#000"/><path d="m3619.13 2221.84c-1.53.16-3.06-.28-4.25-1.24-1.2-.95-1.97-2.34-2.13-3.86l-59.25-542.56c-.17-1.52.28-3.04 1.24-4.23s2.36-1.95 3.89-2.12c1.52-.17 3.05.28 4.25 1.23 1.2.96 1.96 2.35 2.13 3.86l59.25 542.56c.16 1.52-.28 3.04-1.25 4.23-.96 1.2-2.36 1.96-3.88 2.13z" fill="#000"/><path d="m3548.67 1576.64c-1.53.17-3.06-.28-4.25-1.23-1.2-.96-1.96-2.35-2.13-3.87l-5.38-49.22c-.16-1.51.29-3.04 1.25-4.23s2.36-1.95 3.88-2.12c1.53-.16 3.06.28 4.26 1.23 1.19.96 1.96 2.35 2.12 3.87l5.38 49.22c.16 1.51-.28 3.04-1.25 4.23-.96 1.19-2.35 1.95-3.88 2.12z" fill="#000"/><path d="m3548.67 1576.64c-1.11.12-2.23-.08-3.23-.58s-1.83-1.28-2.39-2.24l-25.04-42.63c-.75-1.32-.96-2.88-.56-4.34.39-1.47 1.35-2.72 2.67-3.49 1.32-.76 2.89-.98 4.36-.61 1.48.38 2.75 1.32 3.53 2.62l25.03 42.63c.49.83.76 1.77.79 2.73s-.18 1.91-.61 2.77c-.44.86-1.08 1.59-1.87 2.14-.8.55-1.72.89-2.68 1z" fill="#000"/><path d="m3548.67 1576.64c-.97.1-1.94-.03-2.83-.4-.9-.36-1.68-.95-2.29-1.69-.61-.75-1.02-1.64-1.2-2.58-.17-.95-.11-1.92.19-2.84l15.44-47.05c.47-1.45 1.51-2.66 2.88-3.35s2.96-.82 4.42-.35c1.46.48 2.67 1.51 3.36 2.87.7 1.36.82 2.94.34 4.39l-15.43 47.05c-.35 1.06-.99 1.99-1.86 2.69-.86.7-1.92 1.14-3.02 1.26z" fill="#000"/><path d="m293.307 1875.74c22.978 0 41.605-18.67 41.605-41.69s-18.627-41.69-41.605-41.69c-22.977 0-41.604 18.67-41.604 41.69s18.627 41.69 41.604 41.69z" fill="#b4baeb"/><path d="m293.308 1881.69c-9.405 0-18.597-2.79-26.417-8.03-7.819-5.23-13.913-12.67-17.512-21.38-3.599-8.7-4.54-18.28-2.706-27.53 1.835-9.24 6.364-17.73 13.013-24.39 6.65-6.66 15.122-11.2 24.345-13.04 9.224-1.84 18.784-.89 27.472 2.71 8.688 3.61 16.114 9.71 21.339 17.55 5.225 7.83 8.013 17.05 8.013 26.47-.014 12.63-5.028 24.74-13.942 33.67s-20.999 13.96-33.605 13.97zm0-83.37c-7.053 0-13.948 2.09-19.813 6.02-5.864 3.92-10.435 9.5-13.134 16.03s-3.405 13.72-2.029 20.65 4.772 13.3 9.76 18.3c4.987 4.99 11.341 8.4 18.258 9.77 6.918 1.38 14.088.68 20.604-2.03 6.517-2.7 12.086-7.28 16.004-13.16 3.919-5.88 6.01-12.78 6.01-19.85-.01-9.48-3.771-18.56-10.456-25.26s-15.75-10.46-25.204-10.47z" fill="#000"/><path d="m411.98 2223.94c-1.27 0-2.506-.41-3.527-1.17-1.021-.75-1.775-1.81-2.149-3.03l-118.672-383.93c-.231-.75-.312-1.53-.24-2.31s.296-1.54.66-2.23.86-1.3 1.461-1.8c.6-.5 1.293-.88 2.039-1.11s1.529-.31 2.307-.24c.777.07 1.532.3 2.223.66.69.37 1.302.86 1.801 1.46.499.61.874 1.3 1.105 2.05l118.672 383.93c.276.89.339 1.83.184 2.75s-.524 1.79-1.077 2.55c-.553.75-1.274 1.36-2.106 1.78-.831.42-1.75.64-2.681.64z" fill="#000"/><path d="m411.98 2223.94c-1.577 0-3.088-.63-4.203-1.75s-1.741-2.63-1.741-4.21v-673.96c0-1.58.626-3.09 1.741-4.21s2.626-1.75 4.203-1.75c1.576 0 3.088.63 4.202 1.75 1.115 1.12 1.741 2.63 1.741 4.21v673.96c0 1.58-.626 3.09-1.741 4.21-1.114 1.12-2.626 1.75-4.202 1.75z" fill="#000"/><path d="m498.357 1392.95c-2.655-.57-5.396-.6-8.063-.1-2.668.51-5.209 1.54-7.476 3.03-2.267 1.5-4.215 3.43-5.731 5.69-1.515 2.26-2.569 4.79-3.099 7.46.558-2.66.585-5.41.08-8.09-.505-2.67-1.532-5.22-3.021-7.49-1.49-2.28-3.413-4.24-5.659-5.76-2.247-1.53-4.772-2.6-7.432-3.15s-5.402-.57-8.068-.05c-2.667.51-5.205 1.55-7.471 3.05-2.265 1.5-4.212 3.44-5.73 5.69-1.518 2.26-2.576 4.79-3.114 7.46l-21.397 102.83-21.396-102.83c-1.12-5.35-4.312-10.04-8.877-13.04-4.564-3-10.13-4.07-15.476-2.97-5.347 1.11-10.04 4.29-13.051 8.85-3.01 4.56-4.093 10.14-3.012 15.5-.538-2.67-1.596-5.2-3.114-7.46s-3.465-4.19-5.73-5.69c-2.266-1.5-4.804-2.54-7.471-3.05-2.666-.52-5.408-.5-8.068.05-2.66.54-5.185 1.61-7.432 3.14-2.246 1.53-4.169 3.49-5.659 5.77-1.489 2.27-2.516 4.82-3.021 7.49-.504 2.68-.477 5.42.08 8.09l2.773 13.5 18.821 91.31c3.21 15.8 10.928 30.33 22.217 41.81 11.289 11.49 25.663 19.45 41.378 22.91v.2c5.737 1.18 11.578 1.78 17.435 1.78 5.856-.01 11.696-.61 17.434-1.78v-.2c15.715-3.46 30.09-11.42 41.379-22.91 11.289-11.48 19.006-26.01 22.216-41.81l18.821-91.31 2.774-13.5c.812-5.46-.476-11.01-3.604-15.55-3.127-4.53-7.86-7.7-13.236-8.87z" fill="#b4baeb"/><path d="m366.015 1493.2c-1.368 0-2.694-.48-3.753-1.34-1.06-.87-1.788-2.08-2.062-3.42l-16.443-79.81c-.163-.76-.173-1.56-.029-2.33s.439-1.51.867-2.16c.429-.66.983-1.23 1.631-1.67.647-.44 1.376-.75 2.143-.91s1.558-.16 2.327-.01c.77.15 1.502.45 2.155.88.654.43 1.215.99 1.652 1.64s.741 1.39.895 2.16l16.444 79.8c.158.76.163 1.55.017 2.32-.147.77-.443 1.5-.872 2.16-.429.65-.983 1.21-1.629 1.65s-1.372.75-2.136.91c-.397.08-.801.13-1.207.13z" fill="#000"/><path d="m457.743 1493.2c-.406 0-.811-.04-1.209-.12-.764-.16-1.49-.47-2.136-.91s-1.199-1-1.628-1.65c-.428-.66-.725-1.39-.871-2.16-.147-.76-.141-1.55.017-2.32l16.444-79.8c.153-.77.458-1.5.895-2.16.437-.65.998-1.21 1.651-1.64.654-.43 1.386-.73 2.155-.88.77-.15 1.561-.14 2.328.01.767.16 1.496.47 2.143.91.648.45 1.202 1.01 1.63 1.67.429.66.724 1.39.868 2.16.144.78.134 1.57-.029 2.34l-16.444 79.8c-.276 1.34-1.005 2.55-2.064 3.41-1.059.87-2.384 1.34-3.75 1.34z" fill="#000"/><path d="m3432.55 1950.59-180.83 9.12c-30.76 1.55-56.96-22.17-58.52-52.97-1.55-30.81 22.12-57.04 52.89-58.59l180.8-9.12c30.76-1.56 56.97 22.15 58.53 52.96s-22.11 57.04-52.87 58.6zm-184.21-57.83c-6.14.42-10.78 5.76-10.36 11.91.41 6.01 5.5 10.6 11.5 10.41l180.81-9.12c6.15-.43 10.79-5.76 10.36-11.92-.41-6-5.5-10.6-11.5-10.4z" fill="#fff"/><path d="m3436.32 1956.06c-1.15.12-2.31.21-3.48.27l-180.82 9.12c-16.41.83-32.16-4.79-44.36-15.83-12.19-11.03-19.36-26.16-20.19-42.6-.83-16.43 4.78-32.2 15.8-44.41 11.02-12.2 26.11-19.38 42.53-20.21l180.8-9.11c16.41-.83 32.16 4.79 44.36 15.82 12.19 11.03 19.36 26.16 20.2 42.59 1.66 32.75-22.67 60.91-54.84 64.36zm-4.06-11.21c27.58-1.39 48.83-24.98 47.43-52.57-.68-13.36-6.52-25.67-16.43-34.64-9.92-8.98-22.73-13.54-36.08-12.87l-180.8 9.12c-13.34.66-25.63 6.51-34.59 16.43-8.96 9.93-13.53 22.76-12.85 36.13.68 13.36 6.51 25.67 16.42 34.64 9.92 8.98 22.73 13.55 36.08 12.88zm-.92-33.22c-.22.03-.44.05-.66.06l-180.91 9.12c-9.23.31-16.89-6.61-17.52-15.75-.31-4.51 1.15-8.87 4.12-12.27 2.96-3.41 7.04-5.46 11.58-5.77.03 0 .07 0 .1-.01l180.81-9.11c9.24-.31 16.89 6.61 17.52 15.75.31 4.51-1.15 8.87-4.12 12.27-2.81 3.25-6.67 5.26-10.92 5.71zm-182.81-13.12c-1.36.15-2.6.79-3.5 1.83-.95 1.1-1.42 2.49-1.32 3.94.2 2.93 2.65 5.14 5.58 5.05l180.71-9.12c1.35-.08 2.66-.75 3.61-1.84s1.42-2.49 1.31-3.93c-.2-2.93-2.65-5.15-5.58-5.05l-180.64 9.11c-.06 0-.11.01-.17.01z" fill="#000"/><path d="m3428.8 2100.85c-20.56 1.04-80.99-33.31-80.99-33.31s56.65-40.25 77.23-41.28c20.57-1.03 38.08 14.83 39.12 35.43 1.04 20.59-14.8 38.12-35.36 39.16z" fill="#0618bb"/><path d="m3270.6 2108.83c20.57-1.04 77.21-41.29 77.21-41.29s-60.4-34.33-80.98-33.31c-20.59.62-36.79 17.83-36.17 38.45.61 20.62 17.8 36.84 38.39 36.23.52-.01 1.04-.04 1.55-.08z" fill="#0618bb"/><path d="m3366.32 2426.78c-.11.01-.22.02-.33.03-3.16.16-5.86-2.29-6.02-5.46l-23.57-465.91c-.16-3.17 2.27-5.86 5.44-6.03 3.17-.16 5.87 2.28 6.03 5.45l23.57 465.91c.15 3.06-2.11 5.69-5.12 6.01z" fill="#000"/><path d="m3127.97 2100.08c15.2 0 27.52-12.36 27.52-27.61 0-15.24-12.32-27.6-27.52-27.6-15.19 0-27.51 12.36-27.51 27.6 0 15.25 12.32 27.61 27.51 27.61z" fill="#fff"/><path d="m3127.97 2105.35c-6.48 0-12.81-1.93-18.2-5.54s-9.59-8.75-12.08-14.75c-2.48-6.01-3.12-12.62-1.86-19s4.39-12.24 8.97-16.84 10.42-7.73 16.78-9c6.36-1.26 12.95-.61 18.93 1.88 5.99 2.48 11.11 6.7 14.71 12.11 3.6 5.4 5.53 11.76 5.53 18.26-.01 8.72-3.47 17.08-9.61 23.24-6.15 6.17-14.48 9.63-23.17 9.64zm0-55.21c-4.4 0-8.7 1.31-12.36 3.77-3.66 2.45-6.52 5.94-8.2 10.02s-2.13 8.57-1.27 12.9 2.98 8.31 6.09 11.43c3.12 3.13 7.08 5.25 11.4 6.11 4.32.87 8.79.42 12.86-1.27s7.54-4.55 9.99-8.22 3.75-7.99 3.75-12.41c-.01-5.92-2.35-11.59-6.53-15.78-4.17-4.19-9.83-6.54-15.73-6.55z" fill="#000"/><path d="m3044.38 2127.33c12 0 21.73-9.76 21.73-21.8s-9.73-21.8-21.73-21.8c-12.01 0-21.74 9.76-21.74 21.8s9.73 21.8 21.74 21.8z" fill="#fff"/><path d="m3044.38 2132.61c-5.34 0-10.56-1.59-15-4.57-4.44-2.97-7.9-7.2-9.94-12.15s-2.58-10.39-1.53-15.64c1.04-5.26 3.61-10.08 7.38-13.87 3.78-3.79 8.59-6.36 13.82-7.41 5.24-1.04 10.66-.51 15.59 1.54 4.94 2.05 9.15 5.52 12.12 9.98 2.96 4.45 4.55 9.68 4.55 15.04-.01 7.18-2.86 14.06-7.92 19.14-5.06 5.07-11.92 7.93-19.07 7.94zm0-43.61c-3.26 0-6.45.97-9.16 2.79-2.71 1.81-4.82 4.39-6.06 7.41-1.25 3.02-1.58 6.35-.94 9.55.63 3.21 2.2 6.15 4.51 8.47 2.3 2.31 5.24 3.88 8.43 4.52 3.2.64 6.51.31 9.52-.94s5.58-3.37 7.39-6.09 2.78-5.91 2.78-9.18c0-4.38-1.74-8.58-4.83-11.68s-7.28-4.84-11.64-4.85z" fill="#000"/><path d="m3087.31 2220.52c-.81 0-1.61-.19-2.34-.55-.73-.37-1.37-.89-1.86-1.55-.49-.65-.82-1.41-.97-2.21s-.11-1.63.12-2.41l40.65-142.78c.19-.67.51-1.3.93-1.85.43-.54.96-1 1.57-1.34.6-.34 1.27-.56 1.96-.64s1.39-.03 2.06.16c.66.2 1.29.52 1.83.95.54.44 1 .97 1.33 1.58s.55 1.29.62 1.98.01 1.39-.18 2.06l-40.66 142.77c-.32 1.11-.98 2.08-1.89 2.77s-2.02 1.06-3.17 1.06z" fill="#000"/><path d="m3087.31 2220.52c-1.05 0-2.08-.32-2.96-.91-.87-.6-1.54-1.44-1.93-2.43l-42.94-109.72c-.51-1.3-.48-2.75.07-4.04.56-1.28 1.6-2.29 2.9-2.8s2.74-.49 4.02.07 2.29 1.6 2.8 2.9l42.94 109.72c.31.8.43 1.67.33 2.52-.09.86-.4 1.67-.88 2.38-.48.72-1.13 1.3-1.89 1.7-.75.4-1.6.61-2.45.61z" fill="#000"/><path d="m616.076 1709.67c32.048 3.9 61.168-18.76 65.043-50.61 3.874-31.86-18.965-60.84-51.012-64.74s-61.168 18.76-65.042 50.61c-3.875 31.85 18.964 60.84 51.011 64.74z" fill="#fff"/><path d="m615.358 1715.57c-12.652-1.54-24.566-6.77-34.236-15.04-9.669-8.26-16.66-19.19-20.089-31.4-3.428-12.21-3.14-25.14.828-37.18 3.969-12.03 11.439-22.62 21.467-30.42s22.162-12.47 34.869-13.41c12.708-.95 25.416 1.88 36.52 8.11 11.103 6.24 20.102 15.6 25.859 26.91 5.757 11.32 8.014 24.06 6.484 36.64-2.07 16.85-10.781 32.19-24.223 42.65s-30.517 15.19-47.479 13.14zm14.031-115.35c-10.302-1.25-20.741.56-29.998 5.21-9.258 4.64-16.917 11.92-22.01 20.89-5.093 8.98-7.391 19.27-6.603 29.56.789 10.28 4.627 20.11 11.031 28.24 6.403 8.12 15.084 14.18 24.945 17.41s20.458 3.48 30.452.72 18.936-8.41 25.695-16.22c6.759-7.82 11.031-17.46 12.276-27.7 1.654-13.72-2.238-27.55-10.822-38.45-8.584-10.89-21.159-17.96-34.966-19.66z" fill="#000"/><path d="m662.499 1840.17c32.048 3.9 61.168-18.76 65.042-50.61 3.875-31.85-18.964-60.84-51.011-64.74-32.048-3.9-61.168 18.76-65.042 50.61-3.875 31.85 18.964 60.84 51.011 64.74z" fill="#fff"/><path d="m661.781 1846.07c-12.652-1.54-24.566-6.77-34.236-15.04-9.67-8.26-16.661-19.19-20.089-31.4-3.428-12.2-3.14-25.14.828-37.18 3.969-12.03 11.439-22.62 21.467-30.42s22.162-12.47 34.869-13.41c12.707-.95 25.416 1.88 36.519 8.11 11.104 6.24 20.103 15.6 25.86 26.92 5.757 11.31 8.013 24.06 6.484 36.63-2.07 16.85-10.781 32.19-24.223 42.65s-30.517 15.19-47.479 13.14zm14.031-115.34c-10.302-1.26-20.741.55-29.999 5.2-9.257 4.64-16.916 11.92-22.009 20.9s-7.391 19.26-6.603 29.55c.788 10.28 4.627 20.11 11.031 28.24 6.403 8.12 15.084 14.19 24.945 17.41 9.861 3.23 20.458 3.48 30.452.72s18.936-8.41 25.695-16.22c6.758-7.82 11.031-17.46 12.276-27.7 1.654-13.72-2.238-27.55-10.822-38.44-8.584-10.9-21.159-17.97-34.966-19.66z" fill="#000"/><path d="m546.266 1829.22c32.047 3.9 61.168-18.76 65.042-50.61 3.875-31.85-18.964-60.84-51.012-64.74-32.047-3.9-61.167 18.76-65.042 50.61-3.874 31.86 18.965 60.84 51.012 64.74z" fill="#fff"/><path d="m545.547 1835.13c-12.651-1.54-24.565-6.78-34.235-15.05-9.67-8.26-16.661-19.19-20.089-31.4-3.429-12.2-3.141-25.14.828-37.17 3.968-12.04 11.439-22.62 21.467-30.43 10.027-7.8 22.162-12.47 34.869-13.41s25.416 1.88 36.519 8.12c11.103 6.23 20.103 15.6 25.86 26.91s8.013 24.06 6.483 36.63c-2.069 16.86-10.781 32.2-24.223 42.66-13.442 10.45-30.517 15.18-47.479 13.14zm14.032-115.35c-10.302-1.26-20.742.55-29.999 5.2-9.257 4.64-16.917 11.92-22.01 20.9s-7.39 19.26-6.602 29.55c.788 10.28 4.627 20.11 11.03 28.24 6.404 8.13 15.085 14.19 24.946 17.41 9.86 3.23 20.458 3.48 30.452.72s18.935-8.4 25.694-16.22 11.031-17.46 12.277-27.69c1.654-13.73-2.238-27.56-10.822-38.45-8.584-10.9-21.159-17.97-34.966-19.66z" fill="#000"/><path d="m650.473 1968.75c32.047 3.9 61.168-18.76 65.042-50.61 3.875-31.85-18.964-60.84-51.012-64.74-32.047-3.9-61.167 18.76-65.042 50.61-3.874 31.86 18.965 60.84 51.012 64.74z" fill="#fff"/><path d="m649.754 1974.66c-12.651-1.54-24.565-6.78-34.235-15.04-9.67-8.27-16.661-19.2-20.089-31.41-3.429-12.2-3.141-25.14.828-37.17 3.968-12.04 11.439-22.62 21.467-30.43 10.027-7.8 22.162-12.47 34.869-13.41s25.416 1.88 36.519 8.12c11.103 6.23 20.103 15.6 25.86 26.91s8.013 24.06 6.484 36.63c-2.07 16.86-10.781 32.2-24.223 42.66-13.443 10.46-30.518 15.18-47.48 13.14zm14.032-115.35c-10.302-1.26-20.742.55-29.999 5.2s-16.917 11.92-22.01 20.9-7.39 19.26-6.602 29.55 4.627 20.11 11.03 28.24c6.404 8.13 15.085 14.19 24.946 17.41 9.86 3.23 20.458 3.48 30.452.72s18.935-8.4 25.694-16.22 11.031-17.45 12.277-27.69c1.654-13.73-2.238-27.56-10.822-38.45-8.584-10.9-21.159-17.97-34.966-19.66z" fill="#000"/><path d="m534.065 1957.58c32.047 3.9 61.168-18.76 65.042-50.61s-18.964-60.84-51.012-64.74c-32.047-3.9-61.167 18.76-65.042 50.61-3.874 31.86 18.964 60.84 51.012 64.74z" fill="#fff"/><path d="m533.345 1963.49c-12.652-1.54-24.566-6.78-34.235-15.04-9.67-8.27-16.661-19.2-20.09-31.41-3.428-12.2-3.14-25.14.829-37.17 3.968-12.04 11.439-22.62 21.466-30.43 10.028-7.8 22.163-12.47 34.87-13.41s25.416 1.88 36.519 8.12c11.103 6.23 20.102 15.6 25.86 26.91 5.757 11.31 8.013 24.06 6.483 36.63-2.069 16.86-10.781 32.2-24.223 42.66s-30.517 15.18-47.479 13.14zm14.031-115.35c-10.301-1.26-20.741.55-29.998 5.2-9.258 4.65-16.917 11.92-22.01 20.9s-7.39 19.26-6.602 29.55 4.627 20.11 11.03 28.24c6.404 8.13 15.085 14.19 24.945 17.41 9.861 3.23 20.458 3.48 30.452.72s18.936-8.4 25.695-16.22 11.031-17.45 12.277-27.69c1.654-13.73-2.238-27.56-10.822-38.45-8.584-10.9-21.159-17.97-34.967-19.66z" fill="#000"/><path d="m539.767 2536.79c-1.549-.19-2.963-.97-3.943-2.18-.979-1.21-1.446-2.74-1.3-4.29l80.104-851.66c.073-.78.3-1.53.667-2.22s.867-1.31 1.472-1.8c1.223-1.01 2.798-1.49 4.379-1.34s3.039.91 4.053 2.13 1.5 2.78 1.353 4.36l-80.105 851.66c-.073.78-.3 1.53-.667 2.22s-.868 1.3-1.473 1.8-1.303.87-2.054 1.1-1.541.31-2.323.24z" fill="#000"/><path d="m202.096 2215.19-40.936-73.38c-4.762-8.58-1.687-19.41 6.868-24.19 1.062-.59 2.183-1.07 3.344-1.44 7.849-2.41 16.321.9 20.477 8.01l18.952 32.44-.443-47.81c-.05-8.84 7.054-16.05 15.867-16.1h.088c8.549-.01 15.586 6.75 15.956 15.32l1.986 51.58 16.115-24.78c4.597-7 13.799-9.26 21.098-5.18l2.109 1.2c7.608 4.34 10.304 14.02 6.046 21.7l-35.387 62.63" fill="#fff"/><path d="m202.101 2220.52c-1.863 0-3.672-.98-4.647-2.73l-40.935-73.37c-3-5.41-3.722-11.65-2.034-17.59 1.686-5.94 5.578-10.87 10.957-13.87 1.379-.77 2.842-1.4 4.347-1.87 10.275-3.15 21.221 1.12 26.646 10.4l8.861 15.17-.257-27.79c-.064-11.79 9.426-21.42 21.155-21.48h.02c11.54 0 20.872 8.96 21.368 20.41l1.343 34.87 6.99-10.75c6.108-9.3 18.463-12.33 28.143-6.92l2.127 1.21c10.121 5.78 13.736 18.76 8.083 28.94l-35.405 62.67c-1.448 2.56-4.694 3.46-7.249 2.01-2.555-1.46-3.452-4.71-2.003-7.28l35.386-62.62c2.807-5.06.998-11.55-4.049-14.44l-2.087-1.18c-4.82-2.69-10.999-1.18-14.046 3.46l-16.103 24.76c-1.266 1.95-3.64 2.85-5.872 2.23s-3.808-2.62-3.897-4.94l-1.985-51.58c-.25-5.7-4.917-10.18-10.629-10.18-.003 0-.007 0-.01 0-5.929.03-10.675 4.84-10.643 10.73l.443 47.79c.023 2.42-1.578 4.55-3.902 5.19-2.322.64-4.787-.36-6.006-2.44l-18.952-32.45c-2.92-4.99-8.813-7.29-14.332-5.6-.784.25-1.571.59-2.314 1-2.895 1.62-4.991 4.27-5.898 7.47-.908 3.2-.52 6.56 1.092 9.47l40.93 73.36c1.434 2.57.52 5.82-2.042 7.26-.823.46-1.715.68-2.594.68z" fill="#000"/><path d="m3854.31 2215.6-38.01-67.73c-4.42-7.93-1.57-17.92 6.38-22.33.98-.55 2.03-1 3.1-1.33 7.29-2.23 15.16.83 19.02 7.39l17.6 29.94-.42-44.13c-.04-8.16 6.55-14.81 14.74-14.86h.08c7.94-.01 14.47 6.23 14.82 14.14l1.84 47.61 14.96-22.87c4.27-6.46 12.82-8.55 19.6-4.78l1.95 1.1c7.07 4.01 9.57 12.95 5.62 20.03l-32.86 57.82" fill="#fff"/><path d="m3854.32 2220.52c-1.73 0-3.41-.91-4.32-2.52l-38.01-67.73c-2.79-4.99-3.46-10.75-1.89-16.23 1.57-5.49 5.18-10.03 10.18-12.81 1.28-.71 2.63-1.29 4.03-1.72 9.54-2.91 19.71 1.04 24.75 9.59l8.22 14.01-.24-25.65c-.05-10.89 8.76-19.77 19.65-19.83h.02c10.71 0 19.38 8.27 19.84 18.85l1.25 32.18 6.49-9.92c5.67-8.59 17.14-11.39 26.13-6.39l1.97 1.11c9.4 5.34 12.76 17.32 7.51 26.72l-32.88 57.85c-1.34 2.36-4.35 3.19-6.73 1.85-2.37-1.34-3.2-4.35-1.86-6.71l32.86-57.81c2.61-4.67.93-10.66-3.76-13.33l-1.94-1.08c-4.47-2.49-10.21-1.1-13.04 3.19l-14.95 22.85c-1.18 1.8-3.38 2.63-5.45 2.06-2.08-.57-3.54-2.42-3.62-4.56l-1.85-47.61c-.23-5.26-4.56-9.4-9.87-9.4 0 0 0 0-.01 0-5.5.03-9.91 4.47-9.88 9.9l.41 44.12c.02 2.23-1.46 4.2-3.62 4.79s-4.44-.33-5.58-2.26l-17.6-29.94c-2.71-4.61-8.18-6.74-13.3-5.17-.73.22-1.46.54-2.15.92-2.69 1.49-4.64 3.94-5.48 6.89-.84 2.96-.48 6.06 1.02 8.74l38 67.72c1.33 2.37.48 5.38-1.89 6.7-.77.43-1.6.63-2.41.63z" fill="#000"/><path d="m3398.09 1421.7h-18.41c-8.41 0-15.23 6.82-15.23 15.23 0 2.37.55 4.7 1.61 6.82l22.83 45.68 22.83-45.68c3.76-7.52.72-16.67-6.8-20.44-2.12-1.06-4.46-1.61-6.83-1.61z" fill="#b4baeb"/><path d="m3321.17 1480.22v18.41c-.01 8.41 6.8 15.24 15.21 15.24 2.37.01 4.71-.54 6.83-1.61l45.68-22.83-45.68-22.85c-7.53-3.75-16.68-.69-20.44 6.84-1.05 2.11-1.6 4.44-1.6 6.8z" fill="#b4baeb"/><path d="m179.201 1337.35-.394-18.35c-.182-8.38 6.612-15.32 15.178-15.5 2.412-.05 4.802.45 6.982 1.46l47.013 21.79-46.021 23.72c-7.589 3.91-16.979 1.06-20.975-6.37-1.12-2.08-1.729-4.39-1.783-6.75z" fill="#fff"/><path d="m194.752 1356.85c-2.018 0-4.045-.3-6.028-.9-5.167-1.57-9.401-5.01-11.919-9.7-1.454-2.7-2.259-5.74-2.326-8.79v-.01l-.394-18.35c-.115-5.29 1.88-10.3 5.619-14.12 3.741-3.82 8.776-5.99 14.18-6.1 3.147-.07 6.281.59 9.109 1.91l47.01 21.78c1.618.75 2.663 2.33 2.701 4.08s-.938 3.38-2.523 4.19l-46.019 23.72c-2.951 1.52-6.168 2.29-9.41 2.29zm-10.825-19.59c.036 1.63.464 3.25 1.241 4.69 1.345 2.5 3.602 4.33 6.358 5.17 2.758.84 5.681.57 8.236-.74l37.657-19.41-38.473-17.83c-1.509-.7-3.169-1.05-4.859-1.02-2.881.06-5.564 1.22-7.558 3.25-1.994 2.04-3.057 4.71-2.996 7.53z" fill="#000"/><path d="m237.194 1259.44 18.758-.38c8.575-.15 15.65 6.53 15.801 14.92.043 2.33-.466 4.65-1.485 6.76l-22.286 46.01-24.239-45.07c-3.976-7.44-1.041-16.62 6.558-20.51 2.131-1.09 4.489-1.68 6.893-1.73z" fill="#fff"/><path d="m247.981 1331.38c-1.751 0-3.362-.95-4.18-2.47l-24.238-45.08c-5.184-9.69-1.347-21.69 8.549-26.76 2.76-1.41 5.868-2.19 8.983-2.25l18.758-.39c11.182-.18 20.427 8.54 20.626 19.47.055 3.03-.616 6.08-1.937 8.81l-22.291 46.02c-.767 1.58-2.381 2.61-4.17 2.64-.033.01-.067.01-.1.01zm8.248-67.7c-.064 0-.129 0-.193 0l-18.742.38c-.002 0-.004 0-.005 0-1.663.04-3.32.45-4.794 1.21-5.28 2.7-7.326 9.1-4.563 14.26l19.832 36.88 18.237-37.65c.702-1.46 1.06-3.08 1.031-4.7-.107-5.76-4.934-10.38-10.803-10.38zm-19.036-4.24h.016z" fill="#000"/><path d="m606.545 441.957h-17.727c-8.098-.001-14.663 6.562-14.664 14.661 0 2.281.531 4.53 1.55 6.568l21.985 43.99 21.982-43.99c3.626-7.241.696-16.051-6.544-19.677-2.044-1.023-4.297-1.555-6.582-1.552z" fill="#b4baeb"/><path d="m532.481 498.304v17.73c-.01 8.098 6.546 14.672 14.643 14.681 2.285.003 4.54-.528 6.582-1.551l43.983-21.988-43.983-22.002c-7.253-3.618-16.066-.669-19.683 6.586-1.014 2.032-1.542 4.272-1.542 6.544z" fill="#b4baeb"/><path d="m2976.57 1405.28c-55.55 48.03-138.11 14.16-225.52-21.71-55.92-22.95-113.74-46.68-171-53.78-62.95-7.8-114.88 6.84-158.73 44.75-3.25 2.82-7.45 4.28-11.74 4.09-4.43-.19 6.22-13.55 3.09-17.17-3.77-4.36-19.88 1.28-18.46-3.91.88-3.23 2.7-6.12 5.24-8.3 51.47-44.51 111.95-61.76 184.88-52.71 61.7 7.64 124.32 33.34 179.58 56.02 80.97 33.22 150.9 61.92 190.79 27.42 14.02-12.12 21.89-28.09 24.78-50.26.28-2.19 1-4.29 2.09-6.21 1.1-1.91 2.56-3.59 4.31-4.94 1.74-1.35 3.74-2.34 5.86-2.93 2.13-.58 4.35-.74 6.53-.46 2.18.27 4.29.97 6.2 2.06s3.58 2.54 4.92 4.28c1.35 1.74 2.33 3.73 2.91 5.85.57 2.12.72 4.34.43 6.52-3.96 30.43-15.79 53.78-36.16 71.39z" fill="#0618bb"/></g></svg>