<svg width="200" height="200" viewBox="0 0 200 200" fill="none" xmlns="http://www.w3.org/2000/svg">
<path d="M15.4876 77.5287L16.5124 88.4712L53.5 108.513V147.5L81.5 132.5L82.1327 124.907L137.506 156.612L183.996 129.966L185.004 120.034L137.494 147.388L15.4876 77.5287Z" fill="#E5DBD0"/>
<path fill-rule="evenodd" clip-rule="evenodd" d="M63.4973 48.7637L185.5 119.637V131.868L180.5 134.741V171C180.5 172.769 179.151 173.814 177.969 174.339C176.735 174.888 175.199 175.125 173.75 175.125C172.301 175.125 170.765 174.888 169.531 174.339C168.349 173.814 167 172.769 167 171V142.496L144 155.709V193C144 194.769 142.651 195.814 141.469 196.339C140.235 196.888 138.699 197.125 137.25 197.125C135.801 197.125 134.265 196.888 133.031 196.339C131.849 195.814 130.5 194.769 130.5 193V155.983L83 128.586V133.37L53.4932 150.231L24.5 133.363V94.8457L15 89.3665V77.1398L63.4973 48.7637ZM27.5 96.576V112.374L52 126.183V110.707L27.5 96.576ZM55 112.437V145.915L80 131.63V126.856L55 112.437ZM170 140.772L177.5 136.464V171.001C177.5 171.028 177.5 171.069 177.42 171.161C177.32 171.275 177.115 171.436 176.75 171.598C176.015 171.925 174.926 172.125 173.75 172.125C172.574 172.125 171.485 171.925 170.75 171.598C170.385 171.436 170.18 171.275 170.08 171.161C170 171.069 170 171.027 170 171V140.772ZM136.999 159.731L141 157.432V193.001C141 193.028 141 193.069 140.92 193.161C140.82 193.275 140.615 193.436 140.25 193.598C139.515 193.925 138.426 194.125 137.25 194.125C136.074 194.125 134.985 193.925 134.25 193.598C133.885 193.436 133.68 193.275 133.58 193.161C133.5 193.069 133.5 193.027 133.5 193V157.713L136.999 159.731ZM63.5027 52.2363L18 78.8602V87.6335L137.001 156.269L182.5 130.132V121.363L63.5027 52.2363ZM52 129.626V145.892L27.5 131.637V115.817L52 129.626Z" fill="black"/>
<path fill-rule="evenodd" clip-rule="evenodd" d="M135 57.2C135 55.4327 133.567 54 131.8 54H108.2C106.433 54 105 55.4327 105 57.2V81.277C105 82.2909 105.481 83.2448 106.295 83.8483L118.095 90.5891C119.227 91.4272 120.773 91.4272 121.905 90.5891L133.705 83.8483C134.519 83.2448 135 82.2909 135 81.277V57.2ZM114.983 70.3254L111.473 67.776C110.577 67.1243 111.037 65.7062 112.146 65.7062H116.483C116.979 65.7062 117.418 65.3867 117.57 64.9157L118.911 60.791C119.255 59.7363 120.745 59.7363 121.088 60.791L122.428 64.9157C122.58 65.3867 123.021 65.7062 123.516 65.7062H127.854C128.963 65.7062 129.422 67.1243 128.526 67.776L125.018 70.3254C124.616 70.6165 124.448 71.1329 124.602 71.6039L125.942 75.73C126.284 76.784 125.078 77.6602 124.181 77.0093L120.672 74.4599C120.271 74.1681 119.729 74.1681 119.328 74.4599L115.818 77.0093C114.922 77.6603 113.715 76.784 114.058 75.73L115.398 71.6039C115.551 71.1329 115.384 70.6165 114.983 70.3254Z" fill="#0618BB"/>
</svg>
