<?xml version="1.0" encoding="UTF-8" standalone="no"?>
<!-- Created with Keyshape -->
<svg xmlns="http://www.w3.org/2000/svg" width="200" height="200" viewBox="0 0 200 200" fill="none">
    <style>
@keyframes a0_t { 0% { transform: translate(0px,-2.001698px); animation-timing-function: cubic-bezier(0.42,0,0.58,1); } 50% { transform: translate(0px,-40px); animation-timing-function: cubic-bezier(0.42,0,0.58,1); } 100% { transform: translate(0px,-2.001698px); } }
    </style>
    <path d="M15.4876,77.5287L16.5124,88.4712L53.5,108.513L53.5,147.5L81.5,132.5L82.1327,124.907L137.506,156.612L183.996,129.966L185.004,120.034L137.494,147.388L15.4876,77.5287Z" fill="#E5DBD0" transform="translate(100.246,117.07) translate(-100.246,-117.07)"/>
    <path fill-rule="evenodd" clip-rule="evenodd" d="M63.4973,48.7637L185.5,119.637L185.5,131.868L180.5,134.741L180.5,171C180.5,172.769,179.151,173.814,177.969,174.339C176.735,174.888,175.199,175.125,173.75,175.125C172.301,175.125,170.765,174.888,169.531,174.339C168.349,173.814,167,172.769,167,171L167,142.496L144,155.709L144,193C144,194.769,142.651,195.814,141.469,196.339C140.235,196.888,138.699,197.125,137.25,197.125C135.801,197.125,134.265,196.888,133.031,196.339C131.849,195.814,130.5,194.769,130.5,193L130.5,155.983L83,128.586L83,133.37L53.4932,150.231L24.5,133.363L24.5,94.8457L15,89.3665L15,77.1398L63.4973,48.7637ZM27.5,96.576L27.5,112.374L52,126.183L52,110.707L27.5,96.576ZM55,112.437L55,145.915L80,131.63L80,126.856L55,112.437ZM170,140.772L177.5,136.464L177.5,171.001C177.5,171.028,177.5,171.069,177.42,171.161C177.32,171.275,177.115,171.436,176.75,171.598C176.015,171.925,174.926,172.125,173.75,172.125C172.574,172.125,171.485,171.925,170.75,171.598C170.385,171.436,170.18,171.275,170.08,171.161C170,171.069,170,171.027,170,171L170,140.772ZM136.999,159.731L141,157.432L141,193.001C141,193.028,141,193.069,140.92,193.161C140.82,193.275,140.615,193.436,140.25,193.598C139.515,193.925,138.426,194.125,137.25,194.125C136.074,194.125,134.985,193.925,134.25,193.598C133.885,193.436,133.68,193.275,133.58,193.161C133.5,193.069,133.5,193.027,133.5,193L133.5,157.713L136.999,159.731ZM63.5027,52.2363L18,78.8602L18,87.6335L137.001,156.269L182.5,130.132L182.5,121.363L63.5027,52.2363ZM52,129.626L52,145.892L27.5,131.637L27.5,115.817L52,129.626Z" fill="black" transform="translate(100.25,122.944) translate(-100.25,-122.944)"/>
    <path fill-rule="evenodd" clip-rule="evenodd" d="M139.319,52.7631C139.319,50.4869,137.474,48.6417,135.198,48.6417L104.802,48.6417C102.526,48.6417,100.681,50.4869,100.681,52.7631L100.681,83.773C100.681,85.0788,101.3,86.3074,102.349,87.0846L117.546,95.7664C119.004,96.8459,120.996,96.8459,122.454,95.7664L137.651,87.0846C138.7,86.3074,139.319,85.0788,139.319,83.773L139.319,52.7631ZM113.538,69.6679L109.018,66.3844C107.864,65.5451,108.456,63.7186,109.884,63.7186L115.47,63.7186C116.109,63.7186,116.675,63.3071,116.87,62.7005L118.597,57.3881C119.04,56.0297,120.96,56.0297,121.401,57.3881L123.127,62.7005C123.323,63.3071,123.891,63.7186,124.528,63.7186L130.116,63.7186C131.544,63.7186,132.135,65.5451,130.981,66.3844L126.463,69.6679C125.945,70.0428,125.729,70.7079,125.927,71.3145L127.653,76.6287C128.093,77.9862,126.54,79.1147,125.385,78.2764L120.865,74.9929C120.349,74.6171,119.651,74.6171,119.135,74.9929L114.614,78.2764C113.46,79.1148,111.905,77.9862,112.347,76.6287L114.073,71.3145C114.27,70.7079,114.055,70.0428,113.538,69.6679Z" fill="#0618BB" transform="translate(120,70.6071) translate(-120,-72.6088)" style="animation: 1s linear infinite both a0_t;"/>
</svg>
