<svg width="24" height="24" viewBox="0 0 24 24" fill="none" xmlns="http://www.w3.org/2000/svg">
<path fill-rule="evenodd" clip-rule="evenodd" d="M2 3C0.89543 3 0 3.89543 0 5V19C0 20.1046 0.895431 21 2 21H16.3259C16.9596 21 17.5558 20.6997 17.933 20.1905L23.1182 13.1905C23.642 12.4833 23.642 11.5167 23.1182 10.8095L17.933 3.80954C17.5558 3.30033 16.9596 3 16.3259 3H2ZM7.41589 12.46L5.28717 10.9135C4.74362 10.5182 5.02265 9.65794 5.69512 9.65794H8.32609C8.62688 9.65794 8.89328 9.46415 8.98567 9.1784L9.79906 6.67635C10.0075 6.03654 10.9115 6.03654 11.1195 6.67635L11.9325 9.1784C12.0248 9.46415 12.2921 9.65794 12.5925 9.65794H15.2239C15.8963 9.65794 16.1752 10.5182 15.6317 10.9135L13.5034 12.46C13.2597 12.6366 13.1579 12.9498 13.2511 13.2356L14.0641 15.7385C14.2717 16.3779 13.5399 16.9094 12.9959 16.5145L10.8672 14.968C10.624 14.791 10.2948 14.791 10.0516 14.968L7.92292 16.5145C7.37894 16.9094 6.64719 16.3779 6.85472 15.7385L7.66812 13.2356C7.76093 12.9498 7.65909 12.6366 7.41589 12.46Z" fill="#0618BB"/>
</svg>
