<svg width="100" height="100" viewBox="0 0 100 100" fill="none" xmlns="http://www.w3.org/2000/svg">
<path d="M44.9205 46.9857L46.3005 45.7431L46.9905 45.1151L47.163 44.9561L47.3894 44.7297C47.5566 44.5733 47.7075 44.4008 47.845 44.2202C49.5942 41.9831 49.5295 38.8269 47.6886 36.6654C45.8477 34.5038 42.7427 33.9351 40.2553 35.3043C40.0612 35.4148 39.8752 35.5388 39.6973 35.6627C39.5167 35.7867 39.3173 35.9538 39.2149 36.0482L38.5249 36.6492L37.1799 37.8379L34.6329 40.1423C31.3688 43.1503 28.6358 45.7594 26.9242 47.6351C26.8056 47.7671 26.9943 48.193 27.3393 48.5811C27.6843 48.9665 27.9888 49.1256 28.1182 49.0366C30.2502 47.6566 33.2932 45.3871 36.7701 42.6461L39.4627 40.5222L40.8427 39.3982L41.5327 38.8268C41.6567 38.7244 41.6917 38.7163 41.7672 38.6462L41.9882 38.5142C42.6054 38.1988 43.3331 38.1772 43.9692 38.4522C44.5999 38.7325 45.0717 39.285 45.2522 39.9562C45.4274 40.6273 45.2846 41.3415 44.8641 41.8941C44.8183 41.9642 44.7617 42.0289 44.6997 42.0882L44.5973 42.1987L44.4248 42.3577L43.7348 42.9992L42.3952 44.2768C40.6217 45.9667 38.9452 47.6244 37.3523 49.1823L36.4817 50.0528C36.3173 50.8938 36.8348 48.1823 36.1151 51.9369V51.9773L36.1556 52.0528L36.2391 52.2118V52.2091C36.4467 52.6215 36.6299 53.042 36.7917 53.4732C37.1016 54.2818 37.3334 55.1173 37.4817 55.9691C37.7027 57.3787 37.7188 58.8099 37.5302 60.2196C37.5302 60.384 37.9156 60.6401 38.4331 60.7721C38.9506 60.9042 39.2956 60.8611 39.3657 60.7021V60.7048C39.956 59.1307 40.2228 57.4542 40.1527 55.7778C40.1204 54.7077 39.9667 53.6458 39.6972 52.6108C39.6217 52.3359 39.5382 52.0529 39.4492 51.7753L39.6083 51.6378C41.3117 50.1877 43.0933 48.6217 44.9207 46.9857L44.9205 46.9857Z" fill="black"/>
<path d="M38.2343 33.4548C40.5172 32.6839 42.3177 30.8996 43.1128 28.6248C43.42 27.7973 43.4847 26.8998 43.2987 26.0373C42.9888 25.8971 42.6627 25.8001 42.3257 25.7489C42.0427 25.6707 41.7516 25.6249 41.4578 25.6087C40.9888 26.0723 40.5522 26.5682 40.1533 27.0938C39.6547 27.7218 39.1264 28.3256 38.5658 28.9023C37.9917 29.4657 37.3879 29.9993 36.7572 30.5034C36.2181 30.9077 35.7088 31.3497 35.2344 31.8268C35.2532 32.1556 35.3045 32.4817 35.3934 32.7998C35.4392 33.0828 35.5255 33.355 35.6468 33.6138C36.5066 33.8106 37.4068 33.754 38.2343 33.4548L38.2343 33.4548Z" fill="black"/>
<path d="M74.7237 39.9131C73.9177 39.7838 73.093 39.8889 72.3491 40.2177C70.3034 41.0614 68.7427 42.7729 68.0905 44.8887C67.8263 45.6622 67.794 46.4978 67.9962 47.2902C68.3061 47.425 68.6322 47.5193 68.9692 47.5732C69.2522 47.6514 69.5433 47.6999 69.8371 47.7188C70.6457 47.0288 71.4731 45.7458 72.4947 44.6353C73.5162 43.5248 74.6887 42.5653 75.3032 41.6678C75.2466 41.3389 75.1576 41.0182 75.039 40.7082C74.969 40.4306 74.8638 40.1638 74.7237 39.9132L74.7237 39.9131Z" fill="black"/>
<path d="M72.4989 28.6599C71.472 27.5548 70.6284 26.28 69.8144 25.5819C69.4829 25.6089 69.1568 25.6655 68.836 25.7544C68.5557 25.8029 68.2808 25.8865 68.022 26.0024C67.8145 26.7921 67.8414 27.625 68.0975 28.3986C68.7417 30.5144 70.2969 32.234 72.3399 33.083C73.0838 33.4146 73.9085 33.5251 74.7144 33.4011C74.8789 33.1046 75.0055 32.7892 75.0945 32.4631C75.2077 32.1828 75.2885 31.889 75.3425 31.5925C74.701 30.73 73.5069 29.7786 72.4989 28.66L72.4989 28.6599Z" fill="black"/>
<path d="M63.7321 35.7111C63.7078 36.0426 63.7078 36.3741 63.7321 36.7056C63.7105 36.9913 63.7105 37.277 63.7321 37.56C64.8641 38.8511 68.2872 38.8565 69.4165 37.56C69.438 37.2231 69.438 36.8835 69.4165 36.5466C69.438 36.2528 69.438 35.9563 69.4165 35.6625C68.2925 34.4146 64.8695 34.4227 63.7321 35.7111V35.7111Z" fill="black"/>
<path d="M83.6229 22.1534C83.5205 20.6468 82.6634 19.2937 81.3453 18.5579C80.6931 18.1995 79.9653 18.0081 79.2215 18H70.3053L60.2865 18.0404L41.3653 18.221L32.7886 18.3531V18.3504C32.3816 18.3477 31.9746 18.3666 31.5676 18.407C29.972 18.6415 28.6702 19.8058 28.2578 21.3665C28.1904 21.6117 28.15 21.8597 28.1311 22.1131V23.6575L28.1715 25.5199C28.2174 27.4848 28.2686 29.3392 28.3225 31.0804C27.5301 31.6814 26.619 32.4253 25.6029 33.2959L23.7539 34.9103C23.4305 35.2068 23.1178 35.4764 22.7593 35.8133L22.7647 35.816C22.3847 36.1718 22.0262 36.5518 21.6947 36.9534C20.2338 38.7134 19.2527 40.8212 18.8511 43.0744C18.7433 43.6674 18.6759 44.2658 18.6517 44.8668V46.5164V49.7184C18.6517 57.7155 18.9428 65.7126 19.5007 70.2052L17.6113 70.2752L17.4577 70.2725C17.0507 70.2941 16.668 70.4774 16.393 70.782C16.1208 71.0865 15.9806 71.4854 16.0022 71.8951C16.1612 76.089 16.3876 79.4851 16.6922 81.7897C16.6922 81.9703 17.1612 82.1078 17.6867 82.0943C18.2123 82.0808 18.5223 81.9488 18.5412 81.7897C18.7891 79.7817 18.9967 76.9597 19.1476 73.5504C27.9237 73.8604 39.2411 73.8685 48.0386 73.5504C48.1895 76.9385 48.3917 79.7604 48.6396 81.7601C48.6396 81.946 49.1221 82.0835 49.6531 82.07C50.1841 82.0592 50.5022 81.9487 50.5022 81.7897C50.7933 79.4502 51.0116 76.0433 51.1922 71.9034C51.2245 71.0463 50.5561 70.3294 49.7016 70.2943H49.5776L46.5697 70.1919C46.6963 69.6933 46.7961 69.1893 46.8661 68.6798C47.1411 68.5208 47.4106 68.3429 47.6801 68.1489C48.3324 67.6691 48.9308 67.1192 49.459 66.5074C50.4967 65.3269 51.2541 63.9307 51.6827 62.4213C52.0277 61.3189 52.0816 60.1491 51.8417 59.0198C51.5264 58.8877 51.1894 58.8123 50.8471 58.7988C50.5534 58.753 50.2569 58.753 49.9631 58.7988C49.1896 60.0197 48.1896 62.2488 46.5886 64.0439C46.2005 64.4913 45.7881 64.9198 45.3541 65.3269C45.1412 65.5209 44.9256 65.7204 44.7126 65.8983L44.5536 66.0357L44.4701 66.1058H44.4296L43.6022 67.5828L43.6561 68.0599C43.7423 68.758 43.8771 69.448 44.0577 70.1299C36.8534 69.9655 28.6079 69.9844 21.5706 70.1784C22.1285 65.6719 22.4116 57.7177 22.4116 49.7613V45.0122C22.417 44.5729 22.452 44.1309 22.5167 43.6942C22.7458 42.0123 23.3711 40.4059 24.336 39.0097C24.5624 38.6835 24.8077 38.3709 25.0691 38.0717L25.9316 37.0987L27.5461 35.2497L28.422 34.1796C28.4706 35.5596 28.5245 36.8641 28.5811 38.0501C28.6053 38.2954 28.7266 38.5191 28.9153 38.6727C29.1067 38.8263 29.3519 38.8991 29.5945 38.8722C30.0581 38.8695 30.4462 38.5191 30.4921 38.0582C30.6511 34.6701 30.7885 30.4275 30.9125 25.5409L30.953 23.6784V22.3604H30.9557C31.0015 22.0073 31.2171 21.6973 31.5351 21.5329C31.8316 21.3955 31.8882 21.4009 32.7426 21.4224L41.3193 21.5545L60.2805 21.7593H79.1852C79.2957 21.762 79.4035 21.789 79.5032 21.8429C79.6946 21.9534 79.8186 22.1529 79.8401 22.3739V24.797V29.8749L79.8886 39.8937L79.9641 49.5944V50.775C79.9722 51.1685 79.7054 51.5162 79.3226 51.6105C79.2472 51.6159 79.1717 51.6159 79.0962 51.6105H75.1368C63.2343 51.7749 53.0568 52.0175 46.2672 52.3355L46.2645 52.3328C46.0273 52.3571 45.8063 52.4757 45.6581 52.6644C45.5071 52.8503 45.437 53.0902 45.464 53.3274C45.4775 53.7748 45.8198 54.1414 46.2645 54.1818C53.0405 54.5053 63.2316 54.7479 75.1341 54.9069H79.0962C79.4035 54.9096 79.7108 54.8826 80.0126 54.826C82.0072 54.4217 83.4465 52.6779 83.4626 50.6429V49.4624L83.5381 39.7617L83.6217 29.9078L83.6229 22.1534Z" fill="black"/>
<path d="M70.7691 65.4997L71.5427 65.7477H71.54C71.9658 65.8852 72.4105 65.9606 72.858 65.9687C73.7178 65.9741 74.5587 65.7181 75.2676 65.2302C75.9118 64.799 76.4159 64.1898 76.7231 63.4782C76.7878 63.3219 76.8417 63.1629 76.8875 63.0012L76.963 62.6831L77.0951 62.0686V62.0713C77.2433 61.3867 77.3511 60.6967 77.4131 60.0013C77.4131 59.9177 77.0061 59.7048 76.5102 59.5242C76.0142 59.3436 75.6827 59.2897 75.6342 59.3517C75.2272 59.9285 74.858 60.5295 74.5291 61.1522L74.2326 61.7101L74.0817 62.0012C74.0521 62.0497 74.0197 62.0955 73.9847 62.1387C73.8607 62.2734 73.7071 62.3759 73.5346 62.4352C73.3701 62.481 73.1976 62.481 73.0305 62.4352C72.9497 62.4136 72.8715 62.3839 72.796 62.3462L72.0441 62.0362C71.0306 61.6212 69.9741 61.2223 68.9256 60.8368C64.6967 59.2924 60.3489 58.0768 58.0229 57.8909C57.9394 57.8909 57.7318 58.2844 57.5593 58.7749C57.3868 59.2654 57.3329 59.5754 57.3949 59.6239C59.279 61.0039 63.3974 62.8529 67.6262 64.4C68.6693 64.7963 69.734 65.1682 70.769 65.4998L70.7691 65.4997Z" fill="black"/>
<path d="M55.0903 64.5399C54.7723 64.8849 54.5593 65.1814 54.5863 65.2299C55.4973 66.9765 58.0363 69.7851 60.7262 72.3563L61.7531 73.3077L62.2706 73.7713L62.4162 73.8953L62.6426 74.0813H62.648C62.8043 74.2026 62.966 74.3131 63.1358 74.4128C64.4376 75.1648 66.0386 75.1648 67.3378 74.4128C67.6235 74.2457 67.8876 74.0435 68.1248 73.8144C68.2353 73.7039 68.3458 73.5799 68.4347 73.4694L68.6072 73.2349C68.8283 72.925 69.0358 72.6285 69.2218 72.3455V72.3428C69.5533 71.8522 69.8444 71.3401 70.0977 70.8037C70.0977 70.7417 69.8282 70.3886 69.4077 70.0248C68.9873 69.6582 68.7177 69.4722 68.7177 69.4992V69.5019C68.2002 69.7849 67.7043 70.1083 67.2353 70.4668C66.9604 70.6662 66.6774 70.8953 66.3809 71.1568L66.1599 71.3428L66.0494 71.4048C65.9793 71.4344 65.9092 71.4587 65.8337 71.4748C65.5615 71.5341 65.2758 71.4694 65.0548 71.2942L64.3648 70.6042L63.3568 69.6312C60.5968 67.0652 57.6858 64.7311 55.8855 63.9252C55.7884 63.8498 55.4434 64.1543 55.0904 64.5398L55.0903 64.5399Z" fill="black"/>
<path d="M56.6025 25.2099C56.2656 25.1911 55.926 25.1911 55.589 25.2099C55.2952 25.1938 54.9988 25.1938 54.705 25.2099C54.0608 25.8083 53.7158 26.6574 53.7589 27.536C53.1929 27.6681 52.6512 27.8864 52.1526 28.1829C51.1229 28.7839 50.3225 29.7084 49.875 30.8135C49.6405 31.3849 49.5031 31.9913 49.468 32.6059C49.3602 33.9698 49.8049 35.3174 50.7025 36.347C51.123 36.8241 51.6135 37.2338 52.158 37.5599C53.1121 38.1205 54.1471 38.5248 55.2306 38.754C55.9152 38.8887 56.5783 39.1205 57.1955 39.444C57.6052 39.6596 57.9233 40.0154 58.0931 40.4439C58.2332 40.8751 58.2332 41.3388 58.0931 41.77C57.961 42.212 57.6861 42.5975 57.3141 42.867C56.9045 43.1661 56.4328 43.3683 55.9341 43.4545C55.4652 43.5516 54.98 43.5516 54.511 43.4545C53.697 43.2362 52.9801 42.7511 52.4761 42.0745C52.4141 41.9991 51.9667 42.0745 51.4896 42.309C51.0125 42.5435 50.7996 42.7376 50.7996 42.875C51.247 44.2389 52.2497 45.3493 53.5596 45.9369L53.7321 46.007C53.7132 46.7967 54.0717 47.5487 54.697 48.0285H55.6915C55.9772 48.042 56.2629 48.042 56.5487 48.0285C57.1066 47.6134 57.457 46.972 57.5001 46.2765C58.0661 46.1444 58.6079 45.9288 59.1065 45.635C60.1388 45.0367 60.942 44.1149 61.3921 43.0125C61.6266 42.4438 61.7641 41.84 61.7991 41.2255C61.9069 39.867 61.4676 38.5221 60.5781 37.4925C60.1685 37.0073 59.686 36.5895 59.1496 36.2499C58.1955 35.6893 57.1605 35.285 56.077 35.0559C55.3924 34.9211 54.7294 34.6893 54.1121 34.3659C53.7024 34.1691 53.3736 33.8349 53.1876 33.4198C53.0502 32.9913 53.0502 32.5303 53.1876 32.1018C53.3143 31.6651 53.5838 31.2824 53.9531 31.0129C54.3601 30.711 54.8345 30.5116 55.3331 30.4253C55.7886 30.331 56.2576 30.331 56.7131 30.4253C57.5406 30.6302 58.271 31.1126 58.7831 31.7919C58.8451 31.8673 59.3006 31.7919 59.7911 31.5574C60.2332 31.3633 60.535 31.1153 60.4811 30.9779C60.031 29.6167 59.0283 28.5036 57.7211 27.916L57.5486 27.8459C57.6726 26.8675 57.3195 25.8865 56.6026 25.2099L56.6025 25.2099Z" fill="#001AFF"/>
</svg>
