<svg width="24" height="24" viewBox="0 0 24 24" fill="none" xmlns="http://www.w3.org/2000/svg">
<line x1="4.5" y1="2.5" x2="4.5" y2="6.5" stroke="#0618BB" stroke-linecap="round"/>
<line x1="2.5" y1="4.5" x2="6.5" y2="4.5" stroke="#0618BB" stroke-linecap="round"/>
<line x1="5.5" y1="17.5" x2="5.5" y2="21.5" stroke="#0618BB" stroke-linecap="round"/>
<line x1="3.5" y1="19.5" x2="7.5" y2="19.5" stroke="#0618BB" stroke-linecap="round"/>
<path d="M23.3246 11.1053L18.011 9.62436C17.7021 9.53157 17.4547 9.28454 17.3617 8.97606L15.8786 3.67057C15.6312 2.77648 14.3338 2.77648 14.0864 3.67057L12.6032 8.97606C12.5103 9.28454 12.2629 9.53157 11.954 9.62436L6.67159 11.1053C5.77614 11.3523 5.77614 12.6477 6.67159 12.8947L11.9852 14.3756C12.2941 14.4684 12.5415 14.7155 12.6344 15.0239L14.1176 20.3294C14.365 21.2235 15.6624 21.2235 15.9098 20.3294L17.393 15.0239C17.4859 14.7155 17.7333 14.4684 18.0422 14.3756L23.3558 12.8947C24.2199 12.6164 24.2199 11.3523 23.3244 11.1053H23.3246Z" fill="#0618BB"/>
</svg>
